<svg width="176" height="133" viewBox="0 0 176 133" fill="none" xmlns="http://www.w3.org/2000/svg">
<path opacity="0.45" d="M88.2018 132.614C136.386 132.614 175.447 127.26 175.447 120.655C175.447 114.05 136.386 108.696 88.2018 108.696C40.0178 108.696 0.957031 114.05 0.957031 120.655C0.957031 127.26 40.0178 132.614 88.2018 132.614Z" fill="#E6E6E6"/>
<path opacity="0.58" d="M134.675 109.931C134.675 109.931 127.734 108.061 126.199 101.586C126.199 101.586 136.934 99.3637 137.285 110.491L134.675 109.931Z" fill="#84B739"/>
<path opacity="0.73" d="M135.524 109.239C135.524 109.239 130.648 101.568 134.88 94.3652C134.88 94.3652 143.068 99.5597 139.48 109.239H135.524Z" fill="#84B739"/>
<path d="M136.75 109.239C136.75 109.239 139.274 101.106 147.008 99.5366C147.008 99.5366 148.48 104.8 142.034 109.239H136.75Z" fill="#84B739"/>
<path d="M131.742 109.077L133.191 118.721H142.04L143.305 109.077H131.742Z" fill="#24285B"/>
<path d="M117.816 0.583008H52.1914V118.721H117.816V0.583008Z" fill="#C9C9C9"/>
<path d="M111.941 14.0542H57.6211V97.1936H111.941V14.0542Z" fill="white"/>
<path opacity="0.08" d="M117.808 24.0098H91.6172V47.0787H117.808V24.0098Z" fill="black"/>
<path opacity="0.08" d="M117.81 57.8257H87.5938V80.8946H117.81V57.8257Z" fill="black"/>
<path opacity="0.56" d="M85.2001 114.289C88.7473 114.289 91.6228 111.402 91.6228 107.842C91.6228 104.281 88.7473 101.395 85.2001 101.395C81.6529 101.395 78.7773 104.281 78.7773 107.842C78.7773 111.402 81.6529 114.289 85.2001 114.289Z" fill="white"/>
<path opacity="0.08" d="M76.807 45.8149L87.594 47.431L87.2605 48.1524C86.1846 50.5859 85.5667 53.1982 85.4378 55.8575C85.3573 57.1503 84.627 58.9164 82.2005 60.9942C78.0605 64.5379 75.3983 75.9483 69.9013 80.4039C68.2742 81.7655 66.954 83.4586 66.0282 85.371C65.1023 87.2834 64.5919 89.3715 64.5308 91.4969L63.4613 118.716H52.8008L55.1525 77.0968L57.9758 62.7314L64.8758 55.6208L71.2008 47.431L74.0758 45.8149H76.807Z" fill="black"/>
<path opacity="0.12" d="M97.8492 5.20068H79.4492V7.89601H97.8492V5.20068Z" fill="black"/>
<path d="M72.7887 9.84649C74.4432 9.84649 75.7845 8.50022 75.7845 6.83951C75.7845 5.17879 74.4432 3.83252 72.7887 3.83252C71.1342 3.83252 69.793 5.17879 69.793 6.83951C69.793 8.50022 71.1342 9.84649 72.7887 9.84649Z" fill="white"/>
<path d="M57.9531 61.3005L68.2801 48.3779L70.5111 50.3403L61.7079 65.1155L57.9531 61.3005Z" fill="#84B739"/>
<path d="M40.843 40.0146L42.7462 45.7573L38.221 48.6431L36.5938 38.6929L40.843 40.0146Z" fill="#F4A28C"/>
<path d="M35.0425 33.1465C35.2775 32.5994 35.645 32.1199 36.1117 31.7518C36.5785 31.3837 37.1295 31.1386 37.7147 31.0388C38.2998 30.939 38.9006 30.9876 39.4622 31.1804C40.0239 31.3731 40.5286 31.7037 40.9305 32.1422C42.8567 34.2027 45.1797 37.4867 42.552 39.2759C38.527 42.0116 34.8412 36.898 34.8412 36.898C34.5385 35.6549 34.6085 34.3498 35.0425 33.1465Z" fill="#F4A28C"/>
<path d="M37.9839 36.6672C37.9839 36.6672 36.9547 35.8014 36.4832 37.0308C36.0117 38.2601 37.8402 38.8488 38.3807 38.2313C38.9212 37.6137 37.9839 36.6672 37.9839 36.6672Z" fill="#F4A28C"/>
<path d="M32.9387 51.4595C33.6229 49.9402 34.6253 48.5867 35.8775 47.4912C37.1297 46.3956 38.6023 45.5838 40.1952 45.1108C46.3419 43.2581 57.6694 45.2839 61.1194 51.0613C65.8459 58.9626 58.9287 84.0746 58.9287 84.0746L38.2632 85.6849C38.2632 85.6849 26.9242 65.092 32.9387 51.4595Z" fill="#84B739"/>
<path d="M58.9292 84.063L56.2095 119.72H51.9142L48.0732 92.0162L38.5742 85.6733L58.9292 84.063Z" fill="#24285B"/>
<path d="M38.5728 85.6733L32.6445 119.72H37.2503L47.2035 91.4334L38.5728 85.6733Z" fill="#24285B"/>
<path opacity="0.08" d="M41.9856 44.5566C41.9856 44.5566 32.3198 75.8039 60.2303 77.8759L58.9308 84.0861L38.2653 85.6964C38.2653 85.6964 30.9858 74.2167 31.2906 58.0967C31.2906 58.0967 31.4688 50.1262 37.0406 46.6055C38.5245 45.5765 40.2106 44.8779 41.9856 44.5566Z" fill="black"/>
<path d="M33.726 119.645L30.9487 121.7C30.8473 121.778 30.7724 121.885 30.7346 122.008C30.6968 122.13 30.6979 122.261 30.7377 122.383C30.7775 122.505 30.8541 122.611 30.9568 122.687C31.0595 122.763 31.1833 122.805 31.311 122.808H35.9627C36.1249 122.806 36.2799 122.741 36.394 122.625C36.5082 122.509 36.5722 122.353 36.5722 122.19V119.645H33.726Z" fill="#84B739"/>
<path d="M55.6758 119.645L58.292 121.7C58.3946 121.778 58.47 121.887 58.5073 122.012C58.5447 122.136 58.5422 122.268 58.5002 122.391C58.4582 122.514 58.3789 122.62 58.2734 122.695C58.1679 122.769 58.0417 122.809 57.9125 122.808H54.6005C54.3651 122.812 54.1312 122.768 53.9126 122.68C53.6941 122.592 53.4952 122.461 53.3276 122.295C53.16 122.129 53.0271 121.931 52.9366 121.713C52.8462 121.495 52.8 121.261 52.8008 121.024V119.639L55.6758 119.645Z" fill="#84B739"/>
<path d="M50.4073 44.938C49.3777 46.5971 48.832 48.5126 48.832 50.4672C48.832 52.4218 49.3777 54.3372 50.4073 55.9963C52.6613 59.8171 59.222 67.2509 63.7013 72.1567C64.2073 72.7129 64.8379 73.1404 65.5409 73.4038C66.244 73.6672 66.9994 73.759 67.7447 73.6716C68.4901 73.5842 69.2041 73.3201 69.8277 72.9012C70.4514 72.4822 70.9668 71.9204 71.3315 71.2621L80.9743 54.2302L77.7083 52.1294L68.882 65.1154C68.882 65.1154 62.8273 45.1862 50.4073 44.938Z" fill="#84B739"/>
<path opacity="0.2" d="M50.4073 44.938C49.3777 46.5971 48.832 48.5126 48.832 50.4672C48.832 52.4218 49.3777 54.3372 50.4073 55.9963C52.6613 59.8171 59.222 67.2509 63.7013 72.1567C64.2073 72.7129 64.8379 73.1404 65.5409 73.4038C66.244 73.6672 66.9994 73.759 67.7447 73.6716C68.4901 73.5842 69.2041 73.3201 69.8277 72.9012C70.4514 72.4822 70.9668 71.9204 71.3315 71.2621L80.9743 54.2302L77.7083 52.1294L68.882 65.1154C68.882 65.1154 62.8273 45.1862 50.4073 44.938Z" fill="white"/>
<path d="M79.8267 53.4967C79.8267 53.4967 85.295 51.4824 83.064 48.3773C80.833 45.2722 77.6992 52.1288 77.6992 52.1288L79.8267 53.4967Z" fill="#F4A28C"/>
<path d="M84.7908 44.4797L79.8633 42.2642L76.6452 49.475L81.5727 51.6906L84.7908 44.4797Z" fill="#FFD200"/>
<path d="M36.8966 40.5167L33.8261 37.3366C33.5096 37.0056 33.2637 36.6132 33.1035 36.1835C32.9434 35.7538 32.8723 35.2957 32.8946 34.8375C32.9694 33.2214 33.3144 30.6415 34.6196 28.7023C36.7126 25.6665 39.5014 24.5179 40.1914 27.144C40.8814 29.77 41.0309 26.6534 42.7157 28.0443C44.4004 29.4353 44.0554 30.2606 42.7157 30.9994C41.3759 31.7381 38.5987 32.8117 38.3514 35.0395C38.1042 37.2673 40.2316 39.0276 36.8966 40.5167Z" fill="#24285B"/>
<path d="M68.8047 48.8393C68.8047 48.8393 69.4889 44.1008 74.0659 44.5568C78.6429 45.0127 76.9697 46.1844 75.1239 46.2883C74.7484 46.3675 74.401 46.5463 74.1178 46.8062C73.8346 47.0661 73.6261 47.3975 73.5139 47.7658C73.2437 48.5969 72.5019 49.6704 70.5297 50.3515L68.8047 48.8393Z" fill="#F4A28C"/>
<path d="M146.547 20.5991H91.6172V43.6681H146.547V20.5991Z" fill="#FFD200"/>
<path d="M142.524 54.6514H87.5938V77.7203H142.524V54.6514Z" fill="#FFD200"/>
<path d="M116.079 25.603H97.8516V37.3251H116.079V25.603Z" fill="white"/>
<path d="M97.8516 25.603L106.96 34.1623L116.073 25.603H97.8516Z" fill="#24285B"/>
<path d="M139.558 26.8496H122.785V30.3125H139.558V26.8496Z" fill="white"/>
<path opacity="0.46" d="M139.558 32.4307H122.785V35.8936H139.558V32.4307Z" fill="white"/>
<path d="M134.59 60.9941H116.414V64.4571H134.59V60.9941Z" fill="white"/>
<path opacity="0.46" d="M134.59 66.5752H116.414V70.0382H134.59V66.5752Z" fill="white"/>
<path d="M102.786 74.5401C107.482 74.5401 111.29 70.7183 111.29 66.0039C111.29 61.2895 107.482 57.4678 102.786 57.4678C98.0887 57.4678 94.2812 61.2895 94.2812 66.0039C94.2812 70.7183 98.0887 74.5401 102.786 74.5401Z" fill="#24285B"/>
<path d="M102.989 67.1351C104.792 67.1351 106.255 65.6674 106.255 63.8569C106.255 62.0463 104.792 60.5786 102.989 60.5786C101.185 60.5786 99.7227 62.0463 99.7227 63.8569C99.7227 65.6674 101.185 67.1351 102.989 67.1351Z" fill="white"/>
<path opacity="0.24" d="M97.0742 72.3411C97.0742 72.3411 97.7815 67.3314 102.772 67.0717C108.062 66.8004 108.471 72.3411 108.471 72.3411C106.908 73.757 104.878 74.5407 102.772 74.5407C100.667 74.5407 98.6369 73.757 97.0742 72.3411Z" fill="white"/>
<path d="M26.7801 43.4025L22.0594 41.4633V36.9614H3.51562V48.5565H22.0594V44.6549L26.7801 43.4025Z" fill="#E6E6E6"/>
<path opacity="0.12" d="M8.63922 44.1757C9.41725 44.1757 10.048 43.5427 10.048 42.7617C10.048 41.9807 9.41725 41.3477 8.63922 41.3477C7.86119 41.3477 7.23047 41.9807 7.23047 42.7617C7.23047 43.5427 7.86119 44.1757 8.63922 44.1757Z" fill="black"/>
<path opacity="0.12" d="M12.7564 44.1757C13.5344 44.1757 14.1652 43.5427 14.1652 42.7617C14.1652 41.9807 13.5344 41.3477 12.7564 41.3477C11.9784 41.3477 11.3477 41.9807 11.3477 42.7617C11.3477 43.5427 11.9784 44.1757 12.7564 44.1757Z" fill="black"/>
<path opacity="0.12" d="M16.7759 44.1757C17.554 44.1757 18.1847 43.5427 18.1847 42.7617C18.1847 41.9807 17.554 41.3477 16.7759 41.3477C15.9979 41.3477 15.3672 41.9807 15.3672 42.7617C15.3672 43.5427 15.9979 44.1757 16.7759 44.1757Z" fill="black"/>
</svg>
