<svg width="70" height="60" viewBox="0 0 70 60" fill="none" xmlns="http://www.w3.org/2000/svg">
<path d="M41.7746 33.9513C46.763 33.9513 50.8069 29.9074 50.8069 24.919C50.8069 19.9306 46.763 15.8867 41.7746 15.8867C36.7862 15.8867 32.7423 19.9306 32.7423 24.919C32.7423 29.9074 36.7862 33.9513 41.7746 33.9513Z" fill="#84B739"/>
<path d="M35.0004 45.2419C32.5097 45.2419 30.4843 47.2673 30.4843 49.758C30.4843 52.2488 32.5097 54.2742 35.0004 54.2742C37.4912 54.2742 39.5166 52.2488 39.5166 49.758C39.5166 47.2673 37.4912 45.2419 35.0004 45.2419ZM35.0004 52.0161C33.7552 52.0161 32.7423 51.0033 32.7423 49.758C32.7423 48.5128 33.7552 47.5 35.0004 47.5C36.2457 47.5 37.2585 48.5128 37.2585 49.758C37.2585 51.0033 36.2459 52.0161 35.0004 52.0161Z" fill="#333333"/>
<path d="M68.3812 34.6594C67.3684 33.9571 66.0723 33.7979 64.9161 34.228L64.7863 34.2767L52.5735 4.2984L21.7712 15.2997L15.4305 0.0804443H3.38699C1.51959 0.0804443 0 1.60004 0 3.46743C0 5.33483 1.51959 6.85466 3.38699 6.85466H10.5451L26.5096 44.1896C25.4564 45.7906 24.8388 47.702 24.8388 49.758C24.8388 55.3614 29.3978 59.9195 35 59.9195C40.6022 59.9195 45.1612 55.3617 45.1612 49.758C45.1612 49.6463 45.1477 49.5367 45.1443 49.4261L67.523 41.2891C69.0043 40.7493 70 39.329 70 37.7518C70.0002 36.5177 69.395 35.3627 68.3812 34.6594ZM37.905 11.9351L41.3961 19.7899L37.8487 21.209L34.2991 13.2233L37.905 11.9351ZM32.1663 13.9844L36.6677 24.1131L44.4107 21.0161L40.0369 11.1743L51.2979 7.15261L62.6718 35.0703L42.3029 42.7095C40.4536 40.7934 37.8658 39.5968 35.0002 39.5968C33.9831 39.5968 33.003 39.7515 32.0759 40.0304L22.6405 17.3861L32.1663 13.9844ZM3.38699 4.59659C2.76484 4.59659 2.25807 4.09078 2.25807 3.46743C2.25807 2.84408 2.76508 2.33828 3.38699 2.33828H13.9242L30.0004 40.922C29.3299 41.3026 28.7111 41.7598 28.1465 42.2769L12.0356 4.59659H3.38699ZM35 57.6612C30.6419 57.6612 27.0969 54.115 27.0969 49.7578C27.0969 45.4006 30.6421 41.8544 35 41.8544C39.3579 41.8544 42.9031 45.4006 42.9031 49.7578C42.9031 54.115 39.3581 57.6612 35 57.6612ZM66.752 39.1664L44.8093 47.1454C44.5665 46.2354 44.2019 45.3763 43.731 44.5848L65.7088 36.3428C66.1785 36.1655 66.6821 36.2289 67.0952 36.5145C67.5061 36.8002 67.7422 37.2518 67.7422 37.7518C67.7422 38.3829 67.3435 38.9508 66.752 39.1664Z" fill="#333333"/>
</svg>
