<svg width="68" height="60" viewBox="0 0 68 60" fill="none" xmlns="http://www.w3.org/2000/svg">
<path d="M31.8125 28.9062C28.797 28.9062 26.3438 26.453 26.3438 23.4375C26.3438 20.422 28.797 17.9688 31.8125 17.9688C34.828 17.9688 37.2812 20.422 37.2812 23.4375C37.2812 26.453 34.828 28.9062 31.8125 28.9062Z" fill="#84B739"/>
<path d="M44.9375 42.0312C41.922 42.0312 39.4688 39.578 39.4688 36.5625C39.4688 33.547 41.922 31.0938 44.9375 31.0938C47.953 31.0938 50.4062 33.547 50.4062 36.5625C50.4062 39.578 47.953 42.0312 44.9375 42.0312Z" fill="#84B739"/>
<path d="M18.6875 55.1562C15.672 55.1562 13.2188 52.703 13.2188 49.6875C13.2188 46.672 15.672 44.2188 18.6875 44.2188C21.703 44.2188 24.1562 46.672 24.1562 49.6875C24.1562 52.703 21.703 55.1562 18.6875 55.1562Z" fill="#84B739"/>
<path d="M44.9375 55.1562C41.922 55.1562 39.4688 52.703 39.4688 49.6875C39.4688 46.672 41.922 44.2188 44.9375 44.2188C47.953 44.2188 50.4062 46.672 50.4062 49.6875C50.4062 52.703 47.953 55.1562 44.9375 55.1562Z" fill="#84B739"/>
<path d="M64.625 4.84375H61.3438V3.75C61.3438 1.94094 59.8716 0.46875 58.0625 0.46875H55.875C54.0659 0.46875 52.5938 1.94094 52.5938 3.75V4.84375H50.4062V3.75C50.4062 1.94094 48.9341 0.46875 47.125 0.46875H44.9375C43.1284 0.46875 41.6562 1.94094 41.6562 3.75V4.84375H35.0938V3.75C35.0938 1.94094 33.6216 0.46875 31.8125 0.46875H29.625C27.8159 0.46875 26.3438 1.94094 26.3438 3.75V4.84375H24.1562V3.75C24.1562 1.94094 22.6841 0.46875 20.875 0.46875H18.6875C16.8784 0.46875 15.4062 1.94094 15.4062 3.75V4.84375H12.125C10.3159 4.84375 8.84375 6.31594 8.84375 8.125V31.0938H3.375C1.56594 31.0938 0.09375 32.5659 0.09375 34.375V38.75C0.09375 40.5591 1.56594 42.0312 3.375 42.0312H8.84375V56.25C8.84375 58.0591 10.3159 59.5312 12.125 59.5312H54.7812H56.3278H64.625C66.4341 59.5312 67.9062 58.0591 67.9062 56.25V47.9528V46.4062V8.125C67.9062 6.31594 66.4341 4.84375 64.625 4.84375ZM54.7812 3.75C54.7812 3.14734 55.2723 2.65625 55.875 2.65625H58.0625C58.6652 2.65625 59.1562 3.14734 59.1562 3.75V8.125C59.1562 8.72766 58.6652 9.21875 58.0625 9.21875H55.875C55.2723 9.21875 54.7812 8.72766 54.7812 8.125V3.75ZM43.8438 3.75C43.8438 3.14734 44.3348 2.65625 44.9375 2.65625H47.125C47.7277 2.65625 48.2188 3.14734 48.2188 3.75V8.125C48.2188 8.72766 47.7277 9.21875 47.125 9.21875H44.9375C44.3348 9.21875 43.8438 8.72766 43.8438 8.125V3.75ZM28.5312 3.75C28.5312 3.14734 29.0223 2.65625 29.625 2.65625H31.8125C32.4152 2.65625 32.9062 3.14734 32.9062 3.75V8.125C32.9062 8.72766 32.4152 9.21875 31.8125 9.21875H29.625C29.0223 9.21875 28.5312 8.72766 28.5312 8.125V3.75ZM17.5938 3.75C17.5938 3.14734 18.0848 2.65625 18.6875 2.65625H20.875C21.4777 2.65625 21.9688 3.14734 21.9688 3.75V8.125C21.9688 8.72766 21.4777 9.21875 20.875 9.21875H18.6875C18.0848 9.21875 17.5938 8.72766 17.5938 8.125V3.75ZM12.125 7.03125H15.4062V8.125C15.4062 9.93406 16.8784 11.4062 18.6875 11.4062H20.875C22.6841 11.4062 24.1562 9.93406 24.1562 8.125V7.03125H26.3438V8.125C26.3438 9.93406 27.8159 11.4062 29.625 11.4062H31.8125C33.6216 11.4062 35.0938 9.93406 35.0938 8.125V7.03125H41.6562V8.125C41.6562 9.93406 43.1284 11.4062 44.9375 11.4062H47.125C48.9341 11.4062 50.4062 9.93406 50.4062 8.125V7.03125H52.5938V8.125C52.5938 9.93406 54.0659 11.4062 55.875 11.4062H58.0625C59.8716 11.4062 61.3438 9.93406 61.3438 8.125V7.03125H64.625C65.2277 7.03125 65.7188 7.52234 65.7188 8.125V13.5938H11.0312V8.125C11.0312 7.52234 11.5223 7.03125 12.125 7.03125ZM8.84375 37.6562H28.5312V39.8438H8.84375V37.6562ZM30.7188 33.9572L34.7197 35.9577C34.9505 36.0736 35.0938 36.3055 35.0938 36.5625C35.0938 36.8195 34.9505 37.0514 34.7197 37.1673L30.7188 39.1678V33.9572ZM28.5312 35.4688H8.84375V33.2812H28.5312V35.4688ZM2.28125 38.75V34.375C2.28125 33.7713 2.77234 33.2812 3.375 33.2812H6.65625V39.8438H3.375C2.77234 39.8438 2.28125 39.3537 2.28125 38.75ZM65.7188 56.25C65.7188 56.8537 65.2277 57.3438 64.625 57.3438H58.5153L65.7188 50.1403V56.25ZM56.9688 55.7972V48.5938H64.1722L56.9688 55.7972ZM54.7812 46.4062V57.3438H12.125C11.5223 57.3438 11.0312 56.8537 11.0312 56.25V42.0312H29.8831L35.6986 39.1241C36.6742 38.6352 37.2812 37.6541 37.2812 36.5625C37.2812 35.4709 36.6742 34.4898 35.6986 34.0009L29.8831 31.0938H11.0312V15.7812H65.7188V46.4062H54.7812Z" fill="#333333"/>
<path d="M13.2188 28.9062H24.1562V17.9688H13.2188V28.9062ZM15.4062 20.1562H21.9688V26.7188H15.4062V20.1562Z" fill="#333333"/>
<path d="M39.4688 28.9062H50.4062V17.9688H39.4688V28.9062ZM41.6562 20.1562H48.2188V26.7188H41.6562V20.1562Z" fill="#333333"/>
<path d="M52.5938 31.0938V42.0312H63.5312V31.0938H52.5938ZM61.3438 39.8438H54.7812V33.2812H61.3438V39.8438Z" fill="#333333"/>
<path d="M26.3438 55.1562H37.2812V44.2188H26.3438V55.1562ZM28.5312 46.4062H35.0938V52.9688H28.5312V46.4062Z" fill="#333333"/>
<path d="M54.5405 29.5898L58.0612 25.1875L61.582 29.5898L63.2905 28.2227L59.4612 23.4375L63.2905 18.6523L61.582 17.2852L58.0612 21.6875L54.5405 17.2852L52.832 18.6523L56.6612 23.4375L52.832 28.2227L54.5405 29.5898Z" fill="#333333"/>
</svg>
