<svg width="18" height="20" viewBox="0 0 18 20" fill="none" xmlns="http://www.w3.org/2000/svg">
<path d="M8.92587 10.7766C8.94658 10.7766 8.96728 10.7766 8.99213 10.7766C9.00042 10.7766 9.0087 10.7766 9.01698 10.7766C9.02941 10.7766 9.04598 10.7766 9.0584 10.7766C10.2719 10.7559 11.2535 10.3293 11.9783 9.51336C13.5728 7.71588 13.3077 4.6345 13.2787 4.34044C13.1752 2.13295 12.1315 1.07683 11.27 0.583972C10.6281 0.215366 9.87845 0.0165666 9.04183 0H9.01284C9.0087 0 9.00042 0 8.99628 0H8.97143C8.5117 0 7.60883 0.0745496 6.74322 0.567405C5.87348 1.06026 4.81322 2.11638 4.70968 4.34044C4.68068 4.6345 4.41562 7.71588 6.01015 9.51336C6.7308 10.3293 7.71237 10.7559 8.92587 10.7766ZM5.81549 4.44398C5.81549 4.43156 5.81964 4.41913 5.81964 4.41085C5.95631 1.44129 8.06441 1.12239 8.96728 1.12239H8.98385C8.99213 1.12239 9.00456 1.12239 9.01698 1.12239C10.1352 1.14724 12.0362 1.60282 12.1646 4.41085C12.1646 4.42328 12.1646 4.4357 12.1688 4.44398C12.1729 4.47298 12.4628 7.28929 11.1458 8.772C10.6239 9.36012 9.92815 9.65003 9.01284 9.65831C9.00456 9.65831 9.00042 9.65831 8.99213 9.65831C8.98385 9.65831 8.97971 9.65831 8.97143 9.65831C8.06026 9.65003 7.36033 9.36012 6.84262 8.772C5.52972 7.29758 5.81135 4.46883 5.81549 4.44398Z" fill="#212121"/>
<path d="M17.503 15.8877C17.503 15.8835 17.503 15.8794 17.503 15.8753C17.503 15.8421 17.4989 15.809 17.4989 15.7717C17.4741 14.9517 17.4202 13.0341 15.6227 12.4211C15.6103 12.417 15.5938 12.4128 15.5813 12.4087C13.7134 11.9324 12.1603 10.8556 12.1438 10.8432C11.8911 10.6651 11.5432 10.7272 11.3651 10.9798C11.187 11.2325 11.2492 11.5804 11.5018 11.7585C11.5722 11.8082 13.2206 12.9554 15.2831 13.4855C16.2481 13.8293 16.3558 14.8606 16.3848 15.8049C16.3848 15.8421 16.3848 15.8753 16.3889 15.9084C16.3931 16.2811 16.3682 16.8568 16.302 17.1882C15.631 17.5692 13.0011 18.8862 9.00025 18.8862C5.01599 18.8862 2.36948 17.5651 1.69439 17.184C1.62813 16.8527 1.59913 16.277 1.60742 15.9043C1.60742 15.8711 1.61156 15.838 1.61156 15.8007C1.64055 14.8564 1.74823 13.8251 2.71324 13.4814C4.77577 12.9513 6.42415 11.7999 6.49456 11.7543C6.7472 11.5762 6.80932 11.2283 6.63123 10.9757C6.45314 10.7231 6.10524 10.6609 5.8526 10.839C5.83604 10.8514 4.2912 11.9283 2.41504 12.4046C2.39847 12.4087 2.38605 12.4128 2.37362 12.417C0.576148 13.0341 0.522306 14.9517 0.497456 15.7676C0.497456 15.8049 0.497456 15.838 0.493315 15.8711C0.493315 15.8753 0.493315 15.8794 0.493315 15.8835C0.489173 16.0989 0.485032 17.2047 0.704539 17.7597C0.745955 17.8674 0.820505 17.9585 0.919904 18.0206C1.04415 18.1035 4.022 20.0003 9.00439 20.0003C13.9868 20.0003 16.9646 18.0993 17.0889 18.0206C17.1841 17.9585 17.2628 17.8674 17.3042 17.7597C17.5113 17.2089 17.5072 16.1031 17.503 15.8877Z" fill="#212121"/>
</svg>
