<svg width="22" height="20" viewBox="0 0 22 20" fill="none" xmlns="http://www.w3.org/2000/svg">
<path d="M0.644531 11.2892H1.38759L2.22784 16.3307C2.48793 17.891 3.82482 19.0236 5.40667 19.0236H16.5504C18.1312 19.0236 19.5163 17.8659 19.7722 16.3307L20.6124 11.2892H21.3555C21.7114 11.2892 22 11.0006 22 10.6446V8.06652C22 7.71057 21.7114 7.42199 21.3555 7.42199H16.5212L12.8418 1.28962C12.6586 0.984371 12.2628 0.885328 11.9575 1.06855C11.6522 1.25168 11.5533 1.64759 11.7364 1.95284L15.0179 7.42203H6.98212L10.2636 1.95284C10.4468 1.64759 10.3478 1.25172 10.0426 1.06855C9.73719 0.885371 9.34141 0.984414 9.15827 1.28962L5.47886 7.42199H0.644531C0.288578 7.42199 0 7.71057 0 8.06652V10.6446C0 11.0006 0.288578 11.2892 0.644531 11.2892V11.2892ZM18.5007 16.1188C18.3471 17.0399 17.5087 17.7345 16.5504 17.7345H5.40667C4.45754 17.7345 3.65539 17.055 3.49933 16.1188L2.69444 11.2892H19.3056L18.5007 16.1188ZM1.28906 8.71105H20.7109V10.0001H1.28906V8.71105Z" fill="white"/>
<path d="M6.2757 15.8543C6.305 16.206 6.61356 16.4728 6.97154 16.4431C7.32624 16.4135 7.58986 16.102 7.56029 15.7473L7.34545 13.1691C7.31589 12.8144 7.00522 12.5511 6.64961 12.5803C6.29491 12.6099 6.03129 12.9214 6.06086 13.2762L6.2757 15.8543Z" fill="white"/>
<path d="M15.0285 16.4432C15.387 16.4729 15.6951 16.2056 15.7244 15.8544L15.9392 13.2762C15.9688 12.9215 15.7052 12.61 15.3504 12.5804C14.9954 12.5508 14.6841 12.8144 14.6546 13.1692L14.4398 15.7473C14.4102 16.102 14.6738 16.4136 15.0285 16.4432Z" fill="white"/>
<path d="M11 16.4453C11.356 16.4453 11.6445 16.1567 11.6445 15.8008V13.2227C11.6445 12.8667 11.356 12.5781 11 12.5781C10.644 12.5781 10.3555 12.8667 10.3555 13.2227V15.8008C10.3555 16.1568 10.644 16.4453 11 16.4453Z" fill="white"/>
</svg>
