<svg width="387" height="294" viewBox="0 0 387 294" fill="none" xmlns="http://www.w3.org/2000/svg">
<path d="M310.393 241.967L306.859 253.463L312.702 256.715L317.233 245.775L310.393 241.967Z" fill="#F4A28C"/>
<path d="M279.172 115.382C287.266 105.398 303.397 107.266 308.584 118.976C310.242 122.873 311.142 127.051 311.234 131.285C312.317 156.659 325.484 170.494 337.426 166.13C349.367 161.765 355.253 140.542 355.253 140.542C355.253 140.542 365.085 133.539 367.265 140.542C369.446 147.545 360.354 147.673 360.354 147.673C360.354 147.673 348.683 216.293 297.768 172.391C265.577 144.564 270.95 125.58 279.172 115.382Z" fill="#F4A28C"/>
<path opacity="0.08" d="M279.172 115.382C287.266 105.398 303.397 107.266 308.584 118.976C310.242 122.873 311.142 127.051 311.234 131.285C312.317 156.659 325.484 170.494 337.426 166.13C349.367 161.765 355.253 140.542 355.253 140.542C355.253 140.542 365.085 133.539 367.265 140.542C369.446 147.545 360.354 147.673 360.354 147.673C360.354 147.673 348.683 216.293 297.768 172.391C265.577 144.564 270.95 125.58 279.172 115.382Z" fill="black"/>
<path opacity="0.3" d="M192.489 293.77C298.719 293.77 384.836 288.029 384.836 280.948C384.836 273.866 298.719 268.125 192.489 268.125C86.2589 268.125 0.142456 273.866 0.142456 280.948C0.142456 288.029 86.2589 293.77 192.489 293.77Z" fill="#E6E6E6"/>
<path d="M224.296 0.792419H58.3828V276.826H224.296V0.792419Z" fill="#C1C1C1"/>
<path d="M236.422 0.792419H70.5095V276.826H236.422V0.792419Z" fill="#E6E6E6"/>
<path opacity="0.58" d="M25.1947 266.499C25.1947 266.499 16.032 263.989 14.037 255.46C14.037 255.46 28.287 252.607 28.6432 267.255L25.1947 266.499Z" fill="#84B739"/>
<path opacity="0.73" d="M26.3205 265.586C26.3205 265.586 19.908 255.46 25.551 245.975C25.551 245.975 36.3525 252.849 31.5502 265.615L26.3205 265.586Z" fill="#84B739"/>
<path d="M27.9588 265.601C27.9588 265.601 31.3503 254.889 41.5818 252.864C41.5818 252.864 43.4913 259.824 34.9556 265.7L27.9588 265.601Z" fill="#84B739"/>
<path d="M21.3187 265.358L23.1712 278.081L34.8705 278.124L36.609 265.415L21.3187 265.358Z" fill="#24285B"/>
<path d="M221.374 20.2187H86.0275V241.624H221.374V20.2187Z" fill="white"/>
<path opacity="0.08" d="M202.464 160.924C202.464 160.924 198.631 165.574 201.994 169.254C205.357 172.933 218.652 174.331 208.136 189.051L196.636 185.556L175.133 222.455L208.136 233.138L206.583 241.696H236.422V181.791L211.67 159.084L202.464 160.924Z" fill="black"/>
<path d="M206.084 181.719L235.71 192.288L228.029 229.387L190.167 215.88L206.084 181.719Z" fill="#FFD200"/>
<path opacity="0.04" d="M206.084 181.719L235.71 192.288L228.029 229.387L190.167 215.88L206.084 181.719Z" fill="black"/>
<path d="M229.981 192.973C229.981 192.973 239.643 178.796 230.081 169.254" stroke="#24285B" stroke-width="1.015" stroke-linecap="round" stroke-linejoin="round"/>
<path opacity="0.05" d="M86.0275 20.1902V65.8321H102.956C102.969 67.1396 103.248 68.4307 103.778 69.6261C104.307 70.8215 105.075 71.8958 106.035 72.7829C106.995 73.67 108.126 74.3512 109.358 74.7845C110.591 75.2179 111.899 75.3942 113.202 75.3027H236.422V57.1173L134.064 33.3265L86.0275 20.1902Z" fill="black"/>
<path d="M212.967 189.051L244.403 190.135L248.307 227.818L208.136 226.434L212.967 189.051Z" fill="#FFD200"/>
<path d="M86.0275 20.2187L106.519 53.2377H123.434L103.07 20.2187H86.0275Z" fill="#84B739"/>
<path d="M102.957 20.2187L123.434 53.2377H140.349L119.986 20.2187H102.957Z" fill="#84B739"/>
<path d="M119.786 20.2187L140.263 53.2377H157.192L136.815 20.2187H119.786Z" fill="#84B739"/>
<path d="M136.701 20.2187L157.193 53.2377H174.107L153.73 20.2187H136.701Z" fill="#84B739"/>
<path d="M153.615 20.2187L174.107 53.2377H191.021L170.658 20.2187H153.615Z" fill="#84B739"/>
<path d="M170.53 20.2187L191.022 53.2377H207.936L187.573 20.2187H170.53Z" fill="#84B739"/>
<path d="M187.374 20.2187L207.851 53.2377H224.78L204.403 20.2187H187.374Z" fill="#84B739"/>
<path d="M204.289 20.2187L224.78 53.2377H241.695L221.317 20.2187H204.289Z" fill="#84B739"/>
<path opacity="0.44" d="M102.957 20.2187L123.434 53.2377H140.349L119.986 20.2187H102.957Z" fill="white"/>
<path opacity="0.44" d="M136.701 20.2187L157.193 53.2377H174.107L153.73 20.2187H136.701Z" fill="white"/>
<path opacity="0.44" d="M170.53 20.2187L191.022 53.2377H207.936L187.573 20.2187H170.53Z" fill="white"/>
<path opacity="0.44" d="M204.289 20.2187L224.78 53.2377H241.695L221.317 20.2187H204.289Z" fill="white"/>
<path d="M106.519 53.2377H123.434V56.4183C123.434 57.5309 123.215 58.6326 122.79 59.6606C122.365 60.6885 121.741 61.6224 120.955 62.4092C120.169 63.1959 119.236 63.8199 118.209 64.2457C117.182 64.6715 116.081 64.8906 114.97 64.8906C113.858 64.8906 112.757 64.6715 111.731 64.2457C110.704 63.8199 109.77 63.1959 108.984 62.4092C108.198 61.6224 107.575 60.6885 107.15 59.6606C106.724 58.6326 106.505 57.5309 106.505 56.4183V53.2377H106.519Z" fill="#84B739"/>
<path d="M123.433 53.2377H140.348V56.4183C140.348 57.5309 140.129 58.6326 139.704 59.6606C139.278 60.6885 138.655 61.6224 137.869 62.4092C137.083 63.1959 136.15 63.8199 135.123 64.2457C134.096 64.6715 132.995 64.8906 131.884 64.8906C130.772 64.8906 129.671 64.6715 128.644 64.2457C127.617 63.8199 126.684 63.1959 125.898 62.4092C125.112 61.6224 124.489 60.6885 124.064 59.6606C123.638 58.6326 123.419 57.5309 123.419 56.4183V53.2377H123.433Z" fill="#84B739"/>
<path opacity="0.44" d="M123.433 53.2377H140.348V56.4183C140.348 57.5309 140.129 58.6326 139.704 59.6606C139.278 60.6885 138.655 61.6224 137.869 62.4092C137.083 63.1959 136.15 63.8199 135.123 64.2457C134.096 64.6715 132.995 64.8906 131.884 64.8906C130.772 64.8906 129.671 64.6715 128.644 64.2457C127.617 63.8199 126.684 63.1959 125.898 62.4092C125.112 61.6224 124.489 60.6885 124.064 59.6606C123.638 58.6326 123.419 57.5309 123.419 56.4183V53.2377H123.433Z" fill="white"/>
<path d="M140.264 53.2377H157.178V56.4183C157.178 58.6653 156.287 60.8203 154.699 62.4092C153.112 63.998 150.959 64.8906 148.714 64.8906C147.602 64.8906 146.502 64.6715 145.475 64.2457C144.448 63.8199 143.515 63.1959 142.729 62.4092C141.943 61.6224 141.319 60.6885 140.894 59.6606C140.468 58.6326 140.249 57.5309 140.249 56.4183V53.2377H140.264Z" fill="#84B739"/>
<path d="M157.192 53.2377H174.049V56.4183C174.049 57.5309 173.83 58.6326 173.405 59.6606C172.98 60.6885 172.356 61.6224 171.57 62.4092C170.784 63.1959 169.851 63.8199 168.824 64.2457C167.797 64.6715 166.696 64.8906 165.585 64.8906C164.473 64.8906 163.373 64.6715 162.346 64.2457C161.319 63.8199 160.386 63.1959 159.6 62.4092C158.814 61.6224 158.19 60.6885 157.765 59.6606C157.339 58.6326 157.12 57.5309 157.12 56.4183V53.2377H157.192Z" fill="#84B739"/>
<path opacity="0.44" d="M157.192 53.2377H174.049V56.4183C174.049 57.5309 173.83 58.6326 173.405 59.6606C172.98 60.6885 172.356 61.6224 171.57 62.4092C170.784 63.1959 169.851 63.8199 168.824 64.2457C167.797 64.6715 166.696 64.8906 165.585 64.8906C164.473 64.8906 163.373 64.6715 162.346 64.2457C161.319 63.8199 160.386 63.1959 159.6 62.4092C158.814 61.6224 158.19 60.6885 157.765 59.6606C157.339 58.6326 157.12 57.5309 157.12 56.4183V53.2377H157.192Z" fill="white"/>
<path d="M174.05 53.2377H190.965V56.4183C190.965 58.6481 190.087 60.7881 188.521 62.3741C186.955 63.9601 184.828 64.8643 182.6 64.8906C181.481 64.9019 180.371 64.6911 179.334 64.2704C178.298 63.8497 177.354 63.2274 176.559 62.4396C175.764 61.6517 175.133 60.7139 174.702 59.6804C174.272 58.6469 174.05 57.5382 174.05 56.4183V53.2377Z" fill="#84B739"/>
<path d="M191.021 53.2377H207.936V56.4183C207.936 57.5309 207.717 58.6326 207.292 59.6606C206.866 60.6885 206.243 61.6224 205.457 62.4092C204.671 63.1959 203.738 63.8199 202.711 64.2457C201.684 64.6715 200.583 64.8906 199.471 64.8906C198.36 64.8906 197.259 64.6715 196.232 64.2457C195.205 63.8199 194.272 63.1959 193.486 62.4092C192.7 61.6224 192.077 60.6885 191.651 59.6606C191.226 58.6326 191.007 57.5309 191.007 56.4183V53.2377H191.021Z" fill="#84B739"/>
<path opacity="0.44" d="M191.021 53.2377H207.936V56.4183C207.936 57.5309 207.717 58.6326 207.292 59.6606C206.866 60.6885 206.243 61.6224 205.457 62.4092C204.671 63.1959 203.738 63.8199 202.711 64.2457C201.684 64.6715 200.583 64.8906 199.471 64.8906C198.36 64.8906 197.259 64.6715 196.232 64.2457C195.205 63.8199 194.272 63.1959 193.486 62.4092C192.7 61.6224 192.077 60.6885 191.651 59.6606C191.226 58.6326 191.007 57.5309 191.007 56.4183V53.2377H191.021Z" fill="white"/>
<path d="M207.852 53.2377H224.781V56.4183C224.781 57.5309 224.562 58.6326 224.136 59.6606C223.711 60.6885 223.087 61.6224 222.301 62.4092C221.515 63.1959 220.582 63.8199 219.555 64.2457C218.528 64.6715 217.428 64.8906 216.316 64.8906C215.204 64.8906 214.104 64.6715 213.077 64.2457C212.05 63.8199 211.117 63.1959 210.331 62.4092C209.545 61.6224 208.921 60.6885 208.496 59.6606C208.07 58.6326 207.852 57.5309 207.852 56.4183V53.2377Z" fill="#84B739"/>
<path d="M224.78 53.2377H241.695V56.4183C241.695 57.5309 241.476 58.6326 241.05 59.6606C240.625 60.6885 240.001 61.6224 239.215 62.4092C238.429 63.1959 237.496 63.8199 236.469 64.2457C235.442 64.6715 234.342 64.8906 233.23 64.8906C232.118 64.8906 231.018 64.6715 229.991 64.2457C228.964 63.8199 228.031 63.1959 227.245 62.4092C226.459 61.6224 225.835 60.6885 225.41 59.6606C224.984 58.6326 224.766 57.5309 224.766 56.4183V53.2377H224.78Z" fill="#84B739"/>
<path opacity="0.44" d="M224.78 53.2377H241.695V56.4183C241.695 57.5309 241.476 58.6326 241.05 59.6606C240.625 60.6885 240.001 61.6224 239.215 62.4092C238.429 63.1959 237.496 63.8199 236.469 64.2457C235.442 64.6715 234.342 64.8906 233.23 64.8906C232.118 64.8906 231.018 64.6715 229.991 64.2457C228.964 63.8199 228.031 63.1959 227.245 62.4092C226.459 61.6224 225.835 60.6885 225.41 59.6606C224.984 58.6326 224.766 57.5309 224.766 56.4183V53.2377H224.78Z" fill="white"/>
<path d="M293.238 81.7781C294.516 84.8295 295.378 88.0388 295.803 91.3201C295.83 91.7175 295.777 92.1162 295.647 92.4928C295.518 92.8693 295.314 93.2161 295.048 93.5126C294.783 93.8091 294.46 94.0493 294.1 94.219C293.74 94.3887 293.35 94.4845 292.953 94.5008C291.692 94.6499 290.415 94.4318 289.275 93.8727C288.135 93.3136 287.181 92.4372 286.526 91.3486L283.234 86.9414C282.667 85.9932 282.409 84.8919 282.496 83.7902C282.583 82.6886 283.01 81.6414 283.719 80.794C286.212 77.4707 291.998 78.3693 293.238 81.7781Z" fill="#F4A28C"/>
<path d="M283.803 86.7845L281.523 106.154L292.41 107.437L289.688 92.7179L283.803 86.7845Z" fill="#F4A28C"/>
<path d="M294.519 85.3154L296.799 86.9841C296.926 87.0802 297.026 87.2064 297.092 87.3513C297.158 87.4962 297.186 87.6551 297.175 87.8138C297.163 87.9724 297.113 88.1258 297.027 88.2598C296.942 88.3939 296.824 88.5045 296.685 88.5816L294.647 89.6941L294.519 85.3154Z" fill="#F4A28C"/>
<path opacity="0.31" d="M289.931 93.9588C288.865 93.8068 287.85 93.4062 286.967 92.7892C286.967 92.7892 285.742 99.6497 291.042 100.035L289.931 93.9588Z" fill="#CE8172"/>
<path d="M288.05 87.8828C288.05 87.8828 287.309 85.7149 285.713 86.4565C284.117 87.1982 285.2 90.2933 287.509 89.8654L288.05 87.8828Z" fill="#F4A28C"/>
<path d="M291.969 81.8922C290.339 82.9001 288.552 83.628 286.682 84.046C286.682 84.046 288.107 90.6212 283.832 94.1442C283.832 94.1442 275.51 86.8986 279.7 81.0507C283.205 76.1442 285.642 72.0793 290.971 74.019C291.744 74.2959 292.426 74.7816 292.94 75.4224C293.454 76.0631 293.781 76.8339 293.884 77.6492C293.988 78.4645 293.863 79.2925 293.525 80.0415C293.187 80.7904 292.648 81.431 291.969 81.8922Z" fill="#24285B"/>
<path d="M275.496 85.6435C278.762 85.6435 281.409 82.9934 281.409 79.7243C281.409 76.4553 278.762 73.8052 275.496 73.8052C272.229 73.8052 269.582 76.4553 269.582 79.7243C269.582 82.9934 272.229 85.6435 275.496 85.6435Z" fill="#24285B"/>
<path d="M288.05 87.2266C288.05 87.2266 286.796 84.8733 285.001 86.0571C283.205 87.2409 284.416 90.0935 287.323 90.2219L288.05 87.2266Z" fill="#F4A28C"/>
<path d="M281.509 106.154L286.354 106.353C291.974 106.581 297.451 108.193 302.3 111.046C312.375 116.994 327.665 128.575 325.542 143.138C322.421 164.647 306.019 184.187 306.019 184.187L265.791 182.632C265.791 182.632 231.976 104.342 281.509 106.154Z" fill="#84B739"/>
<path opacity="0.08" d="M276.935 114.169C276.935 114.169 298.595 129.716 285.571 157.144C272.546 184.572 288.948 183.531 288.948 183.531L265.835 182.632L262.073 172.648L276.935 114.169Z" fill="black"/>
<path d="M265.834 182.632L273.643 259.254H294.52L288.292 195.526L299.194 205.624C302.974 209.141 305.658 213.676 306.922 218.684C308.186 223.692 307.977 228.959 306.319 233.851L303.283 242.822L325.784 252.678L329.418 232.425C330.322 227.478 330.149 222.395 328.912 217.522C327.675 212.648 325.403 208.099 322.25 204.184L306.105 184.216L265.834 182.632Z" fill="#24285B"/>
<path d="M239.144 192.531C239.144 192.531 244.06 176.086 232.019 169.895" stroke="#24285B" stroke-width="1.015" stroke-linecap="round" stroke-linejoin="round"/>
<path d="M280.313 121.672C280.07 119.209 279.121 116.869 277.579 114.933C276.038 112.997 273.971 111.549 271.626 110.762C269.282 109.975 266.76 109.884 264.365 110.499C261.969 111.113 259.803 112.408 258.125 114.227C253.622 119.119 250.017 126.379 249.875 137.048C249.533 164.96 235.482 180.849 217.655 158.086C216.803 156.973 215.73 156.047 214.504 155.368C213.278 154.688 211.926 154.268 210.53 154.135C206.911 153.821 202.522 154.135 202.094 157.201C201.282 163.206 205.899 163.477 209.091 162.907C209.916 162.776 210.761 162.902 211.513 163.266C212.264 163.631 212.886 164.217 213.295 164.946C216.8 171.379 226.775 186.398 242.45 184.101C259.451 181.605 283.448 154.933 280.313 121.672Z" fill="#F4A28C"/>
<path d="M386.304 110.147H336.586V140.185H386.304V110.147Z" fill="#FFD200"/>
<path d="M367.594 91.3486H336.586V110.133H367.594V91.3486Z" fill="#FFD200"/>
<path opacity="0.44" d="M367.594 91.3486H336.586V110.133H367.594V91.3486Z" fill="white"/>
<path d="M386.317 70.2394H367.607V110.147H386.317V70.2394Z" fill="#FFD200"/>
<path opacity="0.04" d="M386.317 70.2394H367.607V110.147H386.317V70.2394Z" fill="black"/>
<path d="M386.675 124.097H336.443V125.423H386.675V124.097Z" fill="#24285B"/>
<path d="M362.122 127.149C363.57 127.149 364.744 125.974 364.744 124.525C364.744 123.075 363.57 121.9 362.122 121.9C360.674 121.9 359.5 123.075 359.5 124.525C359.5 125.974 360.674 127.149 362.122 127.149Z" fill="white"/>
<path opacity="0.29" d="M347.016 95.3566H340.832V100.819H347.016V95.3566Z" fill="white"/>
<path opacity="0.29" d="M383.639 73.8052H377.455V79.2679H383.639V73.8052Z" fill="white"/>
<path d="M367.608 73.8052H343.141V91.3487H367.608V73.8052Z" fill="#FFD200"/>
<path d="M280.983 259.254L283.476 271.006H290.159L288.806 259.254H280.983Z" fill="#F4A28C"/>
<path d="M283.475 271.006L284.8 276.84L299.849 271.006C299.849 271.006 292.809 265.301 283.475 271.006Z" fill="#84B739"/>
<path d="M307.544 251.252L303.825 255.93L317.747 264.074C317.747 264.074 317.833 255.074 307.544 251.252Z" fill="#84B739"/>
<path d="M218.766 192.531C218.766 192.531 218.125 170.009 231.42 168.726" stroke="#24285B" stroke-width="1.015" stroke-linecap="round" stroke-linejoin="round"/>
<path d="M210.558 186.797C210.558 186.797 216.771 165.146 229.824 167.956" stroke="#24285B" stroke-width="1.015" stroke-linecap="round" stroke-linejoin="round"/>
<path d="M176.33 98.9224H142.543C132.784 98.9224 124.873 106.841 124.873 116.609V150.426C124.873 160.194 132.784 168.113 142.543 168.113H176.33C186.089 168.113 194 160.194 194 150.426V116.609C194 106.841 186.089 98.9224 176.33 98.9224Z" fill="#24285B"/>
<path d="M342.657 86.6134H367.609" stroke="#24285B" stroke-width="0.76125" stroke-miterlimit="10"/>
<path d="M360.113 91.3487V73.8051C360.113 73.8051 354.755 70.8098 355.752 67.4438C356.75 64.0777 362.307 67.8003 360.113 73.8051C360.113 73.8051 362.307 68.813 364.487 69.8114C366.668 70.8098 365.129 73.8051 360.483 73.8051" stroke="#24285B" stroke-width="0.76125" stroke-miterlimit="10"/>
<path d="M179.907 192.531H138.667V214.681H179.907V192.531Z" fill="#84B739"/>
<path d="M145.437 131.3L157.592 147.189L175.134 118.149" stroke="white" stroke-width="5.075" stroke-linecap="round" stroke-linejoin="round"/>
<path d="M156.337 267.498C161.696 267.498 166.041 263.149 166.041 257.784C166.041 252.42 161.696 248.071 156.337 248.071C150.977 248.071 146.633 252.42 146.633 257.784C146.633 263.149 150.977 267.498 156.337 267.498Z" fill="#C1C1C1"/>
<path d="M127.88 10.5769H182.928" stroke="#C1C1C1" stroke-width="1.015" stroke-miterlimit="10"/>
</svg>
