<svg width="24" height="24" viewBox="0 0 24 24" fill="none" xmlns="http://www.w3.org/2000/svg">
<path d="M19.0312 4.26562H4.96875C4.58038 4.26562 4.26562 4.58038 4.26562 4.96875V19.0312C4.26562 19.4196 4.58038 19.7344 4.96875 19.7344H19.0312C19.4196 19.7344 19.7344 19.4196 19.7344 19.0312V4.96875C19.7344 4.58038 19.4196 4.26562 19.0312 4.26562ZM5.67188 8.09985L11.7656 14.2084C11.6484 14.1738 11.5197 14.1218 11.3862 14.0674C11.0566 13.9332 10.6831 13.7812 10.2422 13.7812C9.80145 13.7812 9.42773 13.9334 9.09814 14.0674C8.86761 14.1614 8.6499 14.25 8.48438 14.25C8.31885 14.25 8.10114 14.1614 7.87061 14.0674C7.54102 13.9334 7.1673 13.7812 6.72656 13.7812C6.34607 13.7812 5.99469 13.8699 5.67188 13.9753V8.09985ZM13.3647 13.8204L12.5596 13.0131L18.3281 9.68262V13.9753C18.0053 13.8699 17.6539 13.7812 17.2734 13.7812C16.8327 13.7812 16.459 13.9332 16.1294 14.0674C15.8989 14.1614 15.6812 14.25 15.5156 14.25C15.3501 14.25 15.1324 14.1614 14.9019 14.0674C14.5723 13.9334 14.1987 13.7812 13.7578 13.7812C13.6205 13.7812 13.4897 13.7961 13.3647 13.8204ZM18.3281 5.67188V8.06726C18.2986 8.07935 11.5737 11.9637 11.541 11.9921L5.67188 6.10858V5.67188H18.3281ZM5.67188 18.3281V15.4653C5.71088 15.4515 5.74969 15.4376 5.78815 15.4237C6.12579 15.3023 6.44495 15.1875 6.72656 15.1875C6.89209 15.1875 7.1098 15.2761 7.34033 15.3699C7.6701 15.5041 8.04364 15.6562 8.48438 15.6562C8.92529 15.6562 9.29883 15.5041 9.62842 15.3699C9.85895 15.2761 10.0767 15.1875 10.2422 15.1875C10.4077 15.1875 10.6256 15.2761 10.856 15.3699C11.1855 15.5041 11.5593 15.6562 12 15.6562C12.4407 15.6562 12.8145 15.5041 13.144 15.3701C13.3746 15.2761 13.5923 15.1875 13.7578 15.1875C13.9233 15.1875 14.1411 15.2761 14.3716 15.3701C14.7012 15.5041 15.0749 15.6562 15.5156 15.6562C15.9564 15.6562 16.3301 15.5041 16.6597 15.3701C16.8902 15.2761 17.1079 15.1875 17.2734 15.1875C17.5551 15.1875 17.874 15.3023 18.2119 15.4237C18.2503 15.4376 18.2893 15.4515 18.3281 15.4655V18.3281H5.67188Z" fill="#84B739"/>
<path d="M22.9883 20.0909C23.0229 19.851 23.0391 19.6326 23.0391 19.418C23.0391 18.8996 22.9001 18.4151 22.7774 17.9877C22.671 17.6166 22.5703 17.2659 22.5703 16.9453C22.5703 16.6247 22.6708 16.274 22.7774 15.9029C22.9001 15.4755 23.0391 14.991 23.0391 14.4727C23.0391 13.9543 22.9001 13.4698 22.7774 13.0424C22.671 12.6713 22.5703 12.3206 22.5703 12C22.5703 11.6794 22.6708 11.3287 22.7774 10.9576C22.9001 10.5302 23.0391 10.0457 23.0391 9.52734C23.0391 9.00897 22.9001 8.52448 22.7774 8.09711C22.671 7.72595 22.5703 7.37531 22.5703 7.05469C22.5703 6.73407 22.6708 6.38342 22.7774 6.01227C22.9001 5.5849 23.0391 5.1004 23.0391 4.58203C23.0391 4.36743 23.0229 4.14899 22.9883 3.90912C23.5999 3.53284 24 2.85461 24 2.10938C24 0.946289 23.0537 0 21.8906 0C21.1362 0 20.4666 0.390015 20.0927 1.00177C19.8792 0.970825 19.6474 0.949219 19.4062 0.949219C18.8879 0.949219 18.4034 1.0882 17.976 1.21088C17.6049 1.31744 17.2542 1.41797 16.9336 1.41797C16.613 1.41797 16.2623 1.31744 15.8912 1.21088C15.4638 1.0882 14.9793 0.949219 14.4609 0.949219C13.9426 0.949219 13.4581 1.0882 13.0307 1.21088C12.6595 1.31744 12.3089 1.41797 11.9883 1.41797C11.6677 1.41797 11.317 1.31744 10.9459 1.21088C10.5185 1.0882 10.034 0.949219 9.51562 0.949219C8.99725 0.949219 8.51276 1.0882 8.08539 1.21088C7.71423 1.31744 7.36359 1.41797 7.04297 1.41797C6.72235 1.41797 6.3717 1.31744 6.00055 1.21088C5.57318 1.0882 5.08868 0.949219 4.57031 0.949219C4.35791 0.949219 4.14185 0.964966 3.90527 0.99884C3.53046 0.388916 2.86157 0 2.10938 0C0.946289 0 0 0.946289 0 2.10938C0 2.85608 0.385437 3.52277 0.989685 3.89905C0.954163 4.14294 0.9375 4.3645 0.9375 4.58203C0.9375 5.1004 1.07648 5.5849 1.19916 6.01227C1.30573 6.38342 1.40625 6.73407 1.40625 7.05469C1.40625 7.37531 1.30573 7.72595 1.19916 8.09711C1.07648 8.52448 0.9375 9.00897 0.9375 9.52734C0.9375 10.0457 1.07648 10.5302 1.19916 10.9576C1.30573 11.3287 1.40625 11.6794 1.40625 12C1.40625 12.3206 1.30573 12.6713 1.19916 13.0424C1.07648 13.4698 0.9375 13.9543 0.9375 14.4727C0.9375 14.991 1.07648 15.4755 1.19916 15.9029C1.30573 16.274 1.40625 16.6247 1.40625 16.9453C1.40625 17.2659 1.30573 17.6166 1.19916 17.9877C1.07648 18.4151 0.9375 18.8996 0.9375 19.418C0.9375 19.6355 0.954163 19.8571 0.989685 20.101C0.385437 20.4772 0 21.1439 0 21.8906C0 23.0537 0.946289 24 2.10938 24C2.86157 24 3.53046 23.6111 3.90527 23.0012C4.14185 23.035 4.35791 23.0508 4.57031 23.0508C5.08868 23.0508 5.57318 22.9118 6.00055 22.7891C6.37189 22.6826 6.72235 22.582 7.04297 22.582C7.36359 22.582 7.71423 22.6826 8.08539 22.7891C8.51294 22.9118 8.99725 23.0508 9.51562 23.0508C10.034 23.0508 10.5185 22.9118 10.9459 22.7891C11.3172 22.6826 11.6677 22.582 11.9883 22.582C12.3089 22.582 12.6595 22.6826 13.0307 22.7891C13.4583 22.9118 13.9426 23.0508 14.4609 23.0508C14.9793 23.0508 15.4638 22.9118 15.8912 22.7891C16.2625 22.6826 16.613 22.582 16.9336 22.582C17.2542 22.582 17.6049 22.6826 17.976 22.7891C18.4036 22.9118 18.8879 23.0508 19.4062 23.0508C19.6474 23.0508 19.8792 23.0292 20.0927 22.9982C20.4666 23.61 21.1362 24 21.8906 24C23.0537 24 24 23.0537 24 21.8906C24 21.1454 23.5999 20.4672 22.9883 20.0909ZM21.8906 22.5938C21.5649 22.5938 21.2765 22.3638 21.2047 22.0468C21.1637 21.865 21.052 21.7068 20.8942 21.6072C20.781 21.5358 20.6508 21.4988 20.519 21.4988C20.4672 21.4988 20.4152 21.5045 20.3639 21.5162C19.9711 21.605 19.6758 21.6445 19.4062 21.6445C19.0856 21.6445 18.735 21.544 18.3638 21.4374C17.9363 21.3148 17.452 21.1758 16.9336 21.1758C16.4152 21.1758 15.9307 21.3148 15.5034 21.4374C15.132 21.544 14.7816 21.6445 14.4609 21.6445C14.1403 21.6445 13.7897 21.544 13.4185 21.4374C12.991 21.3148 12.5067 21.1758 11.9883 21.1758C11.4699 21.1758 10.9854 21.3148 10.558 21.4374C10.1867 21.544 9.83624 21.6445 9.51562 21.6445C9.19501 21.6445 8.84436 21.544 8.47321 21.4374C8.04565 21.3148 7.56134 21.1758 7.04297 21.1758C6.5246 21.1758 6.0401 21.3148 5.61273 21.4374C5.24139 21.544 4.89093 21.6445 4.57031 21.6445C4.30481 21.6445 4.01587 21.6064 3.63354 21.5208C3.25635 21.4362 2.88135 21.6724 2.79456 22.0494C2.72223 22.3649 2.43402 22.5938 2.10938 22.5938C1.72174 22.5938 1.40625 22.2783 1.40625 21.8906C1.40625 21.563 1.62836 21.2816 1.94641 21.2064C2.32141 21.1177 2.55505 20.7435 2.47046 20.3676C2.38275 19.9788 2.34375 19.6859 2.34375 19.418C2.34375 19.0974 2.44427 18.7467 2.55084 18.3755C2.67352 17.9482 2.8125 17.4637 2.8125 16.9453C2.8125 16.4269 2.67352 15.9424 2.55084 15.5151C2.44427 15.1439 2.34375 14.7933 2.34375 14.4727C2.34375 14.152 2.44427 13.8014 2.55084 13.4302C2.67352 13.0029 2.8125 12.5184 2.8125 12C2.8125 11.4816 2.67352 10.9971 2.55084 10.5698C2.44427 10.1986 2.34375 9.84796 2.34375 9.52734C2.34375 9.20673 2.44427 8.85608 2.55084 8.48492C2.67352 8.05756 2.8125 7.57306 2.8125 7.05469C2.8125 6.53632 2.67352 6.05182 2.55084 5.62445C2.44427 5.2533 2.34375 4.90265 2.34375 4.58203C2.34375 4.31415 2.38275 4.02118 2.47046 3.63245C2.55524 3.25635 2.32141 2.88226 1.94641 2.79364C1.62836 2.71838 1.40625 2.43695 1.40625 2.10938C1.40625 1.72174 1.72174 1.40625 2.10938 1.40625C2.43402 1.40625 2.72223 1.63513 2.79456 1.95062C2.88135 2.32745 3.25616 2.56366 3.63354 2.47925C4.01587 2.39355 4.30481 2.35547 4.57031 2.35547C4.89093 2.35547 5.24158 2.45599 5.61273 2.56256C6.0401 2.68506 6.5246 2.82422 7.04297 2.82422C7.56134 2.82422 8.04584 2.68524 8.47321 2.56256C8.84436 2.45599 9.19501 2.35547 9.51562 2.35547C9.83624 2.35547 10.1869 2.45599 10.558 2.56256C10.9854 2.68506 11.4699 2.82422 11.9883 2.82422C12.5067 2.82422 12.9911 2.68524 13.4185 2.56256C13.7897 2.45599 14.1403 2.35547 14.4609 2.35547C14.7816 2.35547 15.1322 2.45599 15.5034 2.56256C15.9307 2.68506 16.4152 2.82422 16.9336 2.82422C17.452 2.82422 17.9365 2.68524 18.3638 2.56256C18.735 2.45599 19.0856 2.35547 19.4062 2.35547C19.6758 2.35547 19.9711 2.39502 20.3639 2.48383C20.5457 2.52502 20.7365 2.49225 20.8942 2.39264C21.052 2.29303 21.1637 2.13501 21.2047 1.953C21.2765 1.63623 21.5649 1.40625 21.8906 1.40625C22.2783 1.40625 22.5938 1.72174 22.5938 2.10938C22.5938 2.43732 22.3619 2.72607 22.0426 2.79602C21.8599 2.83612 21.7006 2.94745 21.6 3.10529C21.4997 3.26312 21.4662 3.45447 21.5072 3.63702C21.5942 4.02374 21.6328 4.31506 21.6328 4.58203C21.6328 4.90265 21.5323 5.2533 21.4257 5.62445C21.3032 6.052 21.1641 6.53632 21.1641 7.05469C21.1641 7.57306 21.3032 8.05756 21.4257 8.48492C21.5323 8.85608 21.6328 9.20673 21.6328 9.52734C21.6328 9.84796 21.5323 10.1986 21.4257 10.5698C21.3032 10.9973 21.1641 11.4816 21.1641 12C21.1641 12.5184 21.3032 13.0029 21.4257 13.4302C21.5323 13.8014 21.6328 14.152 21.6328 14.4727C21.6328 14.7933 21.5323 15.1439 21.4257 15.5151C21.3032 15.9426 21.1641 16.4269 21.1641 16.9453C21.1641 17.4637 21.3032 17.9482 21.4257 18.3755C21.5323 18.7467 21.6328 19.0974 21.6328 19.418C21.6328 19.6851 21.5942 19.9766 21.5072 20.3628C21.4662 20.5455 21.4995 20.7369 21.6 20.8947C21.7006 21.0526 21.8599 21.1639 22.0426 21.204C22.3619 21.2739 22.5938 21.5629 22.5938 21.8906C22.5938 22.2783 22.2783 22.5938 21.8906 22.5938Z" fill="#84B739"/>
</svg>
