<svg width="24" height="22" viewBox="0 0 24 22" fill="none" xmlns="http://www.w3.org/2000/svg">
<path d="M23.2535 6.99072C22.2167 6.99072 1.62122 6.99072 0.746521 6.99072C0.334351 6.99072 0 7.32526 0 7.73724V14.3065C0 14.7187 0.334351 15.053 0.746521 15.053H23.2535C23.6656 15.053 24 14.7187 24 14.3065V7.73724C24 7.32526 23.6656 6.99072 23.2535 6.99072ZM22.507 13.56H20.8586V8.48376H22.507V13.56ZM1.49304 8.48376H3.14136V13.56H1.49304V8.48376ZM4.6344 8.48376H19.3656V13.56H4.6344V8.48376Z" fill="#84B739"/>
<path d="M7.95886 3.89299C8.31994 4.81309 9.71154 4.27201 9.34881 3.34751L8.60138 1.44303C8.24121 0.524943 6.85071 1.06895 7.21161 1.98851L7.95886 3.89299Z" fill="#84B739"/>
<path d="M12.7469 3.61996V1.7153C12.7469 0.728912 11.2539 0.727814 11.2539 1.7153V3.61996C11.2539 4.60635 12.7469 4.60727 12.7469 3.61996Z" fill="#84B739"/>
<path d="M16.0413 3.89278L16.7885 1.9883C17.1489 1.0702 15.7595 0.523269 15.3988 1.44282L14.6513 3.3473C14.2895 4.26942 15.6809 4.81105 16.0413 3.89278Z" fill="#84B739"/>
<path d="M16.041 18.1517C15.6808 17.2334 14.2903 17.7774 14.651 18.6969L15.3984 20.6014C15.7594 21.5217 17.151 20.9806 16.7882 20.0561L16.041 18.1517Z" fill="#84B739"/>
<path d="M11.2539 18.4243V20.3288C11.2539 21.3152 12.7469 21.3163 12.7469 20.3288V18.4243C12.7469 17.4379 11.2539 17.4368 11.2539 18.4243Z" fill="#84B739"/>
<path d="M7.95911 18.1514L7.21186 20.0558C6.85004 20.9778 8.24146 21.5194 8.60163 20.6011L9.34906 18.6967C9.70923 17.7786 8.31983 17.2318 7.95911 18.1514Z" fill="#84B739"/>
<path d="M16.5599 10.2754H7.43942C6.4534 10.2754 6.45157 11.7684 7.43942 11.7684H16.5599C17.5459 11.7684 17.5478 10.2754 16.5599 10.2754Z" fill="#84B739"/>
</svg>
