<svg width="24" height="22" viewBox="0 0 24 22" fill="none" xmlns="http://www.w3.org/2000/svg">
<path d="M23.2968 5.35054C23.6851 5.35054 23.9999 5.03573 23.9999 4.64742V1.60058C23.9999 1.21227 23.6851 0.897461 23.2968 0.897461H0.703262C0.314954 0.897461 0.000144149 1.21227 0.000144149 1.60058V4.64742C0.000144149 5.03573 0.314954 5.35054 0.703262 5.35054H8.43756V7.28468L7.79116 6.91146C7.4906 6.73793 7.10834 6.80961 6.89117 7.0804L4.40612 10.1776C3.56673 10.5013 2.82813 11.1019 2.34429 11.9398L0.0943151 15.8369C-0.0998393 16.1732 0.0153784 16.6032 0.351656 16.7974L1.04277 17.1964C0.294751 18.4396 0.723418 20.043 1.96203 20.7584C3.19497 21.4696 4.79968 21.0492 5.50603 19.7732L6.19724 20.1723C6.53338 20.3664 6.96364 20.2512 7.1577 19.915L9.40768 16.0179C9.89142 15.18 10.0423 14.2402 9.90295 13.3516L11.3423 9.6502C11.468 9.32682 11.339 8.95993 11.0385 8.78645L9.8437 8.09659V5.35054H14.1562V8.09659L12.9613 8.78645C12.6608 8.95993 12.5318 9.32677 12.6576 9.6502L14.0969 13.3516C13.9576 14.2402 14.1084 15.18 14.5922 16.0179L16.8422 19.915C17.0369 20.2524 17.4677 20.3657 17.8026 20.1723L18.4938 19.7732C18.9648 20.6231 19.8422 21.1029 20.7532 21.1029C22.7424 21.1029 23.9923 18.9162 22.9571 17.1963L23.6482 16.7973C23.9845 16.6031 24.0997 16.1732 23.9056 15.8368L21.6556 11.9397C21.1718 11.1018 20.4331 10.5012 19.5937 10.1775L17.1087 7.08035C16.8915 6.80965 16.5093 6.73784 16.2088 6.91142L15.5624 7.28463V5.3505H23.2968V5.35054ZM2.6651 19.5404C2.10167 19.215 1.89795 18.4758 2.2617 17.9001L4.28827 19.0701C3.97131 19.6714 3.22914 19.8658 2.6651 19.5404ZM8.18997 15.3147L6.29155 18.6029C5.2372 17.9941 2.64931 16.5 1.66377 15.931L3.56219 12.6429C4.29877 11.367 5.93615 10.9282 7.21203 11.6649C8.48786 12.4016 8.92656 14.0389 8.18997 15.3147ZM6.40335 9.93543L7.61051 8.4309L9.81319 9.70266L9.1141 11.5004C8.45926 10.6426 7.48216 10.0747 6.40335 9.93543ZM21.3354 19.5403C20.7677 19.8675 20.0271 19.6678 19.7118 19.0701L21.7384 17.9001C22.1007 18.4735 21.9005 19.2138 21.3354 19.5403ZM20.4379 12.6429L22.3363 15.931C18.7739 17.9878 20.4412 17.0251 17.7085 18.6029L15.8101 15.3147C15.0735 14.0388 15.5122 12.4016 16.7881 11.6649C18.072 10.9236 19.706 11.3752 20.4379 12.6429ZM16.3896 8.43095L17.5967 9.93543C16.5221 10.0741 15.5434 10.6393 14.886 11.5005L14.1869 9.7027L16.3896 8.43095ZM1.40638 2.3037H22.5937V3.94431H1.40638V2.3037Z" fill="#84B739"/>
</svg>
