<svg width="24" height="24" viewBox="0 0 24 24" fill="none" xmlns="http://www.w3.org/2000/svg">
<path d="M17.2164 0.598541C17.1634 0.254212 16.8671 0 16.5187 0C15.8107 0 9.30291 0 7.44653 0C7.09717 0 6.80032 0.255623 6.74846 0.601129L5.27943 10.3894C5.21547 10.8157 5.54592 11.2 5.9775 11.2H9.78926V11.6626C9.78926 13.4794 8.5694 14.4308 8.45608 14.5742C8.40197 14.6424 8.35792 14.723 8.33053 14.8194C8.2655 15.0497 8.19166 14.4532 9.65133 22.5882H7.48338C7.09354 22.5882 6.7775 22.9043 6.7775 23.2941C6.7775 23.6839 7.09354 24 7.48338 24H16.5187C16.9085 24 17.2246 23.6839 17.2246 23.2941C17.2246 22.9043 16.9085 22.5882 16.5187 22.5882H14.3507C15.7737 14.6577 15.6935 15.116 15.6973 15.0542C15.7085 14.8664 15.6456 14.6865 15.5243 14.5475C15.3695 14.3708 14.2128 13.4293 14.2128 11.6626V11.2H18.0246C18.4567 11.2 18.788 10.8143 18.7223 10.3868L17.2164 0.598541ZM13.4679 9.78823H10.5342L11.5007 1.41176H12.5013L13.4679 9.78823ZM8.05439 1.41176H10.0796L9.11312 9.78823H6.79726L8.05439 1.41176ZM14.2324 15.2542L12.9164 22.5882H11.0857L9.76973 15.2542C10.6837 14.2886 11.201 13.0008 11.201 11.6626V11.2H12.801V11.6626C12.801 13.0008 13.3184 14.2886 14.2324 15.2542ZM14.889 9.78823L13.9225 1.41176H15.9131L17.2018 9.78823H14.889Z" fill="#84B739"/>
<path d="M21.0348 3.67061C21.2155 3.67061 21.3961 3.60172 21.5339 3.46384L23.7927 1.20501C24.0684 0.929341 24.0684 0.482424 23.7927 0.206753C23.5171 -0.0689176 23.0701 -0.0689176 22.7945 0.206753L20.5356 2.46558C20.0897 2.9116 20.4116 3.67061 21.0348 3.67061Z" fill="#84B739"/>
<path d="M22.7957 4.3479L20.5368 6.60673C20.2612 6.8824 20.2612 7.32932 20.5368 7.60499C20.8125 7.88066 21.2594 7.88071 21.5351 7.60499L23.7939 5.34616C24.0696 5.07049 24.0696 4.62357 23.7939 4.3479C23.5183 4.07218 23.0713 4.07218 22.7957 4.3479Z" fill="#84B739"/>
<path d="M1.20501 0.207241C0.929388 -0.0684294 0.482424 -0.0684294 0.206753 0.207241C-0.0689176 0.482912 -0.0689176 0.92983 0.206753 1.2055L2.46558 3.46432C2.60336 3.60216 2.78402 3.67105 2.96468 3.67105C3.58793 3.67105 3.90972 2.91199 3.46379 2.46607L1.20501 0.207241Z" fill="#84B739"/>
<path d="M1.20501 4.34787C0.929388 4.0722 0.482424 4.0722 0.206753 4.34787C-0.0689176 4.62354 -0.0689176 5.07045 0.206753 5.34613L2.46558 7.60495C2.60336 7.74278 2.78402 7.81168 2.96468 7.81168C3.58793 7.81168 3.90972 7.05262 3.46379 6.60669L1.20501 4.34787Z" fill="#84B739"/>
</svg>
