<svg width="20" height="24" viewBox="0 0 20 24" fill="none" xmlns="http://www.w3.org/2000/svg">
<path d="M19.8438 2.10938C19.8438 0.946266 18.8975 0 17.7344 0C17.1945 0 16.7016 0.204094 16.3281 0.538828C15.9546 0.204094 15.4617 0 14.9219 0C14.382 0 13.8891 0.204094 13.5156 0.538828C13.1421 0.204094 12.6492 0 12.1094 0C11.5695 0 11.0766 0.204094 10.7031 0.538828C10.3296 0.204094 9.83673 0 9.29688 0C8.13377 0 7.1875 0.946266 7.1875 2.10928V4.16405C7.1875 7.54833 8.15969 10.8275 10 13.6624V14.8594C10 16.5571 11.2098 17.9776 12.8125 18.3043V20.4844C12.8125 21.6475 11.8662 22.5938 10.7031 22.5938C9.54002 22.5938 8.59375 21.6475 8.59375 20.4844V16.9688C8.59375 15.4179 7.33206 14.1562 5.78125 14.1562C4.23044 14.1562 2.96875 15.4179 2.96875 16.9688H1.5625V13.4531C1.5625 13.0648 1.24769 12.75 0.859375 12.75C0.471062 12.75 0.15625 13.0648 0.15625 13.4531V21.8906C0.15625 22.2789 0.471062 22.5938 0.859375 22.5938C1.24769 22.5938 1.5625 22.2789 1.5625 21.8906V18.375H2.96875V19.0781C2.96875 19.4664 3.28356 19.7812 3.67188 19.7812C4.06019 19.7812 4.375 19.4664 4.375 19.0781V16.9688C4.375 16.1933 5.00584 15.5625 5.78125 15.5625C6.55666 15.5625 7.1875 16.1933 7.1875 16.9688V20.4844C7.1875 22.4229 8.76461 24 10.7031 24C12.6416 24 14.2188 22.4229 14.2188 20.4844V18.3043C15.8215 17.9776 17.0312 16.5572 17.0312 14.8594V13.6625C18.8716 10.8275 19.8438 7.54838 19.8438 4.16409V2.10938ZM13.5156 16.9688C12.3525 16.9688 11.4062 16.0225 11.4062 14.8594V14.1562H15.625V14.8594C15.625 16.0225 14.6787 16.9688 13.5156 16.9688ZM18.4375 4.16405C18.4375 7.21706 17.5773 10.1775 15.9467 12.75H11.0846C9.45391 10.1775 8.59375 7.21711 8.59375 4.16405V2.10938C8.59375 1.72167 8.90917 1.40625 9.29688 1.40625C9.68458 1.40625 10 1.72167 10 2.10938C10 2.49769 10.3148 2.8125 10.7031 2.8125C11.0914 2.8125 11.4062 2.49769 11.4062 2.10938C11.4062 1.72167 11.7217 1.40625 12.1094 1.40625C12.4971 1.40625 12.8125 1.72167 12.8125 2.10938C12.8125 2.49769 13.1273 2.8125 13.5156 2.8125C13.9039 2.8125 14.2188 2.49769 14.2188 2.10938C14.2188 1.72167 14.5342 1.40625 14.9219 1.40625C15.3096 1.40625 15.625 1.72167 15.625 2.10938C15.625 2.49769 15.9398 2.8125 16.3281 2.8125C16.7164 2.8125 17.0312 2.49769 17.0312 2.10938C17.0312 1.72167 17.3467 1.40625 17.7344 1.40625C18.1221 1.40625 18.4375 1.72167 18.4375 2.10938V4.16405Z" fill="#84B739"/>
</svg>
