<svg width="24" height="24" viewBox="0 0 24 24" fill="none" xmlns="http://www.w3.org/2000/svg">
<path d="M12.0469 14.2031C13.2617 14.2031 14.25 13.2148 14.25 12C14.25 10.7852 13.2617 9.79688 12.0469 9.79688C10.8321 9.79688 9.84375 10.7852 9.84375 12C9.84375 13.2148 10.8321 14.2031 12.0469 14.2031ZM12.0469 11.2031C12.4863 11.2031 12.8438 11.5606 12.8438 12C12.8438 12.4394 12.4863 12.7969 12.0469 12.7969C11.6075 12.7969 11.25 12.4394 11.25 12C11.25 11.5606 11.6075 11.2031 12.0469 11.2031Z" fill="#84B739"/>
<path d="M11.3096 8.01231C11.3889 8.39424 11.7496 8.63701 12.1365 8.5645C12.5158 8.48546 12.7617 8.12762 12.6887 7.73762C12.6002 7.31504 12.1796 7.08521 11.7952 7.2023C11.4317 7.31832 11.2445 7.66435 11.3096 8.01231Z" fill="#84B739"/>
<path d="M12.6893 15.9876C12.6009 15.5661 12.1809 15.335 11.7958 15.4523C11.3945 15.5804 11.222 15.9826 11.327 16.3289C11.4531 16.7226 11.8469 16.9038 12.2041 16.7976C12.5788 16.6751 12.7524 16.3248 12.6893 15.9876Z" fill="#84B739"/>
<path d="M16.5678 12.6992C17.1434 12.6513 17.4202 11.9385 16.9957 11.5025C16.6791 11.1947 16.2037 11.2494 15.9546 11.5541C15.5584 12.0409 15.9508 12.762 16.5678 12.6992Z" fill="#84B739"/>
<path d="M7.892 11.4157C7.37103 11.0727 6.69594 11.5175 6.812 12.1375C6.93162 12.7139 7.65622 12.9074 8.04528 12.446C8.31495 12.1043 8.22739 11.6424 7.892 11.4157Z" fill="#84B739"/>
<path d="M23.794 22.7997L22.7678 21.7734L23.7941 20.7472C24.0997 20.4415 24.0596 19.9346 23.7097 19.6808L21.1354 17.8137C21.8367 16.713 22.3361 15.4899 22.6026 14.2031H23.2969C23.6852 14.2031 24 13.8883 24 13.5V10.5C24 10.1116 23.6852 9.79683 23.2969 9.79683H22.6034C21.7377 5.58886 18.4195 2.26411 14.2031 1.39659V0.703125C14.2031 0.314812 13.8883 0 13.5 0H10.5C10.1117 0 9.79688 0.314812 9.79688 0.703125V1.39659C5.58891 2.26237 2.26402 5.58052 1.39659 9.79688H0.703125C0.314812 9.79688 0 10.1117 0 10.5V13.5C0 13.8883 0.314812 14.2031 0.703125 14.2031H1.39744C1.87542 16.5106 3.10313 18.6126 4.89755 20.1733C8.5223 23.3258 13.7895 23.7043 17.8259 21.127L19.679 23.707C19.9323 24.0599 20.4413 24.0999 20.7472 23.794L21.7735 22.7677L22.7998 23.794C23.0743 24.0686 23.5195 24.0687 23.7941 23.794C24.0687 23.5195 24.0687 23.0743 23.794 22.7997ZM19.8281 11.2031H22.5938V12.7969H19.8281V11.2031ZM21.1617 9.79688H19.5131C19.3244 9.15192 19.0522 8.53228 18.7012 7.95216C18.7437 6.73036 17.7913 5.73436 16.6126 5.67473C15.8746 5.13469 15.063 4.73475 14.2031 4.48387V2.83828C17.6186 3.66173 20.3383 6.38142 21.1617 9.79688ZM7.5 7.07812C7.93941 7.07812 8.29688 7.43559 8.29688 7.875C8.29688 8.31441 7.93941 8.67188 7.5 8.67188C7.06059 8.67188 6.70312 8.31441 6.70312 7.875C6.70312 7.43559 7.06059 7.07812 7.5 7.07812ZM7.5 15.3281C7.93941 15.3281 8.29688 15.6856 8.29688 16.125C8.29688 16.5644 7.93941 16.9219 7.5 16.9219C7.06059 16.9219 6.70312 16.5644 6.70312 16.125C6.70312 15.6856 7.06059 15.3281 7.5 15.3281ZM7.5 13.9219C6.95198 13.9219 6.45047 14.1234 6.06459 14.4557C5.43277 12.9291 5.39934 11.1517 6.06459 9.54427C6.45047 9.87656 6.95198 10.0781 7.5 10.0781C8.71481 10.0781 9.70312 9.08981 9.70312 7.875C9.70312 7.2578 9.4477 6.69942 9.03741 6.29906C10.879 5.33672 13.1212 5.33681 14.9626 6.29906C14.5523 6.69947 14.2969 7.25784 14.2969 7.875C14.2969 9.08981 15.2852 10.0781 16.5 10.0781C17.048 10.0781 17.5495 9.87656 17.9354 9.54427C18.5697 11.0769 18.5941 12.8406 17.9478 14.4258C17.5667 14.1112 17.0785 13.9219 16.5469 13.9219C15.3321 13.9219 14.3438 14.9102 14.3438 16.125C14.3438 16.7338 14.592 17.2857 14.9926 17.6848C13.1679 18.6508 10.9111 18.68 9.03741 17.7009C9.4477 17.3006 9.70312 16.7422 9.70312 16.125C9.70312 14.9102 8.71481 13.9219 7.5 13.9219ZM16.5 8.67188C16.0606 8.67188 15.7031 8.31441 15.7031 7.875C15.7031 7.43559 16.0606 7.07812 16.5 7.07812C16.9394 7.07812 17.2969 7.43559 17.2969 7.875C17.2969 8.31441 16.9394 8.67188 16.5 8.67188ZM16.5469 16.9219C16.1075 16.9219 15.75 16.5644 15.75 16.125C15.75 15.6856 16.1075 15.3281 16.5469 15.3281C16.9863 15.3281 17.3438 15.6856 17.3438 16.125C17.3438 16.5644 16.9863 16.9219 16.5469 16.9219ZM11.2031 1.40625H12.7969V4.17188H11.2031V1.40625ZM9.79688 2.83828V4.48387C8.937 4.73475 8.12536 5.13469 7.38741 5.67473C6.20817 5.73441 5.25637 6.7313 5.29884 7.95216C4.94775 8.53228 4.67559 9.15192 4.48688 9.79688H2.83828C3.66169 6.38142 6.38142 3.66173 9.79688 2.83828ZM1.40625 12.7969V11.2031H4.17188V12.7969H1.40625ZM2.83805 14.2031H4.48688C4.67559 14.8481 4.94775 15.4677 5.29884 16.0478C5.25633 17.2696 6.20869 18.2656 7.38741 18.3253C10.1288 20.3314 13.8685 20.3317 16.6107 18.3265C17.8413 18.2912 18.8289 17.2399 18.7444 15.9761C19.0746 15.4169 19.3321 14.8215 19.513 14.2031H21.162C20.1588 18.3712 16.3568 21.4219 12 21.4219C7.6432 21.4219 3.84117 18.3712 2.83805 14.2031ZM20.3382 22.2143L18.9595 20.2949C19.4407 19.8908 19.8862 19.4475 20.3043 18.9481L22.2171 20.3355L20.3382 22.2143Z" fill="#84B739"/>
</svg>
