<svg width="16" height="18" viewBox="0 0 16 18" fill="none" xmlns="http://www.w3.org/2000/svg">
<path d="M7.96484 15.1523V8.85938C7.96484 7.08015 6.49215 5.09766 4.37891 5.09766H4.20312C2.12891 5.09766 0.441406 6.78516 0.441406 8.85938V14.625C0.441406 14.9162 0.677516 15.1523 0.96875 15.1523H7.96484Z" fill="#84B739"/>
<path d="M11.7948 5.09766H11.2674V7.59375C11.2674 7.88498 11.0313 8.12109 10.7401 8.12109C10.4488 8.12109 10.2127 7.88498 10.2127 7.59375C10.2127 7.17247 10.2127 4.47855 10.2127 3.90234H13.6229C14.0323 3.90234 14.2857 3.45466 14.0751 3.1037L13.3921 1.96545L14.078 0.793758C14.2834 0.442898 14.03 0 13.6229 0H9.68539C9.39415 0 9.15804 0.236109 9.15804 0.527344V5.09766H7.22754C8.36267 6.04877 9.01742 7.47229 9.01742 8.85938V15.1523H15.0291C15.3204 15.1523 15.5565 14.9162 15.5565 14.625V8.85938C15.5565 6.78516 13.869 5.09766 11.7948 5.09766Z" fill="#84B739"/>
<path d="M6.91016 16.207V17.4727C6.91016 17.7639 7.14627 18 7.4375 18H9.6875C9.97873 18 10.2148 17.7639 10.2148 17.4727V16.207H6.91016Z" fill="#84B739"/>
</svg>
