<svg width="17" height="16" viewBox="0 0 17 16" fill="none" xmlns="http://www.w3.org/2000/svg">
<path d="M6.62699 9.37465C5.09982 7.84748 4.75499 6.32031 4.67719 5.70845C4.65546 5.53926 4.71368 5.3696 4.83471 5.24941L6.07057 4.0141C6.25237 3.83242 6.28463 3.54927 6.14837 3.33134L4.18064 0.275894C4.02989 0.034583 3.72035 -0.0525085 3.46588 0.0747902L0.306987 1.56251C0.10121 1.66384 -0.0198247 1.88247 0.00353897 2.11065C0.169056 3.68307 0.854573 7.54845 4.65319 11.3473C8.45182 15.1462 12.3166 15.8315 13.8899 15.997C14.1181 16.0204 14.3367 15.8993 14.438 15.6936L15.9257 12.5347C16.0526 12.2807 15.9661 11.972 15.7257 11.821L12.6703 9.85383C12.4525 9.71742 12.1694 9.74945 11.9875 9.93107L10.7522 11.1669C10.632 11.288 10.4624 11.3462 10.2932 11.3244C9.68133 11.2467 8.15416 10.9018 6.62699 9.37465V9.37465Z" fill="#84B739"/>
<path d="M12.6914 8.55171C12.3867 8.55171 12.1396 8.30469 12.1396 7.99999C12.1371 5.71574 10.286 3.86464 8.00171 3.86205C7.697 3.86205 7.44998 3.61504 7.44998 3.31033C7.44998 3.00562 7.697 2.75861 8.00171 2.75861C10.8951 2.7618 13.2399 5.10658 13.2431 7.99999C13.2431 8.30469 12.9961 8.55171 12.6914 8.55171Z" fill="#84B739"/>
<path d="M15.45 8.55172C15.1453 8.55172 14.8983 8.30471 14.8983 8C14.894 4.1929 11.8088 1.10771 8.00171 1.10345C7.697 1.10345 7.44998 0.856433 7.44998 0.551724C7.44998 0.247015 7.697 0 8.00171 0C12.418 0.00486507 15.9968 3.58374 16.0017 8C16.0017 8.14633 15.9436 8.28666 15.8401 8.39013C15.7366 8.4936 15.5963 8.55172 15.45 8.55172Z" fill="#84B739"/>
</svg>
