<svg width="28" height="30" viewBox="0 0 28 30" fill="none" xmlns="http://www.w3.org/2000/svg">
<path d="M6.5 0C5.46875 0 4.625 0.84375 4.625 1.875V28.125C4.625 29.1562 5.46875 30 6.5 30H25.25C26.2812 30 27.125 29.1562 27.125 28.125V7.5L19.625 0H6.5Z" fill="#E2E5E7"/>
<path d="M21.5 7.5H27.125L19.625 0V5.625C19.625 6.65625 20.4688 7.5 21.5 7.5Z" fill="#B0B7BD"/>
<path d="M27.125 13.125L21.5 7.5H27.125V13.125Z" fill="#CAD1D8"/>
<path d="M23.375 24.375C23.375 24.8906 22.9531 25.3125 22.4375 25.3125H1.8125C1.29688 25.3125 0.875 24.8906 0.875 24.375V15C0.875 14.4844 1.29688 14.0625 1.8125 14.0625H22.4375C22.9531 14.0625 23.375 14.4844 23.375 15V24.375Z" fill="#50BEE8"/>
<path d="M4.42766 22.5001C4.18016 22.5001 3.91016 22.3641 3.91016 22.0351V17.7779C3.91016 17.5079 4.18016 17.3129 4.42766 17.3129H6.14422C9.56984 17.3129 9.49391 22.5001 6.21078 22.5001H4.42766ZM4.90016 18.227V21.5851H6.14422C8.16828 21.5851 8.25734 18.227 6.14422 18.227H4.90016Z" fill="white"/>
<path d="M12.3617 22.5751C10.9752 22.6351 9.53516 21.7126 9.53516 19.876C9.53516 18.0319 10.9742 17.1254 12.3617 17.1254C13.6733 17.1919 15.0449 18.0994 15.0449 19.876C15.0449 21.6535 13.6733 22.5751 12.3617 22.5751ZM12.2792 18.1004C11.4392 18.1004 10.5252 18.6929 10.5252 19.8769C10.5252 21.0544 11.4402 21.6544 12.2792 21.6544C13.1417 21.6544 14.0633 21.0544 14.0633 19.8769C14.0633 18.6919 13.1417 18.1004 12.2792 18.1004Z" fill="white"/>
<path d="M15.9266 19.8685C15.9266 18.4219 16.8341 17.1779 18.5581 17.1779C19.2106 17.1779 19.7281 17.3729 20.2747 17.8454C20.4772 18.0319 20.4997 18.3619 20.2972 18.5719C20.0947 18.751 19.7872 18.7294 19.6072 18.5494C19.3006 18.2269 18.9856 18.1379 18.5581 18.1379C17.4041 18.1379 16.85 18.9554 16.85 19.8694C16.85 20.7994 17.3966 21.6535 18.5581 21.6535C18.9856 21.6535 19.3831 21.4801 19.7281 21.1735C19.9597 20.9935 20.2822 21.0826 20.4172 21.2635C20.5372 21.4285 20.5963 21.706 20.3347 21.9676C19.8097 22.456 19.1806 22.5535 18.5572 22.5535C16.7441 22.5535 15.9266 21.3151 15.9266 19.8685Z" fill="white"/>
<path d="M22.4375 25.3125H4.625V26.25H22.4375C22.9531 26.25 23.375 25.8281 23.375 25.3125V24.375C23.375 24.8906 22.9531 25.3125 22.4375 25.3125Z" fill="#CAD1D8"/>
</svg>
