<svg width="20" height="20" viewBox="0 0 20 20" fill="none" xmlns="http://www.w3.org/2000/svg">
<path d="M16.525 8.45391C16.116 8.05039 15.5746 7.82812 15 7.82812C14.4199 7.82812 13.8746 8.05391 13.4645 8.46445L12.1875 9.74102V2.1875C12.1875 0.98125 11.2063 0 10 0C8.79375 0 7.8125 0.98125 7.8125 2.1875V9.74102L6.55508 8.48359C6.14492 8.07344 5.575 7.83867 4.99063 7.83867H4.9832C4.39961 7.84062 3.85664 8.0668 3.45391 8.475C3.05039 8.88398 2.82812 9.42539 2.82812 10C2.82812 10.5801 3.05391 11.1254 3.46445 11.5355L8.7293 16.8008C9.07969 17.1512 9.53984 17.3262 10 17.3262C10.4602 17.3262 10.9203 17.1512 11.2707 16.8008L16.5164 11.5551C16.9281 11.1434 17.1633 10.5703 17.1613 9.9832C17.1594 9.39961 16.9332 8.85664 16.525 8.45391V8.45391Z" fill="#84B739"/>
<path d="M19.375 20H18.4375C18.0923 20 17.8125 19.7202 17.8125 19.375C17.8125 19.0298 18.0923 18.75 18.4375 18.75H19.375C19.7202 18.75 20 19.0298 20 19.375C20 19.7202 19.7202 20 19.375 20Z" fill="#84B739"/>
<path d="M1.5625 20H0.625C0.279844 20 0 19.7202 0 19.375C0 19.0298 0.279844 18.75 0.625 18.75H1.5625C1.90766 18.75 2.1875 19.0298 2.1875 19.375C2.1875 19.7202 1.90766 20 1.5625 20Z" fill="#84B739"/>
<path d="M16.25 20H3.75C3.40484 20 3.125 19.7202 3.125 19.375C3.125 19.0298 3.40484 18.75 3.75 18.75H16.25C16.5952 18.75 16.875 19.0298 16.875 19.375C16.875 19.7202 16.5952 20 16.25 20Z" fill="#84B739"/>
</svg>
