<svg width="333" height="315" viewBox="0 0 333 315" fill="none" xmlns="http://www.w3.org/2000/svg">
<path d="M255.375 151.863L266.925 149.867C266.925 149.867 269.546 156.313 257.866 158.427L255.375 151.863Z" fill="#24285B"/>
<path d="M142.434 132.124C140.296 127.435 140.082 122.094 141.84 117.249C143.597 112.404 147.185 108.441 151.834 106.209C156.369 104.072 161.234 102.687 165.569 103.72C173.571 105.564 188.67 130.633 197.87 147.166C200.192 151.348 203.782 154.686 208.123 156.699C212.465 158.712 217.333 159.297 222.028 158.368L255.892 151.652L259.417 160.904L203.804 179.574C198.532 181.342 192.775 180.953 187.789 178.494C167.782 168.712 151.763 152.335 142.434 132.124V132.124Z" fill="#84B739"/>
<path opacity="0.08" d="M142.434 132.124C140.296 127.435 140.082 122.094 141.84 117.249C143.597 112.404 147.185 108.441 151.834 106.209C156.369 104.072 161.234 102.687 165.569 103.72C173.571 105.564 188.67 130.633 197.87 147.166C200.192 151.348 203.782 154.686 208.123 156.699C212.465 158.712 217.333 159.297 222.028 158.368L255.892 151.652L259.417 160.904L203.804 179.574C198.532 181.342 192.775 180.953 187.789 178.494C167.782 168.712 151.763 152.335 142.434 132.124Z" fill="black"/>
<path d="M274.553 59.4225L192.422 84.6254L215.852 160.876L297.983 135.673L274.553 59.4225Z" fill="#FFD200"/>
<path opacity="0.08" d="M274.553 59.4225L192.422 84.6254L215.852 160.876L297.983 135.673L274.553 59.4225Z" fill="black"/>
<path d="M239.069 70.3034L156.938 95.5063L180.367 171.757L262.498 146.554L239.069 70.3034Z" fill="#FFD200"/>
<path opacity="0.45" d="M187.353 314.128C267.244 314.128 332.008 304.06 332.008 291.642C332.008 279.223 267.244 269.155 187.353 269.155C107.463 269.155 42.6992 279.223 42.6992 291.642C42.6992 304.06 107.463 314.128 187.353 314.128Z" fill="#E6E6E6"/>
<path d="M251.686 236.512C251.686 236.512 253.166 240.493 256.797 240.763C260.428 241.033 261.403 244.555 258.16 245.518C254.917 246.481 246.469 242.383 246.469 242.383L246.657 237.158L251.686 236.512Z" fill="#84B739"/>
<path d="M165.665 284.338C165.665 284.338 164.49 288.436 167.286 290.784C170.083 293.133 168.767 296.573 165.583 295.423C162.398 294.272 157.992 286.029 157.992 286.029L161.223 281.919L165.665 284.338Z" fill="#84B739"/>
<path d="M119.722 101.125L127.877 112.104L120.145 121.486L109.641 101.289L119.722 101.125Z" fill="#F4A28C"/>
<path d="M102.39 90.4749C102.516 89.1373 102.974 87.8523 103.723 86.7364C104.472 85.6206 105.487 84.7092 106.678 84.0852C107.868 83.4612 109.196 83.1442 110.54 83.163C111.885 83.1818 113.203 83.5358 114.375 84.1929C119.98 87.2576 127.3 92.6707 122.894 98.3539C116.15 107.067 104.599 98.7062 104.599 98.7062C103.065 96.2408 102.297 93.3765 102.39 90.4749Z" fill="#F4A28C"/>
<path d="M111.203 95.9585C111.203 95.9585 108.371 94.7843 108.23 97.7903C108.089 100.796 112.425 100.749 113.165 99.035C113.905 97.3206 111.203 95.9585 111.203 95.9585Z" fill="#F4A28C"/>
<path d="M102.627 82.5255C98.6674 89.9113 94.4022 91.4143 100.277 95.9703C106.152 100.526 103.638 107.642 111.945 105.834C117.115 104.659 114.859 99.1172 112.415 95.0544C111.658 93.7965 111.246 92.362 111.219 90.8946C111.192 89.4273 111.552 87.9786 112.262 86.694C113.378 84.6861 114.13 82.3729 112.967 80.8229C111.804 79.2729 104.484 79.1085 102.627 82.5255Z" fill="#24285B"/>
<path d="M107.218 137.35C107.671 133.129 109.029 129.057 111.201 125.409C113.373 121.761 116.307 118.625 119.802 116.214C133.256 106.82 158.577 88.15 171.502 99.3638C189.233 114.711 196.177 195.497 196.177 195.497L147.273 215.822C147.273 215.822 103.352 175.136 107.218 137.35Z" fill="#84B739"/>
<path opacity="0.08" d="M123.706 113.478C123.706 113.478 124.998 196.694 194.417 179.527L196.156 195.497L147.276 215.822C147.276 215.822 120.486 193.923 108.501 154.658C108.501 154.658 102.626 135.248 113.401 122.296C116.166 118.655 119.68 115.649 123.706 113.478Z" fill="black"/>
<path d="M100.332 95.9702L121.729 74.1533C121.826 74.0487 121.883 73.9136 121.89 73.7715C121.898 73.6294 121.855 73.4891 121.77 73.3749C121.685 73.2607 121.563 73.1798 121.425 73.1461C121.286 73.1124 121.14 73.1281 121.012 73.1905L114.679 76.5017C113.608 77.0891 112.417 77.4278 111.197 77.4929C109.977 77.5579 108.757 77.3476 107.629 76.8775C105.82 75.9367 103.721 75.7144 101.754 76.2552C97.9824 77.7581 86.8904 86.7996 100.332 95.9702Z" fill="#FFD200"/>
<path d="M113.271 93.1287C113.271 93.1287 109.005 89.3124 107.666 93.1991C106.326 97.0858 112.154 99.2933 114.822 97.2267C117.489 95.16 113.271 93.1287 113.271 93.1287Z" fill="#F4A28C"/>
<path d="M147.273 215.822C147.273 215.822 159.963 229.126 175.215 223.971C190.466 218.817 233.8 191.575 245.621 239.013L254.328 237.51C254.328 237.51 254.762 206.981 237.079 196.037C219.395 185.093 196.153 195.497 196.153 195.497L147.273 215.822Z" fill="#24285B"/>
<path d="M151.504 218.23C151.504 218.23 186.954 241.092 158.671 281.719L166.438 284.902C166.438 284.902 202.158 257.695 180.233 207.168L151.504 218.23Z" fill="#24285B"/>
<path d="M144.809 125.678C142.667 120.989 142.452 115.647 144.21 110.801C145.968 105.955 149.558 101.992 154.209 99.763C158.744 97.6259 163.609 96.2403 167.956 97.2619C175.946 99.1172 191.045 124.175 200.245 140.708C202.568 144.892 206.16 148.232 210.503 150.247C214.846 152.262 219.717 152.848 224.415 151.922L258.278 145.229L261.803 154.481L206.191 173.151C200.919 174.912 195.166 174.528 190.175 172.083C170.164 162.287 154.142 145.899 144.809 125.678V125.678Z" fill="#84B739"/>
<path opacity="0.46" d="M144.809 125.678C142.667 120.989 142.452 115.647 144.21 110.801C145.968 105.955 149.558 101.992 154.209 99.763C158.744 97.6259 163.609 96.2403 167.956 97.2619C175.946 99.1172 191.045 124.175 200.245 140.708C202.568 144.892 206.16 148.232 210.503 150.247C214.846 152.262 219.717 152.848 224.415 151.922L258.278 145.229L261.803 154.481L206.191 173.151C200.919 174.912 195.166 174.528 190.175 172.083C170.164 162.287 154.142 145.899 144.809 125.678V125.678Z" fill="white"/>
<path d="M258.758 146.555L270.308 144.548C270.308 144.548 272.928 150.994 261.249 153.108L258.758 146.555Z" fill="#24285B"/>
<path opacity="0.22" d="M263.665 63.4722L252.512 66.8948L258.551 86.5496L269.705 83.1269L263.665 63.4722Z" fill="white"/>
<path d="M237.218 0.625726L167.285 22.0854L187.235 87.0101L257.167 65.5504L237.218 0.625726Z" fill="#FFD200"/>
<path opacity="0.08" d="M237.218 0.625726L167.285 22.0854L187.235 87.0101L257.167 65.5504L237.218 0.625726Z" fill="black"/>
<path d="M206.995 9.90465L137.062 31.3644L157.012 96.2891L226.945 74.8294L206.995 9.90465Z" fill="#FFD200"/>
<path opacity="0.22" d="M226.796 3.82977L217.305 6.74231L222.447 23.4786L231.939 20.5661L226.796 3.82977Z" fill="white"/>
<path opacity="0.46" d="M230.74 86.8522L212.824 92.3498L217.856 108.727L235.772 103.229L230.74 86.8522Z" fill="white"/>
<path opacity="0.46" d="M198.045 23.2851L180.129 28.7828L185.161 45.1599L203.077 39.6622L198.045 23.2851Z" fill="white"/>
<path opacity="0.05" d="M155.828 92.4593L253.753 54.4734L256.937 64.8535L226.951 74.8578L156.933 95.524L155.828 92.4593Z" fill="black"/>
<path d="M65.584 44.8198L11.2891 27.4828L0.442157 61.4071L54.7371 78.7441L65.584 44.8198Z" fill="#E6E6E6"/>
<path d="M11.293 27.49L31.6087 57.5029L65.578 44.8214L11.293 27.49Z" fill="#C9C9C9"/>
<g opacity="0.73">
<path opacity="0.73" d="M24.2901 83.1713C24.2901 83.1713 24.1374 83.7702 23.8789 84.8857" stroke="#C9C9C9" stroke-width="2.03" stroke-linecap="round" stroke-linejoin="round"/>
<path opacity="0.73" d="M21.2686 99.0702C16.2866 133.346 14.0776 210.621 97.3498 203.211" stroke="#C9C9C9" stroke-width="2.03" stroke-linecap="round" stroke-linejoin="round" stroke-dasharray="3.12 12.47"/>
<path opacity="0.73" d="M104.527 202.389L106.278 202.143" stroke="#C9C9C9" stroke-width="2.03" stroke-linecap="round" stroke-linejoin="round"/>
</g>
</svg>
