<svg width="64" height="64" viewBox="0 0 64 64" fill="none" xmlns="http://www.w3.org/2000/svg">
<path d="M54.6923 50.2612C54.4023 49.9712 53.9711 49.8387 53.5648 49.9199C53.4848 49.9362 53.4061 49.9599 53.3311 49.9912C53.2548 50.0224 53.1823 50.0612 53.1148 50.1062C53.0461 50.1512 52.9823 50.2037 52.9248 50.2612C52.8673 50.3187 52.8148 50.3824 52.7698 50.4512C52.7248 50.5187 52.6861 50.5912 52.6548 50.6674C52.6236 50.7424 52.5998 50.8212 52.5836 50.9012C52.5673 50.9812 52.5586 51.0637 52.5586 51.1449C52.5586 51.2274 52.5673 51.3087 52.5836 51.3899C52.5998 51.4699 52.6236 51.5487 52.6548 51.6237C52.6861 51.6987 52.7248 51.7712 52.7698 51.8387C52.8148 51.9074 52.8673 51.9712 52.9248 52.0299C52.9823 52.0874 53.0461 52.1387 53.1148 52.1849C53.1823 52.2299 53.2548 52.2687 53.3311 52.2999C53.4061 52.3312 53.4848 52.3549 53.5648 52.3712C53.6448 52.3874 53.7273 52.3949 53.8086 52.3949C54.1386 52.3949 54.4598 52.2624 54.6923 52.0299C54.9248 51.7962 55.0586 51.4749 55.0586 51.1449C55.0586 50.8162 54.9248 50.4937 54.6923 50.2612Z" fill="#333333"/>
<path d="M38.75 24.8824C32.4846 24.8824 27.3874 29.9796 27.3874 36.245C27.3874 42.5103 32.4846 47.6076 38.75 47.6076C45.0154 47.6076 50.1126 42.5103 50.1126 36.245C50.1126 29.9796 45.0154 24.8824 38.75 24.8824ZM38.75 45.1075C33.8631 45.1075 29.8874 41.1317 29.8874 36.2448C29.8874 31.358 33.8631 27.3822 38.75 27.3822C43.6369 27.3822 47.6126 31.358 47.6126 36.2448C47.6126 41.1317 43.6369 45.1075 38.75 45.1075Z" fill="#333333"/>
<path d="M39.4767 35.2257V32.9653C40.4742 33.0428 40.7658 33.5382 41.2722 33.5382C41.9476 33.5382 42.2237 32.6867 42.2237 32.2687C42.2237 31.2004 40.4282 30.9528 39.4767 30.9218V30.5348C39.4767 30.3181 39.1852 30.1168 38.8936 30.1168C38.5558 30.1168 38.3103 30.3181 38.3103 30.5348V30.9683C36.6836 31.2006 35.241 32.1451 35.241 34.1112C35.241 36.0928 36.8985 36.7587 38.3103 37.3004V39.8086C37.1747 39.6073 36.653 38.6939 36.0083 38.6939C35.4252 38.6939 34.9648 39.4681 34.9648 39.9944C34.9648 40.9853 36.4687 41.9451 38.3103 42.0071V42.3937C38.3103 42.6104 38.556 42.8117 38.8936 42.8117C39.1851 42.8117 39.4767 42.6104 39.4767 42.3937V41.9447C41.2722 41.6506 42.5 40.4894 42.5 38.5697C42.5 36.4797 40.8732 35.7521 39.4767 35.2257ZM38.4637 34.8544C37.8806 34.6067 37.4816 34.3281 37.4816 33.8791C37.4816 33.5074 37.7732 33.1514 38.4637 33.0121V34.8544ZM39.3232 39.7932V37.7186C39.8757 37.9817 40.2592 38.3069 40.2593 38.8178C40.2593 39.3752 39.845 39.6693 39.3232 39.7932Z" fill="#333333"/>
<path d="M60.0141 50.1043V38.0575C60.0141 33.7605 58.7021 29.2421 56.3199 25.3346C54.5407 22.4166 52.2086 19.9121 49.5809 18.0623C50.4684 17.4043 51.0448 16.3491 51.0448 15.1619C51.0448 13.1721 49.4259 11.5533 47.4361 11.5533H46.148L51.4751 1.8515C51.6877 1.46425 51.6802 0.9935 51.4551 0.61325C51.2301 0.23325 50.8211 0 50.3794 0H43.9543C43.6758 0 43.4051 0.093 43.1856 0.26425L39.0061 3.52362L36.8511 0.521125C36.6162 0.194 36.2383 0 35.8356 0H27.1186C26.6769 0 26.2679 0.23325 26.0429 0.613375C25.8179 0.993625 25.8102 1.46438 26.0229 1.85162L31.35 11.5534H30.062C28.0723 11.5534 26.4534 13.1721 26.4534 15.162C26.4534 16.3426 27.0232 17.3926 27.9024 18.0514C25.6741 19.5916 23.6859 21.5596 22.0546 23.8551C19.9128 26.8689 18.4711 30.3278 17.8619 33.9009H1.25C0.559625 33.9009 0 34.4605 0 35.1509V42.0508C0 42.7411 0.559625 43.3008 1.25 43.3008H2.50025V47.7005H1.25C0.559625 47.7005 0 48.2601 0 48.9505V55.8504C0 56.5408 0.559625 57.1004 1.25 57.1004H2.50025V62.75C2.50025 63.4404 3.05988 64 3.75025 64H25.2974C25.9877 64 26.5474 63.4404 26.5474 62.75V61.0926H58.3838C61.4805 61.0926 64 58.5732 64 55.4764C64 52.9835 62.3223 50.812 60.0141 50.1043ZM29.231 2.5H35.1941L37.7335 6.03813C37.9318 6.3145 38.2342 6.49813 38.5709 6.5465C38.9072 6.59513 39.2495 6.50413 39.5176 6.295L44.384 2.5H48.2669L43.2957 11.5533H34.2019L29.231 2.5ZM30.062 14.0534H47.4361C48.0475 14.0534 48.5448 14.5507 48.5448 15.162C48.5448 15.7734 48.0474 16.2706 47.4361 16.2706H30.062C29.4506 16.2706 28.9534 15.7732 28.9534 15.162C28.9532 14.5506 29.4506 14.0534 30.062 14.0534ZM2.5 40.8006V36.4007H21.5471V40.8006H2.5ZM24.0474 43.3006V47.7004H5.00025V43.3006H24.0474ZM2.5 54.6003V50.2004H21.5471V54.6003H2.5ZM24.0474 61.5H5.00025V57.1003H24.0474V61.5ZM58.3838 58.5926H26.5474V55.8503C26.5474 55.1599 25.9877 54.6003 25.2974 54.6003H24.0471V52.3955H48.8691C49.5595 52.3955 50.1191 51.8359 50.1191 51.1455C50.1191 50.4551 49.5595 49.8955 48.8691 49.8955H26.1156C26.3801 49.6664 26.5475 49.3279 26.5475 48.9504V42.0506C26.5475 41.3602 25.9879 40.8006 25.2975 40.8006H24.0473V35.1507C24.0473 34.4604 23.4876 33.9007 22.7973 33.9007H20.4029C21.6406 27.4755 25.9202 21.6439 31.563 18.7705H45.9347C52.6599 22.2051 57.5141 30.2653 57.5141 38.0574V51.1278C57.5141 51.7764 58.0104 52.3174 58.6566 52.3731C60.251 52.5109 61.5 53.874 61.5 55.4765C61.5 57.1948 60.102 58.5926 58.3838 58.5926Z" fill="#333333"/>
</svg>
