<svg width="34" height="28" viewBox="0 0 34 28" fill="none" xmlns="http://www.w3.org/2000/svg">
<path d="M7.42221 20.7966C7.14104 20.5611 6.72222 20.5981 6.48674 20.8793L4.82626 22.8618L4.22614 22.3533C3.94631 22.1163 3.52735 22.1509 3.29021 22.4308C3.05314 22.7106 3.08781 23.1296 3.36764 23.3667L4.47729 24.3068C4.59769 24.4088 4.74995 24.4642 4.90654 24.4642C4.9254 24.4642 4.94426 24.4634 4.96319 24.4617C5.13929 24.4466 5.30219 24.362 5.41568 24.2265L7.50502 21.7321C7.74036 21.4509 7.70331 21.0322 7.42221 20.7966Z" fill="#84B739"/>
<path d="M32.5936 10.5543H31.6393C30.8399 10.5173 30.197 9.83647 29.4532 9.04863C28.9561 8.52223 28.4239 7.95857 27.7828 7.54081V1.86414C27.7828 0.864258 26.9694 0.0507812 25.9696 0.0507812H4.30957C3.30969 0.0507812 2.49628 0.864258 2.49628 1.86414V6.47061C2.49628 6.83737 2.79358 7.13467 3.16034 7.13467C3.5271 7.13467 3.8244 6.83737 3.8244 6.47061V1.86414C3.8244 1.60117 4.0466 1.37891 4.30957 1.37891H11.658V7.25433C11.658 7.49572 11.789 7.71811 12.0001 7.83519C12.1004 7.89077 12.2113 7.9184 12.322 7.9184C12.4444 7.9184 12.5665 7.88459 12.674 7.81746L15.1404 6.27597L17.6049 7.81739C17.8096 7.94535 18.0676 7.95226 18.2789 7.83525C18.4901 7.71825 18.6211 7.49585 18.6211 7.2544V1.37891H25.9696C26.2326 1.37891 26.4548 1.6011 26.4548 1.86414V6.97782C26.2388 6.93259 26.012 6.90543 25.7722 6.90118C25.7683 6.90112 25.7644 6.90112 25.7605 6.90112H24.0782H22.7715H22.0189C22.0155 6.90112 22.0121 6.90112 22.0086 6.90118C21.2081 6.9136 20.7968 7.27651 20.5926 7.57873C20.2758 8.04782 20.2465 8.68313 20.5097 9.36691C20.571 9.52655 20.6457 9.67756 20.7318 9.81947H15.6962C14.6144 9.81947 13.7341 10.6997 13.7341 11.7816C13.7341 12.004 13.7713 12.218 13.8397 12.4175H13.6634C12.5815 12.4175 11.7013 13.2977 11.7013 14.3797C11.7013 15.4616 12.5815 16.3418 13.6634 16.3418H13.8392C13.7711 16.5408 13.7341 16.7541 13.7341 16.9759C13.7341 18.024 14.5584 18.8829 15.5922 18.9372C15.5235 19.1369 15.4861 19.3511 15.4861 19.574C15.4861 20.6559 16.3664 21.5361 17.4482 21.5361H25.6756C25.9589 21.5361 26.2169 21.5015 26.4546 21.4421V23.5229C26.4546 23.7869 26.2324 24.0099 25.9694 24.0099H10.5877C10.718 23.546 10.7892 23.0576 10.7892 22.5525C10.7892 19.5778 8.36918 17.1577 5.39451 17.1577C4.84845 17.1577 4.32132 17.2399 3.8242 17.3915V12.441C3.8242 12.0742 3.5269 11.7769 3.16014 11.7769C2.79338 11.7769 2.49608 12.0742 2.49608 12.441V18.006C0.996824 18.9655 0 20.6443 0 22.5526C0 25.5284 2.42004 27.9494 5.39471 27.9494C7.35124 27.9494 9.06764 26.9018 10.0135 25.3381H25.9696C26.9694 25.3381 27.7829 24.5238 27.7829 23.5229V20.7888C27.9295 20.684 28.0697 20.5765 28.2057 20.4717C28.7921 20.0198 29.2985 19.6295 30.1049 19.6295H32.5937C33.3691 19.6295 34.0001 18.9995 34.0001 18.225V11.9607C34 11.1851 33.3691 10.5543 32.5936 10.5543ZM17.293 6.05577L15.4926 4.92972C15.2773 4.79511 15.004 4.79504 14.7885 4.92965L12.9861 6.05616V1.37891H17.293V6.05577ZM5.39471 26.6213C3.15237 26.6213 1.32812 24.7961 1.32812 22.5526C1.32812 20.3102 3.15237 18.4859 5.39471 18.4859C7.63705 18.4859 9.4613 20.3102 9.4613 22.5526C9.4613 24.7961 7.63705 26.6213 5.39471 26.6213ZM32.6719 18.225C32.6719 18.2657 32.6353 18.3014 32.5936 18.3014H30.1049C28.846 18.3014 28.0751 18.8955 27.3949 19.4197C26.8233 19.8602 26.3719 20.2081 25.6756 20.2081H17.4484C17.0988 20.2081 16.8144 19.9236 16.8144 19.574C16.8144 19.2244 17.0988 18.94 17.4484 18.94H19.6527C20.0194 18.94 20.3167 18.6427 20.3167 18.2759C20.3167 17.9091 20.0194 17.6118 19.6527 17.6118H15.6963C15.3467 17.6118 15.0623 17.3266 15.0623 16.9759C15.0623 16.6263 15.3467 16.3419 15.6963 16.3419H19.6527C20.0194 16.3419 20.3167 16.0446 20.3167 15.6778C20.3167 15.3111 20.0194 15.0138 19.6527 15.0138H13.6635C13.3139 15.0138 13.0295 14.7294 13.0295 14.3797C13.0295 14.0301 13.3139 13.7457 13.6635 13.7457H19.6527C20.0194 13.7457 20.3167 13.4484 20.3167 13.0816C20.3167 12.7149 20.0194 12.4176 19.6527 12.4176H15.6963C15.3467 12.4176 15.0623 12.1323 15.0623 11.7816C15.0623 11.432 15.3467 11.1477 15.6963 11.1477H23.106H24.5472H25.51C25.8767 11.1477 26.174 10.8504 26.174 10.4836C26.174 10.1168 25.8767 9.81954 25.51 9.81954H24.5472H23.106C22.4986 9.81954 21.9662 9.45503 21.7494 8.89045C21.6231 8.56227 21.6575 8.37514 21.6934 8.32201C21.7294 8.26875 21.8591 8.23243 22.0246 8.22931H24.0782H25.7544C26.8742 8.25169 27.6579 9.08177 28.4876 9.96045C29.3555 10.8797 30.253 11.8303 31.5999 11.8819C31.6084 11.8822 31.6169 11.8824 31.6254 11.8824H32.5938C32.6362 11.8824 32.672 11.9182 32.672 11.9606V18.225H32.6719Z" fill="#84B739"/>
<path d="M3.15967 10.121C3.52643 10.121 3.82373 9.82184 3.82373 9.45508C3.82373 9.08832 3.52643 8.79102 3.15967 8.79102C2.79291 8.79102 2.49561 9.08832 2.49561 9.45508V9.45886C2.49561 9.82556 2.79291 10.121 3.15967 10.121Z" fill="#84B739"/>
</svg>
