<svg width="16" height="20" viewBox="0 0 16 20" fill="none" xmlns="http://www.w3.org/2000/svg">
<path d="M8.00069 0C4.00674 0 0.757446 3.2493 0.757446 7.2432C0.757446 12.1998 7.23944 19.4763 7.51542 19.7836C7.77463 20.0723 8.22721 20.0718 8.48596 19.7836C8.76194 19.4763 15.2439 12.1998 15.2439 7.2432C15.2439 3.2493 11.9946 0 8.00069 0ZM8.00069 10.8875C5.99124 10.8875 4.35647 9.25266 4.35647 7.2432C4.35647 5.23375 5.99127 3.59898 8.00069 3.59898C10.0101 3.59898 11.6449 5.23379 11.6449 7.24324C11.6449 9.2527 10.0101 10.8875 8.00069 10.8875Z" fill="#84B739"/>
</svg>
