<svg width="32" height="30" viewBox="0 0 32 30" fill="none" xmlns="http://www.w3.org/2000/svg">
<path d="M29.9487 4.74319H2.05131C0.918125 4.74319 0 3.82506 0 2.69194C0 1.55881 0.918125 0.640625 2.05131 0.640625H29.9487C31.0819 0.640625 32 1.55875 32 2.69194C32 3.82512 31.0819 4.74319 29.9487 4.74319Z" fill="#84B739"/>
<path d="M18.4616 17.0509H2.05131C0.918125 17.0509 0 16.1327 0 14.9995C0 13.8664 0.918125 12.9482 2.05131 12.9482H18.4616C19.5947 12.9482 20.5129 13.8664 20.5129 14.9995C20.5129 16.1327 19.5947 17.0509 18.4616 17.0509Z" fill="#84B739"/>
<path d="M29.9506 17.0509H26.6685C25.5354 17.0509 24.6172 16.1327 24.6172 14.9996C24.6172 13.8664 25.5353 12.9482 26.6685 12.9482H29.9506C31.0837 12.9482 32.0018 13.8664 32.0018 14.9996C32.0018 16.1327 31.0837 17.0509 29.9506 17.0509Z" fill="white"/>
<path d="M29.9487 29.3595H2.05131C0.918125 29.3595 0 28.4413 0 27.3081C0 26.175 0.918125 25.2568 2.05131 25.2568H29.9487C31.0819 25.2568 32 26.175 32 27.3081C32 28.4413 31.0819 29.3595 29.9487 29.3595Z" fill="#84B739"/>
</svg>
