<svg width="22" height="20" viewBox="0 0 22 20" fill="none" xmlns="http://www.w3.org/2000/svg">
<path d="M11 19.7739C10.5363 19.3727 10.3007 19.145 7.82349 17.0385C3.11236 13.0322 0 10.3855 0 6.52164C0 3.06214 2.46645 0.226074 5.84375 0.226074C8.18748 0.226074 9.92651 1.6654 11 3.70719C12.0734 1.66548 13.8125 0.226074 16.1562 0.226074C19.534 0.226074 22 3.06261 22 6.52164C22 10.3855 18.8876 13.0322 14.1765 17.0385C11.6881 19.1545 11.4845 19.3547 11 19.7739ZM5.84375 1.51514C3.24715 1.51514 1.28906 3.66748 1.28906 6.52164C1.28906 9.78954 4.22082 12.2826 8.65855 16.0564C9.4105 16.6959 10.1843 17.3539 11 18.0624C11.8156 17.3539 12.5894 16.6959 13.3414 16.0564C17.7792 12.2827 20.7109 9.78959 20.7109 6.52164C20.7109 3.66744 18.7529 1.51514 16.1562 1.51514C13.8117 1.51514 12.1597 3.61704 11.6212 5.55398L11.6205 5.55669C10.967 5.55553 11.0324 5.55562 10.3789 5.55446L10.3788 5.55398C9.90322 3.84348 8.36103 1.51514 5.84375 1.51514Z" fill="#8B8B8B"/>
</svg>
