<svg width="155" height="40" viewBox="0 0 155 40" fill="none" xmlns="http://www.w3.org/2000/svg">
<path d="M1.08984 36.2344H1.61888V39.1033L3.82972 36.2344H4.31964V39.9557H3.79678V37.0868L1.58594 39.9557H1.08984V36.2344Z" fill="#333333"/>
<path d="M10.3149 36.2344V39.9557H9.78174V38.3041H7.63472V39.9619H7.10156V36.2344H7.63472V37.8348H9.78174V36.2344H10.3149Z" fill="#333333"/>
<path d="M15.6675 36.6975H14.3851V39.9557H13.8622V36.6975H12.5859V36.2344H15.6737L15.6675 36.6975Z" fill="#333333"/>
<path d="M20.6506 39.4947V39.9557H17.9375V36.2344H20.5744V36.6975H18.4665V37.841H20.3418V38.2918H18.4665V39.4947H20.6506Z" fill="#333333"/>
<path d="M25.7054 36.5814C25.8371 36.7028 25.9423 36.8501 26.0142 37.0139C26.0861 37.1777 26.1232 37.3545 26.1232 37.5332C26.1232 37.712 26.0861 37.8888 26.0142 38.0526C25.9423 38.2164 25.8371 38.3637 25.7054 38.4851C25.3774 38.7307 24.9726 38.8527 24.5629 38.8294H23.6386V39.9564H23.1055V36.2351H24.5629C24.9729 36.2125 25.3776 36.3352 25.7054 36.5814ZM25.3204 38.1531C25.4033 38.0734 25.4693 37.9779 25.5143 37.8723C25.5594 37.7667 25.5826 37.6531 25.5826 37.5384C25.5826 37.4236 25.5594 37.31 25.5143 37.2044C25.4693 37.0988 25.4033 37.0033 25.3204 36.9236C25.0949 36.7655 24.8216 36.6895 24.5464 36.7084H23.6386V38.3785H24.5464C24.8228 38.3945 25.0963 38.3149 25.3204 38.1531Z" fill="#333333"/>
<path d="M31.6959 36.2344V39.9557H31.1606V38.3041H29.0157V39.9619H28.4805V36.2344H29.0157V37.8348H31.1606V36.2344H31.6959Z" fill="#333333"/>
<path d="M37.1998 39.4947V39.9557H34.4805V36.2344H37.1195V36.6975H35.0157V37.841H36.8889V38.2918H35.0157V39.4947H37.1998Z" fill="#333333"/>
<path d="M42.2183 36.6975H40.9359V39.9557H40.413V36.6975H39.1367V36.2344H42.2245L42.2183 36.6975Z" fill="#333333"/>
<path d="M44.0312 38.2754H45.4722V38.7139H44.0312V38.2754Z" fill="#333333"/>
<path d="M51.4392 39.9557V37.2446L50.0888 39.4988H49.8377L48.4852 37.2446V39.9393H47.9727V36.2344H48.4111L49.9612 38.8512L51.5009 36.2344H51.9373V39.9557H51.4392Z" fill="#333333"/>
<path d="M57.1626 39.0254H55.1762L54.7645 39.9557H54.2148L55.9069 36.2344H56.436L58.1342 39.9557H57.5743L57.1626 39.0254ZM56.9753 38.6012L56.1684 36.7774L55.3614 38.6012H56.9753Z" fill="#333333"/>
<path d="M62.8442 36.6975H60.9215V39.9557H60.3945V36.2344H62.8442V36.6975Z" fill="#333333"/>
<path d="M66.8189 39.0254H64.8324L64.4207 39.9557H63.8711L65.5652 36.2344H66.0922L67.7905 39.9557H67.2306L66.8189 39.0254ZM66.6316 38.6012L65.8267 36.7774L65.0197 38.6012H66.6316Z" fill="#333333"/>
<path d="M72.3947 38.3472C72.5247 38.5103 72.5944 38.7129 72.5921 38.9211C72.5899 39.1292 72.5158 39.3303 72.3824 39.4906C72.2322 39.663 72.0391 39.793 71.8224 39.8677C71.5787 39.9571 71.3206 40.0016 71.0608 39.9988C70.8088 39.9987 70.5583 39.9607 70.3177 39.8861C70.0756 39.8142 69.8479 39.7012 69.6445 39.5521L69.8319 39.1586C69.9965 39.286 70.1826 39.3831 70.3815 39.4455C70.5812 39.509 70.7894 39.5414 70.999 39.5418C71.2623 39.5507 71.5228 39.4854 71.7504 39.3533C71.8436 39.3025 71.9211 39.2274 71.9748 39.1361C72.0285 39.0448 72.0562 38.9407 72.055 38.8349C72.0585 38.7492 72.0392 38.6641 71.9991 38.5881C71.959 38.5122 71.8995 38.4482 71.8266 38.4025C71.6307 38.29 71.4059 38.2373 71.1802 38.2508H70.3362V37.8185H71.1328C71.3296 37.8306 71.5251 37.7796 71.6907 37.673C71.757 37.6276 71.8108 37.5662 71.8468 37.4945C71.8828 37.4228 71.8999 37.3432 71.8965 37.2631C71.8981 37.1698 71.8747 37.0777 71.8288 36.9964C71.7828 36.915 71.716 36.8472 71.6351 36.8C71.4355 36.6802 71.2051 36.6211 70.9723 36.6299C70.6083 36.6328 70.2521 36.7356 69.943 36.9271L69.7722 36.4906C69.9599 36.3858 70.1606 36.3059 70.3691 36.2529C70.5749 36.2001 70.7865 36.1733 70.999 36.173C71.2465 36.1705 71.4925 36.2114 71.7257 36.2939C71.9293 36.3644 72.1104 36.4874 72.2506 36.6504C72.3812 36.8035 72.4507 36.9989 72.4462 37.1996C72.449 37.3767 72.3941 37.55 72.2897 37.6935C72.1785 37.8395 72.0268 37.9499 71.8533 38.0111C72.0638 38.066 72.2526 38.1832 72.3947 38.3472Z" fill="#333333"/>
<path d="M75.1055 36.2344H75.6325V39.1033L77.8433 36.2344H78.3353V39.9557H77.8124V37.0868L75.5954 39.9557H75.1055V36.2344Z" fill="#333333"/>
<path d="M84.3363 36.2344V39.9557H83.8031V38.3041H81.6602V39.9619H81.125V36.2344H81.6602V37.8348H83.8072V36.2344H84.3363Z" fill="#333333"/>
<path d="M90.8287 39.7517C90.534 39.5945 90.2889 39.359 90.1205 39.0714C89.9519 38.7737 89.8633 38.4377 89.8633 38.096C89.8633 37.7542 89.9519 37.4183 90.1205 37.1206C90.2903 36.8334 90.5359 36.5981 90.8307 36.4402C91.1093 36.2977 91.415 36.2151 91.7278 36.1978C92.0406 36.1805 92.3535 36.2289 92.6463 36.3398C92.8827 36.435 93.0939 36.583 93.2639 36.7722L92.916 37.1083C92.7822 36.9645 92.6192 36.8507 92.4378 36.7744C92.2565 36.6981 92.0609 36.661 91.8641 36.6656C91.6011 36.6626 91.3416 36.7268 91.1107 36.8521C90.8911 36.9717 90.7094 37.1498 90.5858 37.3665C90.4616 37.5901 90.3965 37.8415 90.3965 38.097C90.3965 38.3525 90.4616 38.6039 90.5858 38.8276C90.7094 39.0436 90.8912 39.221 91.1107 39.3399C91.3413 39.4661 91.6009 39.5304 91.8641 39.5263C92.0611 39.5299 92.2567 39.492 92.438 39.415C92.6193 39.338 92.7822 39.2237 92.916 39.0796L93.2639 39.4157C93.0942 39.6058 92.8829 39.7544 92.6463 39.8501C92.3905 39.9523 92.117 40.0031 91.8414 39.9997C91.4881 40.005 91.1393 39.9196 90.8287 39.7517Z" fill="#333333"/>
<path d="M98.5234 38.3478C98.6573 38.5164 98.726 38.7273 98.7169 38.942C98.7238 39.0863 98.6952 39.2301 98.6335 39.3608C98.5718 39.4916 98.4788 39.6053 98.3628 39.692C98.0567 39.8869 97.6962 39.9795 97.3336 39.9564H95.625V36.235H97.2307C97.5686 36.2159 97.904 36.3026 98.1899 36.483C98.3024 36.5629 98.3928 36.6698 98.4529 36.7937C98.513 36.9176 98.5408 37.0546 98.5337 37.192C98.5401 37.376 98.4867 37.5571 98.3814 37.7084C98.2739 37.8551 98.1248 37.9664 97.9532 38.0281C98.1727 38.0712 98.3726 38.1832 98.5234 38.3478ZM96.1479 37.8723H97.1895C97.3999 37.8861 97.6091 37.8322 97.7864 37.7187C97.8512 37.6621 97.9031 37.5925 97.9386 37.5144C97.9741 37.4363 97.9925 37.3515 97.9925 37.2658C97.9925 37.18 97.9741 37.0953 97.9386 37.0172C97.9031 36.9391 97.8512 36.8694 97.7864 36.8129C97.6114 36.6974 97.4032 36.642 97.1936 36.6551H96.152L96.1479 37.8723ZM98.1776 38.8969C98.1842 38.8066 98.1679 38.7161 98.1301 38.6337C98.0923 38.5514 98.0343 38.4798 97.9614 38.4256C97.7675 38.312 97.5437 38.2591 97.3192 38.274H96.1479V39.5342H97.3192C97.8914 39.5342 98.1776 39.3225 98.1776 38.899V38.8969Z" fill="#333333"/>
<path d="M103.936 39.4947V39.9557H101.215V36.2344H103.854V36.6975H101.758V37.841H103.632V38.2918H101.758V39.4947H103.936Z" fill="#333333"/>
<path d="M108.96 36.6975H107.68V39.9557H107.155V36.6975H105.879V36.2344H108.967L108.96 36.6975Z" fill="#333333"/>
<path d="M111.234 36.2344H111.761V39.1033L113.972 36.2344H114.464V39.9557H113.941V37.0868L111.724 39.9557H111.234V36.2344Z" fill="#333333"/>
<path d="M120.249 36.2344V39.9557H119.726V36.6975H118.079L118.042 37.7877C118.035 38.2064 117.993 38.6238 117.916 39.0356C117.876 39.2985 117.769 39.5467 117.605 39.757C117.533 39.8375 117.444 39.901 117.344 39.9428C117.244 39.9846 117.135 40.0038 117.027 39.9988C116.914 39.9983 116.801 39.9839 116.691 39.9557L116.728 39.4824C116.784 39.4968 116.842 39.5044 116.899 39.5049C116.971 39.5068 117.043 39.4909 117.107 39.4588C117.171 39.4266 117.226 39.3791 117.268 39.3205C117.377 39.1553 117.448 38.9675 117.474 38.7713C117.529 38.4517 117.559 38.1283 117.564 37.8041L117.624 36.2344H120.249Z" fill="#333333"/>
<path d="M125.693 37.8307C125.815 37.9405 125.91 38.0765 125.972 38.2284C126.034 38.3804 126.06 38.5443 126.049 38.7078C126.06 38.8814 126.032 39.0553 125.966 39.2164C125.9 39.3776 125.798 39.5217 125.668 39.6381C125.352 39.8684 124.965 39.9808 124.575 39.9557H123.035V36.2344H123.564V37.5315H124.682C125.044 37.5099 125.402 37.6158 125.693 37.8307ZM125.267 39.3266C125.352 39.2497 125.419 39.1544 125.462 39.0479C125.506 38.9413 125.524 38.8264 125.516 38.7119C125.516 38.2009 125.195 37.9455 124.554 37.9455H123.56V39.5336H124.554C124.809 39.5514 125.061 39.4788 125.267 39.3287V39.3266Z" fill="#333333"/>
<path d="M131.681 36.2344V39.9557H131.145V38.3041H128.99V39.9619H128.457V36.2344H128.99V37.8348H131.137V36.2344H131.681Z" fill="#333333"/>
<path d="M134.457 36.2344H134.978V39.1033L137.189 36.2344H137.679V39.9557H137.156V37.0868L134.941 39.9557H134.449L134.457 36.2344Z" fill="#333333"/>
<path d="M141.768 38.3184H140.988V39.9578H140.465V36.2344H140.988V37.8512H141.778L142.954 36.2344H143.524L142.19 38.0377L143.588 39.9557H142.97L141.768 38.3184Z" fill="#333333"/>
<path d="M146.413 39.7517C146.117 39.5938 145.871 39.3576 145.701 39.0693C145.531 38.7732 145.441 38.4381 145.441 38.097C145.441 37.7559 145.531 37.4207 145.701 37.1246C145.872 36.8364 146.118 36.5998 146.413 36.4402C146.728 36.2786 147.076 36.1943 147.43 36.1943C147.784 36.1943 148.133 36.2786 148.447 36.4402C148.742 36.598 148.987 36.8334 149.157 37.1205C149.326 37.4182 149.414 37.7542 149.414 38.0959C149.414 38.4377 149.326 38.7737 149.157 39.0714C148.988 39.359 148.742 39.5945 148.447 39.7517C148.133 39.9146 147.784 39.9996 147.43 39.9996C147.076 39.9996 146.727 39.9146 146.413 39.7517ZM148.173 39.3419C148.389 39.221 148.568 39.0439 148.69 38.8296C148.814 38.6059 148.879 38.3546 148.879 38.099C148.879 37.8435 148.814 37.5921 148.69 37.3685C148.568 37.1536 148.389 36.9758 148.173 36.8541C147.947 36.7289 147.693 36.6646 147.434 36.6677C147.174 36.6646 146.917 36.7288 146.689 36.8541C146.47 36.9743 146.288 37.1523 146.164 37.3685C146.04 37.5921 145.975 37.8435 145.975 38.099C145.975 38.3546 146.04 38.6059 146.164 38.8296C146.288 39.0452 146.47 39.2224 146.689 39.3419C146.917 39.4681 147.174 39.5324 147.434 39.5283C147.693 39.5317 147.948 39.4667 148.173 39.3398V39.3419Z" fill="#333333"/>
<path d="M154.794 38.3477C154.933 38.5146 155.006 38.7256 155 38.942C155.007 39.0864 154.978 39.2302 154.916 39.3609C154.854 39.4917 154.76 39.6053 154.644 39.692C154.338 39.887 153.977 39.9797 153.615 39.9563H151.906V36.235H153.5C153.837 36.2161 154.173 36.3028 154.459 36.4829C154.571 36.5629 154.662 36.6697 154.722 36.7936C154.782 36.9176 154.81 37.0545 154.803 37.1919C154.808 37.3758 154.755 37.5566 154.65 37.7083C154.542 37.8551 154.392 37.9664 154.22 38.028C154.441 38.0691 154.643 38.1814 154.794 38.3477ZM152.421 37.8723H153.462C153.672 37.8859 153.881 37.832 154.057 37.7186C154.126 37.6658 154.181 37.5971 154.216 37.5185C154.252 37.44 154.268 37.3539 154.263 37.2678C154.268 37.181 154.252 37.0943 154.217 37.015C154.181 36.9358 154.126 36.8664 154.057 36.8128C153.882 36.6979 153.674 36.6425 153.465 36.655H152.423L152.421 37.8723ZM154.451 38.8969C154.458 38.8075 154.444 38.7175 154.408 38.6352C154.372 38.5529 154.316 38.4808 154.245 38.4256C154.05 38.312 153.826 38.2592 153.6 38.2739H152.431V39.5342H153.6C154.162 39.5342 154.451 39.3292 154.451 38.8989V38.8969Z" fill="#333333"/>
<path d="M4.3219 13.5074H0V11.9482H10.4281V13.5074H6.10476V24.5029H4.3219V13.5074Z" fill="#333333"/>
<path d="M20.1883 20.3206H12.4437C12.485 20.7131 12.6041 21.0935 12.7942 21.4398C12.9843 21.7861 13.2416 22.0913 13.5511 22.3378C14.1808 22.8453 14.9644 23.0991 15.9018 23.0991C17.0423 23.0991 17.9608 22.7166 18.6575 21.9516L19.612 23.0638C19.1741 23.569 18.621 23.9625 17.9991 24.2113C17.3149 24.4819 16.5841 24.616 15.848 24.606C14.9135 24.6248 13.989 24.4121 13.1575 23.9872C12.3992 23.5965 11.7706 22.9958 11.3477 22.2575C10.9149 21.4917 10.6941 20.6254 10.7076 19.7468C10.6948 18.8765 10.909 18.0178 11.3293 17.2545C11.7268 16.5308 12.3192 15.9318 13.0399 15.5248C13.7903 15.1066 14.6384 14.8931 15.4982 14.906C16.3525 14.8915 17.195 15.1052 17.9382 15.5248C18.6487 15.9333 19.2292 16.5328 19.6134 17.2545C20.0261 18.0392 20.2335 18.9148 20.2167 19.8004C20.2165 19.9742 20.2071 20.1478 20.1883 20.3206ZM13.4251 17.1121C12.8614 17.6246 12.5113 18.3288 12.4437 19.0857H18.5669C18.4949 18.3329 18.1453 17.6333 17.5856 17.122C17.0166 16.6109 16.2714 16.3382 15.5053 16.3608C14.7409 16.3369 13.9963 16.6059 13.4251 17.1121Z" fill="#333333"/>
<path d="M29.3143 15.8745C30.0166 16.5201 30.3678 17.4825 30.3678 18.7615V24.4975H28.7266V23.2429C28.4257 23.6952 27.9963 24.0481 27.4932 24.2565C26.8907 24.5022 26.2437 24.6212 25.5928 24.6061C24.5232 24.6061 23.6678 24.3491 23.0268 23.835C22.729 23.5896 22.4885 23.2826 22.322 22.9353C22.1555 22.588 22.067 22.2088 22.0627 21.824C22.0584 21.4392 22.1383 21.058 22.297 20.7071C22.4557 20.3562 22.6893 20.0439 22.9815 19.792C23.5933 19.2845 24.5656 19.0303 25.8987 19.0294H28.636V18.6896C28.636 17.9481 28.4198 17.3805 27.9874 16.9867C27.555 16.593 26.9187 16.3956 26.0785 16.3947C25.5143 16.3963 24.9544 16.4916 24.4217 16.6766C23.9238 16.8394 23.4602 17.0917 23.0537 17.4209L22.3329 16.1296C22.8575 15.7184 23.4565 15.4111 24.0974 15.2246C24.8041 15.0124 25.5386 14.9064 26.2768 14.9103C27.5984 14.9074 28.6109 15.2288 29.3143 15.8745ZM27.5923 22.8369C28.0693 22.5481 28.4364 22.1098 28.636 21.5908V20.2643H25.9709C24.5057 20.2643 23.7731 20.7544 23.7731 21.7346C23.7657 21.9539 23.8129 22.1716 23.9105 22.3684C24.0081 22.5651 24.1531 22.7348 24.3325 22.8623C24.7035 23.1367 25.2194 23.2744 25.8802 23.2753C26.4809 23.2914 27.074 23.1396 27.5923 22.8369Z" fill="#333333"/>
<path d="M48.8134 15.9463C49.5158 16.6399 49.867 17.6675 49.867 19.0293V24.4975H48.1379V19.2267C48.1379 18.3075 47.925 17.6145 47.4993 17.1474C47.0735 16.6803 46.4641 16.4453 45.6711 16.4425C44.795 16.4425 44.0988 16.7146 43.5824 17.2587C43.066 17.8029 42.8078 18.5824 42.8078 19.5974V24.4918H41.0787V19.2267C41.0787 18.3075 40.8658 17.6145 40.4401 17.1474C40.0143 16.6803 39.4049 16.4453 38.6119 16.4425C37.7349 16.4425 37.0382 16.7146 36.5218 17.2587C36.0054 17.8029 35.7476 18.5824 35.7486 19.5974V24.4918H34.0195V14.9906H35.6764V16.4073C36.022 15.9156 36.4946 15.5259 37.0443 15.2795C37.6512 15.0138 38.3087 14.882 38.9716 14.8933C39.6591 14.8808 40.3395 15.0346 40.9541 15.3416C41.5223 15.6323 41.9873 16.0894 42.2867 16.6512C42.6591 16.0912 43.1795 15.6444 43.7905 15.3599C44.4689 15.0414 45.2115 14.8818 45.9614 14.8933C47.1604 14.9017 48.111 15.2528 48.8134 15.9463Z" fill="#333333"/>
<path d="M53.7578 11.9482H55.5591V22.9438H62.3846V24.5029H53.7578V11.9482Z" fill="#333333"/>
<path d="M70.2289 15.8613V17.849L64.6523 19.8367V17.818L70.2289 15.8613Z" fill="#333333"/>
<path d="M69.4351 22.1035C69.4351 22.1035 69.8273 24.1306 68.0402 24.7185C68.0402 24.7185 66.1469 25.1273 65.6641 23.4639L69.4351 22.1035Z" fill="#333333"/>
<path d="M64.6603 16.8331C66.0764 16.3947 73.9498 15.0188 74.7839 8.41725C75.1139 5.80933 74.0886 0 67.1894 0C59.105 0 56.4541 11.5411 64.6603 14.2379L64.7127 12.3517C64.7127 12.3517 61.4854 10.8856 61.7092 7.03857C61.9117 3.55946 65.1078 1.93691 67.3735 1.93691C69.1805 1.93691 73.1143 3.27048 72.6131 8.42148C72.6131 8.42148 72.1981 13.0495 64.6631 14.8525L64.6603 16.8331Z" fill="#84B739"/>
<path d="M84.1138 14.996V23.2074C84.1138 24.8681 83.6994 26.0959 82.8705 26.891C82.0416 27.686 80.804 28.0836 79.1575 28.0836C78.2859 28.0876 77.4184 27.9636 76.5831 27.7156C75.8522 27.517 75.1749 27.1587 74.6006 26.6668L75.429 25.3403C75.9142 25.7456 76.474 26.053 77.0773 26.2453C77.7293 26.4666 78.4135 26.579 79.1023 26.578C80.2191 26.578 81.0447 26.3149 81.579 25.7886C82.1134 25.2623 82.3806 24.4635 82.3806 23.3921V22.6393C81.9783 23.1247 81.4616 23.5034 80.8767 23.7417C80.2619 23.9893 79.604 24.1129 78.9409 24.1054C78.0804 24.1168 77.2304 23.9158 76.467 23.5204C75.7464 23.1486 75.1445 22.5837 74.7294 21.8894C74.3153 21.158 74.0977 20.3325 74.0977 19.4929C74.0977 18.6533 74.3153 17.8279 74.7294 17.0965C75.1445 16.4057 75.7467 15.8453 76.467 15.4795C77.2334 15.0907 78.0835 14.8937 78.9437 14.9058C79.633 14.9001 80.3163 15.0344 80.9517 15.3005C81.5523 15.5501 82.0767 15.9521 82.4726 16.4663V14.996H84.1138ZM80.8271 22.2038C81.3131 21.9515 81.7187 21.5692 81.9982 21.1C82.2847 20.614 82.4317 20.0591 82.423 19.4957C82.423 18.5747 82.1172 17.8309 81.5054 17.2642C80.8937 16.6975 80.1073 16.4156 79.1462 16.4184C78.1738 16.4184 77.3813 16.7003 76.7686 17.2642C76.1559 17.8281 75.8495 18.5719 75.8495 19.4957C75.8409 20.0591 75.9878 20.614 76.2744 21.1C76.5536 21.5695 76.9592 21.9519 77.4455 22.2038C77.972 22.4626 78.5512 22.5972 79.1384 22.5972C79.7256 22.5972 80.3049 22.4626 80.8314 22.2038H80.8271Z" fill="#333333"/>
<path d="M95.8422 15.9544C96.5569 16.6536 96.9142 17.6785 96.9142 19.0289V24.4971H95.1851V19.2263C95.1851 18.3072 94.9633 17.6141 94.5196 17.147C94.0759 16.6799 93.4396 16.445 92.6107 16.4422C91.6732 16.4422 90.9345 16.7142 90.3945 17.2584C89.8545 17.8025 89.5845 18.5821 89.5845 19.5971V24.4915H87.8555V11.1953H89.5845V16.3407C89.9597 15.875 90.4467 15.5109 91.0006 15.282C91.619 15.0239 92.2843 14.8958 92.9548 14.9056C94.1651 14.9056 95.1276 15.2552 95.8422 15.9544Z" fill="#333333"/>
<path d="M105.939 23.9422C105.665 24.1694 105.345 24.3374 105.002 24.4356C104.628 24.549 104.24 24.6065 103.849 24.6061C102.889 24.6061 102.145 24.3491 101.616 23.835C101.087 23.321 100.824 22.5856 100.826 21.6289V16.413H99.2031V14.9963H100.826V12.917H102.554V14.9963H105.291V16.413H102.554V21.5584C102.554 22.0715 102.682 22.4657 102.94 22.7411C103.198 23.0165 103.567 23.1537 104.048 23.1527C104.537 23.1663 105.015 23.0081 105.399 22.7059L105.939 23.9422Z" fill="#333333"/>
<path d="M70.2289 18.8154V20.8031L64.6523 22.7908V20.7721L70.2289 18.8154Z" fill="#333333"/>
</svg>
