<svg width="40" height="40" viewBox="0 0 40 40" fill="none" xmlns="http://www.w3.org/2000/svg">
<g clip-path="url(#clip0)">
<path d="M23.9987 9.33301H15.9987C12.3174 9.33301 9.33203 12.3183 9.33203 15.9997V23.9997C9.33203 27.681 12.3174 30.6663 15.9987 30.6663H23.9987C27.68 30.6663 30.6654 27.681 30.6654 23.9997V15.9997C30.6654 12.3183 27.68 9.33301 23.9987 9.33301ZM28.6654 23.9997C28.6654 26.573 26.572 28.6663 23.9987 28.6663H15.9987C13.4254 28.6663 11.332 26.573 11.332 23.9997V15.9997C11.332 13.4263 13.4254 11.333 15.9987 11.333H23.9987C26.572 11.333 28.6654 13.4263 28.6654 15.9997V23.9997Z" fill="#84B739"/>
<path d="M19.9993 14.6665C17.054 14.6665 14.666 17.0545 14.666 19.9998C14.666 22.9452 17.054 25.3332 19.9993 25.3332C22.9447 25.3332 25.3327 22.9452 25.3327 19.9998C25.3327 17.0545 22.9447 14.6665 19.9993 14.6665ZM19.9993 23.3332C18.162 23.3332 16.666 21.8372 16.666 19.9998C16.666 18.1612 18.162 16.6665 19.9993 16.6665C21.8367 16.6665 23.3327 18.1612 23.3327 19.9998C23.3327 21.8372 21.8367 23.3332 19.9993 23.3332Z" fill="#84B739"/>
<path d="M25.7302 14.977C26.1227 14.977 26.4409 14.6588 26.4409 14.2663C26.4409 13.8738 26.1227 13.5557 25.7302 13.5557C25.3377 13.5557 25.0195 13.8738 25.0195 14.2663C25.0195 14.6588 25.3377 14.977 25.7302 14.977Z" fill="#84B739"/>
</g>
<path d="M39.25 20C39.25 30.6315 30.6315 39.25 20 39.25C9.36852 39.25 0.75 30.6315 0.75 20C0.75 9.36852 9.36852 0.75 20 0.75C30.6315 0.75 39.25 9.36852 39.25 20Z" stroke="#84B739" stroke-width="1.5"/>
<defs>
<clipPath id="clip0">
<rect width="21.3333" height="21.3333" fill="white" transform="translate(9.33203 9.33301)"/>
</clipPath>
</defs>
</svg>
