<svg width="304" height="304" viewBox="0 0 304 304" fill="none" xmlns="http://www.w3.org/2000/svg">
<g opacity="0.2" filter="url(#filter0_f)">
<circle cx="152" cy="152" r="52" fill="#84B739"/>
</g>
<path d="M79.1953 182.858H79.7755V186.014L82.2003 182.858H82.7377V186.952H82.1642V183.796L79.7394 186.952H79.1953V182.858Z" fill="white"/>
<path d="M89.3134 182.858V186.952H88.7286V185.135H86.3738V186.959H85.7891V182.858H86.3738V184.619H88.7286V182.858H89.3134Z" fill="white"/>
<path d="M95.1806 183.368H93.774V186.952H93.2006V183.368H91.8008V182.858H95.1874L95.1806 183.368Z" fill="white"/>
<path d="M100.651 186.445V186.952H97.6758V182.858H100.568V183.368H98.256V184.626H100.313V185.122H98.256V186.445H100.651Z" fill="white"/>
<path d="M106.195 183.239C106.34 183.373 106.455 183.535 106.534 183.715C106.613 183.895 106.653 184.09 106.653 184.286C106.653 184.483 106.613 184.678 106.534 184.858C106.455 185.038 106.34 185.2 106.195 185.333C105.836 185.604 105.392 185.738 104.942 185.712H103.928V186.952H103.344V182.858H104.942C105.392 182.834 105.836 182.969 106.195 183.239ZM105.773 184.968C105.864 184.881 105.936 184.776 105.986 184.659C106.035 184.543 106.061 184.418 106.061 184.292C106.061 184.166 106.035 184.041 105.986 183.925C105.936 183.808 105.864 183.703 105.773 183.616C105.526 183.442 105.226 183.358 104.924 183.379H103.928V185.216H104.924C105.227 185.234 105.527 185.146 105.773 184.968Z" fill="white"/>
<path d="M112.761 182.858V186.952H112.174V185.135H109.821V186.959H109.234V182.858H109.821V184.619H112.174V182.858H112.761Z" fill="white"/>
<path d="M118.799 186.445V186.952H115.816V182.858H118.711V183.368H116.403V184.626H118.458V185.122H116.403V186.445H118.799Z" fill="white"/>
<path d="M124.302 183.368H122.895V186.952H122.322V183.368H120.922V182.858H124.308L124.302 183.368Z" fill="white"/>
<path d="M126.293 185.104H127.873V185.586H126.293V185.104Z" fill="white"/>
<path d="M134.415 186.952V183.97L132.934 186.449H132.659L131.175 183.97V186.934H130.613V182.858H131.094L132.794 185.737L134.483 182.858H134.962V186.952H134.415Z" fill="white"/>
<path d="M140.698 185.929H138.519L138.068 186.952H137.465L139.321 182.858H139.901L141.764 186.952H141.149L140.698 185.929ZM140.492 185.462L139.607 183.456L138.722 185.462H140.492Z" fill="white"/>
<path d="M146.925 183.368H144.816V186.952H144.238V182.858H146.925V183.368Z" fill="white"/>
<path d="M151.288 185.929H149.109L148.658 186.952H148.055L149.913 182.858H150.491L152.353 186.952H151.739L151.288 185.929ZM151.082 185.462L150.2 183.456L149.314 185.462H151.082Z" fill="white"/>
<path d="M157.399 185.182C157.542 185.361 157.618 185.584 157.616 185.813C157.613 186.042 157.532 186.263 157.386 186.44C157.221 186.629 157.009 186.772 156.771 186.854C156.504 186.953 156.221 187.002 155.936 186.999C155.66 186.998 155.385 186.957 155.121 186.875C154.856 186.795 154.606 186.671 154.383 186.507L154.588 186.074C154.769 186.215 154.973 186.321 155.191 186.39C155.41 186.46 155.639 186.495 155.868 186.496C156.157 186.506 156.443 186.434 156.692 186.289C156.795 186.233 156.88 186.15 156.939 186.05C156.997 185.949 157.028 185.835 157.027 185.718C157.03 185.624 157.009 185.53 156.965 185.447C156.921 185.363 156.856 185.293 156.776 185.243C156.561 185.119 156.315 185.061 156.067 185.076H155.141V184.6H156.015C156.231 184.614 156.445 184.557 156.627 184.44C156.7 184.39 156.759 184.323 156.798 184.244C156.838 184.165 156.856 184.077 156.853 183.989C156.854 183.887 156.829 183.785 156.778 183.696C156.728 183.606 156.655 183.532 156.566 183.48C156.347 183.348 156.094 183.283 155.839 183.293C155.44 183.296 155.049 183.409 154.71 183.62L154.523 183.14C154.729 183.024 154.949 182.936 155.178 182.878C155.403 182.82 155.635 182.791 155.868 182.79C156.14 182.787 156.41 182.832 156.665 182.923C156.889 183.001 157.087 183.136 157.241 183.315C157.384 183.484 157.461 183.699 157.456 183.919C157.459 184.114 157.398 184.305 157.284 184.463C157.162 184.623 156.996 184.745 156.805 184.812C157.036 184.872 157.243 185.001 157.399 185.182Z" fill="white"/>
<path d="M160.371 182.858H160.949V186.014L163.374 182.858H163.913V186.952H163.34V183.796L160.908 186.952H160.371V182.858Z" fill="white"/>
<path d="M170.499 182.858V186.952H169.914V185.135H167.564V186.959H166.977V182.858H167.564V184.619H169.918V182.858H170.499Z" fill="white"/>
<path d="M177.617 186.727C177.294 186.554 177.025 186.295 176.841 185.978C176.656 185.651 176.559 185.281 176.559 184.905C176.559 184.529 176.656 184.16 176.841 183.832C177.027 183.516 177.296 183.258 177.62 183.084C177.925 182.927 178.26 182.836 178.604 182.817C178.947 182.798 179.29 182.851 179.611 182.974C179.87 183.078 180.102 183.241 180.288 183.449L179.907 183.819C179.76 183.661 179.581 183.535 179.382 183.452C179.183 183.368 178.969 183.327 178.753 183.332C178.465 183.329 178.18 183.399 177.927 183.537C177.686 183.669 177.487 183.865 177.351 184.103C177.215 184.349 177.143 184.625 177.143 184.906C177.143 185.188 177.215 185.464 177.351 185.71C177.487 185.948 177.686 186.143 177.927 186.274C178.18 186.412 178.464 186.483 178.753 186.479C178.969 186.483 179.184 186.441 179.382 186.356C179.581 186.271 179.76 186.146 179.907 185.987L180.288 186.357C180.102 186.566 179.87 186.73 179.611 186.835C179.33 186.947 179.03 187.003 178.728 186.999C178.341 187.005 177.958 186.911 177.617 186.727Z" fill="white"/>
<path d="M186.058 185.182C186.205 185.368 186.28 185.6 186.27 185.836C186.278 185.995 186.246 186.153 186.179 186.297C186.111 186.441 186.009 186.566 185.882 186.661C185.546 186.875 185.151 186.977 184.753 186.952H182.879V182.858H184.64C185.011 182.837 185.378 182.933 185.692 183.131C185.815 183.219 185.915 183.337 185.98 183.473C186.046 183.609 186.077 183.76 186.069 183.911C186.076 184.113 186.018 184.313 185.902 184.479C185.784 184.64 185.621 184.763 185.432 184.831C185.673 184.878 185.892 185.001 186.058 185.182ZM183.452 184.659H184.595C184.826 184.675 185.055 184.615 185.25 184.49C185.321 184.428 185.377 184.352 185.416 184.266C185.455 184.18 185.476 184.086 185.476 183.992C185.476 183.898 185.455 183.805 185.416 183.719C185.377 183.633 185.321 183.556 185.25 183.494C185.058 183.367 184.829 183.306 184.599 183.32H183.457L183.452 184.659ZM185.679 185.786C185.686 185.687 185.668 185.588 185.626 185.497C185.585 185.406 185.521 185.328 185.441 185.268C185.229 185.143 184.983 185.085 184.737 185.101H183.452V186.487H184.737C185.365 186.487 185.679 186.255 185.679 185.789V185.786Z" fill="white"/>
<path d="M191.996 186.445V186.952H189.012V182.858H191.906V183.368H189.608V184.626H191.662V185.122H189.608V186.445H191.996Z" fill="white"/>
<path d="M197.509 183.368H196.104V186.952H195.529V183.368H194.129V182.858H197.515L197.509 183.368Z" fill="white"/>
<path d="M199.996 182.858H200.574V186.014L202.999 182.858H203.538V186.952H202.965V183.796L200.533 186.952H199.996V182.858Z" fill="white"/>
<path d="M209.886 182.858V186.952H209.312V183.368H207.506L207.465 184.567C207.458 185.028 207.412 185.487 207.328 185.94C207.284 186.229 207.166 186.502 206.987 186.733C206.907 186.822 206.809 186.892 206.7 186.938C206.59 186.984 206.471 187.005 206.352 186.999C206.228 186.999 206.105 186.983 205.984 186.952L206.025 186.431C206.086 186.447 206.149 186.455 206.212 186.456C206.291 186.458 206.369 186.441 206.44 186.405C206.51 186.37 206.571 186.318 206.617 186.253C206.737 186.071 206.814 185.865 206.842 185.649C206.903 185.297 206.936 184.942 206.942 184.585L207.007 182.858H209.886Z" fill="white"/>
<path d="M215.856 184.614C215.99 184.735 216.095 184.885 216.163 185.052C216.23 185.219 216.259 185.399 216.247 185.579C216.259 185.77 216.228 185.961 216.156 186.139C216.083 186.316 215.972 186.475 215.829 186.602C215.483 186.856 215.058 186.979 214.63 186.952H212.941V182.858H213.522V184.285H214.748C215.144 184.261 215.537 184.378 215.856 184.614ZM215.389 186.26C215.483 186.175 215.556 186.07 215.604 185.953C215.651 185.836 215.671 185.71 215.662 185.584C215.662 185.022 215.311 184.741 214.608 184.741H213.517V186.488H214.608C214.887 186.507 215.163 186.427 215.389 186.262V186.26Z" fill="white"/>
<path d="M222.426 182.858V186.952H221.839V185.135H219.475V186.959H218.891V182.858H219.475V184.619H221.83V182.858H222.426Z" fill="white"/>
<path d="M225.47 182.858H226.041V186.014L228.466 182.858H229.003V186.952H228.43V183.796L226.001 186.952H225.461L225.47 182.858Z" fill="white"/>
<path d="M233.484 185.151H232.628V186.954H232.055V182.858H232.628V184.637H233.495L234.784 182.858H235.41L233.947 184.842L235.48 186.952H234.802L233.484 185.151Z" fill="white"/>
<path d="M238.581 186.727C238.257 186.553 237.987 186.293 237.8 185.976C237.614 185.65 237.516 185.282 237.516 184.906C237.516 184.531 237.614 184.163 237.8 183.837C237.987 183.52 238.257 183.259 238.581 183.084C238.926 182.906 239.309 182.813 239.697 182.813C240.085 182.813 240.467 182.906 240.812 183.084C241.135 183.258 241.405 183.516 241.591 183.832C241.776 184.16 241.873 184.529 241.873 184.905C241.873 185.281 241.776 185.651 241.591 185.978C241.405 186.295 241.136 186.554 240.812 186.727C240.468 186.906 240.085 186.999 239.697 186.999C239.308 186.999 238.926 186.906 238.581 186.727ZM240.512 186.276C240.748 186.143 240.944 185.948 241.078 185.712C241.215 185.466 241.286 185.19 241.286 184.909C241.286 184.628 241.215 184.351 241.078 184.105C240.944 183.869 240.749 183.673 240.512 183.539C240.264 183.401 239.985 183.331 239.701 183.334C239.416 183.331 239.134 183.401 238.884 183.539C238.644 183.671 238.444 183.867 238.308 184.105C238.172 184.351 238.101 184.628 238.101 184.909C238.101 185.19 238.172 185.466 238.308 185.712C238.445 185.949 238.644 186.144 238.884 186.276C239.134 186.415 239.416 186.485 239.701 186.481C239.985 186.485 240.265 186.413 240.512 186.274V186.276Z" fill="white"/>
<path d="M247.773 185.182C247.925 185.366 248.005 185.598 247.999 185.836C248.006 185.995 247.974 186.153 247.906 186.297C247.838 186.441 247.736 186.566 247.608 186.661C247.273 186.876 246.877 186.977 246.479 186.952H244.605V182.858H246.353C246.724 182.838 247.091 182.933 247.405 183.131C247.528 183.219 247.628 183.337 247.694 183.473C247.759 183.609 247.79 183.76 247.782 183.911C247.788 184.113 247.73 184.312 247.615 184.479C247.496 184.64 247.332 184.763 247.143 184.831C247.386 184.876 247.607 184.999 247.773 185.182ZM245.17 184.659H246.312C246.542 184.674 246.771 184.615 246.965 184.49C247.04 184.432 247.1 184.357 247.139 184.27C247.179 184.184 247.196 184.089 247.191 183.994C247.196 183.899 247.179 183.804 247.139 183.716C247.1 183.629 247.04 183.553 246.965 183.494C246.773 183.367 246.544 183.307 246.315 183.32H245.172L245.17 184.659ZM247.396 185.786C247.405 185.688 247.388 185.589 247.349 185.499C247.31 185.408 247.248 185.329 247.17 185.268C246.957 185.143 246.711 185.085 246.464 185.101H245.181V186.487H246.464C247.08 186.487 247.396 186.262 247.396 185.789V185.786Z" fill="white"/>
<path d="M82.7402 157.859H78V156.144H89.4372V157.859H84.6955V169.954H82.7402V157.859Z" fill="white"/>
<path d="M100.141 165.352H91.647C91.6922 165.784 91.8228 166.203 92.0313 166.583C92.2398 166.964 92.522 167.3 92.8615 167.571C93.5521 168.13 94.4115 168.409 95.4397 168.409C96.6905 168.409 97.698 167.988 98.4621 167.146L99.5089 168.37C99.0286 168.926 98.4221 169.358 97.7399 169.632C96.9896 169.93 96.188 170.077 95.3807 170.066C94.3558 170.087 93.3417 169.853 92.4297 169.386C91.5981 168.956 90.9087 168.295 90.4448 167.483C89.9702 166.641 89.728 165.688 89.7428 164.721C89.7288 163.764 89.9637 162.819 90.4247 161.98C90.8607 161.184 91.5104 160.525 92.3008 160.077C93.1239 159.617 94.054 159.382 94.9971 159.396C95.934 159.38 96.858 159.615 97.6731 160.077C98.4524 160.526 99.0891 161.186 99.5105 161.98C99.9631 162.843 100.191 163.806 100.172 164.78C100.172 164.971 100.162 165.162 100.141 165.352ZM92.7233 161.823C92.1051 162.387 91.721 163.161 91.647 163.994H98.3627C98.2837 163.166 97.9002 162.396 97.2864 161.834C96.6623 161.272 95.845 160.972 95.0048 160.997C94.1664 160.97 93.3498 161.266 92.7233 161.823Z" fill="white"/>
<path d="M110.153 160.462C110.923 161.172 111.308 162.231 111.308 163.638V169.947H109.508V168.567C109.178 169.065 108.707 169.453 108.155 169.682C107.495 169.953 106.785 170.084 106.071 170.067C104.898 170.067 103.96 169.784 103.257 169.219C102.93 168.949 102.666 168.611 102.484 168.229C102.301 167.847 102.204 167.43 102.199 167.007C102.195 166.583 102.282 166.164 102.456 165.778C102.63 165.392 102.887 165.049 103.207 164.771C103.878 164.213 104.945 163.934 106.407 163.932H109.409V163.559C109.409 162.743 109.172 162.119 108.697 161.686C108.223 161.252 107.525 161.035 106.604 161.034C105.985 161.036 105.371 161.141 104.787 161.344C104.241 161.524 103.732 161.801 103.286 162.163L102.496 160.743C103.071 160.29 103.728 159.952 104.431 159.747C105.206 159.514 106.012 159.397 106.821 159.401C108.271 159.398 109.381 159.752 110.153 160.462ZM108.264 168.121C108.787 167.803 109.19 167.321 109.409 166.75V165.291H106.486C104.879 165.291 104.075 165.83 104.075 166.908C104.067 167.149 104.119 167.389 104.226 167.605C104.333 167.822 104.492 168.008 104.689 168.149C105.096 168.451 105.662 168.602 106.386 168.603C107.045 168.621 107.696 168.454 108.264 168.121Z" fill="white"/>
<path d="M131.538 160.541C132.308 161.304 132.694 162.434 132.694 163.932V169.947H130.797V164.149C130.797 163.138 130.564 162.376 130.097 161.862C129.63 161.348 128.961 161.09 128.092 161.087C127.131 161.087 126.367 161.386 125.801 161.985C125.234 162.583 124.951 163.441 124.951 164.557V169.941H123.055V164.149C123.055 163.138 122.821 162.376 122.354 161.862C121.887 161.348 121.219 161.09 120.349 161.087C119.387 161.087 118.623 161.386 118.057 161.985C117.491 162.583 117.208 163.441 117.209 164.557V169.941H115.312V159.49H117.13V161.048C117.509 160.507 118.027 160.079 118.63 159.807C119.296 159.515 120.017 159.37 120.744 159.383C121.498 159.369 122.244 159.538 122.918 159.876C123.541 160.196 124.051 160.698 124.38 161.316C124.788 160.7 125.359 160.209 126.029 159.896C126.773 159.546 127.588 159.37 128.41 159.383C129.725 159.392 130.768 159.778 131.538 160.541Z" fill="white"/>
<path d="M136.961 156.144H138.937V168.239H146.423V169.954H136.961V156.144Z" fill="white"/>
<path d="M155.026 160.448V162.635L148.91 164.821V162.601L155.026 160.448Z" fill="white"/>
<path d="M154.155 167.314C154.155 167.314 154.586 169.544 152.626 170.191C152.626 170.191 150.549 170.641 150.02 168.811L154.155 167.314Z" fill="white"/>
<path d="M148.917 161.516C150.47 161.034 159.106 159.521 160.021 152.259C160.382 149.39 159.258 143 151.691 143C142.824 143 139.917 155.695 148.917 158.662L148.975 156.587C148.975 156.587 145.435 154.974 145.681 150.742C145.903 146.915 149.408 145.131 151.893 145.131C153.875 145.131 158.189 146.598 157.64 152.264C157.64 152.264 157.185 157.354 148.92 159.338L148.917 161.516Z" fill="#84B739"/>
<path d="M170.255 159.496V168.529C170.255 170.356 169.8 171.706 168.891 172.581C167.982 173.455 166.625 173.893 164.819 173.893C163.863 173.897 162.912 173.761 161.995 173.488C161.194 173.269 160.451 172.875 159.821 172.334L160.73 170.875C161.262 171.321 161.876 171.659 162.538 171.871C163.253 172.114 164.003 172.238 164.758 172.236C165.983 172.236 166.889 171.947 167.475 171.368C168.061 170.789 168.354 169.911 168.354 168.732V167.904C167.913 168.438 167.346 168.854 166.705 169.117C166.03 169.389 165.309 169.525 164.581 169.517C163.638 169.529 162.705 169.308 161.868 168.873C161.078 168.464 160.418 167.843 159.962 167.079C159.508 166.274 159.27 165.366 159.27 164.443C159.27 163.519 159.508 162.611 159.962 161.807C160.418 161.047 161.078 160.431 161.868 160.028C162.709 159.6 163.641 159.384 164.585 159.397C165.341 159.391 166.09 159.539 166.787 159.831C167.446 160.106 168.021 160.548 168.455 161.114V159.496H170.255ZM166.65 167.425C167.183 167.147 167.628 166.727 167.935 166.211C168.249 165.676 168.41 165.066 168.401 164.446C168.401 163.433 168.065 162.615 167.394 161.991C166.723 161.368 165.861 161.058 164.807 161.061C163.74 161.061 162.871 161.371 162.199 161.991C161.527 162.612 161.191 163.43 161.191 164.446C161.181 165.066 161.343 165.676 161.657 166.211C161.963 166.727 162.408 167.148 162.941 167.425C163.519 167.71 164.154 167.858 164.798 167.858C165.442 167.858 166.077 167.71 166.655 167.425H166.65Z" fill="white"/>
<path d="M183.119 160.55C183.903 161.32 184.295 162.447 184.295 163.932V169.947H182.398V164.15C182.398 163.138 182.155 162.376 181.668 161.862C181.182 161.349 180.484 161.09 179.575 161.087C178.547 161.087 177.736 161.386 177.144 161.985C176.552 162.583 176.256 163.441 176.256 164.557V169.941H174.359V155.315H176.256V160.975C176.667 160.463 177.201 160.063 177.809 159.811C178.487 159.527 179.217 159.386 179.952 159.397C181.28 159.397 182.335 159.781 183.119 160.55Z" fill="white"/>
<path d="M194.189 169.337C193.888 169.587 193.537 169.771 193.161 169.879C192.751 170.004 192.325 170.067 191.897 170.067C190.844 170.067 190.027 169.784 189.447 169.219C188.867 168.653 188.579 167.844 188.581 166.792V161.055H186.801V159.496H188.581V157.209H190.475V159.496H193.478V161.055H190.475V166.715C190.475 167.279 190.617 167.713 190.899 168.016C191.182 168.318 191.587 168.469 192.114 168.468C192.65 168.483 193.175 168.309 193.596 167.977L194.189 169.337Z" fill="white"/>
<path d="M155.026 163.696V165.883L148.91 168.069V165.849L155.026 163.696Z" fill="white"/>
<defs>
<filter id="filter0_f" x="0" y="0" width="304" height="304" filterUnits="userSpaceOnUse" color-interpolation-filters="sRGB">
<feFlood flood-opacity="0" result="BackgroundImageFix"/>
<feBlend mode="normal" in="SourceGraphic" in2="BackgroundImageFix" result="shape"/>
<feGaussianBlur stdDeviation="50" result="effect1_foregroundBlur"/>
</filter>
</defs>
</svg>
