<svg width="66" height="38" viewBox="0 0 66 38" fill="none" xmlns="http://www.w3.org/2000/svg">
<path d="M65.396 19.0022C65.396 24.0034 63.3628 28.7998 59.7437 32.3362C56.1246 35.8726 51.216 37.8594 46.0978 37.8594C40.9796 37.8594 36.071 35.8726 32.4519 32.3362C28.8327 28.7998 26.7996 24.0034 26.7996 19.0022C26.7996 14.001 28.8327 9.20461 32.4519 5.66821C36.071 2.13181 40.9796 0.145081 46.0978 0.145081C51.216 0.145081 56.1246 2.13181 59.7437 5.66821C63.3628 9.20461 65.396 14.001 65.396 19.0022Z" fill="#FFB600"/>
<path d="M46.0978 0.145081C51.2119 0.158023 56.1128 2.1489 59.7291 5.6825C63.3453 9.21609 65.3828 14.005 65.396 19.0022C65.396 24.0034 63.3628 28.7998 59.7437 32.3362C56.1246 35.8726 51.216 37.8594 46.0978 37.8594C40.9796 37.8594 36.071 35.8726 32.4519 32.3362C28.8327 28.7998 26.7996 24.0034 26.7996 19.0022" fill="#F7981D"/>
<path d="M46.1123 0.145081C51.2265 0.158023 56.1274 2.1489 59.7436 5.68249C63.3599 9.21609 65.3973 14.005 65.4106 19.0022V19.0022C65.4126 21.4791 64.9148 23.9321 63.9457 26.2209C62.9766 28.5096 61.5552 30.5892 59.7628 32.3406C57.9704 34.0921 55.8422 35.481 53.4999 36.428C51.1576 37.3749 48.6472 37.8613 46.1123 37.8594" fill="#FF8500"/>
<path d="M19.6874 0.145081C14.5692 0.171587 9.67143 2.18373 6.0715 5.73888C2.47156 9.29402 0.464371 14.1009 0.491498 19.1022C0.518624 24.1034 2.57784 28.8892 6.21614 32.4069C9.85444 35.9246 14.7738 37.8859 19.892 37.8594C24.6824 37.8394 29.298 36.0991 32.8604 32.9697V32.9697C33.5583 32.3542 34.2067 31.6872 34.7999 30.9746H30.8167C30.3073 30.3672 29.83 29.7346 29.3867 29.0795H36.228C36.6624 28.4484 37.0382 27.7807 37.3511 27.0844H28.2655C27.9324 26.4448 27.6591 25.777 27.4492 25.0893H38.0632C38.7162 23.1567 39.0606 21.1373 39.0841 19.1022C39.0541 17.7637 38.9173 16.4296 38.675 15.112H26.8394C26.9616 14.436 27.1325 13.7693 27.3508 13.1169H37.9648C37.7549 12.4292 37.4817 11.7614 37.1485 11.1218H28.1632C28.4981 10.4363 28.8731 9.77015 29.2864 9.12674H36.1276C35.7089 8.39872 35.1937 7.72789 34.5953 7.13164H30.8167C31.4112 6.45106 32.0597 5.81738 32.7562 5.2365C29.2292 2.05105 24.5904 0.302011 19.7878 0.346842C19.7897 0.14507 19.7897 0.145081 19.6874 0.145081Z" fill="#FF5050"/>
<path d="M0.604514 18.9994C0.602483 21.4763 1.10026 23.9293 2.06937 26.218C3.03848 28.5068 4.4599 30.5864 6.25231 32.3378C8.04472 34.0892 10.1729 35.4782 12.5152 36.4251C14.8575 37.3721 17.3679 37.8585 19.9027 37.8565C24.6931 37.8366 29.3087 36.0963 32.8712 32.9668C33.569 32.3513 34.2174 31.6844 34.8106 30.9718H30.8275C30.318 30.3643 29.8407 29.7318 29.3975 29.0766H36.2387C36.6731 28.4456 37.049 27.7779 37.3619 27.0815H28.2763C27.9431 26.4419 27.6699 25.7742 27.4599 25.0864H38.074C38.727 23.1538 39.0713 21.1344 39.0948 19.0993C39.0648 17.7609 38.928 16.4268 38.6857 15.1091H26.8501C26.9723 14.4332 27.1432 13.7665 27.3615 13.114H37.9755C37.7656 12.4263 37.4924 11.7585 37.1592 11.119H28.174C28.5089 10.4334 28.8839 9.76728 29.2971 9.12387H36.1384C35.7195 8.3965 35.2043 7.72632 34.6061 7.13067H30.8275C31.4219 6.45008 32.0704 5.81641 32.767 5.23553C29.24 2.05008 24.6011 0.301042 19.7985 0.345873H19.6982" fill="#E52836"/>
<path d="M20.1091 37.8566C24.8994 37.8367 29.515 36.0964 33.0775 32.967C33.7753 32.3515 34.4237 31.6845 35.017 30.9719H31.0357C30.5263 30.3644 30.049 29.7319 29.6057 29.0767H36.447C36.8813 28.4457 37.2572 27.778 37.5701 27.0816H28.4826C28.1494 26.4421 27.8762 25.7743 27.6663 25.0866H38.2803C38.9333 23.1539 39.2776 21.1345 39.3012 19.0994C39.2711 17.761 39.1343 16.4269 38.892 15.1092H27.0449C27.1671 14.4333 27.338 13.7666 27.5563 13.1142H38.1703C37.9603 12.4264 37.6871 11.7587 37.354 11.1191H28.3687C28.7036 10.4335 29.0786 9.76741 29.4919 9.12398H36.3331C35.9144 8.39597 35.3992 7.72515 34.8008 7.1289H31.0222C31.6167 6.44831 32.2652 5.81464 32.9617 5.23376C29.4347 2.04831 24.7959 0.299272 19.9933 0.344103H19.9045" fill="#CB2026"/>
<path d="M26.9591 23.7919L27.266 22.0947C27.0976 22.1378 26.9269 22.1712 26.7545 22.1947C26.0405 22.1947 25.9382 21.7949 26.0405 21.5969L26.6523 18.1045H27.7754L28.0823 16.2094H27.0614L27.266 15.012H25.2242C25.2242 15.012 23.9988 21.5969 23.9988 22.3945C23.9676 22.6159 23.9875 22.8413 24.0571 23.0542C24.1267 23.2671 24.2441 23.4621 24.4009 23.6249C24.5576 23.7876 24.7497 23.9141 24.9629 23.9948C25.1762 24.0756 25.4053 24.1087 25.6333 24.0917C26.0924 24.0878 26.545 23.9855 26.9591 23.7919V23.7919Z" fill="white"/>
<path d="M27.6896 20.5959C27.6382 21.0668 27.6953 21.543 27.8568 21.9896C28.0182 22.4361 28.2799 22.8417 28.6226 23.1766C28.9653 23.5115 29.3804 23.7672 29.8374 23.9249C30.2944 24.0827 30.7817 24.1385 31.2636 24.0882C31.9918 24.1335 32.7218 24.0315 33.4077 23.7884L33.8168 21.8933C33.139 22.1852 32.4125 22.3546 31.6728 22.393C29.4265 22.393 29.8356 20.7958 29.8356 20.7958H34.0214C34.1666 20.2052 34.2692 19.6053 34.3282 19.0006C34.3573 18.6134 34.3006 18.2247 34.1621 17.8609C34.0237 17.497 33.8065 17.1666 33.5256 16.8921C33.2447 16.6176 32.9066 16.4055 32.5342 16.2702C32.1619 16.1348 31.7641 16.0795 31.3679 16.1079C29.2219 15.908 27.6896 18.103 27.6896 20.5959ZM31.2636 17.7032C32.3868 17.7032 32.1822 19.0006 32.1822 19.1005H29.9359C29.9359 19.0006 30.1405 17.7032 31.2636 17.7032Z" fill="white"/>
<path d="M44.3229 23.789L44.732 21.594C44.1889 21.8621 43.6003 22.0315 42.9951 22.0938C41.5651 22.0938 40.9534 20.9962 40.9534 19.7988C40.9534 17.404 42.1789 16.1066 43.6089 16.1066C44.2675 16.1282 44.9056 16.3358 45.446 16.7044L45.7529 14.6093C45.0043 14.315 44.2103 14.146 43.4043 14.1096C41.0557 14.1096 38.7071 16.1047 38.7071 19.8969C38.7071 22.3917 39.9325 24.0869 42.3737 24.0869C43.0325 24.0564 43.686 23.9566 44.3229 23.789Z" fill="white"/>
<path d="M15.6026 15.9046C14.7682 15.8987 13.939 16.0339 13.1518 16.3044L12.8449 18.0015C13.5608 17.7298 14.3233 17.5942 15.0912 17.6018C15.8053 17.6018 16.4189 17.7017 16.4189 18.2995C16.4189 18.6992 16.3167 18.7992 16.3167 18.7992H15.3884C13.6516 18.7992 11.7218 19.4969 11.7218 21.7918C11.7218 23.587 12.9472 23.9868 13.6612 23.9868C14.469 23.975 15.2394 23.6525 15.8053 23.0892L15.703 23.8868H17.5402L18.3565 18.3994C18.3798 18.0487 18.3229 17.6973 18.1897 17.3708C18.0566 17.0443 17.8507 16.7509 17.5869 16.5119C17.3231 16.2729 17.0082 16.0944 16.6649 15.9894C16.3217 15.8843 15.9588 15.8554 15.6026 15.9046ZM16.0118 20.3945C16.0118 20.6943 15.8072 22.2896 14.5818 22.2896C14.4738 22.2922 14.3665 22.2734 14.2663 22.2342C14.166 22.195 14.075 22.1364 13.9986 22.0618C13.9223 21.9872 13.8623 21.8982 13.8222 21.8002C13.7821 21.7023 13.7628 21.5974 13.7654 21.492C13.7654 20.9923 14.0723 20.2945 15.6026 20.2945C15.7333 20.3451 15.8702 20.3787 16.0098 20.3945H16.0118Z" fill="white"/>
<path d="M20.3741 23.9878C20.7558 24.0513 21.1472 24.0312 21.52 23.929C21.8928 23.8269 22.2377 23.6451 22.53 23.3969C22.8222 23.1487 23.0544 22.8402 23.2099 22.4937C23.3654 22.1472 23.4402 21.7713 23.429 21.3931C23.429 18.8983 20.9781 19.398 20.9781 18.4004C20.9781 17.9007 21.3872 17.7027 22.1013 17.7027C22.4081 17.7027 23.5313 17.8027 23.5313 17.8027L23.8381 16.0075C23.2028 15.8613 22.5512 15.7942 21.8986 15.8076C20.3664 15.8076 18.836 16.4053 18.836 18.4023C18.836 20.6972 21.3892 20.4973 21.3892 21.3949C21.3892 21.9927 20.6751 22.0927 20.1637 22.0927C19.54 22.0771 18.9216 21.9762 18.3265 21.7928L18.0197 23.588C18.1278 23.7879 18.6373 23.9878 20.3741 23.9878Z" fill="white"/>
<path d="M61.4211 14.3154L61.0042 17.0101C60.7661 16.7273 60.473 16.4935 60.1417 16.3223C59.8104 16.151 59.4476 16.0458 59.0744 16.0126C57.2372 16.0126 55.6008 18.2075 55.6008 20.8023C55.6008 22.3995 56.4171 24.0947 58.1539 24.0947C58.5152 24.0941 58.8727 24.0232 59.2056 23.8862C59.5386 23.7493 59.8404 23.549 60.0934 23.2971L59.9911 23.9948H62.0328L63.5651 14.4173L61.4211 14.3154ZM60.5025 19.5954C60.5025 20.6929 59.9911 22.0902 58.8679 22.0902C58.1539 22.0902 57.7448 21.4925 57.7448 20.493C57.7448 18.8958 58.4588 17.8983 59.3793 17.8983C60.0933 17.8983 60.5025 18.4055 60.5025 19.5954Z" fill="white"/>
<path d="M4.40764 23.8929L5.63308 16.7084L5.83764 23.8929H7.26764L9.92308 16.7084L8.79992 23.8929H10.944L12.5785 14.3154H9.20712L7.16536 20.2026L7.06308 14.3154H4.10273L2.46817 23.8929H4.40764Z" fill="white"/>
<path d="M36.3434 23.8883C36.9551 20.5958 37.0574 17.9011 38.4874 18.4009C38.6034 17.6046 38.8442 16.8306 39.2014 16.106H38.7924C37.8738 16.106 37.1578 17.3034 37.1578 17.3034L37.3623 16.2059H35.4229L34.0971 23.9882H36.3434V23.8883Z" fill="white"/>
<path d="M49.0795 15.9076C48.2451 15.9016 47.4159 16.0369 46.6286 16.3073L46.3218 18.0045C47.0377 17.7328 47.8001 17.5971 48.5681 17.6047C49.2821 17.6047 49.8959 17.7047 49.8959 18.3024C49.8959 18.7022 49.7936 18.8021 49.7936 18.8021H48.8653C47.1284 18.8021 45.1986 19.4999 45.1986 21.7948C45.1986 23.59 46.4241 23.9897 47.1381 23.9897C47.9459 23.978 48.7162 23.6554 49.2821 23.0921L49.1799 23.8898H51.0171L51.8334 18.4024C51.8638 18.0499 51.8116 17.6954 51.6809 17.3656C51.5501 17.0358 51.3443 16.7395 51.0789 16.499C50.8134 16.2585 50.4955 16.0803 50.1491 15.9778C49.8026 15.8753 49.4369 15.8513 49.0795 15.9076ZM49.5909 20.3974C49.5909 20.6973 49.3864 22.2926 48.1609 22.2926C48.053 22.2952 47.9457 22.2763 47.8454 22.2371C47.7452 22.198 47.6542 22.1393 47.5778 22.0647C47.5015 21.9901 47.4415 21.9011 47.4014 21.8032C47.3613 21.7053 47.342 21.6004 47.3446 21.4949C47.3446 20.9952 47.6514 20.2975 49.1818 20.2975C49.4867 20.3974 49.4867 20.3974 49.589 20.3974H49.5909Z" fill="white"/>
<path d="M53.6689 23.8884C54.2807 20.5959 54.3829 17.9012 55.8129 18.4009C55.929 17.6047 56.1698 16.8306 56.527 16.106H56.1179C55.1993 16.106 54.4833 17.3034 54.4833 17.3034L54.6879 16.2059H52.7484L51.4207 23.9883H53.667L53.6689 23.8884Z" fill="white"/>
<path d="M23.7794 22.3945C23.7482 22.6159 23.7681 22.8413 23.8377 23.0542C23.9073 23.2671 24.0247 23.4621 24.1815 23.6249C24.3382 23.7876 24.5303 23.9141 24.7435 23.9948C24.9568 24.0756 25.1859 24.1087 25.4139 24.0917C25.9402 24.0941 26.4615 23.9921 26.9462 23.7919L27.2531 22.0947C27.0847 22.1378 26.914 22.1712 26.7417 22.1947C26.0276 22.1947 25.9253 21.7949 26.0276 21.5969L26.6394 18.1045H27.7625L28.0694 16.2094H27.0485L27.2531 15.012" fill="#DCE5E5"/>
<path d="M28.715 20.5959C28.715 23.3886 29.6336 24.0882 31.2682 24.0882C31.9963 24.1336 32.7262 24.0315 33.4122 23.7884L33.8213 21.8933C33.1435 22.1852 32.417 22.3546 31.6773 22.393C29.431 22.393 29.8401 20.7958 29.8401 20.7958H34.0259C34.1711 20.2052 34.2737 19.6053 34.3327 19.0006C34.3615 18.6135 34.3046 18.2249 34.166 17.8612C34.0274 17.4975 33.8103 17.1673 33.5294 16.8928C33.2486 16.6184 32.9106 16.4063 32.5384 16.2708C32.1662 16.1354 31.7685 16.0798 31.3723 16.1079C29.2264 15.908 28.715 18.103 28.715 20.5959ZM31.2682 17.7032C32.3913 17.7032 32.5959 19.0006 32.5959 19.1005H29.9404C29.9404 19.0006 30.145 17.7032 31.2682 17.7032Z" fill="#DCE5E5"/>
<path d="M44.331 23.789L44.7401 21.594C44.197 21.8621 43.6084 22.0315 43.0033 22.0938C41.5733 22.0938 40.9616 20.9962 40.9616 19.7988C40.9616 17.404 42.1869 16.1066 43.6169 16.1066C44.2756 16.1282 44.9138 16.3358 45.4542 16.7044L45.761 14.6093C45.0125 14.315 44.2185 14.146 43.4124 14.1096C41.0638 14.1096 39.7458 16.1047 39.7458 19.8969C39.7458 22.3917 39.9503 24.0869 42.4012 24.0869C43.0535 24.0551 43.7005 23.9552 44.331 23.789Z" fill="#DCE5E5"/>
<path d="M12.8449 18.1014C13.5608 17.8297 14.3233 17.694 15.0912 17.7016C15.8053 17.7016 16.4189 17.8016 16.4189 18.3994C16.4189 18.7991 16.3167 18.8991 16.3167 18.8991H15.3884C13.6516 18.8991 11.7218 19.5968 11.7218 21.8917C11.7218 23.6869 12.9472 24.0867 13.6612 24.0867C14.469 24.0749 15.2394 23.7524 15.8053 23.1891L15.703 23.9867H17.5402L18.3565 18.4993C18.3565 16.2044 16.3147 16.1044 15.4984 16.1044L12.8449 18.1014ZM17.0307 20.3944C16.8111 20.8816 16.4731 21.3089 16.0459 21.6392C15.6188 21.9695 15.1155 22.1927 14.5798 22.2896C14.4719 22.2922 14.3646 22.2733 14.2643 22.2341C14.1641 22.195 14.073 22.1363 13.9967 22.0617C13.9204 21.9871 13.8603 21.8982 13.8203 21.8002C13.7802 21.7023 13.7609 21.5974 13.7635 21.4919C13.7635 20.9922 14.0704 20.2945 15.6007 20.2945C16.0735 20.3685 16.5519 20.4025 17.0307 20.3963V20.3944Z" fill="#DCE5E5"/>
<path d="M18.1331 23.7879C18.903 23.9591 19.6932 24.0263 20.4817 23.9878C20.864 24.0526 21.2562 24.0334 21.63 23.9318C22.0038 23.8302 22.3498 23.6487 22.6429 23.4003C22.9361 23.152 23.169 22.843 23.3249 22.4959C23.4808 22.1487 23.5558 21.772 23.5443 21.3931C23.5443 18.8983 21.0935 19.398 21.0935 18.4004C21.0935 17.9007 21.5026 17.7027 22.2166 17.7027C22.5235 17.7027 23.6466 17.8027 23.6466 17.8027L23.9535 16.0075C23.3182 15.8613 22.6665 15.7942 22.014 15.8076C20.4817 15.8076 19.9722 16.4053 19.9722 18.4023C19.9722 20.6972 21.5045 20.4973 21.5045 21.3949C21.5045 21.9927 20.7905 22.0927 20.2791 22.0927" fill="#DCE5E5"/>
<path d="M61.0183 17.0074C60.7791 16.7235 60.4844 16.4891 60.1514 16.3178C59.8184 16.1465 59.4537 16.0418 59.0788 16.0099C57.2416 16.0099 56.6279 18.2048 56.6279 20.7996C56.6279 22.3968 56.4234 24.092 58.1602 24.092C58.5215 24.0913 58.879 24.0205 59.212 23.8835C59.5449 23.7466 59.8467 23.5463 60.0997 23.2944L59.9974 23.9921H62.0392L63.5714 14.4146L61.0183 17.0074ZM60.916 19.6021C60.916 20.6996 59.9974 22.0969 58.8743 22.0969C58.1602 22.0969 57.7511 21.4992 57.7511 20.4997C57.7511 18.9025 58.4652 17.905 59.3857 17.905C59.6036 17.9079 59.8184 17.9553 60.0164 18.0442C60.2144 18.1331 60.3911 18.2616 60.5353 18.4212C60.6794 18.5809 60.7878 18.7683 60.8534 18.9714C60.9189 19.1744 60.9403 19.3887 60.916 19.6003V19.6021Z" fill="#DCE5E5"/>
<path d="M4.40764 23.8929L5.63308 16.7084L5.83764 23.8929H7.26764L9.92308 16.7084L8.79992 23.8929H10.944L12.5785 14.3154H10.0234L7.16536 20.2026L7.06308 14.3154H5.94186L2.46817 23.8929H4.40764Z" fill="#DCE5E5"/>
<path d="M34.1675 23.8884H36.3116C36.9252 20.5959 37.0256 17.9012 38.4556 18.4009C38.5716 17.6047 38.8124 16.8306 39.1696 16.106H38.7605C37.8419 16.106 37.1259 17.3034 37.1259 17.3034L37.3305 16.2059" fill="#DCE5E5"/>
<path d="M46.3218 18.1015C47.0377 17.8298 47.8001 17.6941 48.5681 17.7017C49.2821 17.7017 49.8959 17.8017 49.8959 18.3994C49.8959 18.7992 49.7936 18.8991 49.7936 18.8991H48.8653C47.1284 18.8991 45.1986 19.5968 45.1986 21.8917C45.1986 23.6869 46.4241 24.0867 47.1381 24.0867C47.9459 24.075 48.7162 23.7524 49.2821 23.1891L49.1799 23.9868H51.0171L51.8334 18.4994C51.8334 16.2044 49.7916 16.1045 48.9734 16.1045L46.3218 18.1015ZM50.5057 20.3945C50.2861 20.8816 49.948 21.3089 49.5209 21.6392C49.0937 21.9695 48.5904 22.1928 48.0548 22.2896C47.9469 22.2922 47.8395 22.2734 47.7393 22.2342C47.6391 22.195 47.548 22.1364 47.4717 22.0618C47.3954 21.9872 47.3353 21.8982 47.2952 21.8003C47.2552 21.7023 47.2358 21.5975 47.2385 21.492C47.2385 20.9923 47.5453 20.2945 49.0757 20.2945C49.5494 20.3658 50.0283 20.3998 50.5076 20.3964L50.5057 20.3945Z" fill="#DCE5E5"/>
<path d="M51.5341 23.8884H53.6781C54.2898 20.5959 54.3921 17.9012 55.8221 18.4009C55.9381 17.6047 56.1789 16.8306 56.5361 16.106H56.127C55.2084 16.106 54.4925 17.3034 54.4925 17.3034L54.697 16.2059" fill="#DCE5E5"/>
</svg>
