<svg width="94" height="24" viewBox="0 0 94 24" fill="none" xmlns="http://www.w3.org/2000/svg">
<path d="M72.3239 6.41875H67.2934C67.1303 6.44628 66.977 6.51315 66.8479 6.61314C66.7187 6.71313 66.6177 6.843 66.5543 6.99074L64.4841 19.5687C64.4759 19.6268 64.4817 19.686 64.501 19.7415C64.5204 19.7971 64.5528 19.8475 64.5957 19.889C64.6386 19.9304 64.6909 19.9617 64.7484 19.9804C64.8059 19.9991 64.867 20.0047 64.9272 19.9968H67.5873C67.6474 20.0047 67.7086 19.9991 67.7661 19.9804C67.8236 19.9617 67.8759 19.9304 67.9188 19.889C67.9617 19.8475 67.994 19.7971 68.0134 19.7415C68.0328 19.686 68.0386 19.6268 68.0303 19.5687L68.6224 15.9948C68.6437 15.825 68.733 15.67 68.8712 15.5631C69.0093 15.4562 69.1853 15.4058 69.3615 15.4227H70.9886C71.6928 15.5052 72.4072 15.4464 73.0868 15.2499C73.7664 15.0534 74.3968 14.7234 74.9383 14.2808C75.4799 13.8381 75.9211 13.2922 76.2342 12.6772C76.5474 12.0622 76.7257 11.3914 76.7582 10.7067C76.9056 10.1729 76.9289 9.61425 76.8266 9.07069C76.7242 8.52714 76.4987 8.01221 76.1661 7.56276C75.0597 6.7627 73.7003 6.35836 72.3197 6.41875H72.3239ZM72.9118 11.1348C72.6158 12.8508 71.2846 12.8508 69.9535 12.8508H69.0654L69.6575 9.56276C69.6575 9.42076 69.8045 9.27675 70.1005 9.27675H70.3966C71.2847 9.27675 72.1727 9.27674 72.6158 9.84874C72.9118 9.99074 72.9118 10.4208 72.9118 11.1348Z" fill="#139AD6"/>
<path d="M36.2301 6.42034H31.1996C31.0365 6.44788 30.8833 6.51475 30.7541 6.61474C30.6249 6.71473 30.5239 6.8446 30.4605 6.99233L28.3903 19.5703C28.3821 19.6284 28.3879 19.6875 28.4073 19.7431C28.4266 19.7986 28.459 19.8491 28.5019 19.8906C28.5448 19.932 28.5971 19.9633 28.6546 19.982C28.7121 20.0007 28.7732 20.0063 28.8333 19.9983H31.1996C31.3626 19.9708 31.5159 19.9039 31.6451 19.8039C31.7742 19.704 31.8752 19.5741 31.9386 19.4264L32.5307 15.9964C32.552 15.8266 32.6413 15.6716 32.7795 15.5647C32.9176 15.4578 33.0936 15.4074 33.2697 15.4243H34.8969C35.6011 15.5068 36.3154 15.448 36.9951 15.2515C37.6747 15.055 38.305 14.725 38.8466 14.2823C39.3882 13.8397 39.8293 13.2937 40.1425 12.6788C40.4556 12.0638 40.634 11.393 40.6665 10.7083C40.8139 10.1745 40.8372 9.61584 40.7349 9.07229C40.6325 8.52874 40.407 8.0138 40.0744 7.56435C38.9795 6.74281 37.6116 6.33597 36.228 6.42034H36.2301ZM36.8201 11.1363C36.524 12.8523 35.1929 12.8523 33.8618 12.8523H33.1228L33.7148 9.56435C33.7148 9.42235 33.8618 9.27834 34.1578 9.27834H34.4539C35.342 9.27834 36.2301 9.27833 36.6731 9.85033C36.7933 10.0413 36.8688 10.2554 36.8942 10.4776C36.9196 10.6998 36.8943 10.9246 36.8201 11.1363Z" fill="#263B80"/>
<path d="M51.4623 10.9963H49.0878C48.9409 10.9963 48.6448 11.1383 48.6448 11.2823L48.4978 11.9963L48.3509 11.7103C47.9889 11.3519 47.5487 11.0761 47.0623 10.9031C46.5759 10.7301 46.0557 10.6642 45.5396 10.7103C44.1977 10.7455 42.9121 11.2384 41.9103 12.1015C40.9085 12.9647 40.2552 14.1425 40.066 15.4263C39.9285 16.0483 39.9369 16.6922 40.0906 17.3106C40.2443 17.9291 40.5393 18.5064 40.9541 19.0003C41.3448 19.4102 41.8286 19.7268 42.3674 19.9253C42.9063 20.1238 43.4855 20.1988 44.0594 20.1443C44.6866 20.1589 45.3106 20.0526 45.8949 19.8318C46.4792 19.611 47.0122 19.2801 47.4628 18.8583L47.3158 19.5723C47.3076 19.6304 47.3134 19.6895 47.3327 19.7451C47.3521 19.8006 47.3844 19.8511 47.4273 19.8925C47.4702 19.934 47.5225 19.9653 47.58 19.984C47.6375 20.0027 47.6987 20.0083 47.7588 20.0003H49.978C50.1411 19.9728 50.2943 19.9059 50.4235 19.8059C50.5527 19.7059 50.6537 19.5761 50.7171 19.4283L52.0482 11.4283C51.9012 11.2863 51.6052 11.0003 51.4561 11.0003L51.4623 10.9963ZM48.0528 15.5703C47.9366 16.2096 47.5912 16.789 47.0772 17.207C46.5632 17.625 45.9133 17.8548 45.2415 17.8563C44.6438 17.8711 44.0624 17.6668 43.6143 17.2843C43.2943 16.7672 43.1402 16.1701 43.1713 15.5683C43.2202 15.1109 43.3962 14.6748 43.6807 14.3061C43.9652 13.9374 44.3476 13.6499 44.7874 13.4741C45.2272 13.2982 45.708 13.2405 46.179 13.3071C46.65 13.3737 47.0936 13.5621 47.4628 13.8523C47.8752 14.3327 48.0865 14.9449 48.0548 15.5683" fill="#263B80"/>
<path d="M87.3569 10.9963H84.9824C84.8354 10.9963 84.5394 11.1383 84.5394 11.2823L84.3924 11.9963L84.2454 11.7103C83.8835 11.3519 83.4432 11.0761 82.9568 10.9031C82.4704 10.7301 81.9502 10.6642 81.4341 10.7103C80.0923 10.7455 78.8067 11.2384 77.8049 12.1015C76.8031 12.9647 76.1497 14.1425 75.9605 15.4263C75.823 16.0483 75.8314 16.6922 75.9851 17.3106C76.1388 17.9291 76.4339 18.5064 76.8487 19.0003C77.2394 19.4102 77.7231 19.7268 78.2619 19.9253C78.8008 20.1238 79.38 20.1988 79.9539 20.1443C80.5812 20.1589 81.2051 20.0526 81.7894 19.8318C82.3737 19.611 82.9067 19.2801 83.3573 18.8583L83.2103 19.5723C83.2017 19.6305 83.2071 19.6898 83.2263 19.7455C83.2455 19.8013 83.2779 19.8519 83.3209 19.8935C83.3639 19.935 83.4163 19.9663 83.474 19.9849C83.5317 20.0034 83.5931 20.0087 83.6533 20.0003H85.8725C86.0356 19.9728 86.1889 19.9059 86.3181 19.8059C86.4473 19.7059 86.5482 19.5761 86.6116 19.4283L87.9427 11.4283C87.7957 11.2863 87.6467 11.0003 87.3507 11.0003L87.3569 10.9963ZM83.9473 15.5703C83.8311 16.2096 83.4857 16.789 82.9717 17.207C82.4577 17.625 81.8078 17.8548 81.136 17.8563C80.5383 17.8711 79.9569 17.6668 79.5088 17.2843C79.1888 16.7672 79.0347 16.1701 79.0658 15.5683C79.1147 15.1109 79.2907 14.6748 79.5752 14.3061C79.8597 13.9374 80.2421 13.6499 80.6819 13.4741C81.1217 13.2982 81.6026 13.2405 82.0735 13.3071C82.5445 13.3737 82.9881 13.5621 83.3573 13.8523C83.6193 14.0508 83.815 14.3192 83.9203 14.6244C84.0256 14.9295 84.0357 15.2577 83.9494 15.5683" fill="#139AD6"/>
<path d="M64.2536 10.993H61.7384C61.6239 10.995 61.5112 11.0217 61.4088 11.0712C61.3063 11.1207 61.2166 11.1917 61.1463 11.279L57.892 16.139L56.4118 11.565C56.3582 11.4225 56.2555 11.3022 56.121 11.2242C55.9864 11.1463 55.8281 11.1155 55.6728 11.137H53.3066C53.0105 11.137 52.8635 11.423 52.8635 11.709L55.5258 19.285L53.0105 22.715C52.8635 23.001 53.0105 23.429 53.3066 23.429H55.6728C55.7873 23.427 55.8999 23.4002 56.0023 23.3508C56.1047 23.3013 56.1944 23.2303 56.2648 23.143L64.4027 11.851C64.8457 11.423 64.5497 10.993 64.2536 10.993" fill="#263B80"/>
<path d="M90.1747 6.84464L88.1046 19.7087C88.0963 19.7667 88.1021 19.8258 88.1215 19.8814C88.1408 19.9369 88.1732 19.9874 88.2161 20.0288C88.259 20.0703 88.3113 20.1016 88.3688 20.1203C88.4263 20.139 88.4874 20.1446 88.5475 20.1367H90.6177C90.7808 20.1091 90.934 20.0423 91.0632 19.9423C91.1924 19.8423 91.2934 19.7124 91.3568 19.5646L93.4269 6.98664C93.4352 6.92857 93.4294 6.86946 93.41 6.81391C93.3906 6.75836 93.3583 6.7079 93.3154 6.66645C93.2725 6.62501 93.2202 6.59372 93.1627 6.57502C93.1052 6.55632 93.044 6.55072 92.9839 6.55866H90.6177C90.4707 6.41666 90.3217 6.55864 90.1747 6.84464" fill="#139AD6"/>
<path d="M17.5689 2.27528C16.8033 1.63119 15.9079 1.14738 14.939 0.854438C13.9702 0.561495 12.9491 0.465779 11.94 0.57328H4.54952C4.31101 0.60556 4.08696 0.702838 3.90364 0.853736C3.72031 1.00464 3.5853 1.20289 3.51443 1.42527L0.554085 20.0053C0.536615 20.175 0.588899 20.3445 0.699659 20.4774C0.810419 20.6102 0.97078 20.6957 1.14616 20.7153H5.72952L6.91366 13.7653V14.0493C6.98453 13.8269 7.11954 13.6286 7.30286 13.4777C7.48619 13.3268 7.71024 13.2296 7.94875 13.1973H10.17C14.4615 13.1973 17.7158 11.4953 18.7509 6.81525V6.38926C18.8855 5.66163 18.849 4.91405 18.644 4.20191C18.4391 3.48977 18.0709 2.83132 17.5668 2.27528" fill="#263B80"/>
<path d="M18.603 6.27441V6.70242C17.568 11.5624 14.3116 13.1344 10.0222 13.1344H7.80294C7.56376 13.1674 7.3393 13.2657 7.15594 13.4177C6.97258 13.5697 6.83794 13.7691 6.76785 13.9924L5.28767 22.7124C5.27997 22.7894 5.28999 22.867 5.31702 22.9398C5.34405 23.0126 5.38742 23.0787 5.44402 23.1334C5.50061 23.1881 5.56903 23.23 5.64436 23.2561C5.7197 23.2822 5.80008 23.2919 5.87974 23.2844H9.72613C9.94127 23.3007 10.1545 23.2351 10.3204 23.1018C10.4863 22.9684 10.5917 22.7778 10.6142 22.5704V22.4284L11.3533 17.9984V17.7124C11.3758 17.5051 11.4813 17.3144 11.6471 17.1811C11.813 17.0477 12.0262 16.9822 12.2414 16.9984H12.8335C16.5329 16.9984 19.4911 15.5684 20.2302 11.2804C20.4308 10.5561 20.4687 9.79872 20.3412 9.05911C20.2138 8.31951 19.9239 7.61484 19.4911 6.99243C19.3043 6.65046 18.9851 6.39376 18.603 6.27841" fill="#139AD6"/>
<path d="M17.5789 5.94546C17.4319 5.94546 17.2829 5.80346 17.1359 5.80346C17.0558 5.813 16.9744 5.80522 16.8978 5.78066C16.8212 5.7561 16.7512 5.71538 16.6929 5.66146C16.0603 5.53763 15.4143 5.48993 14.7697 5.51946H8.99596C8.91583 5.50992 8.83452 5.51773 8.7579 5.54229C8.68128 5.56685 8.61127 5.60754 8.55294 5.66146C8.41731 5.72847 8.30388 5.83092 8.22556 5.95715C8.14723 6.08337 8.10717 6.22833 8.10992 6.37548L6.92578 13.8075V14.0935C6.99588 13.8701 7.13051 13.6707 7.31387 13.5187C7.49723 13.3667 7.72169 13.2685 7.96087 13.2355H10.1801C14.4716 13.2355 17.7259 11.5195 18.761 6.80346C18.7511 6.72605 18.7592 6.6475 18.7846 6.57348C18.81 6.49945 18.8521 6.43183 18.908 6.37548C18.6119 6.23348 18.4649 6.08947 18.1689 6.08947C17.7259 5.94747 17.7259 5.94747 17.5768 5.94747" fill="#232C65"/>
</svg>
