<svg width="22" height="24" viewBox="0 0 22 24" fill="none" xmlns="http://www.w3.org/2000/svg">
<path d="M5 0C4.175 0 3.5 0.675 3.5 1.5V22.5C3.5 23.325 4.175 24 5 24H20C20.825 24 21.5 23.325 21.5 22.5V6L15.5 0H5Z" fill="#E2E5E7"/>
<path d="M17 6H21.5L15.5 0V4.5C15.5 5.325 16.175 6 17 6Z" fill="#B0B7BD"/>
<path d="M21.5 10.5L17 6H21.5V10.5Z" fill="#CAD1D8"/>
<path d="M18.5 19.5C18.5 19.9125 18.1625 20.25 17.75 20.25H1.25C0.8375 20.25 0.5 19.9125 0.5 19.5V12C0.5 11.5875 0.8375 11.25 1.25 11.25H17.75C18.1625 11.25 18.5 11.5875 18.5 12V19.5Z" fill="#F15642"/>
<path d="M3.76929 14.2101C3.76929 14.0121 3.92529 13.7961 4.17654 13.7961H5.56179C6.34179 13.7961 7.04379 14.3181 7.04379 15.3186C7.04379 16.2666 6.34179 16.7946 5.56179 16.7946H4.56054V17.5866C4.56054 17.8506 4.39254 17.9999 4.17654 17.9999C3.97854 17.9999 3.76929 17.8506 3.76929 17.5866V14.2101ZM4.56054 14.5514V16.0454H5.56179C5.96379 16.0454 6.28179 15.6906 6.28179 15.3186C6.28179 14.8994 5.96379 14.5514 5.56179 14.5514H4.56054Z" fill="white"/>
<path d="M8.21844 17.9999C8.02044 17.9999 7.80444 17.8918 7.80444 17.6286V14.2221C7.80444 14.0068 8.02044 13.8501 8.21844 13.8501H9.59169C12.3322 13.8501 12.2722 17.9999 9.64569 17.9999H8.21844ZM8.59644 14.5821V17.2686H9.59169C11.2109 17.2686 11.2829 14.5821 9.59169 14.5821H8.59644Z" fill="white"/>
<path d="M13.2452 14.6306V15.5839H14.7744C14.9904 15.5839 15.2064 15.7999 15.2064 16.0091C15.2064 16.2071 14.9904 16.3691 14.7744 16.3691H13.2452V17.6284C13.2452 17.8384 13.0959 17.9996 12.8859 17.9996C12.6219 17.9996 12.4607 17.8384 12.4607 17.6284V14.2219C12.4607 14.0066 12.6227 13.8499 12.8859 13.8499H14.9912C15.2552 13.8499 15.4112 14.0066 15.4112 14.2219C15.4112 14.4139 15.2552 14.6299 14.9912 14.6299H13.2452V14.6306Z" fill="white"/>
<path d="M17.75 20.25H3.5V21H17.75C18.1625 21 18.5 20.6625 18.5 20.25V19.5C18.5 19.9125 18.1625 20.25 17.75 20.25Z" fill="#CAD1D8"/>
</svg>
