<svg width="30" height="30" viewBox="0 0 30 30" fill="none" xmlns="http://www.w3.org/2000/svg">
<path d="M28.6226 15.0011L29.9387 11.5682C30.0831 11.1894 29.9706 10.7601 29.6537 10.5032L26.8002 8.18964L26.2227 4.55802C26.159 4.15679 25.844 3.84369 25.4428 3.77994L21.8112 3.20248L19.4994 0.347054C19.2445 0.0302002 18.8057 -0.0822922 18.4364 0.062073L15.0016 1.38011L11.5687 0.0639479C11.1881 -0.0822922 10.7625 0.0339499 10.5057 0.348928L8.19208 3.20436L4.56046 3.78182C4.16111 3.84556 3.84613 4.16054 3.78238 4.55989L3.20492 8.19152L0.349494 10.5051C0.0345157 10.7601 -0.0798515 11.1894 0.0645137 11.5682L1.38067 15.0011L0.0645137 18.4339C-0.0817264 18.8127 0.0345157 19.242 0.349494 19.497L3.20492 21.8087L3.78238 25.4403C3.84613 25.8416 4.15923 26.1565 4.56046 26.2203L8.19208 26.7978L10.5057 29.6513C10.7625 29.97 11.1919 30.0825 11.5706 29.9363L15.0016 28.622L18.4345 29.9382C18.5433 29.9794 18.6557 30 18.7701 30C19.0457 30 19.3176 29.8782 19.4994 29.6513L21.8112 26.7978L25.4428 26.2203C25.844 26.1565 26.159 25.8416 26.2227 25.4403L26.8002 21.8087L29.6537 19.497C29.9706 19.2401 30.0831 18.8127 29.9387 18.4339L28.6226 15.0011Z" fill="#EE554B"/>
</svg>
