<svg width="84" height="36" viewBox="0 0 84 36" fill="none" xmlns="http://www.w3.org/2000/svg">
<path fill-rule="evenodd" clip-rule="evenodd" d="M8.57467 25.9659C5.02024 25.9659 3.40252 26.9307 2.76454 28.9503L0.736694 35.3678H69.8202C73.3747 35.3678 74.9924 34.4029 75.6304 32.3834L77.6582 25.9659H8.57467ZM16.8911 17.0127H13.4734C8.14176 17.0127 12.0152 5.86049 16.5038 5.86049H21.9038C22.7696 5.86049 24.2962 6.01757 25.0481 3.9083L26.2101 0.632202H18.805C14.7949 0.632202 11.6734 2.02342 9.41771 4.35708C5.5215 8.35123 4.19999 14.5893 5.13416 17.5737C6.02277 20.3337 8.43796 22.1512 12.2202 22.1961L15.1595 22.2185H18.7823L19.6709 19.5932C20.3316 17.7307 18.8506 17.0127 16.8911 17.0127ZM58.4962 12.3903L59.6126 8.82245H47.6962C45.7139 8.82245 44.8253 9.36098 44.4835 10.4829L43.3671 14.0507H55.2835C57.2658 14.0507 58.1544 13.5122 58.4962 12.3903ZM41.5899 18.6732L40.4734 22.241H52.3899C54.3494 22.241 55.2608 21.7024 55.6025 20.5805L56.719 17.0127H44.8025C42.843 17.0127 41.9544 17.5512 41.5899 18.6732ZM61.2759 4.22245L62.3924 0.654641H50.4759C48.4937 0.654641 47.6051 1.19318 47.2633 2.31513L46.1468 5.88293H58.0633C60.0228 5.88293 60.9114 5.3444 61.2759 4.22245ZM43.2759 4.9405C42.7747 1.61952 40.9747 0.654641 36.6 0.654641H28.6253L23.9772 14.0507H26.9164C28.6709 14.0507 29.5595 14.0732 30.4937 11.6049L32.4304 5.86049H35.3924C37.9215 5.86049 37.3519 8.97952 36.0759 12.0088C34.9367 14.679 32.9544 17.0351 30.562 17.0351H25.6177C23.6354 17.0351 22.724 17.5737 22.3595 18.6956L21.1291 22.2634H24.7519L28.3063 22.241C31.4506 22.2185 34.0253 21.9942 37.0329 19.3239C40.2228 16.4742 43.9139 9.15903 43.2759 4.9405ZM83.3316 0.632202H76.4278L69.9342 7.43123C69.1823 8.21659 68.4076 9.00196 67.6557 9.92196H67.5873L70.8228 0.632202H65.1949L57.6076 22.241H63.2354L65.6506 15.442L68.157 13.3551L70.1392 19.5034C70.7544 21.4107 71.3924 22.241 72.7595 22.241H77.0658L72.6456 10.1688L83.3316 0.632202Z" fill="#00B33C"/>
<path d="M8.25595 31.3063V33.079H7.25342V28.1649H9.2357C9.80532 28.1649 10.261 28.2995 10.58 28.5912C10.899 28.8829 11.0813 29.2644 11.0813 29.7356C11.0813 30.2068 10.9218 30.5883 10.58 30.88C10.261 31.1717 9.80532 31.3063 9.2357 31.3063H8.25595ZM8.25595 30.5434H9.2357C9.50911 30.5434 9.71418 30.4761 9.87367 30.319C10.0104 30.1619 10.0787 29.9824 10.0787 29.758C10.0787 29.5112 10.0104 29.3317 9.87367 29.1746C9.73696 29.0175 9.50911 28.9502 9.2357 28.9502H8.25595V30.5434ZM13.9294 32.0244H12.1749L11.8332 33.079H10.8306L12.5395 28.1649H13.5648L15.2737 33.079H14.2711L13.9294 32.0244ZM12.4256 31.239H13.6787L13.0635 29.3092H13.0408L12.4256 31.239ZM18.942 28.9278H16.7319V29.8927H17.5977C18.1673 29.8927 18.623 30.0497 18.9648 30.3414C19.3066 30.6331 19.4661 31.0146 19.4661 31.4858C19.4661 31.957 19.3066 32.3385 18.9648 32.6302C18.623 32.9219 18.1673 33.079 17.5977 33.079H15.6838V28.1649H18.942V28.9278ZM16.7319 30.6556V32.3161H17.5977C17.8711 32.3161 18.099 32.2263 18.2357 32.0692C18.3724 31.9122 18.4635 31.7102 18.4635 31.4634C18.4635 31.239 18.3952 31.037 18.2357 30.88C18.0762 30.7229 17.8711 30.6331 17.5977 30.6331H16.7319V30.6556ZM24.1597 31.0595C24.1597 31.6653 23.9775 32.159 23.5901 32.5629C23.2028 32.9668 22.7015 33.1463 22.0863 33.1463C21.4711 33.1463 20.9699 32.9444 20.5825 32.5629C20.1952 32.1814 20.0129 31.6653 20.0129 31.0595V30.1844C20.0129 29.5785 20.1952 29.0849 20.5825 28.6809C20.9699 28.277 21.4711 28.0975 22.0863 28.0975C22.7015 28.0975 23.2028 28.2995 23.5901 28.6809C23.9775 29.0624 24.1825 29.5785 24.1825 30.1844V31.0595H24.1597ZM23.1572 30.1844C23.1572 29.8029 23.0661 29.4888 22.861 29.2419C22.656 28.9951 22.4053 28.8829 22.0635 28.8829C21.7218 28.8829 21.4484 28.9951 21.2661 29.2419C21.0838 29.4888 20.9927 29.8029 20.9927 30.1844V31.0819C20.9927 31.4634 21.0838 31.8 21.2661 32.0244C21.4484 32.2712 21.7218 32.3834 22.0635 32.3834C22.4053 32.3834 22.6787 32.2712 22.861 32.0244C23.0433 31.7775 23.1572 31.4634 23.1572 31.0819V30.1844ZM28.261 28.9278H26.8484V33.079H25.8458V28.9278H24.4332V28.1649H28.2382V28.9278H28.261ZM31.1547 32.0244H29.4003L29.0585 33.079H28.056L29.7648 28.1649H30.7901L32.499 33.079H31.4965L31.1547 32.0244ZM29.6509 31.239H30.9041L30.2889 29.3092H30.2661L29.6509 31.239ZM36.0534 30.9249H33.98V32.3161H36.3952V33.079H32.9775V28.1649H36.3952V28.9278H33.98V30.1619H36.0534V30.9249ZM38.3091 28.1649L39.5851 31.7775H39.6078L40.8838 28.1649H42.1825V33.079H41.18V31.6205L41.2711 29.4439H41.2484L39.9041 33.079H39.2433L37.9218 29.4663H37.899L37.9901 31.6205V33.079H36.9876V28.1649H38.3091ZM44.8711 33.079V28.1649H46.5572C47.1496 28.1649 47.6053 28.277 47.9243 28.5014C48.2433 28.7258 48.4256 29.0624 48.4256 29.5112C48.4256 29.7356 48.3572 29.9375 48.2433 30.117C48.1294 30.2966 47.9471 30.4312 47.7192 30.5209C48.0154 30.5883 48.2433 30.7229 48.4028 30.9249C48.5623 31.1268 48.6306 31.3736 48.6306 31.6429C48.6306 32.1141 48.4711 32.4731 48.1522 32.72C47.8332 32.9668 47.4003 33.079 46.8078 33.079H44.8711ZM45.8737 30.2292H46.6028C46.8762 30.2292 47.0813 30.1844 47.218 30.0722C47.3547 29.96 47.423 29.8029 47.423 29.6009C47.423 29.3766 47.3547 29.197 47.1952 29.1073C47.0585 28.9951 46.8306 28.9502 46.5572 28.9502H45.8737V30.2292ZM45.8737 30.9024V32.3161H46.7851C47.0585 32.3161 47.2408 32.2488 47.4003 32.1366C47.5597 32.0244 47.6053 31.8448 47.6053 31.6429C47.6053 31.3961 47.537 31.2166 47.423 31.0819C47.3091 30.9473 47.1268 30.9024 46.8534 30.9024H45.8737ZM53.142 31.3961C53.1648 31.9346 53.0053 32.3609 52.6635 32.6751C52.3218 32.9892 51.8661 33.1463 51.2509 33.1463C50.6585 33.1463 50.1572 32.9668 49.7927 32.5853C49.4281 32.2039 49.223 31.7102 49.223 31.1268V30.1619C49.223 29.5561 49.4053 29.0849 49.7699 28.7034C50.1344 28.3219 50.6129 28.12 51.2053 28.12C51.8205 28.12 52.299 28.277 52.6408 28.5912C52.9825 28.9053 53.1648 29.3317 53.142 29.8702V29.8927H52.1623C52.1623 29.5785 52.0939 29.3317 51.9344 29.1522C51.7749 28.9727 51.5243 28.9053 51.2053 28.9053C50.9091 28.9053 50.6585 29.0175 50.499 29.2644C50.3167 29.5112 50.2256 29.8029 50.2256 30.1844V31.1717C50.2256 31.5531 50.3167 31.8448 50.499 32.0917C50.6813 32.3385 50.9319 32.4507 51.2509 32.4507C51.5699 32.4507 51.7977 32.3609 51.9344 32.2039C52.0939 32.0468 52.1623 31.8 52.1623 31.4634H53.142V31.3961ZM56.9243 30.9249H54.8509V32.3161H57.2661V33.079H53.8484V28.1649H57.2661V28.9278H54.8509V30.1619H56.9243V30.9249ZM61.1395 28.9278H58.8838V33.079H57.8813V28.1649H61.1395V28.9278ZM65.7648 34.2907H64.8534V33.079H61.8003V34.2907H60.8889L60.8205 32.3161H61.2078C61.3901 32.159 61.5496 31.9346 61.6863 31.598C61.823 31.2839 61.8914 30.7902 61.9142 30.1619L62.0509 28.1424H65.2863V32.2936H65.8787L65.7648 34.2907ZM62.8711 30.1844C62.8484 30.678 62.78 31.1044 62.6889 31.4409C62.5977 31.8 62.461 32.0917 62.3015 32.3161H64.261V28.9278H62.9623L62.8711 30.1844ZM69.1598 32.0244H67.4053L67.0635 33.079H66.061L67.7699 28.1649H68.7952L70.5041 33.079H69.5015L69.1598 32.0244ZM67.656 31.239H68.9091L68.2939 29.3092H68.2711L67.656 31.239ZM71.9623 31.3736H70.9598V28.1649H71.9623V31.3736ZM71.9623 33.079H70.9598V32.2263H71.9623V33.079Z" fill="white"/>
</svg>
