<svg width="50" height="50" viewBox="0 0 50 50" fill="none" xmlns="http://www.w3.org/2000/svg">
<path d="M48.6728 17.1592L32.8401 1.32676C31.9854 0.472168 30.8457 0.00146484 29.6307 0.00146484C28.4157 0.00146484 27.2759 0.471973 26.4212 1.32656L1.32529 26.4226C0.470703 27.2772 0 28.4169 0 29.6319C0 30.847 0.470703 31.9868 1.32529 32.8413L3.27764 34.7937C3.27783 34.7938 3.27793 34.7939 3.27813 34.7941C3.27832 34.7943 3.27852 34.7945 3.27871 34.7947L16.3998 47.9158H14.583C14.0078 47.9158 13.5414 48.3821 13.5414 48.9574C13.5414 49.5326 14.0078 49.999 14.583 49.999H20.3632C20.3645 49.999 20.3658 49.9991 20.3672 49.9991C20.3686 49.9991 20.3698 49.999 20.3712 49.999L35.4154 49.9992C35.9906 49.9992 36.457 49.5328 36.457 48.9576C36.457 48.3823 35.9906 47.916 35.4154 47.916L24.335 47.9158L48.6729 23.5779C50.4424 21.8082 50.4424 18.9287 48.6728 17.1592ZM47.1997 22.1049L22.1036 47.201C21.6434 47.6611 21.0281 47.9148 20.371 47.9158H20.3631C19.7062 47.9147 19.0911 47.6611 18.6311 47.201L5.48779 34.0576L29.5889 9.95635C29.9956 9.54961 29.9956 8.89004 29.5889 8.4833C29.182 8.07656 28.5227 8.07656 28.1157 8.4834L4.01465 32.5847L2.79824 31.3683C2.33721 30.9072 2.0833 30.2906 2.0833 29.632C2.0833 28.9734 2.33721 28.3567 2.79834 27.8956L27.8942 2.79971C28.3554 2.33867 28.9721 2.08477 29.6307 2.08477C30.2893 2.08477 30.906 2.33867 31.3671 2.7998L37.0021 8.43477L12.9008 32.5363C12.494 32.943 12.494 33.6025 12.9008 34.0095C13.1042 34.2128 13.3708 34.3145 13.6373 34.3145C13.9038 34.3145 14.1704 34.2127 14.3738 34.0094L38.4752 9.90791L47.1997 18.6321C48.157 19.5896 48.1569 21.1475 47.1997 22.1049Z" fill="white"/>
<path d="M25.6624 30.0838C25.2556 29.6771 24.5963 29.6772 24.1892 30.0838L15.9926 38.2804C15.5858 38.6871 15.5858 39.3466 15.9926 39.7535C16.196 39.957 16.4626 40.0586 16.7291 40.0586C16.9956 40.0586 17.2622 39.9569 17.4656 39.7535L25.6623 31.557C26.0691 31.15 26.0691 30.4906 25.6624 30.0838Z" fill="white"/>
<path d="M22.3036 37.8652L18.9418 41.227C18.535 41.6337 18.535 42.2933 18.9418 42.7001C19.1452 42.9035 19.4118 43.0052 19.6783 43.0052C19.945 43.0052 20.2114 42.9035 20.4148 42.7001L23.7766 39.3383C24.1834 38.9316 24.1834 38.272 23.7766 37.8652C23.3699 37.4583 22.7106 37.4583 22.3036 37.8652Z" fill="white"/>
<path d="M25.396 34.7718L24.9541 35.2136C24.5472 35.6203 24.5472 36.2798 24.954 36.6867C25.1573 36.8901 25.424 36.9919 25.6905 36.9919C25.957 36.9919 26.2236 36.8901 26.4269 36.6867L26.8688 36.2449C27.2757 35.8382 27.2757 35.1787 26.8689 34.7719C26.4624 34.3652 25.8027 34.3651 25.396 34.7718Z" fill="white"/>
<path d="M39.753 15.9948C39.5577 15.7995 39.2927 15.6897 39.0165 15.6897C38.7402 15.6897 38.4753 15.7995 38.2799 15.9948L33.8605 20.4141C33.6652 20.6095 33.5554 20.8744 33.5554 21.1506C33.5554 21.4269 33.6652 21.6918 33.8605 21.8872L36.8068 24.8332C37.0102 25.0366 37.2768 25.1382 37.5433 25.1382C37.81 25.1382 38.0764 25.0365 38.2798 24.8332L42.6991 20.414C43.1058 20.0073 43.1058 19.3477 42.6991 18.941L39.753 15.9948ZM37.5432 22.6237L36.0701 21.1506L39.0164 18.2044L40.4894 19.6776L37.5432 22.6237Z" fill="white"/>
<path d="M31.2828 7.83001C31.5495 7.83001 31.8161 7.72825 32.0194 7.52473L32.4613 7.08264C32.868 6.67581 32.8679 6.01624 32.461 5.6096C32.0543 5.20295 31.3946 5.20305 30.988 5.60989L30.5461 6.05198C30.1395 6.45881 30.1396 7.11839 30.5464 7.52503C30.7498 7.72844 31.0162 7.83001 31.2828 7.83001Z" fill="white"/>
<path d="M10.4701 34.9663L10.0282 35.4082C9.62146 35.8148 9.62146 36.4744 10.0282 36.8813C10.2316 37.0846 10.4982 37.1863 10.7647 37.1863C11.0312 37.1863 11.2978 37.0846 11.5012 36.8813L11.9431 36.4394C12.3499 36.0326 12.3499 35.373 11.9431 34.9663C11.5363 34.5594 10.8769 34.5594 10.4701 34.9663Z" fill="white"/>
</svg>
