<svg width="46" height="50" viewBox="0 0 46 50" fill="none" xmlns="http://www.w3.org/2000/svg">
<path d="M44.1559 0H1.84824C1.31719 0 0.886719 0.430469 0.886719 0.961523V17.5291C0.886719 24.5034 2.9415 31.2505 6.82881 37.0408C10.7162 42.8312 16.1829 47.2876 22.638 49.9283C22.7546 49.9761 22.8784 50 23.0021 50C23.1257 50 23.2494 49.9762 23.3661 49.9283C29.8212 47.2876 35.2878 42.8312 39.1754 37.0408C43.0627 31.2504 45.1175 24.5033 45.1175 17.5291V0.961523C45.1175 0.430469 44.6869 0 44.1559 0ZM43.1943 17.5291C43.1943 30.8894 35.2817 42.8054 23.0021 47.9971C10.7224 42.8053 2.80977 30.8895 2.80977 17.5291V1.92305H43.1943V17.5291Z" fill="white"/>
<path d="M40.3079 3.84619H5.69248C5.16143 3.84619 4.73096 4.27666 4.73096 4.80771V17.5292C4.73096 23.7373 6.55986 29.743 10.0202 34.8971C13.1599 39.5735 17.5064 43.3119 22.5903 45.708C22.7201 45.7691 22.8603 45.7997 23.0002 45.7997C23.1402 45.7997 23.2804 45.7691 23.4101 45.708C28.4939 43.3119 32.8405 39.5735 35.9802 34.8971C39.4404 29.743 41.2694 23.7373 41.2694 17.5292V4.80771C41.2694 4.27666 40.839 3.84619 40.3079 3.84619ZM39.3464 17.5291C39.3464 23.354 37.6303 28.9891 34.3835 33.8252C31.5224 38.0869 27.5936 41.518 23.0002 43.7713C18.4068 41.5181 14.478 38.0869 11.6169 33.8252C8.37012 28.9892 6.654 23.354 6.654 17.5291V10.5769H11.4617C11.9928 10.5769 12.4232 10.1464 12.4232 9.61533C12.4232 9.08428 11.9928 8.65381 11.4617 8.65381H6.654V5.76924H39.3463V17.5291H39.3464Z" fill="white"/>
<path d="M33.1988 20.4149L29.7767 16.9928C29.4013 16.6173 28.7924 16.6174 28.4169 16.9928L21.6404 23.7692L17.5837 19.7124C17.2082 19.3369 16.5993 19.3369 16.2238 19.7124L12.8017 23.1346C12.6214 23.3148 12.52 23.5595 12.52 23.8144C12.52 24.0694 12.6214 24.3141 12.8017 24.4943L20.9606 32.6533C21.1484 32.8411 21.3945 32.9349 21.6405 32.9349C21.8865 32.9349 22.1327 32.8411 22.3204 32.6533L33.1989 21.7748C33.3792 21.5945 33.4806 21.3499 33.4806 21.0949C33.4805 20.8398 33.3791 20.5952 33.1988 20.4149ZM21.6404 30.6136L14.8413 23.8145L16.9037 21.752L20.9605 25.8089C21.3359 26.1844 21.9448 26.1844 22.3203 25.8089L29.0968 19.0324L31.1592 21.0948L21.6404 30.6136Z" fill="white"/>
<path d="M15.2905 9.42783C15.279 9.36631 15.2598 9.30576 15.2357 9.24805C15.2117 9.18935 15.1819 9.13359 15.1473 9.08174C15.1127 9.02881 15.0723 8.97978 15.028 8.93555C14.9838 8.89131 14.9348 8.85098 14.8818 8.81631C14.8299 8.78174 14.7741 8.75186 14.7155 8.72783C14.6578 8.70381 14.5973 8.68457 14.5357 8.67305C14.4117 8.64805 14.2848 8.64805 14.1607 8.67305C14.0992 8.68457 14.0387 8.70381 13.981 8.72783C13.9223 8.75186 13.8665 8.78164 13.8146 8.81631C13.7617 8.85088 13.7127 8.89131 13.6685 8.93555C13.6242 8.97978 13.5839 9.02881 13.5492 9.08174C13.5146 9.13369 13.4848 9.18945 13.4607 9.24805C13.4367 9.30576 13.4175 9.36631 13.406 9.42783C13.3935 9.48935 13.3867 9.55283 13.3867 9.61533C13.3867 9.67783 13.3935 9.74131 13.406 9.80283C13.4175 9.86436 13.4367 9.9249 13.4607 9.98359C13.4848 10.0413 13.5146 10.0971 13.5492 10.149C13.5838 10.202 13.6242 10.251 13.6685 10.2952C13.7127 10.3395 13.7617 10.3798 13.8146 10.4145C13.8666 10.449 13.9224 10.4789 13.981 10.5029C14.0387 10.527 14.0992 10.5462 14.1607 10.5587C14.2223 10.5712 14.2857 10.577 14.3482 10.577C14.4107 10.577 14.4742 10.5712 14.5357 10.5587C14.5973 10.5462 14.6578 10.527 14.7155 10.5029C14.7742 10.4789 14.83 10.4491 14.8818 10.4145C14.9348 10.3799 14.9838 10.3395 15.028 10.2952C15.0723 10.251 15.1126 10.202 15.1473 10.149C15.1818 10.0971 15.2117 10.0413 15.2357 9.98359C15.2598 9.9249 15.279 9.86436 15.2905 9.80283C15.303 9.74131 15.3098 9.67783 15.3098 9.61533C15.3098 9.55283 15.303 9.48935 15.2905 9.42783Z" fill="white"/>
</svg>
