<svg width="82" height="26" viewBox="0 0 82 26" fill="none" xmlns="http://www.w3.org/2000/svg">
<path d="M0.472717 1.25619V1.63332C8.75552 3.57938 14.5064 8.5011 16.7836 14.1545L14.3906 3.26071C14.2093 2.62774 13.8038 2.07829 13.2464 1.71044C12.6889 1.34258 12.0159 1.18026 11.3473 1.25242L0.472717 1.25619Z" fill="#F7981D"/>
<path d="M29.4803 24.7391L33.558 1.25061H40.158L36.0745 24.7391H29.4803Z" fill="#293688"/>
<path d="M59.6573 1.86135C57.7596 1.19579 55.7567 0.861965 53.7404 0.875131C47.2176 0.875131 42.6208 4.06197 42.5822 8.62729C42.5456 12.0008 45.8629 13.8847 48.3717 15.0085C50.9403 16.1569 51.8049 16.8943 51.7933 17.922C51.7778 19.4965 49.7399 20.2169 47.8429 20.2169C45.7021 20.2774 43.5759 19.8554 41.6289 18.9836L40.7778 18.6065L39.8515 23.8639C42.2069 24.7072 44.6976 25.132 47.2061 25.1179C54.1534 25.1179 58.6499 21.9687 58.702 17.0923C58.7271 14.4202 56.9652 12.378 53.1596 10.711C50.8438 9.62485 49.4389 8.90072 49.4543 7.79947C49.4543 6.82267 50.6508 5.77987 53.2348 5.77987C54.9282 5.74284 56.611 6.04911 58.1771 6.67936L58.7677 6.9509L59.665 1.85948L59.6573 1.86135Z" fill="#293688"/>
<path d="M71.0421 1.25544C70.3264 1.17582 69.6037 1.32861 68.9857 1.69021C68.3677 2.0518 67.8886 2.60211 67.6224 3.25619L57.8401 24.7533H64.83L66.1808 21.1535H74.5312L75.3031 24.7533H81.5172L76.0808 1.26488H71.0421V1.25544ZM68.0412 16.4449C68.5874 15.0928 70.6696 9.88071 70.6696 9.88071C70.631 9.94293 71.2119 8.5211 71.5457 7.64047L71.9916 9.66384L73.52 16.4524H68.0412V16.4449Z" fill="#293688"/>
<path d="M17.3537 17.3512L16.7748 14.1304C15.0961 9.84781 11.8377 6.33427 7.64093 4.28131L13.4729 24.7375H20.4627L30.9455 1.24908H23.9557L17.3537 17.3512Z" fill="#293688"/>
</svg>
