<svg width="40" height="40" viewBox="0 0 40 40" fill="none" xmlns="http://www.w3.org/2000/svg">
<path d="M39.25 20C39.25 30.6315 30.6315 39.25 20 39.25C9.36852 39.25 0.75 30.6315 0.75 20C0.75 9.36852 9.36852 0.75 20 0.75C30.6315 0.75 39.25 9.36852 39.25 20Z" stroke="#84B739" stroke-width="1.5"/>
<g clip-path="url(#clip0)">
<path d="M20.668 9.33301C15.1754 9.33301 10.668 13.8405 10.668 19.333C10.668 21.1458 11.1567 22.9104 12.0835 24.4543L10.668 29.333L15.5467 27.9174C17.0905 28.8443 18.8552 29.333 20.668 29.333C26.1605 29.333 30.668 24.8256 30.668 19.333C30.668 13.8405 26.1605 9.33301 20.668 9.33301ZM26.9201 23.5583L26.4549 24.0236C25.7966 24.6818 24.2828 24.6296 23.31 24.4418C20.0756 23.8171 16.3047 20.162 15.5775 16.9967C15.2174 15.4287 15.4162 14.0655 15.9362 13.5453L16.4015 13.0801C16.6583 12.8235 17.0754 12.8238 17.3319 13.0801L19.1932 14.9415C19.3174 15.0657 19.3855 15.2304 19.3855 15.4066C19.3855 15.5829 19.3174 15.7477 19.1932 15.8714L18.7281 16.3371C18.2154 16.851 18.2154 17.6858 18.7281 18.1985L21.8017 21.2317C22.3159 21.7459 23.1481 21.7465 23.6631 21.2317L24.1284 20.7666C24.3685 20.525 24.8171 20.5243 25.0593 20.7666L26.9201 22.6274C27.1728 22.879 27.1824 23.2959 26.9201 23.5583Z" fill="#84B739"/>
</g>
<defs>
<clipPath id="clip0">
<rect width="20" height="20" fill="white" transform="translate(10.668 9.33301)"/>
</clipPath>
</defs>
</svg>
