<svg width="125" height="26" viewBox="0 0 125 26" fill="none" xmlns="http://www.w3.org/2000/svg">
<path d="M23.7504 0C16.4679 0 10.6751 5.84178 10.6751 13C10.6751 20.2405 16.5507 26 23.7504 26C30.9501 26 36.8257 20.1582 36.8257 13C36.9085 5.84178 30.9501 0 23.7504 0ZM23.7504 17.8544C21.1023 17.8544 18.8678 15.6329 18.8678 13C18.8678 10.3671 21.1023 8.14559 23.7504 8.14559C26.3986 8.14559 28.633 10.3671 28.633 13C28.633 15.6329 26.4813 17.8544 23.7504 17.8544Z" fill="#8B3FFD"/>
<path d="M10.6754 3.78485V22.7089H5.95837L0 3.78485H10.6754Z" fill="#8B3FFD"/>
<path d="M120.988 7.15826L118.092 14.2342C118.009 14.3165 118.009 14.481 118.009 14.5633L117.926 14.7279L117.843 14.5633C117.843 14.481 117.76 14.3165 117.76 14.2342L114.864 7.15826H111.14L116.022 19.2532L113.954 23.8608H117.678L124.547 7.15826H120.988Z" fill="black"/>
<path d="M93.5109 7.81639C92.8488 7.3227 92.0214 6.99359 91.0282 6.91133C89.3734 6.74675 87.8012 7.3227 86.7253 8.39234V7.07591H83.332V19.1708H86.7253V12.8354C86.7253 11.4366 86.9732 11.0253 87.2217 10.6961C87.6354 10.0379 88.3801 9.70882 89.2907 9.70882C90.2008 9.70882 91.0282 10.1202 91.4424 10.7784C91.6903 11.2721 91.7729 11.9303 91.7729 12.2594C91.7729 13.3291 91.7729 19.1708 91.7729 19.1708H95.1662V11.8481C95.1662 9.95561 94.5867 8.63918 93.5109 7.81639Z" fill="black"/>
<path d="M76.8796 7.2405C75.2248 6.66455 73.4042 6.74687 71.7489 7.48735C70.673 7.98104 69.6803 8.80378 69.1008 9.87342C68.5213 10.7785 68.2734 11.9304 68.2734 13.1646C68.2734 14.3987 68.5213 15.5506 69.1008 16.4557C69.6803 17.3607 70.4251 18.1835 71.4178 18.6772C72.411 19.1709 73.5695 19.5 74.6453 19.5C75.2248 19.5 75.8038 19.4177 76.3833 19.2532C76.8796 19.0886 77.3765 18.9241 77.8728 18.6772C78.866 18.1013 79.6934 17.3607 80.1903 16.4557C80.7693 15.5506 81.0177 14.3987 81.0177 13.1646C81.1003 10.4494 79.5281 8.14556 76.8796 7.2405ZM77.8728 13.3291C77.7902 14.3987 77.4591 15.3038 76.797 15.8797C76.3006 16.2912 75.5559 16.538 74.6453 16.6203C73.7353 16.6203 73.0731 16.3734 72.4936 15.8797C71.832 15.3038 71.501 14.3987 71.4178 13.3291C71.3352 12.095 71.832 11.1076 72.7421 10.4494C73.2384 10.1203 73.9005 9.87342 74.5627 9.87342C75.3074 9.87342 75.8869 10.1203 76.4659 10.4494C77.4591 11.0253 77.9554 12.095 77.8728 13.3291Z" fill="black"/>
<path d="M64.3853 7.81644C63.7232 7.3228 62.8958 6.99369 61.9026 6.91138C61.7373 6.91138 61.4889 6.91138 61.3236 6.91138C59.9993 6.91138 58.8408 7.48733 57.8476 8.63923L57.6824 8.88608H57.3513C57.1029 8.47471 56.7718 8.1456 56.4407 7.89875C55.7786 7.40507 54.9512 7.07596 53.958 6.99369C52.3858 6.82911 51.1446 7.3228 50.0687 8.47471V7.24054H46.6758V19.3354H50.0687V13V12.8354C50.0687 11.519 50.2343 11.1899 50.4825 10.7785C50.8963 10.1202 51.6411 9.70887 52.4685 9.79114C53.2964 9.79114 54.0412 10.2026 54.4549 10.8608C54.7859 11.3544 54.7859 11.9304 54.7859 12.5063V19.2532H58.1787V12.7532C58.1787 11.519 58.344 11.1076 58.5924 10.6962C59.0061 10.038 59.7509 9.70887 60.5788 9.70887C61.4062 9.70887 62.0684 10.1202 62.4821 10.7785C62.7305 11.1899 62.8131 11.6836 62.8131 12.0127C62.8131 12.1772 62.8131 12.3418 62.8131 12.4241V19.1709H66.2059V11.7658C66.2059 11.1076 66.1233 10.4494 65.9575 9.8734C65.6269 9.05066 65.1301 8.31013 64.3853 7.81644Z" fill="black"/>
<path d="M107.912 15.5508C107.415 16.0445 106.256 16.9495 104.684 17.0318C103.36 17.1141 102.367 16.7027 101.622 15.9622C101.291 15.6331 101.043 15.1394 100.878 14.6457H110.229V14.5635C110.312 14.0698 110.394 13.6584 110.394 13.1647C110.394 12.7534 110.312 12.1774 110.146 11.4369C109.732 10.0381 108.905 8.96853 107.829 8.14573C106.587 7.24067 105.429 6.99383 105.098 6.99383C102.698 6.58246 99.9671 7.65205 98.5602 9.87359C97.567 11.4369 97.6501 13.0001 97.6501 13.4938C97.6501 14.0698 97.7328 15.8799 99.2223 17.5255C100.96 19.4179 103.36 19.5001 104.105 19.5825C107.415 19.6647 109.65 17.6078 110.146 17.1964L107.912 15.5508ZM102.119 10.4495C102.615 10.1204 103.195 9.87359 103.939 9.87359C104.684 9.87359 105.264 10.1204 105.843 10.4495C106.339 10.8609 106.753 11.3546 107.001 11.9306H101.043C101.126 11.3546 101.539 10.7787 102.119 10.4495Z" fill="black"/>
</svg>
