<svg width="70" height="70" viewBox="0 0 70 70" fill="none" xmlns="http://www.w3.org/2000/svg">
<path d="M46.2893 63.2258C43.172 63.2258 40.6441 60.6979 40.6441 57.5807C40.6441 60.6979 38.1162 63.2258 34.999 63.2258C31.8817 63.2258 29.3538 60.6979 29.3538 57.5807C29.3538 60.6979 26.8259 63.2258 23.7086 63.2258C23.5065 63.2258 23.3146 63.1875 23.117 63.166L23.082 63.892C25.8369 67.7171 30.2909 70 34.999 70C39.7093 70 44.1667 67.7149 46.9216 63.8852L46.8798 63.166C46.6822 63.1875 46.4914 63.2258 46.2893 63.2258Z" fill="#84B739"/>
<path d="M35.0005 39.5162C32.4681 39.5162 30.4844 36.54 30.4844 32.742C30.4844 28.9439 32.4681 25.9678 35.0005 25.9678C37.5329 25.9678 39.5166 28.9439 39.5166 32.742C39.5166 36.54 37.5329 39.5162 35.0005 39.5162Z" fill="#84B739"/>
<path d="M16.9341 39.5162C14.4017 39.5162 12.418 36.54 12.418 32.742C12.418 28.9439 14.4017 25.9678 16.9341 25.9678C19.4665 25.9678 21.4502 28.9439 21.4502 32.742C21.4502 36.54 19.4665 39.5162 16.9341 39.5162Z" fill="#84B739"/>
<path d="M53.0631 39.5162C50.5307 39.5162 48.547 36.54 48.547 32.742C48.547 28.9439 50.5307 25.9678 53.0631 25.9678C55.5955 25.9678 57.5793 28.9439 57.5793 32.742C57.5793 36.54 55.5955 39.5162 53.0631 39.5162Z" fill="#84B739"/>
<path d="M64.3548 47.4194H59.1771L57.0556 45.2979C55.4231 43.6653 54.4431 41.5574 54.2376 39.2858C53.8639 39.4315 53.4721 39.5161 53.0645 39.5161C52.6885 39.5161 52.3273 39.4439 51.9806 39.3197C52.1985 42.1818 53.4077 44.844 55.4592 46.8944L55.9842 47.4194H48.2718L48.0223 46.5455C45.4774 37.6419 44.1531 28.446 44.0514 19.1935H49.8852C49.7587 19.5481 49.6774 19.9252 49.6774 20.3226C49.6774 21.1931 50.0173 21.98 50.5581 22.5806C50.0161 23.1813 49.6774 23.9682 49.6774 24.8387C49.6774 26.7061 51.1971 28.2258 53.0645 28.2258C54.9319 28.2258 56.4516 26.7061 56.4516 24.8387C56.4516 23.9682 56.1118 23.1813 55.571 22.5806C56.1129 21.98 56.4516 21.1931 56.4516 20.3226C56.4516 19.8766 56.3602 19.4532 56.2032 19.0626C57.6427 18.6719 58.7097 17.3679 58.7097 15.8065C58.7097 13.939 57.19 12.4194 55.3226 12.4194H54.8055C52.8906 9.25581 49.4369 6.71774 45.1613 5.14726V0H42.9032V4.42242C40.434 3.75403 37.7616 3.3871 35 3.3871C32.2406 3.3871 29.5671 3.75403 27.0968 4.42355V0H24.8387V5.14952C20.5642 6.72113 17.1082 9.25919 15.1945 12.4194H14.6774C12.81 12.4194 11.2903 13.939 11.2903 15.8065C11.2903 17.3679 12.3573 18.6731 13.7968 19.0626C13.6398 19.4532 13.5484 19.8766 13.5484 20.3226C13.5484 21.1931 13.8882 21.98 14.429 22.5806C13.8871 23.1813 13.5484 23.9682 13.5484 24.8387C13.5484 26.7061 15.0681 28.2258 16.9355 28.2258C18.8029 28.2258 20.3226 26.7061 20.3226 24.8387C20.3226 23.9682 19.9827 23.1813 19.4419 22.5806C19.9839 21.98 20.3226 21.1931 20.3226 20.3226C20.3226 19.9252 20.2413 19.5481 20.1148 19.1935H25.9485C25.8481 28.446 24.5226 37.6419 21.9789 46.5455L21.7282 47.4194H18.0645V49.6774H64.3548C66.2223 49.6774 67.7419 51.1971 67.7419 53.0645C67.7419 54.9319 66.2223 56.4516 64.3548 56.4516H5.64516C3.77774 56.4516 2.25806 54.9319 2.25806 53.0645C2.25806 51.1971 3.77774 49.6774 5.64516 49.6774H15.8065V47.4194H14.0158L14.5408 46.8944C16.5911 44.844 17.8015 42.1818 18.0194 39.3197C17.6727 39.4439 17.3115 39.5161 16.9355 39.5161C16.5279 39.5161 16.1361 39.4315 15.7624 39.2858C15.5569 41.5574 14.5758 43.6653 12.9444 45.2979L10.8229 47.4194H5.64516C2.53242 47.4194 0 49.9518 0 53.0645C0 56.1773 2.53242 58.7097 5.64516 58.7097H17.0371C17.5768 61.9082 20.3587 64.3548 23.7097 64.3548C26.0648 64.3548 28.14 63.1456 29.3548 61.3177C30.5697 63.1468 32.6448 64.3548 35 64.3548C37.3552 64.3548 39.4303 63.1456 40.6452 61.3177C41.86 63.1468 43.9352 64.3548 46.2903 64.3548C49.6402 64.3548 52.4221 61.9082 52.9629 58.7097H64.3548C67.4676 58.7097 70 56.1773 70 53.0645C70 49.9518 67.4676 47.4194 64.3548 47.4194ZM54.1935 20.3226C54.1935 20.9458 53.6877 21.4516 53.0645 21.4516C52.4413 21.4516 51.9355 20.9458 51.9355 20.3226C51.9355 19.6994 52.4413 19.1935 53.0645 19.1935C53.6877 19.1935 54.1935 19.6994 54.1935 20.3226ZM53.0645 25.9677C52.4413 25.9677 51.9355 25.4619 51.9355 24.8387C51.9355 24.2155 52.4413 23.7097 53.0645 23.7097C53.6877 23.7097 54.1935 24.2155 54.1935 24.8387C54.1935 25.4619 53.6877 25.9677 53.0645 25.9677ZM14.6774 14.6774H46.2903V12.4194H17.9302C21.1919 8.30629 27.7426 5.64516 35 5.64516C42.2676 5.64516 48.8126 8.30516 52.0721 12.4194H48.5484V14.6774H55.3226C55.9458 14.6774 56.4516 15.1832 56.4516 15.8065C56.4516 16.4297 55.9458 16.9355 55.3226 16.9355H14.6774C14.0542 16.9355 13.5484 16.4297 13.5484 15.8065C13.5484 15.1832 14.0542 14.6774 14.6774 14.6774ZM36.129 24.8387C36.129 25.4619 35.6232 25.9677 35 25.9677C34.3768 25.9677 33.871 25.4619 33.871 24.8387C33.871 24.2155 34.3768 23.7097 35 23.7097C35.6232 23.7097 36.129 24.2155 36.129 24.8387ZM36.129 20.3226C36.129 20.9458 35.6232 21.4516 35 21.4516C34.3768 21.4516 33.871 20.9458 33.871 20.3226C33.871 19.6994 34.3768 19.1935 35 19.1935C35.6232 19.1935 36.129 19.6994 36.129 20.3226ZM16.9355 25.9677C16.3123 25.9677 15.8065 25.4619 15.8065 24.8387C15.8065 24.2155 16.3123 23.7097 16.9355 23.7097C17.5587 23.7097 18.0645 24.2155 18.0645 24.8387C18.0645 25.4619 17.5587 25.9677 16.9355 25.9677ZM18.0645 20.3226C18.0645 20.9458 17.5587 21.4516 16.9355 21.4516C16.3123 21.4516 15.8065 20.9458 15.8065 20.3226C15.8065 19.6994 16.3123 19.1935 16.9355 19.1935C17.5587 19.1935 18.0645 19.6994 18.0645 20.3226ZM24.1511 47.1642C26.7513 38.0608 28.1061 28.656 28.2066 19.1935H31.8218C31.6942 19.5481 31.6129 19.9252 31.6129 20.3226C31.6129 21.1931 31.9527 21.98 32.4935 22.5806C31.9516 23.1813 31.6129 23.9682 31.6129 24.8387C31.6129 26.7061 33.1326 28.2258 35 28.2258C36.8674 28.2258 38.3871 26.7061 38.3871 24.8387C38.3871 23.9682 38.0473 23.1813 37.5065 22.5806C38.0484 21.98 38.3871 21.1931 38.3871 20.3226C38.3871 19.9252 38.3058 19.5481 38.1794 19.1935H41.7945C41.895 28.656 43.2498 38.0608 45.85 47.1642L45.9223 47.4194H24.0777L24.1511 47.1642ZM23.7097 62.0968C21.6108 62.0968 19.8585 60.6527 19.3539 58.7097H28.0655C27.5608 60.6527 25.8085 62.0968 23.7097 62.0968ZM35 62.0968C32.9011 62.0968 31.1489 60.6527 30.6442 58.7097H39.3558C38.8511 60.6527 37.0989 62.0968 35 62.0968ZM46.2903 62.0968C44.1915 62.0968 42.4392 60.6527 41.9345 58.7097H50.6461C50.1415 60.6527 48.3892 62.0968 46.2903 62.0968Z" fill="#333333"/>
<path d="M36.129 51.9355H33.871V54.1936H36.129V51.9355Z" fill="#333333"/>
<path d="M23.7112 51.9355H21.4531V54.1936H23.7112V51.9355Z" fill="#333333"/>
<path d="M12.4182 51.9355H10.1602V54.1936H12.4182V51.9355Z" fill="#333333"/>
<path d="M58.7112 51.9355H56.4531V54.1936H58.7112V51.9355Z" fill="#333333"/>
<path d="M47.4182 51.9355H45.1602V54.1936H47.4182V51.9355Z" fill="#333333"/>
</svg>
