<svg width="68" height="68" viewBox="0 0 68 68" fill="none" xmlns="http://www.w3.org/2000/svg">
<path d="M34 63.5312C26.16 63.5312 19.7812 57.1525 19.7812 49.3125C19.7812 41.4725 26.16 35.0938 34 35.0938C41.84 35.0938 48.2188 41.4725 48.2188 49.3125C48.2188 57.1525 41.84 63.5312 34 63.5312ZM34 42.75C30.3819 42.75 27.4375 45.6944 27.4375 49.3125C27.4375 52.9306 30.3819 55.875 34 55.875C37.6181 55.875 40.5625 52.9306 40.5625 49.3125C40.5625 45.6944 37.6181 42.75 34 42.75Z" fill="#84B739"/>
<path d="M67.9062 44.8598V39.3911H66.8125C66.0163 39.3911 65.2484 39.5136 64.5255 39.7411C64.6294 38.2755 64.3144 36.7989 63.5783 35.4733L60.658 30.2145L59.6878 30.7964C56.5072 32.705 55.2012 36.5047 56.377 39.8877C55.5392 39.5716 54.6358 39.3911 53.6886 39.3911H52.5948V44.8598C52.5948 45.0983 52.6342 45.3334 52.6572 45.5719L52.3203 46.2456C51.7614 42.8977 50.3187 39.8472 48.2209 37.3567V27.4375C48.2209 25.8439 47.5363 24.3695 46.3648 23.3403L54.1108 0.09375H38.6802L34 14.1353L29.3198 0.09375H13.8892L21.6384 23.3414C20.4659 24.3706 19.7812 25.8439 19.7812 27.4375V37.3556C17.6823 39.8472 16.2408 42.8966 15.6819 46.2445L15.345 45.5708C15.3669 45.3334 15.4062 45.0972 15.4062 44.8598V39.3911H14.3125C13.3653 39.3911 12.4619 39.5716 11.6241 39.8877C12.7998 36.5047 11.4939 32.705 8.31328 30.7964L7.34312 30.2145L4.42281 35.4733C3.68672 36.7989 3.37172 38.2755 3.47563 39.7411C2.75156 39.5136 1.98375 39.3911 1.1875 39.3911H0.09375V44.8598C0.09375 46.9708 0.952344 48.8848 2.33922 50.2717C2.20469 50.3089 2.06906 50.3406 1.93453 50.3855L0.896562 50.73L2.33594 55.0492C3.01297 57.0781 4.43922 58.7231 6.35328 59.6802C6.57203 59.7895 6.79625 59.8792 7.02047 59.9678C6.21547 60.378 5.45969 60.9139 4.78703 61.5866L4.01375 62.3598L6.97453 65.3206C8.68734 67.0334 10.9394 67.8942 13.2002 67.8942C15.4642 67.8942 17.737 67.0313 19.4827 65.2977C20.2122 64.5627 20.782 63.7041 21.2108 62.7766C24.5489 65.9463 29.0453 67.9062 34 67.9062C38.9547 67.9062 43.4522 65.9462 46.7881 62.7755C47.2213 63.7073 47.802 64.578 48.5611 65.3436C50.2783 67.0488 52.5292 67.9008 54.7812 67.9008C57.042 67.9008 59.305 67.04 61.0233 65.3217L63.9841 62.3609L63.2108 61.5877C62.5381 60.915 61.7823 60.3791 60.9773 59.9689C61.2016 59.8803 61.4258 59.7906 61.6445 59.6812C63.5586 58.7242 64.9859 57.0792 65.6619 55.0503L67.1012 50.7311L66.0633 50.3866C65.9298 50.3417 65.7942 50.3111 65.6586 50.2728C67.0477 48.8848 67.9062 46.9708 67.9062 44.8598V44.8598ZM65.7188 44.8598C65.7188 47.5013 63.8364 49.7106 61.3438 50.2181V47.0473C61.3438 44.4059 63.2261 42.1966 65.7188 41.6891V44.8598ZM59.8989 33.3547L61.6653 36.5342C62.4462 37.9408 62.5644 39.5847 62.0164 41.0875C61.3766 41.6027 60.8242 42.2195 60.378 42.9119C60.2981 42.7467 60.2314 42.5772 60.1428 42.4164L58.8336 40.0605C57.5747 37.7931 58.068 35.0434 59.8989 33.3547V33.3547ZM54.7812 41.688C57.2739 42.1966 59.1562 44.4048 59.1562 47.0463V51.278C59.025 51.3633 58.8992 51.453 58.7734 51.5459C58.4803 49.0478 57.0792 46.7269 54.8228 45.34C54.8086 45.1792 54.7812 45.0206 54.7812 44.8598V41.688ZM55.9308 55.4506L54.6402 59.3225C54.5964 59.3345 54.5505 59.3422 54.5067 59.3553C54.7353 58.5645 54.8578 57.7377 54.8578 56.8911C54.8578 54.8633 54.1742 52.9405 52.923 51.3819C52.9295 50.4325 53.1428 49.4875 53.5716 48.6311L54.1327 47.5078C56.3311 49.143 57.1973 52.06 56.2447 54.6588C56.1288 54.9147 56.0216 55.1783 55.9308 55.4506ZM52.6714 56.8911C52.6714 58.6652 51.9812 60.332 50.7136 61.6008L49.4011 62.9603C48.9723 62.3664 48.6541 61.7036 48.4419 61.0014C50.0934 58.9648 51.3086 56.5684 51.9834 53.9555C52.4297 54.8578 52.6714 55.8553 52.6714 56.8911V56.8911ZM24.1562 27.5283V33.568C23.3884 34.0492 22.6556 34.5775 21.9688 35.1627V27.4375C21.9688 26.7922 22.1711 26.1895 22.508 25.6689C22.9138 26.4159 23.4792 27.0492 24.1562 27.5283ZM26.3438 28.4394C26.6587 28.4952 26.9803 28.5312 27.3095 28.5312H36.1777H38.7983H40.6905C41.0197 28.5312 41.3402 28.4952 41.6562 28.4394V32.3878C39.3178 31.3258 36.7311 30.7188 34 30.7188C31.2689 30.7188 28.6822 31.3258 26.3438 32.3878V28.4394ZM43.8438 27.5283C44.5219 27.0492 45.0873 26.417 45.492 25.6689C45.8289 26.1895 46.0312 26.7922 46.0312 27.4375V35.1616C45.3444 34.5764 44.6116 34.0492 43.8438 33.5669V27.5283ZM40.2573 2.28125H44.5142L43.9006 4.12313L45.9755 4.81547L46.8198 2.28125H51.0767L43.8033 24.0994C43.3559 25.4425 42.1047 26.3438 40.6905 26.3438H38.7983L45.2459 7.00187L43.1711 6.30953L37.2812 23.9791L35.1528 17.5938L40.2573 2.28125ZM21.1802 2.28125L22.0245 4.81437L24.0994 4.12203L23.4869 2.28125H27.7438L35.7642 26.3438H31.5073L24.8289 6.31063L22.7541 7.00297L29.2006 26.3438H27.3084C25.8942 26.3438 24.643 25.4425 24.1956 24.0994L16.9233 2.28125H21.1802ZM13.3598 59.3225L12.0692 55.4506C11.9784 55.1783 11.8723 54.9147 11.7542 54.6566C10.8016 52.0589 11.6689 49.1408 13.8663 47.5056L14.4273 48.6289C14.8561 49.4853 15.0694 50.4303 15.0759 51.3797C13.8247 52.9394 13.1411 54.8611 13.1411 56.8889C13.1411 57.7355 13.2636 58.5623 13.4922 59.3531C13.4484 59.3422 13.4036 59.3345 13.3598 59.3225V59.3225ZM13.2188 44.8598C13.2188 45.0206 13.1914 45.1803 13.1772 45.34C10.9208 46.7269 9.51969 49.0489 9.22656 51.5459C9.10078 51.4541 8.975 51.3644 8.84375 51.2791V47.0473C8.84375 44.4059 10.7261 42.1966 13.2188 41.6891V44.8598ZM6.33469 36.5342L8.10109 33.3547C9.93203 35.0434 10.4253 37.7931 9.16641 40.0605L7.85719 42.4164C7.76859 42.5761 7.70187 42.7467 7.62203 42.9119C7.17578 42.2195 6.62344 41.6027 5.98359 41.0875C5.43453 39.5847 5.55375 37.9408 6.33469 36.5342V36.5342ZM2.28125 44.8598V41.6891C4.77391 42.1977 6.65625 44.4059 6.65625 47.0473V50.2181C4.16359 49.7095 2.28125 47.5013 2.28125 44.8598V44.8598ZM4.41297 54.3569L3.69766 52.2109C6.16406 51.8839 8.59656 53.1898 9.69359 55.4528C9.78438 55.6967 9.89047 55.9362 10.0053 56.1747L10.7097 58.2878C8.00047 58.6553 5.31094 57.0497 4.41297 54.3569V54.3569ZM8.52328 63.7741L7.17359 62.4244C9.76688 60.5727 13.4014 60.8078 15.7267 63.1331L17.0359 64.4883C14.4459 66.3148 10.8366 66.0884 8.52328 63.7741ZM18.5967 62.957L17.2733 61.5866C16.0198 60.3331 15.3286 58.6652 15.3286 56.8911C15.3286 55.8553 15.5703 54.8578 16.0166 53.9555C16.6914 56.5684 17.9066 58.9638 19.5581 61.0014C19.347 61.697 19.0309 62.3566 18.5967 62.957V62.957ZM34 65.7188C24.9536 65.7188 17.5938 58.3589 17.5938 49.3125C17.5938 40.2661 24.9536 32.9062 34 32.9062C43.0464 32.9062 50.4062 40.2661 50.4062 49.3125C50.4062 58.3589 43.0464 65.7188 34 65.7188ZM59.4767 63.7741C57.1722 66.0797 53.5792 66.3159 50.9663 64.4872L52.2733 63.1342C54.5986 60.8089 58.2342 60.5727 60.8264 62.4255L59.4767 63.7741ZM63.587 54.3569C62.6902 57.0497 59.9941 58.652 57.2914 58.2889L57.9958 56.1758C58.1106 55.9373 58.2167 55.6967 58.3075 55.4539C59.4045 53.1888 61.8425 51.8806 64.3034 52.2109L63.587 54.3569Z" fill="#333333"/>
<path d="M34 41.6562C29.7781 41.6562 26.3438 45.0917 26.3438 49.3125C26.3438 53.5333 29.7781 56.9688 34 56.9688C38.2219 56.9688 41.6562 53.5333 41.6562 49.3125C41.6562 45.0917 38.2219 41.6562 34 41.6562ZM34 54.7812C30.9845 54.7812 28.5312 52.328 28.5312 49.3125C28.5312 46.297 30.9845 43.8438 34 43.8438C37.0155 43.8438 39.4688 46.297 39.4688 49.3125C39.4688 52.328 37.0155 54.7812 34 54.7812Z" fill="#333333"/>
</svg>
