<svg width="168" height="96" viewBox="0 0 168 96" fill="none" xmlns="http://www.w3.org/2000/svg">
<path opacity="0.3" d="M84.1445 95.5288C130.237 95.5288 167.602 93.5496 167.602 91.1082C167.602 88.6667 130.237 86.6875 84.1445 86.6875C38.0525 86.6875 0.6875 88.6667 0.6875 91.1082C0.6875 93.5496 38.0525 95.5288 84.1445 95.5288Z" fill="#E6E6E6"/>
<path d="M83.5692 41.9546C83.5692 41.9546 86.4006 39.496 87.8262 41.4629C89.2518 43.4298 87.3658 44.7181 84.8908 44.8509C82.4158 44.9837 83.5692 41.9546 83.5692 41.9546Z" fill="#F4A28C"/>
<path opacity="0.08" d="M83.5692 41.9546C83.5692 41.9546 86.4006 39.496 87.8262 41.4629C89.2518 43.4298 87.3658 44.7181 84.8908 44.8509C82.4158 44.9837 83.5692 41.9546 83.5692 41.9546Z" fill="black"/>
<path d="M56.9548 31.2646C56.9548 31.2646 59.6971 42.8007 67.2508 43.1498C74.8045 43.4989 83.2591 39.7421 83.2591 39.7421L84.7441 44.3644L64.0482 49.9504C64.0482 49.9504 50.9059 43.2334 50.7376 42.4466C50.5693 41.6599 56.9548 31.2646 56.9548 31.2646Z" fill="#84B739"/>
<path opacity="0.08" d="M56.9548 31.2646C56.9548 31.2646 59.6971 42.8007 67.2508 43.1498C74.8045 43.4989 83.2591 39.7421 83.2591 39.7421L84.7441 44.3644L64.0482 49.9504C64.0482 49.9504 50.9059 43.2334 50.7376 42.4466C50.5693 41.6599 56.9548 31.2646 56.9548 31.2646Z" fill="black"/>
<path d="M138.691 59.6367H118.5V71.099H138.691V59.6367Z" fill="#C1C1C1"/>
<path d="M124.201 49.9258H100.48V71.0997H124.201V49.9258Z" fill="#FFD200"/>
<path d="M87.8242 44.3545H93.0514C93.8444 44.3539 94.6112 44.6359 95.2125 45.1494C95.8139 45.6628 96.2098 46.3736 96.3283 47.1524L100.006 71.0998H138.235C139.171 71.0993 140.079 70.7863 140.815 70.2111C141.55 69.6359 142.069 68.8318 142.289 67.9281L148.001 44.5414" stroke="#24285B" stroke-width="2.03" stroke-linecap="round" stroke-linejoin="round"/>
<path d="M55.6815 86.6387C55.6815 86.6387 57.2259 87.868 58.7356 87.1304C60.2454 86.3928 61.4829 87.5435 60.4137 88.6941C59.3445 89.8448 54.9984 90.2185 54.9984 90.2185L53.3203 87.6123L55.6815 86.6387Z" fill="#84B739"/>
<path d="M15.9731 78.0041C15.9731 78.0041 13.9931 78.2549 13.4981 79.8579C13.0031 81.4609 11.2904 81.5347 11.2013 79.9759C11.1122 78.4171 13.8496 75.0586 13.8496 75.0586L16.9087 75.6634L15.9731 78.0041Z" fill="#84B739"/>
<path d="M47.8993 4.87793L44.5234 12.8637L49.221 15.4846L49.9189 8.32005L47.8993 4.87793Z" fill="#F4A28C"/>
<path opacity="0.31" d="M49.8509 9.89858C49.2435 9.57804 48.7443 9.08729 48.4153 8.4873C48.4153 8.4873 48.0639 10.2231 49.544 12.3769L49.8509 9.89858Z" fill="#CE8172"/>
<path d="M52.1479 4.49532C52.1479 4.49532 52.6429 7.39653 52.3162 9.38313C52.2862 9.57707 52.2175 9.76311 52.1143 9.93037C52.011 10.0976 51.8752 10.2427 51.7148 10.3572C51.5544 10.4717 51.3726 10.5532 51.1801 10.5971C50.9875 10.6409 50.7881 10.6461 50.5936 10.6125C49.9647 10.5432 49.3692 10.2953 48.8784 9.89847C48.3877 9.50166 48.0225 8.97276 47.8265 8.37508L46.7276 5.882C46.56 5.36079 46.5595 4.80074 46.7262 4.27925C46.893 3.75777 47.2186 3.3006 47.6582 2.97095C49.2274 1.62852 51.9301 2.71033 52.1479 4.49532Z" fill="#F4A28C"/>
<path d="M51.4246 4.67654C50.5134 4.77966 49.5934 4.77966 48.6823 4.67654C48.9792 5.05347 49.1589 5.5083 49.1993 5.98522C49.2398 6.46214 49.1392 6.94042 48.91 7.36139C48.6923 7.77073 48.3386 8.09246 47.909 8.27178C47.4793 8.4511 47.0004 8.47693 46.5538 8.34485L46.2865 4.57327C46.2287 4.03426 46.3193 3.48978 46.5485 2.99789C46.7778 2.506 47.1372 2.08516 47.5883 1.78024C47.9747 1.51228 48.38 1.27235 48.8011 1.06231C49.8604 0.536158 51.5186 1.12624 52.4393 0.314879C52.5317 0.233224 52.6439 0.176839 52.7648 0.151263C52.8857 0.125688 53.0113 0.131801 53.1291 0.169001C53.2469 0.206201 53.353 0.273209 53.4369 0.363443C53.5208 0.453678 53.5796 0.564036 53.6075 0.683677C53.8748 1.81466 53.8154 3.63406 52.3106 4.39133C52.0346 4.53775 51.7346 4.63432 51.4246 4.67654Z" fill="#24285B"/>
<path d="M49.2194 7.26724C49.2194 7.26724 49.1056 6.13626 48.2541 6.28378C47.4027 6.4313 47.5661 8.07368 48.7492 8.13269L49.2194 7.26724Z" fill="#F4A28C"/>
<path d="M52.3671 6.33887L53.2878 7.40101C53.335 7.46323 53.3667 7.53571 53.3802 7.61248C53.3937 7.68924 53.3886 7.76809 53.3654 7.84253C53.3422 7.91697 53.3015 7.98486 53.2467 8.04061C53.1919 8.09636 53.1246 8.13838 53.0502 8.1632L51.9414 8.46807L52.3671 6.33887Z" fill="#F4A28C"/>
<path d="M52.1448 16.5665C51.8626 16.3551 51.5904 16.1338 51.3231 15.9027C49.7143 14.5061 43.8981 10.0314 37.9878 12.4605C31.0182 15.3519 34.1565 19.1432 40.1509 19.6349C57.1888 21.056 53.5209 17.5746 52.1448 16.5665Z" fill="#84B739"/>
<path opacity="0.44" d="M52.1448 16.5665C51.8626 16.3551 51.5904 16.1338 51.3231 15.9027C49.7143 14.5061 43.8981 10.0314 37.9878 12.4605C31.0182 15.3519 34.1565 19.1432 40.1509 19.6349C57.1888 21.056 53.5209 17.5746 52.1448 16.5665Z" fill="white"/>
<path d="M49.2587 16.1882C42.8237 13.7787 35.5571 16.3357 31.7159 22.0152C29.8794 24.7296 28.2509 28.0783 27.8648 31.7417C26.9045 41.0059 25.5977 49.1686 25.5977 49.1686L43.7394 57.0363C43.7394 57.0363 58.8122 46.5674 58.1736 34.1462C57.7034 25.3639 56.1243 18.7501 49.2587 16.1882Z" fill="#84B739"/>
<path opacity="0.08" d="M41.4959 21.2676C41.4959 21.2676 34.6005 28.9091 37.6448 42.4415C40.689 55.974 32.7344 52.2762 32.7344 52.2762L43.7283 57.0558C43.7283 57.0558 49.208 52.6646 50.5791 50.9386L51.9503 49.2127L41.4959 21.2676Z" fill="black"/>
<path d="M48.26 18.3613C48.26 18.3613 54.2 19.7923 54.9128 27.2125C55.6256 34.6327 58.7639 46.6605 67.6739 44.8706C76.5839 43.0807 84.0089 41.8858 84.0089 41.8858L85.4494 46.6605C85.4494 46.6605 60.4816 61.1076 48.265 49.0503C36.0484 36.993 37.6373 15.9715 48.26 18.3613Z" fill="#84B739"/>
<path opacity="0.44" d="M48.26 18.3613C48.26 18.3613 54.2 19.7923 54.9128 27.2125C55.6256 34.6327 58.7639 46.6605 67.6739 44.8706C76.5839 43.0807 84.0089 41.8858 84.0089 41.8858L85.4494 46.6605C85.4494 46.6605 60.4816 61.1076 48.265 49.0503C36.0484 36.993 37.6373 15.9715 48.26 18.3613Z" fill="white"/>
<path d="M25.5971 49.168C25.5971 49.168 22.5925 54.7786 25.5971 57.0357C28.6018 59.2927 48.9314 76.3804 52.8221 87.8426L56.9603 86.1708C56.9603 86.1708 53.4607 69.8109 43.729 57.0357L25.5971 49.168Z" fill="#24285B"/>
<path d="M25.5999 57.0506C25.5999 57.0506 41.1033 78.4213 15.8633 74.0055V78.4311C15.8633 78.4311 41.331 85.2416 40.6133 69.5799C39.8955 53.9183 25.5999 57.0506 25.5999 57.0506Z" fill="#24285B"/>
<path d="M84.4609 43.4056C84.4609 43.4056 88.2922 41.1879 89.2525 43.4056C90.2128 45.6233 85.446 46.6609 85.446 46.6609L84.4609 43.4056Z" fill="#F4A28C"/>
<path d="M124.206 39.7324H111.41V49.9211H124.206V39.7324Z" fill="#E6E6E6"/>
<path opacity="0.43" d="M138.691 45.3076H123.742V59.6367H138.691V45.3076Z" fill="#E6E6E6"/>
<path d="M99.3125 66.6055L101.292 78.8004C101.492 80.0256 102.124 81.1401 103.076 81.9447C104.027 82.7492 105.236 83.1912 106.485 83.1916H140.472" stroke="#24285B" stroke-width="2.03" stroke-linecap="round" stroke-linejoin="round"/>
<path d="M108.236 90.3801C109.794 90.3801 111.057 89.1253 111.057 87.5773C111.057 86.0293 109.794 84.7744 108.236 84.7744C106.677 84.7744 105.414 86.0293 105.414 87.5773C105.414 89.1253 106.677 90.3801 108.236 90.3801Z" fill="#84B739"/>
<path d="M135.872 90.3801C137.431 90.3801 138.694 89.1253 138.694 87.5773C138.694 86.0293 137.431 84.7744 135.872 84.7744C134.314 84.7744 133.051 86.0293 133.051 87.5773C133.051 89.1253 134.314 90.3801 135.872 90.3801Z" fill="#84B739"/>
<path opacity="0.61" d="M114.397 49.9258H109.719V56.8002H114.397V49.9258Z" fill="white"/>
</svg>
