<svg width="24" height="22" viewBox="0 0 24 22" fill="none" xmlns="http://www.w3.org/2000/svg">
<path d="M24 12.4062C24 10.3825 22.5938 10.2378 22.5938 8.19266V8.1875C22.5938 7.79919 22.2789 7.48438 21.8906 7.48438H19.0781C18.6898 7.48438 18.375 7.79919 18.375 8.1875V8.19266C18.375 10.239 16.9688 10.3813 16.9688 12.4062C16.9688 14.104 18.1785 15.5245 19.7812 15.8511V16.625C19.7812 18.5635 18.1831 20.1406 16.2188 20.1406C14.2802 20.1406 12.7031 18.5635 12.7031 16.625V15.8511C14.3059 15.5245 15.5156 14.1041 15.5156 12.4062C15.5156 10.3825 14.1094 10.2378 14.1094 8.19266V8.1875C14.1094 7.79919 13.7946 7.48438 13.4062 7.48438H12.7031V4.60114C14.0786 4.32083 15.1645 3.23487 15.4449 1.85938H17.625C18.0133 1.85938 18.3281 1.54456 18.3281 1.15625C18.3281 0.767937 18.0133 0.453125 17.625 0.453125H6.375C5.98669 0.453125 5.67188 0.767937 5.67188 1.15625C5.67188 1.54456 5.98669 1.85938 6.375 1.85938H8.55511C8.83542 3.23487 9.92138 4.32078 11.2969 4.60114V7.48438H10.5938C10.2054 7.48438 9.89062 7.79919 9.89062 8.1875V8.19266C9.89062 10.239 8.48438 10.3813 8.48438 12.4062C8.48438 14.104 9.69413 15.5245 11.2969 15.8511V16.625C11.2969 18.5635 9.71977 20.1406 7.78125 20.1406C5.81686 20.1406 4.21875 18.5635 4.21875 16.625V15.8511C5.8215 15.5245 7.03125 14.1041 7.03125 12.4062C7.03125 10.4056 5.625 10.2153 5.625 8.1875C5.625 7.79919 5.31019 7.48438 4.92188 7.48438H2.10938C1.72106 7.48438 1.40625 7.79919 1.40625 8.1875V8.19266C1.40625 10.239 0 10.3813 0 12.4062C0 14.104 1.20975 15.5245 2.8125 15.8511V16.625C2.8125 19.3389 5.04145 21.5469 7.78125 21.5469C9.56958 21.5469 11.1381 20.588 12 19.1576C12.8619 20.588 14.4304 21.5469 16.2188 21.5469C18.9585 21.5469 21.1875 19.3389 21.1875 16.625V15.8511C22.7903 15.5245 24 14.104 24 12.4062ZM10.0116 1.85938H13.9884C13.6981 2.67772 12.9166 3.26562 12 3.26562C11.0833 3.26562 10.3018 2.67772 10.0116 1.85938ZM1.40625 12.4062C1.40625 11.1137 2.47927 10.9098 2.7638 8.89062H4.26966C4.56628 10.9351 5.625 11.1117 5.625 12.4062C5.625 13.5694 4.67873 14.5156 3.51562 14.5156C2.35252 14.5156 1.40625 13.5694 1.40625 12.4062ZM9.89062 12.4062C9.89062 11.1137 10.9636 10.9098 11.2482 8.89062H12.7535C13.0382 10.8594 14.1094 11.1508 14.1094 12.4062C14.1094 13.5694 13.1631 14.5156 12 14.5156C10.8369 14.5156 9.89062 13.5694 9.89062 12.4062ZM20.4844 14.5156C19.3213 14.5156 18.375 13.5694 18.375 12.4062C18.375 11.1137 19.448 10.9098 19.7325 8.89062H21.2379C21.5226 10.8594 22.5938 11.1508 22.5938 12.4062C22.5938 13.5694 21.6475 14.5156 20.4844 14.5156Z" fill="#84B739"/>
</svg>
