<svg width="14" height="24" viewBox="0 0 14 24" fill="none" xmlns="http://www.w3.org/2000/svg">
<path d="M13.6309 7.77209L12.5328 2.14197C12.2908 0.900879 11.1991 0 9.93731 0H4.15631C2.89453 0 1.80304 0.900879 1.56097 2.14178L0.462888 7.77209C0.384885 8.172 0.488523 8.58179 0.747617 8.89618C1.00598 9.20984 1.3872 9.38983 1.79333 9.38983H6.34369V16.7069C6.03405 16.7322 5.7464 16.8651 5.52429 17.0876C5.27563 17.3366 5.13904 17.6677 5.13958 18.0189V18.0278C5.1405 18.5848 4.98669 19.1056 4.69482 19.5341C4.37072 20.0096 4.19952 20.5664 4.19952 21.1439C4.19952 21.6636 4.33593 22.1598 4.59173 22.5938H2.94269C2.5545 22.5938 2.23956 22.9085 2.23956 23.2969C2.23956 23.6852 2.5545 24 2.94269 24H11.1509C11.5393 24 11.8541 23.6852 11.8541 23.2969C11.8541 22.9085 11.5393 22.5938 11.1509 22.5938H9.50116C9.74432 22.1799 9.88641 21.6991 9.89373 21.186C9.90216 20.6076 9.73883 20.048 9.4215 19.5677C9.11334 19.1012 8.95129 18.5667 8.95312 18.022C8.95422 17.6693 8.81781 17.3377 8.56915 17.0883C8.34704 16.8657 8.05957 16.7325 7.74994 16.7071V9.38983H10.0422V10.5427C9.35376 10.8221 8.8667 11.499 8.8667 12.2878C8.8667 13.3257 9.70953 14.17 10.7454 14.17C11.7812 14.17 12.6238 13.3257 12.6238 12.2878C12.6238 11.499 12.137 10.8221 11.4485 10.5427V9.38983H12.3003C12.7064 9.38983 13.0876 9.20984 13.346 8.89618C13.6051 8.58179 13.7089 8.172 13.6309 7.77209ZM2.94122 2.41113C3.05475 1.82886 3.56579 1.40625 4.15631 1.40625H9.93731C10.528 1.40625 11.0391 1.82886 11.1526 2.41113L11.6977 5.20587H2.39612L2.94122 2.41113ZM8.24817 20.343C8.40911 20.5865 8.49188 20.8711 8.48767 21.1657C8.47668 21.924 7.85577 22.5639 7.10357 22.5927C7.08563 22.5934 7.06768 22.5938 7.04974 22.5938H7.04589C6.67273 22.5936 6.32116 22.4518 6.0509 22.1917C5.76379 21.9153 5.60577 21.5433 5.60577 21.1439C5.60577 20.8499 5.69256 20.567 5.85681 20.3258C6.29425 19.684 6.53137 18.9186 6.5451 18.1088H7.54742C7.56244 18.8998 7.80377 19.6703 8.24817 20.343ZM10.7454 12.7635C10.4848 12.7635 10.2729 12.5502 10.2729 12.2878C10.2729 12.0255 10.4848 11.8121 10.7454 11.8121C11.0057 11.8121 11.2176 12.0255 11.2176 12.2878C11.2176 12.5502 11.0057 12.7635 10.7454 12.7635ZM1.85431 7.98358L2.12182 6.61212H11.9718L12.2393 7.98358H1.85431Z" fill="#84B739"/>
</svg>
