<svg width="22" height="24" viewBox="0 0 22 24" fill="none" xmlns="http://www.w3.org/2000/svg">
<path d="M18.3259 12.7923C16.5373 11.0035 14.2095 9.94995 11.7092 9.78223V0.708618C11.7092 0.317322 11.3918 0 11.0004 0C10.6091 0 10.2917 0.317322 10.2917 0.708618V9.78223C7.79144 9.94995 5.46362 11.0035 3.67505 12.7921C1.7182 14.7488 0.640625 17.3505 0.640625 20.1176C0.640625 20.5091 0.957947 20.8264 1.34924 20.8264H7.28937C7.62354 22.6296 9.20703 24 11.1057 24C13.0043 24 14.5878 22.6296 14.9219 20.8264H20.6517C21.043 20.8264 21.3603 20.5091 21.3603 20.1176C21.3603 17.3505 20.2827 14.749 18.3259 12.7923ZM11.1057 22.5828C9.99274 22.5828 9.04974 21.8414 8.74469 20.8264H13.4666C13.1616 21.8414 12.2186 22.5828 11.1057 22.5828ZM2.08588 19.409C2.44806 14.8079 6.30792 11.1753 11.0004 11.1753C15.693 11.1753 19.5529 14.8079 19.915 19.409H2.08588Z" fill="#84B739"/>
</svg>
