<svg width="20" height="20" viewBox="0 0 20 20" fill="none" xmlns="http://www.w3.org/2000/svg">
<path d="M19.7592 8.93216C19.6939 8.86056 19.6015 8.8194 19.5046 8.8194H18.8262C18.8262 8.8194 16.4783 4.35231 16.3569 4.12057C16.2266 3.87209 16.0296 3.65458 15.7348 3.65458C14.3004 3.65458 12.9618 3.34852 11.9657 2.79269C11.4686 2.51538 11.0939 2.19098 10.8649 1.85003V0.864702C10.8649 0.387127 10.4778 0 10.0002 0C9.52261 0 9.13548 0.387127 9.13548 0.864702V1.85003C8.90651 2.19098 8.53175 2.51538 8.03472 2.79269C7.03849 3.34847 5.69989 3.65458 4.26548 3.65458C3.97075 3.65458 3.79322 3.83534 3.64346 4.12057C3.29329 4.78742 1.17413 8.8194 1.17413 8.8194H0.495811C0.398878 8.8194 0.306398 8.86026 0.241113 8.9319C0.175828 9.00358 0.143834 9.09939 0.152697 9.19593C0.342672 11.2585 2.07757 12.8736 4.18973 12.8736C6.3019 12.8736 8.03679 11.2585 8.22677 9.19593C8.23563 9.09948 8.20346 9.00375 8.13822 8.93216C8.07298 8.86056 7.98054 8.8194 7.88365 8.8194H7.20529L5.15643 4.91605C6.75275 4.78803 8.14618 4.31979 9.13553 3.63192V17.8382H5.21631C4.61936 17.8382 4.13543 18.3222 4.13543 18.9191C4.13543 19.5161 4.61936 20 5.21631 20H14.6179C15.2149 20 15.6988 19.5161 15.6988 18.9191C15.6988 18.3222 15.2149 17.8382 14.6179 17.8382H10.8649V3.63192C11.8543 4.31979 13.2477 4.78807 14.844 4.91605L12.7951 8.8194H12.1168C12.0198 8.8194 11.9273 8.86026 11.8621 8.9319C11.7968 9.00358 11.7648 9.09939 11.7737 9.19593C11.9636 11.2585 13.6986 12.8736 15.8107 12.8736C17.9229 12.8736 19.6578 11.2585 19.8478 9.19593C19.8566 9.09948 19.8244 9.0038 19.7592 8.93216ZM5.7404 8.8194H2.63902L4.18969 5.86514L5.7404 8.8194ZM14.26 8.8194L15.8107 5.8651L17.3614 8.8194H14.26V8.8194Z" fill="#84B739"/>
</svg>
