<svg width="20" height="20" viewBox="0 0 20 20" fill="none" xmlns="http://www.w3.org/2000/svg">
<path d="M15.4535 19.0906H14.5444V18.6361C14.5444 17.8843 13.9325 17.2725 13.1807 17.2725H12.3789C11.9253 17.2725 11.5171 17.0202 11.3144 16.6147C11.2021 16.3902 10.9289 16.3002 10.7044 16.4116C10.4799 16.5238 10.3889 16.797 10.5013 17.0216C10.8599 17.7366 11.5794 18.1816 12.379 18.1816H13.1808C13.4317 18.1816 13.6353 18.3852 13.6353 18.6361V19.0906H6.36258V18.6361C6.36258 18.3852 6.56668 18.1816 6.81711 18.1816H7.61895C8.41895 18.1816 9.13848 17.7366 9.49621 17.0211C9.52805 16.9584 9.54437 16.8884 9.54437 16.8179V7.72699C9.54437 7.47562 9.34074 7.27246 9.08984 7.27246C8.83894 7.27246 8.63531 7.47562 8.63531 7.72699V16.7015C8.42031 17.0561 8.03941 17.2724 7.61895 17.2724H6.81711C6.06527 17.2724 5.45348 17.8843 5.45348 18.6361V19.0906H4.54438C4.29348 19.0906 4.08984 19.2937 4.08984 19.5451C4.08984 19.7965 4.29348 19.9997 4.54441 19.9997H5.90805H14.0899H15.4535C15.7049 19.9997 15.908 19.7966 15.908 19.5452C15.908 19.2938 15.7048 19.0906 15.4535 19.0906Z" fill="#212121"/>
<path d="M19.0895 11.3636H16.3622C16.1108 11.3636 15.9077 11.5668 15.9077 11.8182C15.9077 12.0695 16.1108 12.2727 16.3622 12.2727H18.6199C18.5927 12.6859 18.5286 13.0968 18.4277 13.4991L18.3663 13.7463C18.3154 13.9491 18.134 14.0909 17.9249 14.0909H15.7081C15.499 14.0909 15.3181 13.949 15.2672 13.7468L15.2049 13.499C15.0758 12.9804 15.0058 12.4481 14.999 11.9149L16.8168 7.91629L18.0563 10.6436C18.1599 10.8713 18.4272 10.9749 18.6581 10.869C18.8868 10.7649 18.9877 10.4959 18.8836 10.2672L17.2304 6.62996C17.1741 6.50633 17.0654 6.41406 16.9341 6.37906L11.8154 5.01406C11.8154 5.00953 11.8168 5.00496 11.8168 4.99996C11.8168 4.15496 11.2354 3.44949 10.4532 3.24633V0.454531C10.4531 0.203164 10.2495 0 9.99856 0C9.74766 0 9.54402 0.203164 9.54402 0.454531V3.24637C9.06313 3.37137 8.66313 3.68684 8.42313 4.10953L3.29766 2.74273C3.08219 2.6841 2.85855 2.79184 2.76676 2.99363L0.494023 7.99363C0.467187 8.05273 0.453125 8.1168 0.453125 8.1818C0.453125 8.82133 0.531758 9.4609 0.687227 10.0832L0.749062 10.3313C0.901328 10.9386 1.44543 11.3636 2.07223 11.3636H4.28906C4.9159 11.3636 5.45996 10.9386 5.61223 10.3309L5.67406 10.0831C5.82906 9.46086 5.9077 8.82129 5.9077 8.18176C5.9077 7.93039 5.70406 7.72723 5.45316 7.72723H2.72582C2.47492 7.72723 2.27129 7.93039 2.27129 8.18176C2.27129 8.43312 2.47492 8.63629 2.72582 8.63629H4.98355C4.95629 9.04945 4.89219 9.45992 4.79172 9.86265L4.72988 10.1099C4.67898 10.3127 4.49762 10.4545 4.28852 10.4545H2.07219C1.86355 10.4545 1.68172 10.3126 1.63129 10.1104L1.56945 9.86262C1.43992 9.34398 1.37082 8.81172 1.36309 8.27851L3.18039 4.28047L4.41992 7.0073C4.49582 7.17457 4.66129 7.27367 4.83402 7.27367C4.89719 7.27367 4.96086 7.26094 5.02176 7.23277C5.25039 7.12867 5.35129 6.85961 5.24766 6.63094L3.99176 3.86867L8.18176 4.98594C8.18176 4.99094 8.18039 4.99547 8.18039 5.00004C8.18039 6.00277 8.99586 6.8182 9.99856 6.8182C10.1563 6.8182 10.3067 6.79184 10.4531 6.75367V15.4546C10.4531 15.7059 10.6562 15.9091 10.9076 15.9091C11.159 15.9091 11.3621 15.7059 11.3621 15.4546V6.19C11.4426 6.09773 11.513 5.99773 11.574 5.8909L16.1804 7.11906L14.1304 11.63C14.1031 11.6891 14.0895 11.7532 14.0895 11.8182C14.0895 12.4582 14.1686 13.0977 14.3236 13.7195L14.3858 13.9677C14.5372 14.575 15.0817 15 15.7086 15H17.9254C18.5522 15 19.0963 14.575 19.2486 13.9673L19.3099 13.7195C19.4649 13.0977 19.544 12.4582 19.544 11.8182C19.544 11.5668 19.3408 11.3636 19.0895 11.3636ZM9.99856 5.9091C9.49719 5.9091 9.08945 5.50137 9.08945 5C9.08945 4.49863 9.49719 4.0909 9.99856 4.0909C10.4999 4.0909 10.9077 4.49863 10.9077 5C10.9077 5.50137 10.4999 5.9091 9.99856 5.9091Z" fill="#212121"/>
</svg>
