<svg width="16" height="18" viewBox="0 0 16 18" fill="none" xmlns="http://www.w3.org/2000/svg">
<path d="M14.3766 2.0376H13.8502V14.9681C13.8502 15.8271 13.151 16.5263 12.292 16.5263H6.95926H2.71866V17.0057C2.71866 17.5545 3.16415 18 3.71302 18H9.04385H14.3747C14.9236 18 15.369 17.5545 15.369 17.0057V3.03196C15.369 2.48309 14.9254 2.0376 14.3766 2.0376Z" fill="#84B739"/>
<path d="M6.96003 15.9624H12.2909C12.8397 15.9624 13.2852 15.5169 13.2852 14.9681V2.03759V0.994361C13.2852 0.445489 12.8397 0 12.2909 0H6.96003H5.18748V0.328947C5.19122 0.362782 5.19311 0.398496 5.19311 0.434211V2.6015V3.15789C5.19311 3.93045 4.56529 4.55827 3.79274 4.55827H3.23635H1.06905C1.04085 4.55827 1.01078 4.55639 0.982584 4.55451H0.636719V14.9681C0.636719 15.5169 1.08221 15.9624 1.63108 15.9624H2.72131H6.96003ZM7.16116 12.5827H3.68559C3.4262 12.5827 3.21567 12.3722 3.21567 12.1128C3.21567 11.8534 3.4262 11.6429 3.68559 11.6429H7.16304C7.42244 11.6429 7.63297 11.8534 7.63297 12.1128C7.63297 12.3722 7.42056 12.5827 7.16116 12.5827ZM10.6386 10.1842H3.68559C3.4262 10.1842 3.21567 9.97369 3.21567 9.71431C3.21567 9.45489 3.4262 9.24438 3.68559 9.24438H10.6386C10.898 9.24438 11.1085 9.45489 11.1085 9.71431C11.1085 9.97369 10.898 10.1842 10.6386 10.1842ZM3.68559 6.69737H10.6386C10.898 6.69737 11.1085 6.90789 11.1085 7.16729C11.1085 7.42669 10.898 7.63722 10.6386 7.63722H3.68559C3.4262 7.63722 3.21567 7.42669 3.21567 7.16729C3.21567 6.90789 3.4262 6.69737 3.68559 6.69737Z" fill="#84B739"/>
<path d="M1.06863 3.9944H3.79233C3.79421 3.9944 3.79796 3.9944 3.79984 3.9944C4.25473 3.99064 4.62316 3.62222 4.62692 3.16733C4.62692 3.16545 4.62692 3.16169 4.62692 3.15981V0.434249C4.62692 0.182369 4.42015 0.0150757 4.20588 0.0150757C4.1025 0.0150757 3.99911 0.0526697 3.91265 0.139136L0.771634 3.28011C0.508475 3.54327 0.694566 3.9944 1.06863 3.9944Z" fill="#84B739"/>
</svg>
