<svg width="58" height="56" viewBox="0 0 58 56" fill="none" xmlns="http://www.w3.org/2000/svg">
<path fill-rule="evenodd" clip-rule="evenodd" d="M15.0309 24.8582H6.86646e-05V29.9732C6.86646e-05 31.2378 1.05367 32.2707 2.34365 32.2707H7.75023L10.9752 33.8665L15.031 32.2707V24.8582H15.0309Z" fill="#8855D3"/>
<path fill-rule="evenodd" clip-rule="evenodd" d="M12.6874 17.4357H2.34377C1.0538 17.4357 0.000190735 18.4686 0.000190735 19.7332V23.5339H15.031V19.7332C15.031 18.4686 13.9774 17.4357 12.6874 17.4357Z" fill="#8855D3"/>
<path fill-rule="evenodd" clip-rule="evenodd" d="M15.031 22.3883H0.000190735V26.0003H15.031V22.3883Z" fill="#9ED153"/>
<path fill-rule="evenodd" clip-rule="evenodd" d="M3.13628 22.3884H1.21142H-0.000961304V19.7332C-0.000961304 18.8691 0.492135 18.1143 1.21142 17.7236C1.5491 17.5416 1.93407 17.4355 2.34274 17.4355H5.47998C4.19 17.4355 3.13639 18.4684 3.13639 19.7331V22.3884H3.13628Z" fill="#6C39B7"/>
<path fill-rule="evenodd" clip-rule="evenodd" d="M3.13647 26.0003H1.21165H-0.000717163V24.8581V23.5338V22.3883H1.21165H3.13647V23.5338V24.8581V26.0003Z" fill="#84B739"/>
<path fill-rule="evenodd" clip-rule="evenodd" d="M3.13885 26.0004V29.9733C3.13885 31.2379 4.19245 32.2708 5.48242 32.2708H2.34521C1.93665 32.2708 1.55168 32.1682 1.2139 31.9862C0.494611 31.5922 0.00152206 30.8374 0.00152206 29.9733V26.0004H1.2139H3.13885Z" fill="#6C39B7"/>
<path fill-rule="evenodd" clip-rule="evenodd" d="M15.0319 32.2709H7.75115V35.5517C7.75115 36.3397 8.40961 36.9819 9.20996 36.9819H32.9153C32.9153 34.9194 32.9153 33.8698 31.3045 33.8698L28.0964 33.8665C26.0769 33.8633 24.7532 33.3567 24.0137 32.2708H15.0319V32.2709Z" fill="#6F6571"/>
<path fill-rule="evenodd" clip-rule="evenodd" d="M30.0538 36.9821H9.20786C7.98542 39.0678 7.00269 41.574 7.85035 46.3679C9.26868 41.6402 23.6748 43.5273 25.1539 48.9833H41.0492C41.6503 47.6491 42.2177 46.3314 42.7141 45.0006H38.2329C29.1692 41.65 32.0834 43.1432 30.0538 36.9821Z" fill="#8855D3"/>
<path fill-rule="evenodd" clip-rule="evenodd" d="M31.3415 24.1663C31.0308 25.7687 30.6087 27.3479 30.136 28.692L25.5537 30.4508L20.4442 28.692C20.6232 19.2201 24.2365 14.6778 27.3096 13.2079C28.4172 12.3817 29.5519 12.0706 29.5519 12.0706C29.5519 12.0706 31.0445 14.4097 31.1222 14.4097C31.6962 15.7472 31.9124 17.492 31.8752 19.3757L31.3415 24.1663Z" fill="#ECEAEC"/>
<path fill-rule="evenodd" clip-rule="evenodd" d="M20.4453 28.6921H30.1372C32.3694 28.9305 35.1149 30.5958 35.1149 35.7539V41.1602L32.9154 42.4436L30.0562 41.1602V36.9821C30.0562 34.9195 30.0562 33.87 28.4455 33.87L25.2374 33.8667C23.2179 33.8634 21.8942 33.3568 21.1546 32.2709C20.5838 31.4334 20.3643 30.2515 20.4453 28.6921Z" fill="#9ED153"/>
<path fill-rule="evenodd" clip-rule="evenodd" d="M20.4427 28.692C20.6217 19.2201 24.2351 14.6778 27.3081 13.2079C27.764 13.5224 28.2706 13.7806 28.8278 13.9726C26.1059 15.9888 23.3774 20.4947 23.2221 28.692H20.4427Z" fill="#DAD8DB"/>
<path fill-rule="evenodd" clip-rule="evenodd" d="M20.445 28.6921H23.2242C23.1431 30.2515 23.3626 31.4334 23.9333 32.271C24.3993 32.9564 25.1017 33.5357 26.0642 33.8668H25.2368C23.2174 33.8635 21.8936 33.3569 21.1541 32.271C20.5835 31.4334 20.364 30.2515 20.445 28.6921Z" fill="#84B739"/>
<path fill-rule="evenodd" clip-rule="evenodd" d="M25.1555 48.9833C25.1555 44.0868 21.1943 40.1868 16.3079 40.1868C12.3332 40.1868 8.96979 42.7691 7.852 46.3678C7.62234 47.1061 7.48727 47.8908 7.46367 48.7052C7.4535 49.023 7.67646 48.9833 7.98036 48.9833C13.7043 48.9833 19.4316 48.98 25.1555 48.9833Z" fill="#9ED153"/>
<path fill-rule="evenodd" clip-rule="evenodd" d="M22.9301 48.9833H9.4627C9.65513 52.5389 12.5965 55.3663 16.1964 55.3663C19.7963 55.3663 22.7376 52.5389 22.9301 48.9833Z" fill="#6F6571"/>
<path fill-rule="evenodd" clip-rule="evenodd" d="M57.1299 47.5762L45.5435 50.1883C46.2797 53.3236 49.4709 55.2835 52.6689 54.5618C55.8702 53.8401 57.866 50.7115 57.1299 47.5762Z" fill="#6F6571"/>
<path fill-rule="evenodd" clip-rule="evenodd" d="M57.996 44.3946C56.3582 42.0606 53.5148 40.7065 50.543 40.9979C45.3019 42.0838 43.5966 45.1528 43.2555 48.98C43.2622 49.4998 43.3197 50.0229 43.4346 50.546C43.4683 50.6917 43.5663 50.6321 43.7284 50.5957L45.5419 50.1884L57.1282 47.5763L57.9961 47.381L59.2084 47.1061C58.9754 46.1063 58.5566 45.1926 57.996 44.3946Z" fill="#ECEAEC"/>
<path fill-rule="evenodd" clip-rule="evenodd" d="M50.5542 40.9847L45.8737 25.1199L43.7665 24.1962L41.4094 25.1199C44.506 33.5291 43.6416 39.3989 41.5512 45.0006C41.0514 46.3316 40.484 47.6491 39.8863 48.9834H43.2532L50.5542 40.9847Z" fill="#9ED153"/>
<path fill-rule="evenodd" clip-rule="evenodd" d="M36.0597 7.33153L30.5687 6.18604C30.0115 6.23565 28.4175 7.54677 28.4175 8.36783L29.586 14.188C30.0722 14.3304 30.5889 14.4098 31.1225 14.4098C34.047 14.4098 36.4176 12.0824 36.4176 9.21529C36.4176 8.54987 36.2927 7.91414 36.0597 7.33153Z" fill="#FFECE4"/>
<path fill-rule="evenodd" clip-rule="evenodd" d="M37.8336 7.33144C37.8336 3.63009 34.8416 0.633911 31.1472 0.633911C27.4528 0.633911 24.4609 3.63009 24.4609 7.33144C24.4609 9.77469 25.474 11.9465 27.3111 13.2079C27.9662 13.6615 28.7294 13.9959 29.5871 14.1879V8.36762C29.5871 7.54656 30.0126 7.38106 30.5698 7.33133H36.0607H37.8336V7.33144Z" fill="#9ED153"/>
<path fill-rule="evenodd" clip-rule="evenodd" d="M34.6453 1.62376C33.6288 0.994712 32.4299 0.633911 31.1468 0.633911C27.4524 0.633911 24.4604 3.63009 24.4604 7.33144C24.4604 9.77469 25.4735 11.9465 27.3106 13.2079C27.7766 13.5291 28.2933 13.7906 28.8606 13.9826C27.5031 12.6352 26.767 10.7018 26.767 8.5696C26.767 4.70275 29.8974 1.56746 33.7573 1.56746C34.0577 1.56746 34.3549 1.584 34.6453 1.62376Z" fill="#84B739"/>
<path fill-rule="evenodd" clip-rule="evenodd" d="M35.114 41.1602H30.0552V44.2822C30.0552 44.951 30.4267 45.0006 30.9738 45.0006H38.2342C38.3796 41.8686 36.4445 41.1602 35.114 41.1602Z" fill="#6F6571"/>
<path fill-rule="evenodd" clip-rule="evenodd" d="M41.5497 45.0005C43.64 39.3989 44.5046 33.529 41.4079 25.1198H43.1437C43.1504 25.1198 43.1572 25.1198 43.1639 25.1198H43.7886C46.8853 33.529 46.0242 39.3987 43.9305 45.0005C43.4341 46.3314 42.8667 47.649 42.2656 48.9832H41.0499H39.8848C40.4826 47.649 41.0499 46.3313 41.5497 45.0005Z" fill="#84B739"/>
<path fill-rule="evenodd" clip-rule="evenodd" d="M43.2546 48.98L50.5421 40.9979C51.2951 40.9251 52.0415 40.9549 52.7607 41.084L45.7569 48.7548C45.7636 49.2017 45.8076 49.6553 45.8954 50.1089L45.5408 50.1883L43.7273 50.5955C43.5652 50.6319 43.4672 50.6916 43.4335 50.5459C43.3188 50.0229 43.2614 49.4998 43.2546 48.98Z" fill="#DAD8DB"/>
<path fill-rule="evenodd" clip-rule="evenodd" d="M9.20898 36.9821H30.0549V38.7797H12.927C11.5323 38.7797 10.8704 39.369 10.3267 40.5642C9.85726 41.6005 9.84708 41.9382 9.63442 43.1896C8.83407 44.1001 8.21943 45.1794 7.85135 46.3679C7.00381 41.5739 7.98653 39.0678 9.20898 36.9821Z" fill="#6C39B7"/>
<path fill-rule="evenodd" clip-rule="evenodd" d="M9.63323 43.1895C11.2542 41.3454 13.6417 40.1868 16.3061 40.1868C16.9747 40.1868 17.6231 40.2596 18.2478 40.3953C14.2596 41.2793 11.4702 44.729 11.3487 48.7052C11.3419 48.9237 11.4432 48.9733 11.6053 48.9833H9.46093H7.9784C7.6745 48.9833 7.45155 49.023 7.46172 48.7052C7.48531 47.8908 7.62038 47.1061 7.85005 46.3678C7.85675 46.3446 7.86357 46.3248 7.87028 46.305C7.87028 46.305 7.87028 46.305 7.87028 46.3017C8.24184 45.1395 8.84629 44.0834 9.63323 43.1895Z" fill="#84B739"/>
<path fill-rule="evenodd" clip-rule="evenodd" d="M45.8974 50.1088L57.1293 47.5762C57.2542 48.0959 57.2981 48.619 57.2779 49.1289L48.3627 51.1385L48.0115 51.2179C48.3425 52.6415 49.1833 53.8234 50.3011 54.6214C48.0217 54.2274 46.0934 52.5389 45.5429 50.1883L45.8974 50.1088Z" fill="#5D5360"/>
<path fill-rule="evenodd" clip-rule="evenodd" d="M11.607 48.9833H22.9301C22.8929 49.6785 22.7477 50.3473 22.5147 50.9729H14.6261H12.4818C12.5662 52.529 13.174 53.9426 14.1331 55.0451C11.5294 54.2075 9.61477 51.8271 9.46282 48.9832H11.607V48.9833Z" fill="#5D5360"/>
<path fill-rule="evenodd" clip-rule="evenodd" d="M7.75028 35.5518V32.271H12.3261V35.5518C12.3261 36.3398 12.9846 36.982 13.7849 36.982H9.2091C8.40874 36.9821 7.75028 36.3398 7.75028 35.5518Z" fill="#5D5360"/>
<path fill-rule="evenodd" clip-rule="evenodd" d="M36.3916 8.65908H31.88C31.3228 8.70869 30.8973 8.8776 30.8973 9.69866V14.4031C30.4447 14.3833 30.0058 14.3105 29.587 14.1879V8.36772C29.587 7.54666 30.0125 7.38115 30.5698 7.33142H36.0606C36.2261 7.74864 36.341 8.19553 36.3916 8.65908Z" fill="#FFDDCE"/>
<path fill-rule="evenodd" clip-rule="evenodd" d="M46.8492 20.1239L40.5309 22.1699C40.2202 22.4413 40.5714 25.2091 40.7808 25.1197H45.8733H48.1257V20.5642C48.1257 19.6671 47.6495 19.8656 46.8492 20.1239Z" fill="#8855D3"/>
<path fill-rule="evenodd" clip-rule="evenodd" d="M37.5857 25.1196H38.1159H40.7803C42.4958 25.1196 42.5464 22.332 40.5304 22.1698L37.5857 21.938L36.7955 23.5768L37.5857 25.1196Z" fill="#FFECE4"/>
<path fill-rule="evenodd" clip-rule="evenodd" d="M31.8753 19.3757L30.8184 18.4851C28.1709 16.2504 24.8242 20.0213 28.3633 22.2725L31.3418 24.1663L32.8412 25.1197H37.5858V21.9381L34.6378 21.7031L31.8753 19.3757Z" fill="#9ED153"/>
<path fill-rule="evenodd" clip-rule="evenodd" d="M37.5872 25.1198V23.577H38.2187H38.5598H39.0933H41.7577C41.859 23.577 41.9536 23.5705 42.0447 23.5505C42.1427 24.3186 41.7002 25.1198 40.7817 25.1198H38.1173H37.5872Z" fill="#FFDDCE"/>
<path fill-rule="evenodd" clip-rule="evenodd" d="M28.3633 22.2726C26.2223 20.9086 26.6006 18.9918 27.8196 18.184C27.7216 19.0116 28.1235 19.9618 29.3392 20.7332L31.6592 22.2065L32.3143 22.627L33.8137 23.5772H37.5858V25.1199H32.8412L31.3418 24.1665L28.3633 22.2726Z" fill="#84B739"/>
<path fill-rule="evenodd" clip-rule="evenodd" d="M40.5292 22.1698L43.072 21.3488C43.923 22.2427 44.3351 23.984 43.788 25.1197H41.4073H40.7791C41.6976 25.1197 42.14 24.3184 42.0421 23.5504C41.9544 22.885 41.4646 22.2459 40.5292 22.1698Z" fill="#6C39B7"/>
</svg>
