<svg width="64" height="64" viewBox="0 0 64 64" fill="none" xmlns="http://www.w3.org/2000/svg">
<path d="M42.7422 41.0448C41.2258 41.0448 39.9922 39.977 39.9922 38.6646C39.9922 37.3521 41.2258 36.2844 42.7422 36.2844C44.2586 36.2844 45.4922 37.3521 45.4922 38.6646C45.4922 39.3549 46.0519 39.9146 46.7422 39.9146C47.4324 39.9146 47.9922 39.3549 47.9922 38.6646C47.9922 36.374 46.2854 34.448 43.9922 33.9253V33.2751C43.9922 32.5849 43.4324 32.0251 42.7422 32.0251C42.0519 32.0251 41.4922 32.5849 41.4922 33.2751V33.9253C39.1989 34.448 37.4922 36.374 37.4922 38.6646C37.4922 41.3555 39.8473 43.5448 42.7422 43.5448C44.2586 43.5448 45.4922 44.6125 45.4922 45.925C45.4922 47.2375 44.2586 48.3052 42.7422 48.3052C41.2258 48.3052 39.9922 47.2375 39.9922 45.925C39.9922 45.2348 39.4324 44.675 38.7422 44.675C38.0519 44.675 37.4922 45.2348 37.4922 45.925C37.4922 48.2156 39.1989 50.1416 41.4922 50.6644V51.2044C41.4922 51.8946 42.0519 52.4544 42.7422 52.4544C43.4324 52.4544 43.9922 51.8946 43.9922 51.2044V50.6644C46.2854 50.1416 47.9922 48.2156 47.9922 45.925C47.9922 43.234 45.637 41.0448 42.7422 41.0448Z" fill="#333333"/>
<path d="M56.432 33.6094C54.7991 31.065 52.4987 29.029 49.7793 27.7218C49.1569 27.4225 48.4101 27.6846 48.1111 28.3068C47.8119 28.929 48.0738 29.6758 48.6961 29.9749C53.4349 32.2529 56.4968 37.1203 56.4968 42.375C56.4968 44.6235 55.9425 46.8534 54.8941 48.8239C54.5699 49.4333 54.801 50.1903 55.4105 50.5145C55.5975 50.614 55.7985 50.6613 55.9965 50.6613C56.4438 50.6613 56.8764 50.4205 57.1011 49.9982C58.3413 47.6677 58.9967 45.0315 58.9967 42.375C58.9967 39.255 58.1099 36.2239 56.432 33.6094Z" fill="#333333"/>
<path d="M44.7091 26.1252L44.6249 26.1251C43.9347 26.1251 43.3749 26.6847 43.3749 27.3751C43.3749 28.0655 43.9347 28.6251 44.6249 28.6251L44.6973 28.6252C44.6993 28.6252 44.7012 28.6252 44.7033 28.6252C45.391 28.6252 45.95 28.0695 45.9532 27.3811C45.9563 26.6907 45.3993 26.1285 44.7091 26.1252Z" fill="#333333"/>
<path d="M36.8006 54.7752C32.0619 52.4971 29 47.6297 29 42.3751C29 40.1266 29.5542 37.8967 30.6026 35.9262C30.9269 35.3168 30.6957 34.5598 30.0862 34.2356C29.477 33.9113 28.7197 34.1425 28.3956 34.752C27.1555 37.0826 26.5 39.7186 26.5 42.3751C26.5 45.4951 27.3869 48.5261 29.0647 51.1407C30.6976 53.6851 32.9981 55.721 35.7175 57.0284C35.8921 57.1124 36.0766 57.152 36.2582 57.152C36.7237 57.152 37.1705 56.8909 37.3857 56.4434C37.6846 55.8212 37.4228 55.0743 36.8006 54.7752Z" fill="#333333"/>
<path d="M40.871 56.125L40.7986 56.1248C40.1051 56.1235 39.5461 56.6784 39.543 57.3689C39.5397 58.0593 40.097 58.6215 40.7872 58.6248L40.871 58.625C41.5612 58.625 42.121 58.0653 42.121 57.375C42.121 56.6848 41.5612 56.125 40.871 56.125Z" fill="#333333"/>
<path d="M48.426 21.896C48.2739 21.5335 48.0875 21.1918 47.8707 20.875H51.1249C54.2954 20.875 56.8749 18.2955 56.8749 15.125C56.8749 11.9545 54.2954 9.37498 51.1249 9.37498H41.1149C41.7513 8.44973 42.1249 7.33036 42.1249 6.12499C42.1249 2.9545 39.5454 0.375 36.3749 0.375H5.74999C2.57949 0.375 0 2.9545 0 6.12499C0 9.29548 2.57949 11.875 5.74999 11.875H15.76C15.1236 12.8002 14.75 13.9196 14.75 15.125C14.75 16.3303 15.1235 17.4497 15.76 18.375H12.5C9.32948 18.375 6.74999 20.9545 6.74999 24.125C6.74999 25.9458 7.60174 27.5707 8.92686 28.6249C7.60174 29.6792 6.74999 31.3041 6.74999 33.1249C6.74999 34.9458 7.60174 36.5707 8.92686 37.6249C7.60174 38.6792 6.74999 40.3041 6.74999 42.1249C6.74999 43.9458 7.60174 45.5707 8.92686 46.6249C7.60174 47.6792 6.74999 49.304 6.74999 51.1249C6.74999 54.2954 9.32948 56.8749 12.5 56.8749H27.2312C31.1119 61.0258 36.6327 63.625 42.75 63.625C54.4673 63.625 64 54.0923 64 42.375C64 32.6229 57.3963 24.3853 48.426 21.896ZM51.1249 11.875C52.917 11.875 54.3749 13.333 54.3749 15.125C54.3749 16.917 52.917 18.375 51.1249 18.375H43.1249H20.5C18.7078 18.375 17.25 16.917 17.25 15.125C17.25 13.333 18.7078 11.875 20.5 11.875H51.1249ZM5.74999 9.37498C3.95787 9.37498 2.5 7.91699 2.5 6.12499C2.5 4.33299 3.95787 2.875 5.74999 2.875H36.3749C38.1671 2.875 39.6249 4.33299 39.6249 6.12499C39.6249 7.91699 38.1671 9.37498 36.3749 9.37498H5.74999ZM12.5 20.875H43.1249C43.6284 20.875 44.1105 20.992 44.543 21.2015C43.9518 21.1518 43.354 21.1251 42.75 21.1251C36.8819 21.1251 31.5619 23.5162 27.7127 27.375H12.5C10.708 27.375 9.24998 25.917 9.24998 24.125C9.24998 22.333 10.708 20.875 12.5 20.875ZM12.5 29.8749H25.5768C24.1578 31.8191 23.0607 34.0118 22.364 36.3749H12.5C10.7079 36.3749 9.24998 34.9171 9.24998 33.1249C9.24998 31.3329 10.7079 29.8749 12.5 29.8749ZM12.5 38.8749H21.79C21.6003 40.0141 21.5001 41.1829 21.5001 42.375C21.5001 43.3933 21.5737 44.3945 21.7128 45.3749H12.5C10.7079 45.3749 9.24998 43.917 9.24998 42.1249C9.24998 40.3328 10.7079 38.8749 12.5 38.8749ZM12.5 54.3749C10.7079 54.3749 9.24998 52.917 9.24998 51.1249C9.24998 49.3328 10.7079 47.8749 12.5 47.8749H22.2232C22.854 50.2265 23.8786 52.4182 25.2223 54.3749H12.5ZM42.75 61.125C32.4113 61.125 24.0001 52.7138 24.0001 42.375C24.0001 32.0363 32.4113 23.6251 42.75 23.6251C53.0888 23.6251 61.5 32.0363 61.5 42.375C61.5 52.7138 53.0888 61.125 42.75 61.125Z" fill="#333333"/>
</svg>
