<svg width="151" height="98" viewBox="0 0 151 98" fill="none" xmlns="http://www.w3.org/2000/svg">
<path d="M64.3373 10.0777C64.3373 10.0777 49.0418 -1.29624 33.7512 0.251136C18.4607 1.79851 3.01172 21.6159 3.01172 21.6159L7.96172 25.3873C7.96172 25.3873 33.6176 3.9927 47.5122 19.8098C61.4069 35.6269 64.3373 10.0777 64.3373 10.0777Z" fill="#84B739"/>
<path opacity="0.2" d="M64.3373 10.0777C64.3373 10.0777 49.0418 -1.29624 33.7512 0.251136C18.4607 1.79851 3.01172 21.6159 3.01172 21.6159L7.96172 25.3873C7.96172 25.3873 33.6176 3.9927 47.5122 19.8098C61.4069 35.6269 64.3373 10.0777 64.3373 10.0777Z" fill="white"/>
<path d="M52.7851 8.49023H0.265625V42.5972H52.7851V8.49023Z" fill="#FFD200"/>
<path opacity="0.45" d="M137.787 81.3215C136.819 81.1251 135.907 80.7146 135.117 80.12C134.327 79.5253 133.678 78.7613 133.218 77.8835V77.8337L109.78 32.9697L96.88 42.1495L106.003 70.9775C106.243 71.7354 106.298 72.5406 106.162 73.3243C106.025 74.108 105.703 74.8469 105.221 75.478C104.739 76.1091 104.112 76.6136 103.394 76.9484C102.676 77.2832 101.888 77.4384 101.097 77.4008C94.1674 77.0824 86.7969 76.9033 79.1393 76.9033C39.5789 76.9033 7.50781 81.5355 7.50781 87.2523C7.50781 92.9691 39.5789 97.6063 79.1393 97.6063C118.7 97.6063 150.746 92.9741 150.746 87.2672C150.746 85.0482 145.949 83.0032 137.787 81.3215Z" fill="#E6E6E6"/>
<path d="M63.2501 83.874C63.2501 83.874 63.9827 86.3618 66.1558 86.6553C68.3288 86.9489 68.7842 89.1431 66.7894 89.5909C64.7945 90.0387 59.8594 87.2275 59.8594 87.2275L60.1712 84.0681L63.2501 83.874Z" fill="#84B739"/>
<path d="M20.9413 83.4508C20.9413 83.4508 18.4267 83.9981 17.9713 86.1524C17.5159 88.3068 15.3082 88.5954 15.0013 86.5604C14.6944 84.5255 17.8773 79.8037 17.8773 79.8037L20.9859 80.3659L20.9413 83.4508Z" fill="#84B739"/>
<path d="M21.2798 46.3037C21.2798 46.3037 18.9632 57.1702 27.304 61.8272C35.6447 66.4843 61.954 58.1006 57.89 84.4956H63.7607C63.7607 84.4956 71.3491 62.6034 51.6629 54.8217L45.6883 48.0103L21.2798 46.3037Z" fill="#24285B"/>
<path d="M102.27 38.4601L100.273 36.542L87.7841 49.6787L89.781 51.5968L102.27 38.4601Z" fill="#FFD200"/>
<path opacity="0.08" d="M102.27 38.4601L100.273 36.542L87.7841 49.6787L89.781 51.5968L102.27 38.4601Z" fill="black"/>
<path d="M101.298 37.5197L99.3008 35.6016L86.8114 48.7382L88.8083 50.6563L101.298 37.5197Z" fill="#FFD200"/>
<path d="M106.731 39.937C109.942 36.5597 110.728 32.0766 108.487 29.9238C106.245 27.7709 101.825 28.7635 98.6146 32.1408C95.4037 35.518 94.6177 40.0011 96.859 42.154C99.1003 44.3068 103.52 43.3142 106.731 39.937Z" fill="#FFD200"/>
<path opacity="0.08" d="M106.731 39.937C109.942 36.5597 110.728 32.0766 108.487 29.9238C106.245 27.7709 101.825 28.7635 98.6146 32.1408C95.4037 35.518 94.6177 40.0011 96.859 42.154C99.1003 44.3068 103.52 43.3142 106.731 39.937Z" fill="black"/>
<path d="M105.754 39.0043C108.965 35.6271 109.751 31.144 107.51 28.9912C105.269 26.8383 100.849 27.8309 97.638 31.2082C94.4271 34.5854 93.6411 39.0685 95.8824 41.2213C98.1237 43.3742 102.544 42.3816 105.754 39.0043Z" fill="#FFD200"/>
<path opacity="0.57" d="M104.377 37.6811C106.498 35.4501 107.018 32.4888 105.537 31.0668C104.057 29.6449 101.137 30.3007 99.0163 32.5317C96.8952 34.7627 96.3758 37.724 97.8562 39.146C99.3366 40.5679 102.256 39.9121 104.377 37.6811Z" fill="white"/>
<path d="M85.0355 11.3064C85.0355 11.3064 82.803 14.5653 80.6349 16.1674C80.4247 16.3214 80.1863 16.4322 79.9334 16.4935C79.6805 16.5548 79.4181 16.5655 79.1611 16.5248C78.9042 16.4841 78.6577 16.393 78.4358 16.2565C78.2139 16.1201 78.0209 15.941 77.8679 15.7296C77.0808 14.62 76.3383 12.8886 77.3234 10.9979L78.6005 7.57971C78.9315 6.92639 79.4556 6.39205 80.1008 6.04998C80.746 5.70791 81.4807 5.57488 82.2041 5.66913C84.9117 5.82834 86.4908 9.39079 85.0355 11.3064Z" fill="#F4A28C"/>
<path d="M79.3818 8.28125L69.3086 12.3612L70.5461 19.5657L77.8077 13.61L79.3818 8.28125Z" fill="#F4A28C"/>
<path d="M84.1771 10.8091C83.2085 10.0675 82.3282 9.216 81.5536 8.27162C81.4835 8.91123 81.2293 9.51641 80.8223 10.0131C80.4152 10.5097 79.8729 10.8763 79.2617 11.0678C78.6727 11.2628 78.0345 11.2458 77.4566 11.0198C76.8786 10.7938 76.3968 10.3728 76.0938 9.82895L79.3607 5.94807C79.8072 5.37377 80.4001 4.93174 81.0764 4.66893C81.7527 4.40611 82.4873 4.33233 83.202 4.45542C83.8194 4.56232 84.4295 4.70857 85.0285 4.89327C86.5135 5.39081 87.5481 7.49047 89.1816 7.56013C89.3458 7.5682 89.5052 7.61898 89.6441 7.7075C89.783 7.79603 89.8967 7.91927 89.974 8.06518C90.0513 8.21109 90.0896 8.37467 90.0852 8.53993C90.0808 8.70519 90.0338 8.86647 89.9488 9.00799C89.1469 10.3464 87.3946 12.048 85.2513 11.3664C84.8651 11.2413 84.5022 11.053 84.1771 10.8091Z" fill="#24285B"/>
<path d="M79.6618 11.2466C79.6618 11.2466 80.6023 10.0525 79.6618 9.41069C78.7213 8.76886 77.3403 10.4904 78.4045 11.6397L79.6618 11.2466Z" fill="#F4A28C"/>
<path d="M83.5247 13.2871L83.4059 15.1629C83.3959 15.2679 83.3601 15.3687 83.3018 15.4564C83.2434 15.544 83.1643 15.6157 83.0715 15.665C82.9788 15.7144 82.8753 15.7398 82.7704 15.739C82.6654 15.7381 82.5624 15.7112 82.4704 15.6604L81.1289 14.9141L83.5247 13.2871Z" fill="#F4A28C"/>
<path opacity="0.31" d="M76.9899 14.2711C76.9899 14.2711 77.2919 12.0072 78.1037 11.1465C78.1037 11.1465 74.4357 12.3904 74.3516 16.4454L76.9899 14.2711Z" fill="#CE8172"/>
<path opacity="0.08" d="M10.4922 41.7171C10.4922 41.7171 10.3338 18.2477 38.3805 13.2871L21.902 42.5977H10.517L10.4922 41.7171Z" fill="black"/>
<path d="M71.8812 22.0581L71.0496 17.1971C70.7244 15.2146 69.9039 13.3475 68.6651 11.7707C67.4262 10.1939 65.8094 8.95893 63.9661 8.18149C62.3617 7.53677 60.6841 7.09391 58.9716 6.86298C56.7738 6.5545 53.6949 6.86299 50.2497 7.7735C35.4096 11.6892 24.5196 24.327 22.2673 39.5619L21.2773 46.3037L45.6858 48.0103C45.6858 48.0103 44.4483 41.0446 53.1108 41.0446C61.7733 41.0446 72.7425 41.1342 71.8812 22.0581Z" fill="#84B739"/>
<path opacity="0.08" d="M47.9628 14.5205C47.9628 14.5205 36.1174 16.6152 23.0989 35.4723L21.2773 46.3039L39.8002 47.6871L47.9628 14.5205Z" fill="black"/>
<path d="M61.5466 23.1932C63.8583 15.4413 54.8938 9.17223 48.5034 14.098C43.1574 18.2127 37.1184 25.6212 36.8808 38.1246C36.4699 60.6885 57.9727 56.6533 87.0738 48.0109L86.1482 41.4383C86.1482 41.4383 51.3001 48.0607 56.0323 36.6767C58.0123 31.9152 60.319 27.3178 61.5466 23.1932Z" fill="#84B739"/>
<path opacity="0.2" d="M61.5466 23.1932C63.8583 15.4413 54.8938 9.17223 48.5034 14.098C43.1574 18.2127 37.1184 25.6212 36.8808 38.1246C36.4699 60.6885 57.9727 56.6533 87.0738 48.0109L86.1482 41.4383C86.1482 41.4383 51.3001 48.0607 56.0323 36.6767C58.0123 31.9152 60.319 27.3178 61.5466 23.1932Z" fill="white"/>
<path d="M49.3158 54.877C49.3158 54.877 50.0335 79.829 20.9869 84.496L19.8633 79.2071C19.8633 79.2071 43.1283 73.4106 28.1001 57.8822L49.3158 54.877Z" fill="#24285B"/>
<path opacity="0.08" d="M95.0683 88.4314C96.8124 88.4314 98.2263 87.9057 98.2263 87.2572C98.2263 86.6087 96.8124 86.083 95.0683 86.083C93.3241 86.083 91.9102 86.6087 91.9102 87.2572C91.9102 87.9057 93.3241 88.4314 95.0683 88.4314Z" fill="black"/>
<path opacity="0.08" d="M107.146 85.3914C108.891 85.3914 110.304 84.8657 110.304 84.2172C110.304 83.5687 108.891 83.043 107.146 83.043C105.402 83.043 103.988 83.5687 103.988 84.2172C103.988 84.8657 105.402 85.3914 107.146 85.3914Z" fill="black"/>
<path opacity="0.08" d="M119.307 87.74C121.051 87.74 122.465 87.2143 122.465 86.5658C122.465 85.9173 121.051 85.3916 119.307 85.3916C117.562 85.3916 116.148 85.9173 116.148 86.5658C116.148 87.2143 117.562 87.74 119.307 87.74Z" fill="black"/>
<path opacity="0.08" d="M137.928 88.9187C139.672 88.9187 141.086 88.393 141.086 87.7445C141.086 87.096 139.672 86.5703 137.928 86.5703C136.183 86.5703 134.77 87.096 134.77 87.7445C134.77 88.393 136.183 88.9187 137.928 88.9187Z" fill="black"/>
<path opacity="0.08" d="M83.0946 85.1278C84.877 85.1278 86.322 84.5888 86.322 83.9238C86.322 83.2588 84.877 82.7197 83.0946 82.7197C81.3121 82.7197 79.8672 83.2588 79.8672 83.9238C79.8672 84.5888 81.3121 85.1278 83.0946 85.1278Z" fill="black"/>
<path d="M86.3242 42.7016C86.3242 42.7016 94.3333 41.8508 95.0362 44.9953C95.7391 48.1398 94.2046 49.8066 86.9974 47.483L86.3242 42.7016Z" fill="#F4A28C"/>
<path d="M6.53516 42.5971C6.53516 42.5971 7.68851 47.294 12.3069 46.3039C16.9252 45.3137 13.6285 39.5521 6.53516 42.5971Z" fill="#F4A28C"/>
</svg>
