<svg width="40" height="40" viewBox="0 0 40 40" fill="none" xmlns="http://www.w3.org/2000/svg">
<path d="M39.25 20C39.25 30.6315 30.6315 39.25 20 39.25C9.36852 39.25 0.75 30.6315 0.75 20C0.75 9.36852 9.36852 0.75 20 0.75C30.6315 0.75 39.25 9.36852 39.25 20Z" stroke="#84B739" stroke-width="1.5"/>
<g clip-path="url(#clip0)">
<path d="M25.3319 9.33745L22.5654 9.33301C19.4575 9.33301 17.4489 11.3937 17.4489 14.5832V17.0038H14.6674C14.4271 17.0038 14.2324 17.1987 14.2324 17.4391V20.9464C14.2324 21.1867 14.4273 21.3813 14.6674 21.3813H17.4489V30.2313C17.4489 30.4717 17.6436 30.6663 17.8839 30.6663H21.513C21.7534 30.6663 21.948 30.4715 21.948 30.2313V21.3813H25.2003C25.4406 21.3813 25.6353 21.1867 25.6353 20.9464L25.6366 17.4391C25.6366 17.3237 25.5906 17.2131 25.5092 17.1315C25.4277 17.0498 25.3168 17.0038 25.2014 17.0038H21.948V14.9518C21.948 13.9655 22.183 13.4648 23.4678 13.4648L25.3314 13.4642C25.5716 13.4642 25.7662 13.2693 25.7662 13.0292V9.77244C25.7662 9.53253 25.5718 9.33789 25.3319 9.33745Z" fill="#84B739"/>
</g>
<defs>
<clipPath id="clip0">
<rect width="21.3333" height="21.3333" fill="white" transform="translate(9.33203 9.33301)"/>
</clipPath>
</defs>
</svg>
