<svg width="170" height="44" viewBox="0 0 170 44" fill="none" xmlns="http://www.w3.org/2000/svg">
<g clip-path="url(#clip0)">
<path d="M1.19531 39.8584H1.77555V43.0142L4.20034 39.8584H4.73767V43.9519H4.16421V40.7961L1.73942 43.9519H1.19531V39.8584Z" fill="white"/>
<path d="M11.3173 39.8584V43.9519H10.7325V42.1351H8.37772V43.9586H7.79297V39.8584H8.37772V41.6189H10.7325V39.8584H11.3173Z" fill="white"/>
<path d="M17.1845 40.3678H15.7779V43.9519H15.2045V40.3678H13.8047V39.8584H17.1913L17.1845 40.3678Z" fill="white"/>
<path d="M22.6514 43.4447V43.9519H19.6758V39.8584H22.5679V40.3678H20.256V41.6256H22.3128V42.1215H20.256V43.4447H22.6514Z" fill="white"/>
<path d="M28.1952 40.2393C28.3398 40.3729 28.4551 40.5349 28.5339 40.715C28.6128 40.8952 28.6535 41.0897 28.6535 41.2864C28.6535 41.483 28.6128 41.6775 28.5339 41.8577C28.4551 42.0379 28.3398 42.1998 28.1952 42.3334C27.8356 42.6036 27.3916 42.7378 26.9422 42.7121H25.9285V43.9519H25.3438V39.8584H26.9422C27.3919 39.8335 27.8358 39.9685 28.1952 40.2393ZM27.773 41.9682C27.864 41.8806 27.9363 41.7755 27.9857 41.6593C28.0351 41.5431 28.0606 41.4182 28.0606 41.292C28.0606 41.1658 28.0351 41.0409 27.9857 40.9247C27.9363 40.8085 27.864 40.7034 27.773 40.6158C27.5257 40.4418 27.226 40.3582 26.9241 40.3791H25.9285V42.2162H26.9241C27.2273 42.2338 27.5272 42.1462 27.773 41.9682Z" fill="white"/>
<path d="M34.7648 39.8584V43.9519H34.1778V42.1351H31.8253V43.9586H31.2383V39.8584H31.8253V41.6189H34.1778V39.8584H34.7648Z" fill="white"/>
<path d="M40.8028 43.4447V43.9519H37.8203V39.8584H40.7147V40.3678H38.4073V41.6256H40.4618V42.1215H38.4073V43.4447H40.8028Z" fill="white"/>
<path d="M46.3056 40.3678H44.899V43.9519H44.3256V40.3678H42.9258V39.8584H46.3124L46.3056 40.3678Z" fill="white"/>
<path d="M48.2969 42.1035H49.8773V42.5859H48.2969V42.1035Z" fill="white"/>
<path d="M56.4192 43.9519V40.9697L54.9381 43.4492H54.6627L53.1794 40.9697V43.9339H52.6172V39.8584H53.0981L54.7981 42.7369L56.4869 39.8584H56.9656V43.9519H56.4192Z" fill="white"/>
<path d="M62.6979 42.9285H60.5192L60.0677 43.9519H59.4648L61.3207 39.8584H61.9009L63.7635 43.9519H63.1494L62.6979 42.9285ZM62.4924 42.4619L61.6074 40.4557L60.7224 42.4619H62.4924Z" fill="white"/>
<path d="M68.9289 40.3678H66.8202V43.9519H66.2422V39.8584H68.9289V40.3678Z" fill="white"/>
<path d="M73.2877 42.9285H71.109L70.6575 43.9519H70.0547L71.9128 39.8584H72.4908L74.3534 43.9519H73.7393L73.2877 42.9285ZM73.0823 42.4619L72.1995 40.4557L71.3145 42.4619H73.0823Z" fill="white"/>
<path d="M79.403 42.1818C79.5456 42.3612 79.622 42.5841 79.6195 42.8131C79.6171 43.0421 79.5359 43.2633 79.3895 43.4396C79.2247 43.6292 79.013 43.7722 78.7754 43.8543C78.508 43.9527 78.2249 44.0016 77.94 43.9986C77.6636 43.9984 77.3889 43.9566 77.125 43.8746C76.8596 43.7955 76.6098 43.6712 76.3867 43.5072L76.5922 43.0744C76.7727 43.2145 76.9769 43.3214 77.195 43.39C77.414 43.4598 77.6424 43.4955 77.8723 43.4959C78.1611 43.5057 78.4467 43.4338 78.6964 43.2886C78.7986 43.2326 78.8836 43.15 78.9425 43.0496C79.0013 42.9491 79.0318 42.8346 79.0305 42.7183C79.0343 42.624 79.0132 42.5304 78.9692 42.4469C78.9252 42.3634 78.8599 42.2929 78.7799 42.2426C78.565 42.1189 78.3185 42.0609 78.071 42.0758H77.1453V41.6002H78.019C78.2349 41.6135 78.4493 41.5574 78.6309 41.4402C78.7037 41.3903 78.7626 41.3227 78.8021 41.2438C78.8415 41.165 78.8603 41.0774 78.8567 40.9893C78.8584 40.8867 78.8327 40.7854 78.7823 40.6959C78.732 40.6064 78.6587 40.5318 78.5699 40.4799C78.351 40.3482 78.0984 40.2831 77.8429 40.2928C77.4437 40.296 77.0531 40.4091 76.7141 40.6197L76.5267 40.1395C76.7326 40.0243 76.9527 39.9364 77.1814 39.8781C77.4071 39.82 77.6392 39.7905 77.8723 39.7902C78.1437 39.7875 78.4135 39.8325 78.6693 39.9231C78.8925 40.0007 79.0912 40.1361 79.245 40.3154C79.3882 40.4837 79.4645 40.6987 79.4595 40.9195C79.4626 41.1143 79.4024 41.3049 79.2879 41.4627C79.1659 41.6233 78.9995 41.7448 78.8092 41.8121C79.0401 41.8725 79.2472 42.0014 79.403 42.1818Z" fill="white"/>
<path d="M82.375 39.8584H82.953V43.0142L85.3778 39.8584H85.9174V43.9519H85.3439V40.7961L82.9123 43.9519H82.375V39.8584Z" fill="white"/>
<path d="M92.5025 39.8584V43.9519H91.9178V42.1351H89.5675V43.9586H88.9805V39.8584H89.5675V41.6189H91.9223V39.8584H92.5025Z" fill="white"/>
<path d="M99.6213 43.7266C99.2981 43.5536 99.0293 43.2946 98.8446 42.9783C98.6597 42.6508 98.5625 42.2812 98.5625 41.9053C98.5625 41.5294 98.6597 41.1598 98.8446 40.8323C99.0308 40.5164 99.3003 40.2576 99.6236 40.084C99.9291 39.9271 100.264 39.8363 100.607 39.8172C100.95 39.7982 101.294 39.8515 101.615 39.9735C101.874 40.0783 102.106 40.241 102.292 40.4491L101.911 40.8188C101.764 40.6607 101.585 40.5355 101.386 40.4516C101.187 40.3676 100.973 40.3268 100.757 40.3319C100.468 40.3286 100.184 40.3992 99.9306 40.537C99.6898 40.6686 99.4905 40.8645 99.3549 41.1028C99.2187 41.3488 99.1473 41.6253 99.1473 41.9064C99.1473 42.1875 99.2187 42.464 99.3549 42.71C99.4905 42.9477 99.6899 43.1429 99.9306 43.2735C100.184 43.4124 100.468 43.4831 100.757 43.4787C100.973 43.4826 101.188 43.4409 101.386 43.3562C101.585 43.2715 101.764 43.1458 101.911 42.9873L102.292 43.3569C102.106 43.566 101.874 43.7296 101.615 43.8348C101.334 43.9472 101.034 44.0031 100.732 43.9994C100.345 44.0052 99.962 43.9112 99.6213 43.7266Z" fill="white"/>
<path d="M108.062 42.1823C108.209 42.3678 108.284 42.5998 108.274 42.836C108.282 42.9947 108.25 43.1529 108.182 43.2967C108.115 43.4405 108.013 43.5656 107.886 43.661C107.55 43.8753 107.154 43.9772 106.757 43.9518H104.883V39.8583H106.644C107.014 39.8373 107.382 39.9327 107.696 40.1311C107.819 40.219 107.919 40.3366 107.984 40.4729C108.05 40.6092 108.081 40.7599 108.073 40.911C108.08 41.1134 108.021 41.3126 107.906 41.479C107.788 41.6404 107.624 41.7629 107.436 41.8307C107.677 41.8781 107.896 42.0013 108.062 42.1823ZM105.456 41.6594H106.599C106.829 41.6745 107.059 41.6153 107.253 41.4903C107.324 41.4281 107.381 41.3515 107.42 41.2656C107.459 41.1797 107.479 41.0865 107.479 40.9922C107.479 40.8978 107.459 40.8046 107.42 40.7187C107.381 40.6328 107.324 40.5562 107.253 40.494C107.061 40.3669 106.833 40.306 106.603 40.3204H105.461L105.456 41.6594ZM107.682 42.7864C107.69 42.6871 107.672 42.5875 107.63 42.4969C107.589 42.4063 107.525 42.3276 107.445 42.268C107.233 42.143 106.987 42.0849 106.741 42.1012H105.456V43.4875H106.741C107.369 43.4875 107.682 43.2545 107.682 42.7887V42.7864Z" fill="white"/>
<path d="M113.996 43.4447V43.9519H111.012V39.8584H113.906V40.3678H111.608V41.6256H113.662V42.1215H111.608V43.4447H113.996Z" fill="white"/>
<path d="M119.509 40.3678H118.104V43.9519H117.529V40.3678H116.129V39.8584H119.515L119.509 40.3678Z" fill="white"/>
<path d="M122 39.8584H122.578V43.0142L125.003 39.8584H125.542V43.9519H124.969V40.7961L122.537 43.9519H122V39.8584Z" fill="white"/>
<path d="M131.886 39.8584V43.9519H131.312V40.3678H129.506L129.465 41.567C129.458 42.0276 129.412 42.4868 129.328 42.9398C129.284 43.2289 129.166 43.502 128.987 43.7333C128.907 43.8218 128.809 43.8917 128.7 43.9377C128.59 43.9837 128.471 44.0047 128.352 43.9992C128.228 43.9988 128.105 43.9829 127.984 43.9519L128.025 43.4312C128.086 43.4471 128.149 43.4554 128.212 43.456C128.291 43.4581 128.369 43.4406 128.44 43.4052C128.51 43.3698 128.571 43.3176 128.617 43.2531C128.737 43.0714 128.814 42.8648 128.842 42.649C128.903 42.2974 128.936 41.9417 128.942 41.5851L129.007 39.8584H131.886Z" fill="white"/>
<path d="M137.86 41.6144C137.994 41.7351 138.099 41.8847 138.167 42.0519C138.234 42.219 138.263 42.3993 138.251 42.5791C138.263 42.7701 138.232 42.9614 138.159 43.1387C138.087 43.3159 137.975 43.4745 137.833 43.6025C137.487 43.8558 137.062 43.9795 136.634 43.9519H134.945V39.8584H135.526V41.2853H136.751C137.148 41.2615 137.541 41.378 137.86 41.6144ZM137.393 43.2599C137.487 43.1753 137.56 43.0704 137.607 42.9532C137.655 42.8361 137.675 42.7097 137.666 42.5836C137.666 42.0216 137.314 41.7406 136.612 41.7406H135.521V43.4875H136.612C136.89 43.5071 137.167 43.4272 137.393 43.2621V43.2599Z" fill="white"/>
<path d="M144.426 39.8584V43.9519H143.839V42.1351H141.475V43.9586H140.891V39.8584H141.475V41.6189H143.83V39.8584H144.426Z" fill="white"/>
<path d="M147.47 39.8584H148.041V43.0142L150.466 39.8584H151.003V43.9519H150.43V40.7961L148.001 43.9519H147.461L147.47 39.8584Z" fill="white"/>
<path d="M155.488 42.1508H154.632V43.9541H154.059V39.8584H154.632V41.6369H155.499L156.788 39.8584H157.414L155.951 41.842L157.484 43.9519H156.806L155.488 42.1508Z" fill="white"/>
<path d="M160.585 43.7266C160.261 43.5528 159.99 43.2931 159.804 42.976C159.618 42.6502 159.52 42.2816 159.52 41.9064C159.52 41.5312 159.618 41.1625 159.804 40.8368C159.991 40.5197 160.261 40.2595 160.585 40.0839C160.93 39.9062 161.313 39.8135 161.701 39.8135C162.089 39.8135 162.471 39.9062 162.816 40.0839C163.139 40.2576 163.409 40.5164 163.595 40.8323C163.78 41.1597 163.877 41.5293 163.877 41.9052C163.877 42.2812 163.78 42.6508 163.595 42.9782C163.409 43.2946 163.14 43.5536 162.816 43.7266C162.472 43.9057 162.089 43.9993 161.701 43.9993C161.312 43.9993 160.93 43.9057 160.585 43.7266ZM162.516 43.2758C162.752 43.1428 162.948 42.948 163.082 42.7122C163.219 42.4662 163.29 42.1897 163.29 41.9086C163.29 41.6275 163.219 41.3511 163.082 41.105C162.948 40.8687 162.752 40.6731 162.516 40.5393C162.268 40.4015 161.989 40.3308 161.705 40.3341C161.42 40.3307 161.138 40.4014 160.888 40.5393C160.648 40.6714 160.448 40.8672 160.312 41.105C160.176 41.3511 160.105 41.6275 160.105 41.9086C160.105 42.1897 160.176 42.4662 160.312 42.7122C160.448 42.9494 160.648 43.1444 160.888 43.2758C161.138 43.4146 161.419 43.4853 161.705 43.4809C161.989 43.4846 162.269 43.4131 162.516 43.2735V43.2758Z" fill="white"/>
<path d="M169.773 42.1823C169.925 42.3659 170.005 42.598 169.999 42.836C170.006 42.9948 169.974 43.153 169.906 43.2968C169.838 43.4406 169.736 43.5656 169.608 43.661C169.273 43.8755 168.877 43.9774 168.479 43.9517H166.605V39.8583H168.353C168.724 39.8375 169.091 39.9329 169.405 40.131C169.528 40.219 169.628 40.3365 169.694 40.4728C169.759 40.6091 169.79 40.7598 169.782 40.9109C169.788 41.1132 169.73 41.3121 169.615 41.479C169.496 41.6404 169.332 41.7628 169.143 41.8306C169.386 41.8759 169.607 41.9994 169.773 42.1823ZM167.17 41.6593H168.312C168.542 41.6743 168.771 41.615 168.965 41.4902C169.04 41.4321 169.1 41.3566 169.139 41.2702C169.179 41.1838 169.196 41.0891 169.191 40.9943C169.196 40.8989 169.179 40.8035 169.139 40.7164C169.1 40.6292 169.04 40.5529 168.965 40.4939C168.773 40.3675 168.544 40.3066 168.315 40.3204H167.172L167.17 41.6593ZM169.396 42.7864C169.405 42.688 169.388 42.5891 169.349 42.4985C169.31 42.408 169.248 42.3287 169.17 42.2679C168.957 42.143 168.711 42.0849 168.464 42.1011H167.181V43.4874H168.464C169.08 43.4874 169.396 43.262 169.396 42.7886V42.7864Z" fill="white"/>
<path d="M31.7402 14.8586H27V13.1436H38.4372V14.8586H33.6955V26.9537H31.7402V14.8586Z" fill="white"/>
<path d="M49.141 22.3523H40.647C40.6922 22.7841 40.8228 23.2025 41.0313 23.5835C41.2398 23.9644 41.522 24.3002 41.8615 24.5713C42.5521 25.1296 43.4115 25.4087 44.4397 25.4087C45.6905 25.4087 46.698 24.9879 47.4621 24.1464L48.5089 25.3699C48.0286 25.9257 47.4221 26.3585 46.7399 26.6321C45.9896 26.9298 45.188 27.0773 44.3807 27.0663C43.3558 27.087 42.3417 26.8531 41.4297 26.3856C40.5981 25.9559 39.9087 25.2951 39.4448 24.4829C38.9702 23.6406 38.728 22.6876 38.7428 21.7212C38.7288 20.7639 38.9637 19.8192 39.4247 18.9797C39.8607 18.1836 40.5104 17.5247 41.3008 17.077C42.1239 16.617 43.054 16.3822 43.9971 16.3963C44.934 16.3804 45.858 16.6154 46.6731 17.077C47.4524 17.5264 48.0891 18.1858 48.5105 18.9797C48.9631 19.8429 49.1906 20.806 49.1721 21.7801C49.1719 21.9713 49.1616 22.1623 49.141 22.3523ZM41.7233 18.823C41.1051 19.3867 40.721 20.1614 40.647 20.994H47.3627C47.2837 20.1659 46.9002 19.3963 46.2864 18.8339C45.6623 18.2717 44.845 17.9717 44.0048 17.9965C43.1664 17.9703 42.3498 18.2662 41.7233 18.823Z" fill="white"/>
<path d="M59.1528 17.4621C59.9231 18.1723 60.3083 19.2309 60.3083 20.6379V26.9475H58.5082V25.5674C58.1782 26.065 57.7073 26.4531 57.1554 26.6823C56.4946 26.9526 55.785 27.0835 55.0711 27.0669C53.898 27.0669 52.9599 26.7842 52.2569 26.2187C51.9302 25.9488 51.6664 25.6111 51.4838 25.229C51.3012 24.847 51.2041 24.4298 51.1994 24.0065C51.1947 23.5833 51.2824 23.164 51.4564 22.778C51.6305 22.392 51.8866 22.0485 52.2072 21.7714C52.8781 21.2132 53.9446 20.9335 55.4066 20.9325H58.4088V20.5588C58.4088 19.7431 58.1717 19.1187 57.6975 18.6856C57.2233 18.2524 56.5254 18.0354 55.6039 18.0343C54.9851 18.0361 54.3709 18.141 53.7867 18.3445C53.2407 18.5235 52.7322 18.801 52.2864 19.1632L51.4958 17.7428C52.0712 17.2904 52.7281 16.9524 53.431 16.7473C54.2061 16.5138 55.0117 16.3973 55.8213 16.4015C57.2709 16.3984 58.3814 16.7519 59.1528 17.4621ZM57.2642 25.1208C57.7873 24.8031 58.1899 24.321 58.4088 23.75V22.2909H55.4858C53.8789 22.2909 53.0754 22.83 53.0754 23.9082C53.0673 24.1495 53.119 24.389 53.2261 24.6054C53.3331 24.8218 53.4921 25.0085 53.6889 25.1487C54.0958 25.4506 54.6616 25.602 55.3864 25.6031C56.0452 25.6208 56.6957 25.4537 57.2642 25.1208Z" fill="white"/>
<path d="M80.538 17.541C81.3084 18.3039 81.6936 19.4343 81.6936 20.9322V26.9472H79.7972V21.1493C79.7972 20.1383 79.5637 19.3759 79.0967 18.8621C78.6298 18.3483 77.9614 18.0899 77.0916 18.0868C76.1308 18.0868 75.3672 18.3861 74.8008 18.9846C74.2344 19.5832 73.9512 20.4407 73.9512 21.5572V26.941H72.0548V21.1493C72.0548 20.1383 71.8214 19.3759 71.3544 18.8621C70.8874 18.3483 70.2191 18.0899 69.3493 18.0868C68.3874 18.0868 67.6233 18.3861 67.0569 18.9846C66.4905 19.5832 66.2078 20.4407 66.2089 21.5572V26.941H64.3125V16.4896H66.1297V18.048C66.5087 17.5071 67.0271 17.0785 67.63 16.8075C68.2956 16.5152 69.0167 16.3702 69.7438 16.3826C70.4979 16.3689 71.244 16.5381 71.9182 16.8757C72.5413 17.1956 73.0513 17.6983 73.3797 18.3163C73.7881 17.7003 74.3589 17.2088 75.0291 16.8959C75.7731 16.5455 76.5875 16.3699 77.41 16.3826C78.725 16.3919 79.7677 16.778 80.538 17.541Z" fill="white"/>
<path d="M85.9609 13.1436H87.9365V25.2387H95.4226V26.9537H85.9609V13.1436Z" fill="white"/>
<path d="M104.026 17.4482V19.6347L97.9102 21.8211V19.6006L104.026 17.4482Z" fill="white"/>
<path d="M103.155 24.3145C103.155 24.3145 103.586 26.5443 101.626 27.1909C101.626 27.1909 99.5491 27.6406 99.0195 25.8108L103.155 24.3145Z" fill="white"/>
<path d="M97.9172 18.5164C99.4704 18.0341 108.106 16.5207 109.021 9.25897C109.382 6.39026 108.258 0 100.691 0C91.8243 0 88.9169 12.6952 97.9172 15.6616L97.9747 13.5869C97.9747 13.5869 94.4351 11.9742 94.6805 7.74243C94.9026 3.91541 98.408 2.1306 100.893 2.1306C102.875 2.1306 107.189 3.59752 106.64 9.26363C106.64 9.26363 106.185 14.3544 97.9204 16.3377L97.9172 18.5164Z" fill="#84B739"/>
<path d="M119.255 16.4963V25.5289C119.255 27.3556 118.8 28.7062 117.891 29.5807C116.982 30.4553 115.625 30.8926 113.819 30.8926C112.863 30.8971 111.912 30.7607 110.995 30.4879C110.194 30.2694 109.451 29.8753 108.821 29.3342L109.73 27.875C110.262 28.3209 110.876 28.659 111.538 28.8705C112.253 29.1139 113.003 29.2376 113.758 29.2365C114.983 29.2365 115.889 28.947 116.475 28.3681C117.061 27.7892 117.354 26.9105 117.354 25.732V24.904C116.913 25.4378 116.346 25.8544 115.705 26.1166C115.03 26.3889 114.309 26.5249 113.581 26.5166C112.638 26.5291 111.705 26.308 110.868 25.8731C110.078 25.4642 109.418 24.8427 108.962 24.079C108.508 23.2744 108.27 22.3665 108.27 21.4429C108.27 20.5193 108.508 19.6113 108.962 18.8068C109.418 18.0469 110.078 17.4305 110.868 17.0282C111.709 16.6004 112.641 16.3838 113.585 16.3971C114.341 16.3908 115.09 16.5386 115.787 16.8312C116.446 17.1058 117.021 17.548 117.455 18.1136V16.4963H119.255ZM115.65 24.4248C116.183 24.1473 116.628 23.7268 116.935 23.2106C117.249 22.6761 117.41 22.0657 117.401 21.446C117.401 20.4329 117.065 19.6147 116.394 18.9913C115.723 18.3679 114.861 18.0578 113.807 18.0609C112.74 18.0609 111.871 18.371 111.199 18.9913C110.527 19.6116 110.191 20.4298 110.191 21.446C110.181 22.0657 110.343 22.6761 110.657 23.2106C110.963 23.7272 111.408 24.1477 111.941 24.4248C112.519 24.7095 113.154 24.8576 113.798 24.8576C114.442 24.8576 115.077 24.7095 115.655 24.4248H115.65Z" fill="white"/>
<path d="M132.119 17.5504C132.903 18.3196 133.295 19.4469 133.295 20.9324V26.9474H131.398V21.1495C131.398 20.1385 131.155 19.3761 130.668 18.8623C130.182 18.3485 129.484 18.0901 128.575 18.087C127.547 18.087 126.736 18.3863 126.144 18.9848C125.552 19.5834 125.256 20.4409 125.256 21.5573V26.9412H123.359V12.3154H125.256V17.9753C125.667 17.4631 126.201 17.0626 126.809 16.8108C127.487 16.5269 128.217 16.3859 128.952 16.3968C130.28 16.3968 131.335 16.7813 132.119 17.5504Z" fill="white"/>
<path d="M143.189 26.3367C142.888 26.5866 142.537 26.7714 142.161 26.8794C141.751 27.0042 141.325 27.0674 140.897 27.067C139.844 27.067 139.027 26.7843 138.447 26.2188C137.867 25.6533 137.579 24.8444 137.581 23.792V18.0546H135.801V16.4962H137.581V14.209H139.475V16.4962H142.478V18.0546H139.475V23.7145C139.475 24.2789 139.617 24.7126 139.899 25.0155C140.182 25.3184 140.587 25.4693 141.114 25.4683C141.65 25.4833 142.175 25.3092 142.596 24.9767L143.189 26.3367Z" fill="white"/>
<path d="M104.026 20.6963V22.8827L97.9102 25.0691V22.8486L104.026 20.6963Z" fill="white"/>
</g>
<defs>
<clipPath id="clip0">
<rect width="170" height="44" fill="white"/>
</clipPath>
</defs>
</svg>
