<svg width="16" height="16" viewBox="0 0 16 16" fill="none" xmlns="http://www.w3.org/2000/svg">
<path d="M15.1464 3.65025H12.927C13.2893 3.25744 13.5112 2.73313 13.5112 2.15784C13.5112 2.15784 13.5107 2.07003 13.5099 2.04497C13.4859 1.33503 13.0987 0.701904 12.4743 0.351215C11.8372 -0.00647283 11.0782 -0.00637907 10.4441 0.351559L9.43468 0.921217C8.80252 1.278 8.3078 1.81575 8.00002 2.44806C7.69223 1.81575 7.19751 1.278 6.56539 0.921248L5.55601 0.351528C4.92185 -0.00637907 4.16288 -0.00650406 3.52579 0.351184C2.90132 0.701841 2.51416 1.335 2.49019 2.04494C2.48935 2.07 2.48891 2.15781 2.48891 2.15781C2.48891 2.7331 2.71076 3.25741 3.0731 3.65025H0.853627C0.382938 3.65025 0 4.03322 0 4.50391V6.52998C0 7.00067 0.382938 7.3836 0.853627 7.3836H1.24444V15.0633C1.24444 15.534 1.62738 15.917 2.09807 15.917H13.9019C14.3726 15.917 14.7556 15.534 14.7556 15.0633V7.38357H15.1464C15.6171 7.38357 16 7.00063 16 6.52995V4.50388C16 4.03322 15.6171 3.65025 15.1464 3.65025ZM9.78418 1.5405L10.7936 0.970842C11.2095 0.736091 11.7076 0.736279 12.1261 0.971279C12.5321 1.19919 12.7837 1.60953 12.7992 2.069C12.7997 2.08606 12.8 2.15784 12.8 2.15784C12.8 2.98078 12.1305 3.65028 11.3076 3.65028H8.37589C8.48249 2.77066 9.00174 1.98206 9.78418 1.5405ZM3.20085 2.06897C3.21638 1.60953 3.46798 1.19919 3.87388 0.971248C4.08332 0.853654 4.31257 0.794904 4.54157 0.794904C4.77023 0.794904 4.99863 0.853529 5.20642 0.970842L6.21579 1.5405C6.99823 1.98206 7.51748 2.77066 7.62405 3.65022H4.69238C3.86948 3.65022 3.19998 2.98072 3.19998 2.15781C3.20001 2.15784 3.20029 2.08603 3.20085 2.06897ZM6.40004 8.46523H4.93623C4.73985 8.46523 4.58067 8.62445 4.58067 8.82079C4.58067 9.01714 4.73985 9.17636 4.93623 9.17636H6.40004V15.2058H2.09807C2.01947 15.2058 1.95557 15.1419 1.95557 15.0634V7.38357H6.40004V8.46523V8.46523ZM6.40004 6.67251H0.853627C0.775033 6.67248 0.711126 6.60857 0.711126 6.53001V4.50394C0.711126 4.42532 0.775064 4.36141 0.853627 4.36141H6.40004V6.67251V6.67251ZM8.88883 15.2058H7.11117V4.36135H8.88883V15.2058ZM14.0445 15.0633C14.0445 15.1419 13.9805 15.2058 13.902 15.2058H9.59996V9.17633H10.9548C11.1512 9.17633 11.3104 9.01711 11.3104 8.82076C11.3104 8.62442 11.1512 8.4652 10.9548 8.4652H9.59996V7.38357H14.0445V15.0633H14.0445ZM15.2889 6.53001C15.2889 6.60857 15.225 6.67251 15.1464 6.67251H9.59996V4.36138H15.1464C15.225 4.36138 15.2889 4.42532 15.2889 4.50391V6.53001H15.2889Z" fill="white"/>
<path d="M12.6436 9.17597H12.6792C12.8756 9.17597 13.0348 9.01675 13.0348 8.82041C13.0348 8.62406 12.8756 8.46484 12.6792 8.46484H12.6436C12.4473 8.46484 12.2881 8.62406 12.2881 8.82041C12.2881 9.01675 12.4473 9.17597 12.6436 9.17597Z" fill="white"/>
<path d="M3.21201 9.17597H3.24757C3.44395 9.17597 3.60313 9.01675 3.60313 8.82041C3.60313 8.62406 3.44392 8.46484 3.24757 8.46484H3.21201C3.01563 8.46484 2.85645 8.62406 2.85645 8.82041C2.85645 9.01675 3.01563 9.17597 3.21201 9.17597Z" fill="white"/>
</svg>
