<svg width="20" height="22" viewBox="0 0 20 22" fill="none" xmlns="http://www.w3.org/2000/svg">
<path d="M9.92119 11.8542C9.94397 11.8542 9.96675 11.8542 9.99408 11.8542C10.0032 11.8542 10.0123 11.8542 10.0214 11.8542C10.0351 11.8542 10.0533 11.8542 10.067 11.8542C11.4018 11.8314 12.4816 11.3622 13.2788 10.4647C15.0328 8.48747 14.7412 5.09795 14.7093 4.77449C14.5954 2.34624 13.4474 1.18451 12.4998 0.642369C11.7936 0.236902 10.969 0.0182232 10.0488 0H10.0169C10.0123 0 10.0032 0 9.99864 0H9.9713C9.46561 0 8.47244 0.0820046 7.52028 0.624146C6.56356 1.16629 5.39727 2.32802 5.28338 4.77449C5.25149 5.09795 4.95992 8.48747 6.7139 10.4647C7.50661 11.3622 8.58634 11.8314 9.92119 11.8542ZM6.49978 4.88838C6.49978 4.87472 6.50433 4.86105 6.50433 4.85194C6.65468 1.58542 8.97358 1.23462 9.96675 1.23462H9.98497C9.99408 1.23462 10.0077 1.23462 10.0214 1.23462C11.2515 1.26196 13.3426 1.7631 13.4838 4.85194C13.4838 4.8656 13.4838 4.87927 13.4884 4.88838C13.4929 4.92027 13.8118 8.01822 12.3631 9.6492C11.7891 10.2961 11.0237 10.615 10.0169 10.6241C10.0077 10.6241 10.0032 10.6241 9.99408 10.6241C9.98497 10.6241 9.98041 10.6241 9.9713 10.6241C8.96903 10.615 8.19909 10.2961 7.62962 9.6492C6.18543 8.02734 6.49522 4.91572 6.49978 4.88838Z" fill="#8B8B8B"/>
<path d="M19.3565 17.476C19.3565 17.4714 19.3565 17.4669 19.3565 17.4623C19.3565 17.4259 19.3519 17.3894 19.3519 17.3484C19.3246 16.4464 19.2654 14.337 17.2881 13.6628C17.2745 13.6582 17.2563 13.6536 17.2426 13.6491C15.1879 13.1252 13.4795 11.9407 13.4613 11.927C13.1834 11.7311 12.8007 11.7994 12.6048 12.0773C12.4089 12.3552 12.4772 12.7379 12.7551 12.9338C12.8326 12.9885 14.6458 14.2505 16.9146 14.8336C17.9761 15.2117 18.0945 16.3461 18.1264 17.3849C18.1264 17.4259 18.1264 17.4623 18.131 17.4988C18.1355 17.9088 18.1082 18.542 18.0353 18.9065C17.2973 19.3256 14.4043 20.7744 10.0034 20.7744C5.62071 20.7744 2.70955 19.3211 1.96696 18.9019C1.89406 18.5375 1.86217 17.9042 1.87128 17.4942C1.87128 17.4577 1.87584 17.4213 1.87584 17.3803C1.90773 16.3416 2.02618 15.2072 3.08768 14.829C5.35648 14.2459 7.16969 12.9794 7.24714 12.9293C7.52504 12.7334 7.59338 12.3507 7.39748 12.0728C7.20158 11.7949 6.81889 11.7265 6.54099 11.9224C6.52276 11.9361 4.82345 13.1206 2.75967 13.6445C2.74144 13.6491 2.72778 13.6536 2.71411 13.6582C0.736887 14.337 0.677662 16.4464 0.650327 17.3439C0.650327 17.3849 0.650327 17.4213 0.645771 17.4577C0.645771 17.4623 0.645771 17.4669 0.645771 17.4714C0.641215 17.7083 0.63666 18.9247 0.878118 19.5352C0.923676 19.6537 1.00568 19.7539 1.11502 19.8222C1.25169 19.9133 4.52732 21.9999 10.008 21.9999C15.4886 21.9999 18.7642 19.9088 18.9009 19.8222C19.0057 19.7539 19.0922 19.6537 19.1378 19.5352C19.3656 18.9293 19.361 17.7129 19.3565 17.476Z" fill="#8B8B8B"/>
</svg>
