<svg width="140" height="36" viewBox="0 0 140 36" fill="none" xmlns="http://www.w3.org/2000/svg">
<g clip-path="url(#clip0)">
<path d="M0.984375 32.6113H1.46221V35.1933L3.4591 32.6113H3.90161V35.9606H3.42935V33.3786L1.43247 35.9606H0.984375V32.6113Z" fill="white"/>
<path d="M9.31643 32.6113V35.9606H8.83487V34.4741H6.89562V35.9661H6.41406V32.6113H6.89562V34.0517H8.83487V32.6113H9.31643Z" fill="white"/>
<path d="M14.1506 33.0281H12.9922V35.9606H12.52V33.0281H11.3672V32.6113H14.1561L14.1506 33.0281Z" fill="white"/>
<path d="M18.6537 35.5456V35.9606H16.2031V32.6113H18.5849V33.0281H16.681V34.0573H18.3748V34.463H16.681V35.5456H18.6537Z" fill="white"/>
<path d="M23.2194 32.9234C23.3384 33.0327 23.4334 33.1652 23.4983 33.3127C23.5632 33.4601 23.5968 33.6192 23.5968 33.7801C23.5968 33.941 23.5632 34.1001 23.4983 34.2475C23.4334 34.395 23.3384 34.5275 23.2194 34.6368C22.9232 34.8578 22.5576 34.9676 22.1875 34.9466H21.3527V35.961H20.8711V32.6118H22.1875C22.5578 32.5914 22.9234 32.7019 23.2194 32.9234ZM22.8717 34.338C22.9466 34.2663 23.0062 34.1803 23.0468 34.0853C23.0875 33.9902 23.1085 33.888 23.1085 33.7847C23.1085 33.6814 23.0875 33.5792 23.0468 33.4842C23.0062 33.3891 22.9466 33.3032 22.8717 33.2314C22.668 33.0891 22.4211 33.0207 22.1726 33.0378H21.3527V34.5409H22.1726C22.4222 34.5553 22.6692 34.4836 22.8717 34.338Z" fill="white"/>
<path d="M28.6269 32.6113V35.9606H28.1435V34.4741H26.2061V35.9661H25.7227V32.6113H26.2061V34.0517H28.1435V32.6113H28.6269Z" fill="white"/>
<path d="M33.6007 35.5456V35.9606H31.1445V32.6113H33.5282V33.0281H31.628V34.0573H33.3199V34.463H31.628V35.5456H33.6007Z" fill="white"/>
<path d="M38.131 33.0281H36.9727V35.9606H36.5004V33.0281H35.3477V32.6113H38.1366L38.131 33.0281Z" fill="white"/>
<path d="M39.7695 34.4482H41.071V34.8429H39.7695V34.4482Z" fill="white"/>
<path d="M46.4592 35.9606V33.5206L45.2395 35.5493H45.0126L43.7911 33.5206V35.9458H43.3281V32.6113H43.7242L45.1242 34.9665L46.515 32.6113H46.9091V35.9606H46.4592Z" fill="white"/>
<path d="M51.6313 35.1233H49.837L49.4652 35.9606H48.9688L50.4971 32.6113H50.9749L52.5089 35.9606H52.0031L51.6313 35.1233ZM51.4621 34.7415L50.7332 33.1001L50.0044 34.7415H51.4621Z" fill="white"/>
<path d="M56.7633 33.0281H55.0268V35.9606H54.5508V32.6113H56.7633V33.0281Z" fill="white"/>
<path d="M60.3539 35.1233H58.5597L58.1878 35.9606H57.6914L59.2216 32.6113H59.6976L61.2315 35.9606H60.7258L60.3539 35.1233ZM60.1847 34.7415L59.4577 33.1001L58.7289 34.7415H60.1847Z" fill="white"/>
<path d="M65.3903 34.5125C65.5077 34.6593 65.5706 34.8417 65.5686 35.0291C65.5666 35.2164 65.4997 35.3974 65.3791 35.5416C65.2435 35.6968 65.0691 35.8138 64.8734 35.881C64.6532 35.9615 64.4201 36.0015 64.1854 35.999C63.9578 35.9989 63.7316 35.9647 63.5142 35.8976C63.2956 35.8328 63.09 35.7311 62.9062 35.597L63.0754 35.2429C63.2242 35.3575 63.3923 35.4449 63.5719 35.5011C63.7522 35.5582 63.9404 35.5874 64.1297 35.5878C64.3675 35.5958 64.6027 35.537 64.8083 35.4181C64.8925 35.3723 64.9625 35.3047 65.011 35.2226C65.0595 35.1404 65.0845 35.0467 65.0835 34.9515C65.0866 34.8743 65.0692 34.7977 65.033 34.7294C64.9967 34.6611 64.943 34.6035 64.8771 34.5623C64.7002 34.4611 64.4972 34.4137 64.2933 34.4259H63.531V34.0367H64.2505C64.4283 34.0476 64.6049 34.0017 64.7544 33.9058C64.8143 33.8649 64.8628 33.8097 64.8954 33.7451C64.9279 33.6806 64.9433 33.609 64.9403 33.5369C64.9417 33.4529 64.9206 33.3701 64.8791 33.2968C64.8376 33.2236 64.7773 33.1626 64.7042 33.1201C64.5239 33.0123 64.3158 32.9591 64.1055 32.967C63.7767 32.9696 63.455 33.0622 63.1758 33.2345L63.0215 32.8416C63.1911 32.7473 63.3724 32.6754 63.5607 32.6277C63.7466 32.5802 63.9377 32.5561 64.1297 32.5558C64.3532 32.5536 64.5754 32.5904 64.786 32.6646C64.9699 32.7281 65.1335 32.8388 65.2601 32.9855C65.378 33.1232 65.4409 33.2991 65.4368 33.4797C65.4393 33.6392 65.3897 33.7951 65.2955 33.9242C65.195 34.0556 65.058 34.155 64.9013 34.2101C65.0914 34.2595 65.2619 34.3649 65.3903 34.5125Z" fill="white"/>
<path d="M67.8359 32.6113H68.3119V35.1933L70.3088 32.6113H70.7532V35.9606H70.2809V33.3786L68.2785 35.9606H67.8359V32.6113Z" fill="white"/>
<path d="M76.1779 32.6113V35.9606H75.6963V34.4741H73.7608V35.9661H73.2773V32.6113H73.7608V34.0517H75.7V32.6113H76.1779Z" fill="white"/>
<path d="M82.0399 35.7769C81.7738 35.6353 81.5524 35.4234 81.4003 35.1646C81.248 34.8966 81.168 34.5943 81.168 34.2867C81.168 33.9791 81.248 33.6767 81.4003 33.4088C81.5537 33.1504 81.7755 32.9386 82.0418 32.7965C82.2934 32.6682 82.5695 32.5938 82.852 32.5783C83.1346 32.5627 83.4172 32.6063 83.6817 32.7061C83.8951 32.7918 84.086 32.925 84.2394 33.0953L83.9252 33.3977C83.8044 33.2684 83.6571 33.1659 83.4934 33.0973C83.3296 33.0286 83.1529 32.9952 82.9751 32.9994C82.7376 32.9967 82.5033 33.0544 82.2946 33.1672C82.0963 33.2749 81.9322 33.4352 81.8205 33.6301C81.7084 33.8314 81.6495 34.0576 81.6495 34.2876C81.6495 34.5176 81.7084 34.7438 81.8205 34.9451C81.9322 35.1396 82.0964 35.2992 82.2946 35.4062C82.5029 35.5198 82.7375 35.5776 82.9751 35.574C83.1531 35.5772 83.3298 35.5431 83.4935 35.4738C83.6573 35.4045 83.8044 35.3016 83.9252 35.1719L84.2394 35.4744C84.0862 35.6455 83.8954 35.7793 83.6817 35.8654C83.4506 35.9573 83.2036 36.0031 82.9547 36C82.6355 36.0048 82.3205 35.9279 82.0399 35.7769Z" fill="white"/>
<path d="M88.989 34.5132C89.11 34.6649 89.172 34.8547 89.1638 35.048C89.17 35.1779 89.1442 35.3073 89.0884 35.4249C89.0327 35.5426 88.9488 35.6449 88.844 35.723C88.5675 35.8984 88.2418 35.9817 87.9143 35.9609H86.3711V32.6117H87.8214C88.1266 32.5945 88.4296 32.6725 88.6878 32.8349C88.7894 32.9068 88.8711 33.003 88.9253 33.1145C88.9796 33.2261 89.0047 33.3493 88.9983 33.473C89.0041 33.6386 88.9559 33.8016 88.8607 33.9378C88.7636 34.0698 88.629 34.17 88.474 34.2255C88.6723 34.2642 88.8528 34.3651 88.989 34.5132ZM86.8434 34.0853H87.7842C87.9742 34.0977 88.1632 34.0492 88.3234 33.947C88.3818 33.8961 88.4287 33.8334 88.4608 33.7631C88.4929 33.6928 88.5095 33.6166 88.5095 33.5394C88.5095 33.4622 88.4929 33.386 88.4608 33.3157C88.4287 33.2454 88.3818 33.1827 88.3234 33.1318C88.1653 33.0278 87.9772 32.978 87.7879 32.9898H86.8471L86.8434 34.0853ZM88.6766 35.0074C88.6827 34.9262 88.6679 34.8447 88.6338 34.7706C88.5997 34.6964 88.5473 34.632 88.4814 34.5833C88.3063 34.481 88.1041 34.4334 87.9013 34.4468H86.8434V35.581H87.9013C88.4182 35.581 88.6766 35.3904 88.6766 35.0093V35.0074Z" fill="white"/>
<path d="M93.8799 35.5456V35.9606H91.4219V32.6113H93.8055V33.0281H91.9127V34.0573H93.6047V34.463H91.9127V35.5456H93.8799Z" fill="white"/>
<path d="M98.4162 33.0281H97.2597V35.9606H96.7856V33.0281H95.6328V32.6113H98.4217L98.4162 33.0281Z" fill="white"/>
<path d="M100.469 32.6113H100.945V35.1933L102.942 32.6113H103.386V35.9606H102.914V33.3786L100.911 35.9606H100.469V32.6113Z" fill="white"/>
<path d="M108.611 32.6113V35.9606H108.139V33.0281H106.652L106.618 34.0093C106.612 34.3862 106.574 34.7618 106.505 35.1325C106.468 35.369 106.372 35.5925 106.224 35.7817C106.159 35.8541 106.078 35.9113 105.987 35.9489C105.897 35.9866 105.799 36.0038 105.702 35.9993C105.599 35.9989 105.497 35.9859 105.398 35.9606L105.432 35.5345C105.482 35.5475 105.534 35.5543 105.586 35.5548C105.651 35.5565 105.716 35.5422 105.774 35.5133C105.832 35.4843 105.882 35.4416 105.919 35.3888C106.018 35.2401 106.081 35.0711 106.105 34.8946C106.155 34.6069 106.182 34.3159 106.187 34.0241L106.241 32.6113H108.611Z" fill="white"/>
<path d="M113.529 34.048C113.64 34.1468 113.726 34.2692 113.782 34.406C113.837 34.5427 113.861 34.6902 113.851 34.8374C113.861 34.9937 113.835 35.1502 113.776 35.2952C113.716 35.4402 113.624 35.57 113.507 35.6747C113.222 35.8819 112.872 35.9831 112.52 35.9605H111.129V32.6113H111.607V33.7788H112.616C112.943 33.7593 113.266 33.8546 113.529 34.048ZM113.144 35.3944C113.222 35.3251 113.282 35.2393 113.321 35.1435C113.36 35.0476 113.377 34.9442 113.369 34.8411C113.369 34.3812 113.08 34.1513 112.501 34.1513H111.603V35.5806H112.501C112.731 35.5966 112.959 35.5313 113.144 35.3962V35.3944Z" fill="white"/>
<path d="M118.939 32.6113V35.9606H118.456V34.4741H116.509V35.9661H116.027V32.6113H116.509V34.0517H118.448V32.6113H118.939Z" fill="white"/>
<path d="M121.445 32.6113H121.915V35.1933L123.912 32.6113H124.355V35.9606H123.882V33.3786L121.882 35.9606H121.438L121.445 32.6113Z" fill="white"/>
<path d="M128.048 34.487H127.343V35.9624H126.871V32.6113H127.343V34.0665H128.057L129.119 32.6113H129.634L128.429 34.2343L129.692 35.9606H129.134L128.048 34.487Z" fill="white"/>
<path d="M132.245 35.7768C131.978 35.6347 131.755 35.4222 131.602 35.1627C131.448 34.8962 131.367 34.5945 131.367 34.2876C131.367 33.9806 131.448 33.6789 131.602 33.4125C131.756 33.153 131.978 32.9401 132.245 32.7965C132.529 32.6511 132.844 32.5752 133.163 32.5752C133.483 32.5752 133.798 32.6511 134.082 32.7965C134.348 32.9385 134.57 33.1503 134.723 33.4088C134.876 33.6767 134.956 33.9791 134.956 34.2866C134.956 34.5942 134.876 34.8966 134.723 35.1645C134.571 35.4234 134.349 35.6353 134.082 35.7768C133.798 35.9234 133.483 36 133.163 36C132.844 36 132.529 35.9234 132.245 35.7768ZM133.835 35.408C134.029 35.2992 134.191 35.1398 134.301 34.9469C134.413 34.7456 134.472 34.5194 134.472 34.2894C134.472 34.0594 134.413 33.8332 134.301 33.6319C134.191 33.4385 134.03 33.2785 133.835 33.169C133.631 33.0563 133.401 32.9984 133.167 33.0012C132.932 32.9984 132.7 33.0562 132.494 33.169C132.296 33.2771 132.132 33.4373 132.02 33.6319C131.908 33.8332 131.849 34.0594 131.849 34.2894C131.849 34.5194 131.908 34.7456 132.02 34.9469C132.132 35.1409 132.296 35.3005 132.494 35.408C132.7 35.5215 132.932 35.5794 133.167 35.5758C133.401 35.5789 133.631 35.5203 133.835 35.4061V35.408Z" fill="white"/>
<path d="M139.812 34.5131C139.937 34.6633 140.003 34.8533 139.998 35.0479C140.004 35.1779 139.977 35.3074 139.921 35.425C139.865 35.5427 139.781 35.645 139.676 35.723C139.4 35.8985 139.074 35.9819 138.746 35.9609H137.203V32.6117H138.642C138.947 32.5947 139.25 32.6727 139.509 32.8348C139.61 32.9068 139.692 33.003 139.746 33.1145C139.8 33.226 139.826 33.3493 139.819 33.4729C139.824 33.6384 139.776 33.8011 139.682 33.9377C139.584 34.0698 139.448 34.1699 139.293 34.2254C139.493 34.2624 139.675 34.3635 139.812 34.5131ZM137.668 34.0852H138.609C138.798 34.0975 138.987 34.049 139.146 33.9469C139.208 33.8994 139.257 33.8376 139.29 33.7669C139.322 33.6962 139.337 33.6187 139.332 33.5412C139.337 33.4631 139.322 33.385 139.29 33.3137C139.258 33.2424 139.208 33.18 139.146 33.1317C138.988 33.0283 138.8 32.9784 138.611 32.9897H137.67L137.668 34.0852ZM139.501 35.0074C139.508 34.9269 139.495 34.846 139.463 34.7719C139.43 34.6978 139.379 34.6329 139.315 34.5832C139.139 34.481 138.937 34.4334 138.733 34.4467H137.677V35.5809H138.733C139.241 35.5809 139.501 35.3965 139.501 35.0092V35.0074Z" fill="white"/>
<path d="M3.90365 12.1571H0V10.7539H9.41891V12.1571H5.51397V22.0531H3.90365V12.1571Z" fill="white"/>
<path d="M18.2356 18.2888H11.2405C11.2777 18.642 11.3853 18.9844 11.557 19.2961C11.7287 19.6078 11.9611 19.8825 12.2407 20.1043C12.8095 20.5611 13.5172 20.7895 14.364 20.7895C15.394 20.7895 16.2237 20.4452 16.853 19.7567L17.7151 20.7577C17.3195 21.2124 16.82 21.5666 16.2582 21.7905C15.6403 22.034 14.9802 22.1547 14.3153 22.1457C13.4713 22.1626 12.6362 21.9712 11.8852 21.5887C11.2003 21.2372 10.6325 20.6965 10.2505 20.032C9.85966 19.3428 9.66016 18.5631 9.67241 17.7724C9.66081 16.9892 9.85428 16.2163 10.2339 15.5293C10.593 14.878 11.128 14.3389 11.779 13.9726C12.4568 13.5962 13.2227 13.4041 13.9994 13.4157C14.771 13.4026 15.532 13.595 16.2032 13.9726C16.845 14.3403 17.3693 14.8798 17.7163 15.5293C18.0891 16.2356 18.2765 17.0236 18.2612 17.8207C18.2611 17.977 18.2525 18.1333 18.2356 18.2888ZM12.1269 15.4012C11.6178 15.8624 11.3015 16.4962 11.2405 17.1774H16.7711C16.706 16.4999 16.3903 15.8703 15.8847 15.4101C15.3708 14.9501 14.6977 14.7047 14.0058 14.725C13.3153 14.7035 12.6429 14.9456 12.1269 15.4012Z" fill="white"/>
<path d="M26.4758 14.2868C27.1102 14.8679 27.4274 15.734 27.4274 16.8852V22.0476H25.945V20.9184C25.6732 21.3255 25.2854 21.6431 24.8309 21.8306C24.2867 22.0518 23.7023 22.1589 23.1144 22.1453C22.1483 22.1453 21.3758 21.914 20.7968 21.4513C20.5278 21.2305 20.3105 20.9542 20.1601 20.6416C20.0098 20.329 19.9298 19.9877 19.9259 19.6414C19.922 19.295 19.9943 18.952 20.1376 18.6362C20.2809 18.3204 20.4919 18.0393 20.7559 17.8126C21.3084 17.3559 22.1867 17.1271 23.3907 17.1262H25.8631V16.8205C25.8631 16.1531 25.6678 15.6423 25.2773 15.2879C24.8868 14.9335 24.312 14.7558 23.5531 14.755C23.0436 14.7565 22.5378 14.8422 22.0566 15.0087C21.607 15.1553 21.1882 15.3823 20.8211 15.6786L20.1701 14.5165C20.6439 14.1463 21.1849 13.8698 21.7637 13.702C22.402 13.511 23.0655 13.4156 23.7322 13.419C24.926 13.4165 25.8405 13.7058 26.4758 14.2868ZM24.9204 20.553C25.3513 20.2931 25.6828 19.8986 25.8631 19.4315V18.2376H23.4559C22.1325 18.2376 21.4708 18.6787 21.4708 19.5609C21.4642 19.7583 21.5068 19.9542 21.5949 20.1313C21.6831 20.3084 21.814 20.4611 21.9761 20.5759C22.3112 20.8229 22.7772 20.9468 23.3741 20.9476C23.9166 20.9621 24.4523 20.8254 24.9204 20.553Z" fill="white"/>
<path d="M44.0888 14.3517C44.7232 14.9759 45.0404 15.9008 45.0404 17.1264V22.0477H43.4787V17.304C43.4787 16.4768 43.2864 15.853 42.9018 15.4326C42.5172 15.0123 41.9668 14.8008 41.2506 14.7983C40.4593 14.7983 39.8304 15.0431 39.364 15.5329C38.8975 16.0226 38.6643 16.7242 38.6643 17.6377V22.0427H37.1026V17.304C37.1026 16.4768 36.9103 15.853 36.5258 15.4326C36.1412 15.0123 35.5908 14.8008 34.8745 14.7983C34.0824 14.7983 33.4531 15.0431 32.9866 15.5329C32.5202 16.0226 32.2874 16.7242 32.2883 17.6377V22.0427H30.7266V13.4915H32.223V14.7666C32.5352 14.324 32.9621 13.9733 33.4586 13.7516C34.0068 13.5124 34.6006 13.3938 35.1994 13.404C35.8204 13.3927 36.4349 13.5311 36.9901 13.8074C37.5032 14.0691 37.9233 14.4804 38.1936 14.986C38.53 14.4821 39 14.0799 39.552 13.8239C40.1647 13.5372 40.8354 13.3936 41.5128 13.404C42.5957 13.4116 43.4544 13.7275 44.0888 14.3517Z" fill="white"/>
<path d="M48.5547 10.7539H50.1816V20.6499H56.3467V22.0531H48.5547V10.7539Z" fill="white"/>
<path d="M63.4314 14.2754V16.0643L58.3945 17.8532V16.0364L63.4314 14.2754Z" fill="white"/>
<path d="M62.7147 19.8936C62.7147 19.8936 63.069 21.718 61.4548 22.247C61.4548 22.247 59.7447 22.615 59.3086 21.1179L62.7147 19.8936Z" fill="white"/>
<path d="M58.4034 15.1498C59.6824 14.7552 66.7939 13.5169 67.5473 7.57552C67.8453 5.22839 66.9193 0 60.6877 0C53.3856 0 50.9913 10.387 58.4034 12.8141L58.4507 11.1165C58.4507 11.1165 55.5357 9.79705 55.7378 6.33472C55.9207 3.20352 58.8075 1.74322 60.854 1.74322C62.4861 1.74322 66.0393 2.94343 65.5865 7.57933C65.5865 7.57933 65.2117 11.7445 58.4059 13.3672L58.4034 15.1498Z" fill="#84B739"/>
<path d="M75.9766 13.4967V20.887C75.9766 22.3815 75.6022 23.4866 74.8536 24.2022C74.1049 24.9177 72.987 25.2755 71.4999 25.2755C70.7126 25.2792 69.9291 25.1676 69.1746 24.9444C68.5144 24.7656 67.9027 24.4432 67.3839 24.0004L68.1322 22.8066C68.5704 23.1714 69.0761 23.448 69.621 23.6211C70.2098 23.8202 70.8279 23.9214 71.45 23.9205C72.4588 23.9205 73.2044 23.6837 73.6871 23.21C74.1697 22.7364 74.411 22.0174 74.411 21.0532V20.3757C74.0476 20.8125 73.581 21.1533 73.0527 21.3678C72.4974 21.5907 71.9031 21.7019 71.3042 21.6952C70.527 21.7054 69.7593 21.5245 69.0697 21.1687C68.4188 20.834 67.8753 20.3256 67.5003 19.7007C67.1262 19.0425 66.9297 18.2996 66.9297 17.5439C66.9297 16.7883 67.1262 16.0454 67.5003 15.3871C67.8752 14.7654 68.4191 14.2611 69.0697 13.9319C69.762 13.5819 70.5298 13.4047 71.3068 13.4155C71.9294 13.4104 72.5465 13.5313 73.1204 13.7707C73.6629 13.9954 74.1365 14.3572 74.4941 14.82V13.4967H75.9766ZM73.0079 19.9837C73.4468 19.7566 73.8132 19.4126 74.0657 18.9903C74.3245 18.5529 74.4572 18.0535 74.4494 17.5465C74.4494 16.7176 74.1731 16.0481 73.6206 15.5381C73.068 15.0281 72.3577 14.7743 71.4897 14.7768C70.6114 14.7768 69.8955 15.0306 69.3421 15.5381C68.7887 16.0456 68.512 16.715 68.512 17.5465C68.5042 18.0535 68.637 18.5529 68.8958 18.9903C69.1479 19.4129 69.5143 19.757 69.9535 19.9837C70.4291 20.2166 70.9523 20.3378 71.4826 20.3378C72.013 20.3378 72.5362 20.2166 73.0117 19.9837H73.0079Z" fill="white"/>
<path d="M86.5693 14.3594C87.2148 14.9887 87.5375 15.911 87.5375 17.1264V22.0478H85.9758V17.3041C85.9758 16.4769 85.7754 15.8531 85.3747 15.4327C84.9739 15.0123 84.3992 14.8009 83.6505 14.7983C82.8038 14.7983 82.1365 15.0432 81.6488 15.5329C81.1611 16.0227 80.9172 16.7243 80.9172 17.6377V22.0427H79.3555V10.0762H80.9172V14.707C81.2561 14.2879 81.696 13.9602 82.1962 13.7542C82.7548 13.5219 83.3557 13.4066 83.9613 13.4154C85.0545 13.4154 85.9238 13.7301 86.5693 14.3594Z" fill="white"/>
<path d="M95.686 21.5477C95.4377 21.7522 95.1494 21.9034 94.8393 21.9917C94.5018 22.0938 94.1509 22.1455 93.7981 22.1452C92.9309 22.1452 92.2586 21.9139 91.7811 21.4512C91.3036 20.9886 91.0656 20.3267 91.0674 19.4657V14.7714H89.6016V13.4964H91.0674V11.625H92.6278V13.4964H95.1002V14.7714H92.6278V19.4022C92.6278 19.8641 92.7442 20.2189 92.977 20.4667C93.2098 20.7145 93.5432 20.838 93.9772 20.8372C94.4189 20.8494 94.8509 20.707 95.1974 20.435L95.686 21.5477Z" fill="white"/>
<path d="M63.4314 16.9336V18.7225L58.3945 20.5114V18.6946L63.4314 16.9336Z" fill="white"/>
</g>
<defs>
<clipPath id="clip0">
<rect width="140" height="36" fill="white"/>
</clipPath>
</defs>
</svg>
