<svg width="24" height="22" viewBox="0 0 24 22" fill="none" xmlns="http://www.w3.org/2000/svg">
<path d="M12 21.6628C11.4941 21.2251 11.2371 20.9767 8.53472 18.6787C3.3953 14.3082 0 11.4209 0 7.20578C0 3.43178 2.69067 0.337891 6.375 0.337891C8.9318 0.337891 10.8289 1.90806 12 4.13547C13.171 1.90816 15.0682 0.337891 17.625 0.337891C21.3098 0.337891 24 3.4323 24 7.20578C24 11.4209 20.6047 14.3082 15.4652 18.6787C12.7507 20.9871 12.5286 21.2055 12 21.6628ZM6.375 1.74414C3.54234 1.74414 1.40625 4.09216 1.40625 7.20578C1.40625 10.7708 4.60453 13.4905 9.44569 17.6073C10.266 18.3049 11.1102 19.0228 12 19.7957C12.8898 19.0228 13.7339 18.305 14.5542 17.6074C19.3955 13.4906 22.5938 10.7708 22.5938 7.20578C22.5938 4.09211 20.4577 1.74414 17.625 1.74414C15.0674 1.74414 13.2652 4.03713 12.6777 6.15016L12.6769 6.15311C11.964 6.15184 12.0354 6.15194 11.3224 6.15067L11.3223 6.15016C10.8035 4.28416 9.12113 1.74414 6.375 1.74414Z" fill="white"/>
</svg>
