<svg width="140" height="36" viewBox="0 0 140 36" fill="none" xmlns="http://www.w3.org/2000/svg">
<path d="M0.984375 32.6113H1.46221V35.1933L3.4591 32.6113H3.90161V35.9606H3.42935V33.3786L1.43247 35.9606H0.984375V32.6113Z" fill="white"/>
<path d="M9.31643 32.6113V35.9606H8.83487V34.4741H6.89562V35.9661H6.41406V32.6113H6.89562V34.0517H8.83487V32.6113H9.31643Z" fill="white"/>
<path d="M14.1496 33.0282H12.9912V35.9606H12.519V33.0282H11.3662V32.6114H14.1552L14.1496 33.0282Z" fill="white"/>
<path d="M18.6529 35.5457V35.9606H16.2024V32.6114H18.5841V33.0282H16.6802V34.0573H18.374V34.4631H16.6802V35.5457H18.6529Z" fill="white"/>
<path d="M23.2193 32.9231C23.3383 33.0324 23.4332 33.1649 23.4982 33.3124C23.5631 33.4598 23.5966 33.6189 23.5966 33.7798C23.5966 33.9407 23.5631 34.0998 23.4982 34.2472C23.4332 34.3947 23.3383 34.5272 23.2193 34.6365C22.9231 34.8575 22.5574 34.9673 22.1874 34.9463H21.3525V35.9607H20.871V32.6114H22.1874C22.5576 32.5911 22.9232 32.7016 23.2193 32.9231ZM22.8716 34.3377C22.9465 34.266 23.006 34.18 23.0467 34.085C23.0874 33.9899 23.1084 33.8877 23.1084 33.7844C23.1084 33.6811 23.0874 33.5789 23.0467 33.4839C23.006 33.3888 22.9465 33.3029 22.8716 33.2311C22.6679 33.0888 22.421 33.0204 22.1725 33.0375H21.3525V34.5406H22.1725C22.4221 34.555 22.6691 34.4833 22.8716 34.3377Z" fill="white"/>
<path d="M28.6269 32.6114V35.9606H28.1435V34.4741H26.2061V35.9661H25.7227V32.6114H26.2061V34.0518H28.1435V32.6114H28.6269Z" fill="white"/>
<path d="M33.6007 35.5456V35.9606H31.1445V32.6113H33.5282V33.0281H31.628V34.0573H33.3199V34.463H31.628V35.5456H33.6007Z" fill="white"/>
<path d="M38.1316 33.0282H36.9733V35.9606H36.501V33.0282H35.3483V32.6114H38.1372L38.1316 33.0282Z" fill="white"/>
<path d="M39.7695 34.4482H41.071V34.8429H39.7695V34.4482Z" fill="white"/>
<path d="M46.4592 35.9606V33.5206L45.2395 35.5493H45.0126L43.7911 33.5206V35.9458H43.3281V32.6113H43.7242L45.1242 34.9665L46.515 32.6113H46.9091V35.9606H46.4592Z" fill="white"/>
<path d="M51.6313 35.1233H49.837L49.4652 35.9606H48.9688L50.4971 32.6113H50.9749L52.5089 35.9606H52.0031L51.6313 35.1233ZM51.4621 34.7415L50.7332 33.1001L50.0044 34.7415H51.4621Z" fill="white"/>
<path d="M56.7626 33.0282H55.026V35.9606H54.55V32.6114H56.7626V33.0282Z" fill="white"/>
<path d="M60.3529 35.1233H58.5587L58.1869 35.9606H57.6904L59.2206 32.6114H59.6966L61.2305 35.9606H60.7248L60.3529 35.1233ZM60.1837 34.7415L59.4568 33.1001L58.7279 34.7415H60.1837Z" fill="white"/>
<path d="M65.3903 34.5125C65.5077 34.6593 65.5706 34.8417 65.5686 35.0291C65.5666 35.2164 65.4997 35.3974 65.3791 35.5416C65.2435 35.6968 65.0691 35.8138 64.8734 35.881C64.6532 35.9615 64.4201 36.0015 64.1854 35.999C63.9578 35.9989 63.7316 35.9647 63.5142 35.8976C63.2956 35.8328 63.09 35.7311 62.9062 35.597L63.0754 35.2429C63.2242 35.3575 63.3923 35.4449 63.5719 35.5011C63.7522 35.5582 63.9404 35.5874 64.1297 35.5878C64.3675 35.5958 64.6027 35.537 64.8083 35.4181C64.8925 35.3723 64.9625 35.3047 65.011 35.2226C65.0595 35.1404 65.0845 35.0467 65.0835 34.9515C65.0866 34.8743 65.0692 34.7977 65.033 34.7294C64.9967 34.6611 64.943 34.6035 64.8771 34.5623C64.7002 34.4611 64.4972 34.4137 64.2933 34.4259H63.531V34.0367H64.2505C64.4283 34.0476 64.6049 34.0017 64.7544 33.9058C64.8143 33.8649 64.8628 33.8097 64.8954 33.7451C64.9279 33.6806 64.9433 33.609 64.9403 33.5369C64.9417 33.4529 64.9206 33.3701 64.8791 33.2968C64.8376 33.2236 64.7773 33.1626 64.7042 33.1201C64.5239 33.0123 64.3158 32.9591 64.1055 32.967C63.7767 32.9696 63.455 33.0622 63.1758 33.2345L63.0215 32.8416C63.1911 32.7473 63.3724 32.6754 63.5607 32.6277C63.7466 32.5802 63.9377 32.5561 64.1297 32.5558C64.3532 32.5536 64.5754 32.5904 64.786 32.6646C64.9699 32.7281 65.1335 32.8388 65.2601 32.9855C65.378 33.1232 65.4409 33.2991 65.4368 33.4797C65.4393 33.6392 65.3897 33.7951 65.2955 33.9242C65.195 34.0556 65.058 34.155 64.9013 34.2101C65.0914 34.2595 65.2619 34.3649 65.3903 34.5125Z" fill="white"/>
<path d="M67.8364 32.6114H68.3124V35.1934L70.3093 32.6114H70.7537V35.9606H70.2814V33.3786L68.2789 35.9606H67.8364V32.6114Z" fill="white"/>
<path d="M76.1779 32.6113V35.9606H75.6963V34.4741H73.7608V35.9661H73.2773V32.6113H73.7608V34.0517H75.7V32.6113H76.1779Z" fill="white"/>
<path d="M82.0399 35.7769C81.7738 35.6353 81.5524 35.4234 81.4003 35.1646C81.248 34.8966 81.168 34.5943 81.168 34.2867C81.168 33.9791 81.248 33.6767 81.4003 33.4088C81.5537 33.1504 81.7755 32.9386 82.0418 32.7965C82.2934 32.6682 82.5695 32.5938 82.852 32.5783C83.1346 32.5627 83.4172 32.6063 83.6817 32.7061C83.8951 32.7918 84.086 32.925 84.2394 33.0953L83.9252 33.3977C83.8044 33.2684 83.6571 33.1659 83.4934 33.0973C83.3296 33.0286 83.1529 32.9952 82.9751 32.9994C82.7376 32.9967 82.5033 33.0544 82.2946 33.1672C82.0963 33.2749 81.9322 33.4352 81.8205 33.6301C81.7084 33.8314 81.6495 34.0576 81.6495 34.2876C81.6495 34.5176 81.7084 34.7438 81.8205 34.9451C81.9322 35.1396 82.0964 35.2992 82.2946 35.4062C82.5029 35.5198 82.7375 35.5776 82.9751 35.574C83.1531 35.5772 83.3298 35.5431 83.4935 35.4738C83.6573 35.4045 83.8044 35.3016 83.9252 35.1719L84.2394 35.4744C84.0862 35.6455 83.8954 35.7793 83.6817 35.8654C83.4506 35.9573 83.2036 36.0031 82.9547 36C82.6355 36.0048 82.3205 35.9279 82.0399 35.7769Z" fill="white"/>
<path d="M88.989 34.5132C89.11 34.6649 89.172 34.8547 89.1638 35.048C89.17 35.1779 89.1442 35.3073 89.0884 35.4249C89.0327 35.5426 88.9488 35.6449 88.844 35.723C88.5675 35.8984 88.2418 35.9817 87.9143 35.9609H86.3711V32.6117H87.8214C88.1266 32.5945 88.4296 32.6725 88.6878 32.8349C88.7894 32.9068 88.8711 33.003 88.9253 33.1145C88.9796 33.2261 89.0047 33.3493 88.9983 33.473C89.0041 33.6386 88.9559 33.8016 88.8607 33.9378C88.7636 34.0698 88.629 34.17 88.474 34.2255C88.6723 34.2642 88.8528 34.3651 88.989 34.5132ZM86.8434 34.0853H87.7842C87.9742 34.0977 88.1632 34.0492 88.3234 33.947C88.3818 33.8961 88.4287 33.8334 88.4608 33.7631C88.4929 33.6928 88.5095 33.6166 88.5095 33.5394C88.5095 33.4622 88.4929 33.386 88.4608 33.3157C88.4287 33.2454 88.3818 33.1827 88.3234 33.1318C88.1653 33.0278 87.9772 32.978 87.7879 32.9898H86.8471L86.8434 34.0853ZM88.6766 35.0074C88.6827 34.9262 88.6679 34.8447 88.6338 34.7706C88.5997 34.6964 88.5473 34.632 88.4814 34.5833C88.3063 34.481 88.1041 34.4334 87.9013 34.4468H86.8434V35.581H87.9013C88.4182 35.581 88.6766 35.3904 88.6766 35.0093V35.0074Z" fill="white"/>
<path d="M93.8789 35.5457V35.9606H91.4209V32.6114H93.8045V33.0282H91.9118V34.0573H93.6037V34.4631H91.9118V35.5457H93.8789Z" fill="white"/>
<path d="M98.4162 33.0281H97.2597V35.9606H96.7856V33.0281H95.6328V32.6113H98.4217L98.4162 33.0281Z" fill="white"/>
<path d="M100.469 32.6114H100.944V35.1934L102.941 32.6114H103.386V35.9606H102.913V33.3786L100.911 35.9606H100.469V32.6114Z" fill="white"/>
<path d="M108.612 32.6114V35.9606H108.14V33.0282H106.652L106.619 34.0094C106.612 34.3862 106.574 34.7619 106.505 35.1325C106.469 35.3691 106.372 35.5925 106.225 35.7817C106.159 35.8542 106.078 35.9113 105.988 35.949C105.898 35.9866 105.8 36.0038 105.702 35.9994C105.6 35.999 105.498 35.986 105.399 35.9606L105.433 35.5346C105.483 35.5476 105.535 35.5544 105.587 35.5549C105.652 35.5566 105.716 35.5423 105.774 35.5133C105.832 35.4844 105.882 35.4416 105.92 35.3889C106.018 35.2402 106.082 35.0712 106.106 34.8946C106.155 34.607 106.183 34.3159 106.187 34.0241L106.241 32.6114H108.612Z" fill="white"/>
<path d="M113.53 34.0481C113.64 34.1469 113.726 34.2693 113.782 34.406C113.838 34.5428 113.861 34.6903 113.851 34.8374C113.861 34.9937 113.836 35.1502 113.776 35.2953C113.717 35.4403 113.625 35.57 113.507 35.6747C113.222 35.882 112.873 35.9832 112.52 35.9606H111.129V32.6114H111.607V33.7788H112.617C112.943 33.7594 113.267 33.8547 113.53 34.0481ZM113.145 35.3944C113.222 35.3252 113.283 35.2394 113.322 35.1435C113.361 35.0477 113.377 34.9442 113.37 34.8411C113.37 34.3813 113.08 34.1514 112.501 34.1514H111.603V35.5807H112.501C112.731 35.5967 112.959 35.5313 113.145 35.3963V35.3944Z" fill="white"/>
<path d="M118.939 32.6114V35.9606H118.455V34.4741H116.508V35.9661H116.027V32.6114H116.508V34.0518H118.448V32.6114H118.939Z" fill="white"/>
<path d="M121.445 32.6114H121.915V35.1934L123.912 32.6114H124.355V35.9606H123.882V33.3786L121.882 35.9606H121.437L121.445 32.6114Z" fill="white"/>
<path d="M128.048 34.487H127.343V35.9624H126.871V32.6113H127.343V34.0665H128.057L129.119 32.6113H129.634L128.429 34.2343L129.692 35.9606H129.134L128.048 34.487Z" fill="white"/>
<path d="M132.244 35.7764C131.977 35.6343 131.754 35.4217 131.601 35.1623C131.447 34.8958 131.366 34.5941 131.366 34.2871C131.366 33.9802 131.447 33.6785 131.601 33.412C131.755 33.1526 131.977 32.9397 132.244 32.796C132.528 32.6506 132.843 32.5748 133.162 32.5748C133.482 32.5748 133.797 32.6506 134.081 32.796C134.347 32.9381 134.569 33.1499 134.722 33.4083C134.875 33.6763 134.955 33.9786 134.955 34.2862C134.955 34.5938 134.875 34.8962 134.722 35.1641C134.57 35.423 134.348 35.6349 134.081 35.7764C133.797 35.923 133.482 35.9995 133.162 35.9995C132.843 35.9995 132.528 35.923 132.244 35.7764ZM133.834 35.4075C134.029 35.2988 134.19 35.1394 134.3 34.9465C134.412 34.7452 134.471 34.519 134.471 34.289C134.471 34.059 134.412 33.8328 134.3 33.6315C134.19 33.4381 134.029 33.2781 133.834 33.1686C133.63 33.0559 133.4 32.998 133.166 33.0008C132.931 32.998 132.699 33.0558 132.493 33.1686C132.295 33.2767 132.131 33.4369 132.019 33.6315C131.907 33.8328 131.848 34.059 131.848 34.289C131.848 34.519 131.907 34.7452 132.019 34.9465C132.131 35.1405 132.295 35.3001 132.493 35.4075C132.699 35.5211 132.931 35.579 133.166 35.5754C133.4 35.5784 133.63 35.5199 133.834 35.4057V35.4075Z" fill="white"/>
<path d="M139.812 34.5131C139.937 34.6633 140.003 34.8533 139.998 35.0479C140.004 35.1779 139.977 35.3074 139.921 35.425C139.865 35.5427 139.781 35.645 139.676 35.723C139.4 35.8985 139.074 35.9819 138.746 35.9609H137.203V32.6117H138.642C138.947 32.5947 139.25 32.6727 139.509 32.8348C139.61 32.9068 139.692 33.003 139.746 33.1145C139.8 33.226 139.826 33.3493 139.819 33.4729C139.824 33.6384 139.776 33.8011 139.682 33.9377C139.584 34.0698 139.448 34.1699 139.293 34.2254C139.493 34.2624 139.675 34.3635 139.812 34.5131ZM137.668 34.0852H138.609C138.798 34.0975 138.987 34.049 139.146 33.9469C139.208 33.8994 139.257 33.8376 139.29 33.7669C139.322 33.6962 139.337 33.6187 139.332 33.5412C139.337 33.4631 139.322 33.385 139.29 33.3137C139.258 33.2424 139.208 33.18 139.146 33.1317C138.988 33.0283 138.8 32.9784 138.611 32.9897H137.67L137.668 34.0852ZM139.501 35.0074C139.508 34.9269 139.495 34.846 139.463 34.7719C139.43 34.6978 139.379 34.6329 139.315 34.5832C139.139 34.481 138.937 34.4334 138.733 34.4467H137.677V35.5809H138.733C139.241 35.5809 139.501 35.3965 139.501 35.0092V35.0074Z" fill="white"/>
<path d="M3.90365 12.1568H0V10.7536H9.41891V12.1568H5.51397V22.0528H3.90365V12.1568Z" fill="white"/>
<path d="M18.2348 18.2886H11.2397C11.2769 18.6419 11.3845 18.9842 11.5562 19.2959C11.7279 19.6076 11.9603 19.8823 12.2399 20.1042C12.8086 20.5609 13.5164 20.7893 14.3631 20.7893C15.3932 20.7893 16.2228 20.445 16.8521 19.7565L17.7142 20.7576C17.3187 21.2122 16.8191 21.5664 16.2574 21.7903C15.6395 22.0338 14.9793 22.1545 14.3145 22.1455C13.4704 22.1624 12.6353 21.971 11.8843 21.5886C11.1994 21.237 10.6317 20.6963 10.2497 20.0318C9.8588 19.3427 9.6593 18.5629 9.67155 17.7723C9.65996 16.989 9.85343 16.2161 10.2331 15.5292C10.5921 14.8778 11.1272 14.3387 11.7781 13.9724C12.4559 13.5961 13.2219 13.4039 13.9986 13.4155C14.7701 13.4025 15.5311 13.5948 16.2024 13.9724C16.8441 14.3401 17.3685 14.8796 17.7155 15.5292C18.0882 16.2354 18.2756 17.0234 18.2604 17.8205C18.2602 17.9769 18.2517 18.1331 18.2348 18.2886ZM12.126 15.401C11.6169 15.8622 11.3007 16.496 11.2397 17.1772H16.7703C16.7052 16.4997 16.3894 15.8701 15.8839 15.4099C15.37 14.9499 14.6969 14.7045 14.005 14.7248C13.3145 14.7034 12.642 14.9454 12.126 15.401Z" fill="white"/>
<path d="M26.4758 14.2868C27.1102 14.8679 27.4274 15.734 27.4274 16.8852V22.0476H25.945V20.9184C25.6732 21.3255 25.2854 21.6431 24.8309 21.8306C24.2867 22.0518 23.7023 22.1589 23.1144 22.1453C22.1483 22.1453 21.3758 21.914 20.7968 21.4513C20.5278 21.2305 20.3105 20.9542 20.1601 20.6416C20.0098 20.329 19.9298 19.9877 19.9259 19.6414C19.922 19.295 19.9943 18.952 20.1376 18.6362C20.2809 18.3204 20.4919 18.0393 20.7559 17.8126C21.3084 17.3559 22.1867 17.1271 23.3907 17.1262H25.8631V16.8205C25.8631 16.1531 25.6678 15.6423 25.2773 15.2879C24.8868 14.9335 24.312 14.7558 23.5531 14.755C23.0436 14.7565 22.5378 14.8422 22.0566 15.0087C21.607 15.1553 21.1882 15.3823 20.8211 15.6786L20.1701 14.5165C20.6439 14.1463 21.1849 13.8698 21.7637 13.702C22.402 13.511 23.0655 13.4156 23.7322 13.419C24.926 13.4165 25.8405 13.7058 26.4758 14.2868ZM24.9204 20.553C25.3513 20.2931 25.6828 19.8986 25.8631 19.4315V18.2376H23.4559C22.1325 18.2376 21.4708 18.6787 21.4708 19.5609C21.4642 19.7583 21.5068 19.9542 21.5949 20.1313C21.6831 20.3084 21.814 20.4611 21.9761 20.5759C22.3112 20.8229 22.7772 20.9468 23.3741 20.9476C23.9166 20.9621 24.4523 20.8254 24.9204 20.553Z" fill="white"/>
<path d="M44.0891 14.3516C44.7235 14.9758 45.0407 15.9007 45.0407 17.1263V22.0477H43.479V17.3039C43.479 16.4767 43.2867 15.8529 42.9022 15.4326C42.5176 15.0122 41.9672 14.8008 41.2509 14.7982C40.4596 14.7982 39.8308 15.0431 39.3643 15.5328C38.8979 16.0225 38.6647 16.7241 38.6647 17.6376V22.0426H37.103V17.3039C37.103 16.4767 36.9107 15.8529 36.5261 15.4326C36.1416 15.0122 35.5911 14.8008 34.8749 14.7982C34.0827 14.7982 33.4534 15.0431 32.987 15.5328C32.5206 16.0225 32.2878 16.7241 32.2886 17.6376V22.0426H30.7269V13.4914H32.2234V14.7665C32.5356 14.3239 32.9625 13.9733 33.459 13.7515C34.0071 13.5124 34.601 13.3938 35.1998 13.4039C35.8208 13.3926 36.4352 13.5311 36.9904 13.8073C37.5036 14.069 37.9236 14.4804 38.194 14.986C38.5304 14.482 39.0004 14.0799 39.5524 13.8238C40.165 13.5372 40.8358 13.3935 41.5131 13.4039C42.5961 13.4115 43.4547 13.7274 44.0891 14.3516Z" fill="white"/>
<path d="M48.5552 10.7536H50.1821V20.6496H56.3471V22.0528H48.5552V10.7536Z" fill="white"/>
<path d="M63.4314 14.2754V16.0643L58.3945 17.8532V16.0364L63.4314 14.2754Z" fill="white"/>
<path d="M62.7153 19.8935C62.7153 19.8935 63.0696 21.7179 61.4554 22.247C61.4554 22.247 59.7454 22.6149 59.3092 21.1178L62.7153 19.8935Z" fill="white"/>
<path d="M58.404 15.1498C59.683 14.7552 66.7945 13.5169 67.5479 7.57552C67.8459 5.22839 66.9199 0 60.6883 0C53.3863 0 50.9919 10.387 58.404 12.8141L58.4513 11.1165C58.4513 11.1165 55.5363 9.79705 55.7384 6.33472C55.9213 3.20352 58.8081 1.74322 60.8546 1.74322C62.4867 1.74322 66.0399 2.94343 65.5871 7.57933C65.5871 7.57933 65.2123 11.7445 58.4065 13.3672L58.404 15.1498Z" fill="#84B739"/>
<path d="M75.9766 13.4967V20.887C75.9766 22.3815 75.6022 23.4866 74.8536 24.2022C74.1049 24.9177 72.987 25.2755 71.4999 25.2755C70.7126 25.2792 69.9291 25.1676 69.1746 24.9444C68.5144 24.7656 67.9027 24.4432 67.3839 24.0004L68.1322 22.8066C68.5704 23.1714 69.0761 23.448 69.621 23.6211C70.2098 23.8202 70.8279 23.9214 71.45 23.9205C72.4588 23.9205 73.2044 23.6837 73.6871 23.21C74.1697 22.7364 74.411 22.0174 74.411 21.0532V20.3757C74.0476 20.8125 73.581 21.1533 73.0527 21.3678C72.4974 21.5907 71.9031 21.7019 71.3042 21.6952C70.527 21.7054 69.7593 21.5245 69.0697 21.1687C68.4188 20.834 67.8753 20.3256 67.5003 19.7007C67.1262 19.0425 66.9297 18.2996 66.9297 17.5439C66.9297 16.7883 67.1262 16.0454 67.5003 15.3871C67.8752 14.7654 68.4191 14.2611 69.0697 13.9319C69.762 13.5819 70.5298 13.4047 71.3068 13.4155C71.9294 13.4104 72.5465 13.5313 73.1204 13.7707C73.6629 13.9954 74.1365 14.3572 74.4941 14.82V13.4967H75.9766ZM73.0079 19.9837C73.4468 19.7566 73.8132 19.4126 74.0657 18.9903C74.3245 18.5529 74.4572 18.0535 74.4494 17.5465C74.4494 16.7176 74.1731 16.0481 73.6206 15.5381C73.068 15.0281 72.3577 14.7743 71.4897 14.7768C70.6114 14.7768 69.8955 15.0306 69.3421 15.5381C68.7887 16.0456 68.512 16.715 68.512 17.5465C68.5042 18.0535 68.637 18.5529 68.8958 18.9903C69.1479 19.4129 69.5143 19.757 69.9535 19.9837C70.4291 20.2166 70.9523 20.3378 71.4826 20.3378C72.013 20.3378 72.5362 20.2166 73.0117 19.9837H73.0079Z" fill="white"/>
<path d="M86.5693 14.3594C87.2148 14.9887 87.5375 15.911 87.5375 17.1264V22.0478H85.9758V17.3041C85.9758 16.4769 85.7754 15.8531 85.3747 15.4327C84.9739 15.0123 84.3992 14.8009 83.6505 14.7983C82.8038 14.7983 82.1365 15.0432 81.6488 15.5329C81.1611 16.0227 80.9172 16.7243 80.9172 17.6377V22.0427H79.3555V10.0762H80.9172V14.707C81.2561 14.2879 81.696 13.9602 82.1962 13.7542C82.7548 13.5219 83.3557 13.4066 83.9613 13.4154C85.0545 13.4154 85.9238 13.7301 86.5693 14.3594Z" fill="white"/>
<path d="M95.6862 21.548C95.438 21.7525 95.1497 21.9037 94.8395 21.992C94.5021 22.0941 94.1512 22.1459 93.7984 22.1455C92.9312 22.1455 92.2588 21.9142 91.7813 21.4515C91.3038 20.9889 91.0659 20.327 91.0676 19.466V14.7717H89.6018V13.4967H91.0676V11.6253H92.628V13.4967H95.1004V14.7717H92.628V19.4026C92.628 19.8644 92.7444 20.2192 92.9772 20.467C93.21 20.7148 93.5434 20.8383 93.9774 20.8375C94.4192 20.8497 94.8511 20.7073 95.1976 20.4353L95.6862 21.548Z" fill="white"/>
<path d="M63.4314 16.9336V18.7225L58.3945 20.5114V18.6946L63.4314 16.9336Z" fill="white"/>
</svg>
