<svg width="149" height="40" viewBox="0 0 149 40" fill="none" xmlns="http://www.w3.org/2000/svg">
<path d="M0.0511475 36.2348H0.563118V39.1037L2.70264 36.2348H3.17676V39.9562H2.67077V37.0873L0.531245 39.9562H0.0511475V36.2348Z" fill="#333333"/>
<path d="M8.98138 36.2348V39.9562H8.46542V38.3045H6.38766V39.9623H5.8717V36.2348H6.38766V37.8353H8.46542V36.2348H8.98138Z" fill="#333333"/>
<path d="M14.1587 36.698H12.9176V39.9562H12.4116V36.698H11.1765V36.2348H14.1647L14.1587 36.698Z" fill="#333333"/>
<path d="M18.9854 39.4951V39.9562H16.3599V36.2348H18.9117V36.698H16.8718V37.8414H18.6866V38.2922H16.8718V39.4951H18.9854Z" fill="#333333"/>
<path d="M23.8797 36.5814C24.0072 36.7028 24.1089 36.8501 24.1785 37.0139C24.2481 37.1777 24.284 37.3545 24.284 37.5332C24.284 37.712 24.2481 37.8888 24.1785 38.0526C24.1089 38.2164 24.0072 38.3637 23.8797 38.4851C23.5623 38.7307 23.1706 38.8527 22.7741 38.8294H21.8796V39.9564H21.3636V36.2351H22.7741C23.1708 36.2125 23.5625 36.3352 23.8797 36.5814ZM23.5071 38.1531C23.5874 38.0734 23.6512 37.9779 23.6948 37.8723C23.7384 37.7667 23.7609 37.6531 23.7609 37.5384C23.7609 37.4236 23.7384 37.31 23.6948 37.2044C23.6512 37.0988 23.5874 37.0033 23.5071 36.9236C23.2889 36.7655 23.0244 36.6895 22.7581 36.7084H21.8796V38.3785H22.7581C23.0256 38.3945 23.2902 38.3149 23.5071 38.1531Z" fill="#333333"/>
<path d="M29.6703 36.2348V39.9562H29.1523V38.3045H27.0765V39.9623H26.5586V36.2348H27.0765V37.8353H29.1523V36.2348H29.6703Z" fill="#333333"/>
<path d="M34.9986 39.4951V39.9562H32.3671V36.2348H34.9209V36.698H32.885V37.8414H34.6978V38.2922H32.885V39.4951H34.9986Z" fill="#333333"/>
<path d="M39.8542 36.698H38.6132V39.9562H38.1072V36.698H36.8721V36.2348H39.8602L39.8542 36.698Z" fill="#333333"/>
<path d="M41.6139 38.2758H43.0084V38.7144H41.6139V38.2758Z" fill="#333333"/>
<path d="M48.7769 39.9557V37.2446L47.4701 39.4988H47.2271L45.9183 37.2446V39.9393H45.4222V36.2344H45.8466L47.3466 38.8512L48.8367 36.2344H49.259V39.9557H48.7769Z" fill="#333333"/>
<path d="M54.3179 39.0254H52.3955L51.9971 39.9557H51.4652L53.1027 36.2344H53.6147L55.2582 39.9557H54.7163L54.3179 39.0254ZM54.1366 38.6012L53.3557 36.7774L52.5748 38.6012H54.1366Z" fill="#333333"/>
<path d="M59.8169 36.698H57.9563V39.9562H57.4463V36.2348H59.8169V36.698Z" fill="#333333"/>
<path d="M63.6624 39.0259H61.74L61.3416 39.9562H60.8097L62.4492 36.2348H62.9592L64.6027 39.9562H64.0608L63.6624 39.0259ZM63.4811 38.6017L62.7022 36.7779L61.9213 38.6017H63.4811Z" fill="#333333"/>
<path d="M69.0603 38.3472C69.186 38.5103 69.2535 38.7129 69.2513 38.9211C69.2491 39.1292 69.1775 39.3303 69.0483 39.4906C68.903 39.663 68.7161 39.793 68.5065 39.8677C68.2706 39.9571 68.0208 40.0016 67.7694 39.9988C67.5255 39.9987 67.2831 39.9607 67.0502 39.8861C66.816 39.8142 66.5956 39.7012 66.3988 39.5521L66.5801 39.1586C66.7394 39.286 66.9195 39.3831 67.112 39.4455C67.3052 39.509 67.5068 39.5414 67.7096 39.5418C67.9644 39.5507 68.2165 39.4854 68.4367 39.3533C68.5269 39.3025 68.602 39.2274 68.6539 39.1361C68.7058 39.0448 68.7327 38.9407 68.7316 38.8349C68.7349 38.7492 68.7163 38.6641 68.6774 38.5881C68.6386 38.5122 68.581 38.4482 68.5104 38.4025C68.3209 38.29 68.1034 38.2373 67.8849 38.2508H67.0682V37.8185H67.8391C68.0295 37.8306 68.2188 37.7796 68.379 37.673C68.4432 37.6276 68.4952 37.5662 68.53 37.4945C68.5648 37.4228 68.5814 37.3432 68.5782 37.2631C68.5797 37.1698 68.5571 37.0777 68.5126 36.9964C68.4681 36.915 68.4035 36.8472 68.3252 36.8C68.132 36.6802 67.9091 36.6211 67.6837 36.6299C67.3314 36.6328 66.9868 36.7356 66.6877 36.9271L66.5223 36.4906C66.704 36.3858 66.8982 36.3059 67.1 36.2529C67.2992 36.2001 67.504 36.1733 67.7096 36.173C67.9491 36.1705 68.1871 36.2114 68.4128 36.2939C68.6098 36.3644 68.7851 36.4874 68.9208 36.6504C69.0472 36.8035 69.1145 36.9989 69.1101 37.1996C69.1128 37.3767 69.0597 37.55 68.9587 37.6935C68.8511 37.8395 68.7042 37.9499 68.5363 38.0111C68.74 38.066 68.9227 38.1832 69.0603 38.3472Z" fill="#333333"/>
<path d="M71.6791 36.2348H72.1891V39.1037L74.3286 36.2348H74.8047V39.9562H74.2987V37.0873L72.1532 39.9562H71.6791V36.2348Z" fill="#333333"/>
<path d="M80.619 36.2348V39.9562H80.1031V38.3045H78.0293V39.9623H77.5114V36.2348H78.0293V37.8353H80.1071V36.2348H80.619Z" fill="#333333"/>
<path d="M86.8955 39.7517C86.6104 39.5944 86.3732 39.359 86.2103 39.0714C86.0471 38.7737 85.9613 38.4377 85.9613 38.096C85.9613 37.7542 86.0471 37.4182 86.2103 37.1206C86.3745 36.8334 86.6123 36.5981 86.8975 36.4402C87.1672 36.2977 87.463 36.2151 87.7657 36.1978C88.0684 36.1805 88.3712 36.2289 88.6545 36.3398C88.8833 36.435 89.0877 36.583 89.2522 36.7722L88.9155 37.1083C88.786 36.9645 88.6283 36.8507 88.4528 36.7744C88.2773 36.6981 88.088 36.661 87.8976 36.6656C87.643 36.6626 87.392 36.7268 87.1684 36.8521C86.956 36.9717 86.7801 37.1498 86.6605 37.3665C86.5403 37.5901 86.4773 37.8415 86.4773 38.097C86.4773 38.3525 86.5403 38.6039 86.6605 38.8276C86.7801 39.0436 86.9561 39.221 87.1684 39.3399C87.3916 39.4661 87.6429 39.5304 87.8976 39.5263C88.0883 39.5299 88.2775 39.492 88.453 39.415C88.6284 39.338 88.7861 39.2237 88.9155 39.0796L89.2522 39.4157C89.088 39.6058 88.8835 39.7544 88.6545 39.8501C88.407 39.9523 88.1423 40.0031 87.8756 39.9997C87.5337 40.005 87.1961 39.9196 86.8955 39.7517Z" fill="#333333"/>
<path d="M94.3476 38.3478C94.4772 38.5164 94.5437 38.7273 94.5349 38.942C94.5416 39.0863 94.5139 39.2301 94.4541 39.3608C94.3944 39.4915 94.3045 39.6053 94.1922 39.692C93.896 39.8869 93.5471 39.9794 93.1962 39.9564H91.5427V36.235H93.0966C93.4236 36.2159 93.7482 36.3026 94.0249 36.483C94.1337 36.5629 94.2213 36.6698 94.2794 36.7937C94.3376 36.9176 94.3644 37.0546 94.3576 37.192C94.3638 37.376 94.3121 37.5571 94.2102 37.7084C94.1062 37.8551 93.9618 37.9664 93.7958 38.0281C94.0083 38.0712 94.2017 38.1832 94.3476 38.3478ZM92.0487 37.8723H93.0567C93.2603 37.8861 93.4629 37.8322 93.6344 37.7186C93.6971 37.6621 93.7473 37.5925 93.7817 37.5144C93.8161 37.4363 93.8339 37.3515 93.8339 37.2658C93.8339 37.18 93.8161 37.0953 93.7817 37.0172C93.7473 36.9391 93.6971 36.8694 93.6344 36.8129C93.465 36.6974 93.2636 36.642 93.0607 36.6551H92.0527L92.0487 37.8723ZM94.013 38.8969C94.0194 38.8066 94.0036 38.7161 93.967 38.6337C93.9305 38.5514 93.8743 38.4798 93.8038 38.4256C93.6161 38.312 93.3995 38.2591 93.1822 38.274H92.0487V39.5342H93.1822C93.736 39.5342 94.013 39.3225 94.013 38.899V38.8969Z" fill="#333333"/>
<path d="M99.5871 39.4947V39.9557H96.9535V36.2344H99.5074V36.6975H97.4794V37.841H99.2922V38.2918H97.4794V39.4947H99.5871Z" fill="#333333"/>
<path d="M104.447 36.698H103.208V39.9562H102.7V36.698H101.465V36.2348H104.453L104.447 36.698Z" fill="#333333"/>
<path d="M106.642 36.2348H107.152V39.1037L109.291 36.2348H109.767V39.9562H109.261V37.0873L107.116 39.9562H106.642V36.2348Z" fill="#333333"/>
<path d="M115.369 36.2348V39.9562H114.863V36.698H113.269L113.233 37.7881C113.227 38.2069 113.186 38.6243 113.112 39.0361C113.073 39.2989 112.969 39.5472 112.811 39.7574C112.741 39.838 112.655 39.9014 112.558 39.9433C112.461 39.9851 112.356 40.0042 112.251 39.9992C112.142 39.9988 112.033 39.9843 111.927 39.9562L111.962 39.4828C112.017 39.4972 112.072 39.5048 112.128 39.5054C112.197 39.5073 112.266 39.4914 112.329 39.4592C112.391 39.427 112.444 39.3795 112.484 39.3209C112.59 39.1557 112.658 38.9679 112.684 38.7718C112.737 38.4521 112.766 38.1288 112.771 37.8045L112.829 36.2348H115.369Z" fill="#333333"/>
<path d="M120.643 37.8307C120.761 37.9405 120.853 38.0765 120.913 38.2284C120.973 38.3804 120.998 38.5443 120.987 38.7078C120.998 38.8814 120.971 39.0553 120.907 39.2164C120.843 39.3776 120.744 39.5217 120.619 39.6381C120.313 39.8684 119.939 39.9808 119.561 39.9557H118.071V36.2344H118.583V37.5315H119.664C120.014 37.5099 120.361 37.6158 120.643 37.8307ZM120.23 39.3266C120.313 39.2497 120.378 39.1544 120.42 39.0479C120.461 38.9413 120.479 38.8264 120.471 38.7119C120.471 38.2009 120.161 37.9455 119.541 37.9455H118.579V39.5336H119.541C119.787 39.5514 120.031 39.4788 120.23 39.3287V39.3266Z" fill="#333333"/>
<path d="M126.436 36.2344V39.9557H125.918V38.3041H123.833V39.9619H123.317V36.2344H123.833V37.8348H125.91V36.2344H126.436Z" fill="#333333"/>
<path d="M129.122 36.2344H129.626V39.1033L131.765 36.2344H132.239V39.9557H131.733V37.0868L129.59 39.9557H129.114L129.122 36.2344Z" fill="#333333"/>
<path d="M136.19 38.3189H135.435V39.9582H134.929V36.2348H135.435V37.8517H136.2L137.338 36.2348H137.89L136.599 38.0381L137.951 39.9562H137.354L136.19 38.3189Z" fill="#333333"/>
<path d="M140.691 39.7517C140.404 39.5938 140.166 39.3576 140.002 39.0693C139.837 38.7732 139.75 38.4381 139.75 38.097C139.75 37.7559 139.837 37.4207 140.002 37.1246C140.167 36.8364 140.405 36.5998 140.691 36.4402C140.995 36.2786 141.332 36.1943 141.675 36.1943C142.017 36.1943 142.355 36.2786 142.659 36.4402C142.944 36.598 143.182 36.8334 143.346 37.1205C143.509 37.4182 143.595 37.7542 143.595 38.0959C143.595 38.4377 143.509 38.7737 143.346 39.0714C143.183 39.359 142.945 39.5944 142.659 39.7517C142.355 39.9146 142.018 39.9996 141.675 39.9996C141.332 39.9996 140.995 39.9146 140.691 39.7517ZM142.394 39.3419C142.603 39.221 142.776 39.0439 142.894 38.8296C143.014 38.6059 143.077 38.3546 143.077 38.099C143.077 37.8435 143.014 37.5921 142.894 37.3685C142.776 37.1536 142.603 36.9758 142.394 36.8541C142.176 36.7289 141.929 36.6646 141.679 36.6677C141.427 36.6646 141.178 36.7288 140.958 36.8541C140.746 36.9743 140.57 37.1523 140.45 37.3685C140.33 37.5921 140.267 37.8435 140.267 38.099C140.267 38.3546 140.33 38.6059 140.45 38.8296C140.57 39.0452 140.746 39.2224 140.958 39.3419C141.178 39.4681 141.427 39.5324 141.679 39.5283C141.929 39.5317 142.176 39.4667 142.394 39.3398V39.3419Z" fill="#333333"/>
<path d="M148.799 38.3477C148.933 38.5146 149.003 38.7256 148.998 38.9419C149.004 39.0864 148.976 39.2302 148.916 39.3609C148.856 39.4916 148.766 39.6053 148.653 39.692C148.357 39.887 148.008 39.9797 147.657 39.9563H146.004V36.235H147.546C147.873 36.2161 148.197 36.3028 148.474 36.4829C148.583 36.5629 148.671 36.6697 148.729 36.7936C148.787 36.9176 148.814 37.0545 148.807 37.1919C148.812 37.3758 148.76 37.5566 148.659 37.7083C148.555 37.8551 148.41 37.9664 148.243 38.028C148.457 38.0691 148.653 38.1814 148.799 38.3477ZM146.502 37.8723H147.51C147.713 37.8859 147.915 37.832 148.086 37.7186C148.152 37.6658 148.205 37.5971 148.24 37.5185C148.274 37.44 148.29 37.3539 148.285 37.2678C148.29 37.181 148.274 37.0943 148.24 37.015C148.205 36.9358 148.152 36.8664 148.086 36.8128C147.916 36.6979 147.715 36.6425 147.512 36.655H146.504L146.502 37.8723ZM148.466 38.8969C148.474 38.8075 148.459 38.7175 148.425 38.6352C148.39 38.5529 148.336 38.4808 148.267 38.4255C148.079 38.312 147.861 38.2592 147.643 38.2739H146.512V39.5342H147.643C148.187 39.5342 148.466 39.3292 148.466 38.8989V38.8969Z" fill="#333333"/>
<path d="M26.261 13.5076H22.0785V11.9485H32.1702V13.5076H27.9863V24.5031H26.261V13.5076Z" fill="#333333"/>
<path d="M41.6133 20.3206H34.1186C34.1584 20.7131 34.2737 21.0935 34.4577 21.4398C34.6416 21.7861 34.8906 22.0913 35.1902 22.3378C35.7996 22.8453 36.5579 23.0991 37.4651 23.0991C38.5687 23.0991 39.4577 22.7166 40.1319 21.9516L41.0556 23.0638C40.6318 23.569 40.0966 23.9625 39.4947 24.2113C38.8326 24.4819 38.1253 24.616 37.413 24.606C36.5087 24.6248 35.6139 24.4121 34.8092 23.9872C34.0754 23.5965 33.4672 22.9958 33.0579 22.2575C32.6391 21.4917 32.4253 20.6254 32.4384 19.7468C32.426 18.8765 32.6333 18.0178 33.04 17.2545C33.4248 16.5308 33.998 15.9318 34.6955 15.5248C35.4217 15.1066 36.2424 14.8931 37.0745 14.906C37.9012 14.8915 38.7166 15.1052 39.4357 15.5248C40.1233 15.9333 40.6852 16.5328 41.0569 17.2545C41.4563 18.0392 41.6571 18.9148 41.6407 19.8004C41.6406 19.9742 41.6314 20.1478 41.6133 20.3206ZM35.0682 17.1121C34.5228 17.6246 34.1839 18.3288 34.1186 19.0857H40.0442C39.9745 18.3329 39.6362 17.6333 39.0945 17.122C38.5439 16.6109 37.8227 16.3382 37.0814 16.3608C36.3416 16.3369 35.6211 16.6059 35.0682 17.1121Z" fill="#333333"/>
<path d="M50.4479 15.8745C51.1276 16.5201 51.4675 17.4825 51.4675 18.7615V24.4975H49.8792V23.2429C49.588 23.6952 49.1725 24.0481 48.6855 24.2565C48.1025 24.5022 47.4764 24.6212 46.8465 24.6061C45.8113 24.6061 44.9836 24.3491 44.3633 23.835C44.0751 23.5896 43.8423 23.2826 43.6812 22.9353C43.52 22.588 43.4344 22.2088 43.4302 21.824C43.426 21.4391 43.5034 21.058 43.657 20.7071C43.8106 20.3562 44.0366 20.0439 44.3194 19.792C44.9114 19.2845 45.8525 19.0303 47.1425 19.0294H49.7915V18.6896C49.7915 17.9481 49.5822 17.3805 49.1638 16.9867C48.7454 16.593 48.1296 16.3956 47.3165 16.3947C46.7705 16.3963 46.2286 16.4916 45.7131 16.6766C45.2313 16.8394 44.7827 17.0917 44.3893 17.4209L43.6918 16.1296C44.1994 15.7184 44.7791 15.4111 45.3993 15.2246C46.0832 15.0124 46.794 14.9064 47.5084 14.9103C48.7874 14.9074 49.7673 15.2288 50.4479 15.8745ZM48.7815 22.8369C49.2431 22.5481 49.5983 22.1098 49.7915 21.5908V20.2643H47.2124C45.7944 20.2643 45.0855 20.7544 45.0855 21.7346C45.0783 21.9539 45.124 22.1716 45.2184 22.3684C45.3129 22.5651 45.4532 22.7348 45.6268 22.8623C45.9858 23.1367 46.4851 23.2744 47.1246 23.2753C47.7059 23.2914 48.2799 23.1395 48.7815 22.8369Z" fill="#333333"/>
<path d="M69.3168 15.9463C69.9965 16.6398 70.3364 17.6675 70.3364 19.0292V24.4974H68.6631V19.2266C68.6631 18.3075 68.4571 17.6144 68.045 17.1473C67.633 16.6802 67.0433 16.4453 66.2758 16.4425C65.428 16.4425 64.7542 16.7145 64.2545 17.2587C63.7547 17.8028 63.5049 18.5824 63.5049 19.5974V24.4918H61.8316V19.2266C61.8316 18.3075 61.6256 17.6144 61.2136 17.1473C60.8015 16.6802 60.2118 16.4453 59.4444 16.4425C58.5956 16.4425 57.9214 16.7145 57.4216 17.2587C56.9219 17.8028 56.6725 18.5824 56.6734 19.5974V24.4918H55.0001V14.9905H56.6035V16.4072C56.938 15.9155 57.3953 15.5259 57.9273 15.2795C58.5146 15.0137 59.1509 14.882 59.7924 14.8932C60.4578 14.8807 61.1162 15.0345 61.711 15.3415C62.2608 15.6323 62.7109 16.0893 63.0006 16.6511C63.361 16.0911 63.8646 15.6443 64.4559 15.3598C65.1124 15.0413 65.831 14.8817 66.5568 14.8932C67.7171 14.9017 68.6371 15.2527 69.3168 15.9463Z" fill="#333333"/>
<path d="M74.1028 11.9485H75.8459V22.944H82.4513V24.5031H74.1028V11.9485Z" fill="#333333"/>
<path d="M90.0423 15.8616V17.8493L84.6456 19.8369V17.8183L90.0423 15.8616Z" fill="#333333"/>
<path d="M89.2747 22.1035C89.2747 22.1035 89.6543 24.1306 87.9249 24.7185C87.9249 24.7185 86.0927 25.1273 85.6254 23.4639L89.2747 22.1035Z" fill="#333333"/>
<path d="M84.6557 16.8331C86.0262 16.3947 93.6456 15.0188 94.4528 8.41725C94.7721 5.80933 93.7799 0 87.1033 0C79.2796 0 76.7142 11.5411 84.6557 14.2379L84.7065 12.3517C84.7065 12.3517 81.5833 10.8856 81.7998 7.03857C81.9958 3.55946 85.0888 1.93691 87.2815 1.93691C89.0301 1.93691 92.8371 3.27048 92.352 8.42148C92.352 8.42148 91.9504 13.0495 84.6585 14.8525L84.6557 16.8331Z" fill="#84B739"/>
<path d="M103.483 14.996V23.2075C103.483 24.8681 103.081 26.0959 102.279 26.891C101.477 27.686 100.279 28.0836 98.6861 28.0836C97.8425 28.0876 97.003 27.9637 96.1947 27.7156C95.4873 27.517 94.8319 27.1587 94.2761 26.6668L95.0778 25.3403C95.5474 25.7457 96.0892 26.053 96.673 26.2453C97.3039 26.4666 97.966 26.579 98.6326 26.578C99.7134 26.578 100.512 26.3149 101.029 25.7886C101.547 25.2623 101.805 24.4635 101.805 23.3921V22.6393C101.416 23.1247 100.916 23.5034 100.35 23.7417C99.7549 23.9893 99.1181 24.1129 98.4764 24.1054C97.6437 24.1168 96.8211 23.9158 96.0823 23.5204C95.385 23.1486 94.8025 22.5837 94.4008 21.8894C94 21.158 93.7894 20.3325 93.7894 19.4929C93.7894 18.6533 94 17.8279 94.4008 17.0965C94.8025 16.4057 95.3853 15.8453 96.0823 15.4795C96.824 15.0907 97.6467 14.8937 98.4792 14.9058C99.1462 14.9001 99.8075 15.0344 100.422 15.3005C101.004 15.5501 101.511 15.9521 101.894 16.4663V14.996H103.483ZM100.302 22.2038C100.772 21.9515 101.165 21.5692 101.435 21.1C101.712 20.6141 101.855 20.0591 101.846 19.4957C101.846 18.5747 101.55 17.8309 100.958 17.2642C100.366 16.6975 99.6052 16.4156 98.6751 16.4184C97.7341 16.4184 96.9671 16.7003 96.3742 17.2642C95.7813 17.8281 95.4848 18.5719 95.4848 19.4957C95.4764 20.0591 95.6186 20.6141 95.8959 21.1C96.1661 21.5695 96.5587 21.9519 97.0293 22.2038C97.5388 22.4626 98.0994 22.5972 98.6676 22.5972C99.2358 22.5972 99.7964 22.4626 100.306 22.2038H100.302Z" fill="#333333"/>
<path d="M114.832 15.9549C115.523 16.6541 115.869 17.6789 115.869 19.0294V24.4976H114.196V19.2268C114.196 18.3076 113.981 17.6145 113.552 17.1475C113.122 16.6804 112.506 16.4454 111.704 16.4426C110.797 16.4426 110.082 16.7147 109.56 17.2588C109.037 17.803 108.776 18.5825 108.776 19.5975V24.4919H107.102V11.1958H108.776V16.3411C109.139 15.8754 109.61 15.5113 110.146 15.2825C110.745 15.0244 111.388 14.8962 112.037 14.9061C113.208 14.9061 114.14 15.2557 114.832 15.9549Z" fill="#333333"/>
<path d="M124.598 23.9422C124.332 24.1694 124.023 24.3374 123.691 24.4356C123.329 24.549 122.953 24.6065 122.575 24.6062C121.646 24.6062 120.926 24.3491 120.414 23.8351C119.903 23.321 119.648 22.5856 119.65 21.6289V16.413H118.079V14.9963H119.65V12.917H121.321V14.9963H123.97V16.413H121.321V21.5584C121.321 22.0715 121.446 22.4658 121.696 22.7411C121.945 23.0165 122.302 23.1537 122.767 23.1528C123.241 23.1664 123.703 23.0082 124.075 22.7059L124.598 23.9422Z" fill="#333333"/>
<path d="M90.0423 18.815V20.8027L84.6456 22.7903V20.7717L90.0423 18.815Z" fill="#333333"/>
</svg>
