<svg width="32" height="30" viewBox="0 0 32 30" fill="none" xmlns="http://www.w3.org/2000/svg">
<path d="M29.9487 4.74368H2.05131C0.918125 4.74368 0 3.82555 0 2.69243C0 1.5593 0.918125 0.641113 2.05131 0.641113H29.9487C31.0819 0.641113 32 1.55924 32 2.69243C32 3.82561 31.0819 4.74368 29.9487 4.74368Z" fill="#84B739"/>
<path d="M18.4616 17.0513H2.05131C0.918125 17.0513 0 16.1332 0 15C0 13.8669 0.918125 12.9487 2.05131 12.9487H18.4616C19.5947 12.9487 20.5129 13.8669 20.5129 15C20.5129 16.1332 19.5947 17.0513 18.4616 17.0513Z" fill="#84B739"/>
<path d="M29.9486 17.0514H26.6665C25.5334 17.0514 24.6152 16.1332 24.6152 15C24.6152 13.8669 25.5334 12.9487 26.6665 12.9487H29.9486C31.0817 12.9487 31.9999 13.8669 31.9999 15C31.9999 16.1332 31.0817 17.0514 29.9486 17.0514Z" fill="white"/>
<path d="M29.9487 29.359H2.05131C0.918125 29.359 0 28.4408 0 27.3077C0 26.1745 0.918125 25.2563 2.05131 25.2563H29.9487C31.0819 25.2563 32 26.1745 32 27.3077C32 28.4408 31.0819 29.359 29.9487 29.359Z" fill="#84B739"/>
</svg>
