<svg width="356" height="237" viewBox="0 0 356 237" fill="none" xmlns="http://www.w3.org/2000/svg">
<path d="M66.6003 205.467H66.5063C65.3313 205.373 64.1563 205.232 62.9813 205.056C62.827 205.034 62.6786 204.981 62.5447 204.902C62.4107 204.822 62.2937 204.717 62.2004 204.592C62.1071 204.467 62.0393 204.325 62.001 204.174C61.9626 204.023 61.9543 203.866 61.9767 203.712C61.9991 203.558 62.0516 203.409 62.1314 203.275C62.2111 203.142 62.3164 203.025 62.4413 202.931C62.5663 202.838 62.7084 202.77 62.8595 202.732C63.0106 202.694 63.1678 202.686 63.3221 202.708C64.4579 202.872 65.5977 203.001 66.7413 203.095C67.053 203.108 67.3469 203.244 67.5584 203.473C67.77 203.702 67.8818 204.005 67.8693 204.317C67.8569 204.628 67.7211 204.922 67.492 205.133C67.2628 205.345 66.959 205.456 66.6473 205.444L66.6003 205.467ZM78.3503 205.021C78.196 205.033 78.041 205.014 77.894 204.965C77.747 204.917 77.611 204.84 77.4937 204.739C77.3764 204.639 77.2801 204.516 77.2104 204.378C77.1406 204.24 77.0988 204.089 77.0872 203.935C77.0756 203.781 77.0946 203.626 77.1429 203.479C77.1913 203.332 77.2681 203.196 77.369 203.079C77.47 202.962 77.593 202.865 77.7311 202.796C77.8693 202.726 78.0198 202.684 78.1741 202.673C79.2904 202.497 80.4301 202.273 81.5463 202.003C81.6968 201.969 81.8526 201.964 82.005 201.989C82.1573 202.015 82.3031 202.07 82.434 202.152C82.565 202.233 82.6785 202.34 82.7681 202.466C82.8578 202.592 82.9217 202.734 82.9563 202.884C83.027 203.186 82.9752 203.504 82.8123 203.768C82.6494 204.032 82.3886 204.221 82.0868 204.293C80.9118 204.575 79.7368 204.81 78.5618 204.998L78.3503 205.021ZM51.7953 202.156C51.6591 202.156 51.5239 202.132 51.3958 202.086C50.2208 201.675 49.1633 201.228 48.0588 200.759C47.9169 200.698 47.7883 200.61 47.6805 200.499C47.5727 200.388 47.4877 200.258 47.4304 200.114C47.3731 199.971 47.3447 199.818 47.3466 199.663C47.3486 199.509 47.381 199.356 47.442 199.215C47.5029 199.073 47.5912 198.944 47.7019 198.837C47.8125 198.729 47.9433 198.644 48.0868 198.587C48.2303 198.529 48.3836 198.501 48.5381 198.503C48.6926 198.505 48.8451 198.537 48.9871 198.598C50.0446 199.056 51.1373 199.479 52.2066 199.878C52.4672 199.973 52.686 200.156 52.8243 200.396C52.9626 200.636 53.0114 200.918 52.9622 201.19C52.9129 201.463 52.7688 201.71 52.5553 201.886C52.3418 202.063 52.0726 202.159 51.7953 202.156ZM92.8381 200.348C92.6179 200.348 92.402 200.287 92.215 200.171C92.028 200.054 91.8775 199.888 91.7806 199.69C91.6421 199.411 91.62 199.089 91.7191 198.794C91.8183 198.499 92.0305 198.255 92.3093 198.117C93.3316 197.624 94.3538 197.072 95.3526 196.496C95.4867 196.419 95.6349 196.368 95.7885 196.348C95.9422 196.328 96.0983 196.338 96.248 196.379C96.3976 196.419 96.5377 196.489 96.6603 196.583C96.7829 196.678 96.8856 196.796 96.9623 196.931C97.1155 197.2 97.1558 197.52 97.0743 197.819C96.9929 198.118 96.7963 198.373 96.5276 198.528C95.4818 199.127 94.4126 199.702 93.3551 200.23C93.1798 200.316 92.9859 200.356 92.7911 200.348H92.8381ZM38.1536 195.346C37.9296 195.349 37.7095 195.287 37.5191 195.169C36.5203 194.535 35.5216 193.866 34.5463 193.185C34.2911 193.007 34.1169 192.736 34.0619 192.43C34.0068 192.124 34.0754 191.808 34.2526 191.553C34.4305 191.298 34.7023 191.124 35.0085 191.069C35.3147 191.014 35.6302 191.082 35.8858 191.259C36.8376 191.929 37.8011 192.563 38.7763 193.185C38.9884 193.322 39.1507 193.523 39.2393 193.759C39.3278 193.996 39.3379 194.254 39.268 194.496C39.1982 194.739 39.0521 194.952 38.8514 195.105C38.6506 195.258 38.406 195.342 38.1536 195.346ZM105.481 191.976C105.31 191.974 105.142 191.936 104.988 191.863C104.834 191.79 104.697 191.684 104.588 191.553C104.488 191.436 104.412 191.3 104.364 191.153C104.316 191.007 104.298 190.852 104.31 190.698C104.322 190.545 104.364 190.395 104.434 190.257C104.504 190.12 104.6 189.997 104.717 189.897L104.976 189.627C105.751 188.958 106.539 188.265 107.326 187.537C107.555 187.325 107.859 187.213 108.171 187.225C108.482 187.237 108.777 187.373 108.988 187.602C109.2 187.831 109.313 188.134 109.3 188.446C109.288 188.757 109.153 189.051 108.924 189.263C108.101 190.015 107.302 190.731 106.503 191.412L106.233 191.635C106.032 191.836 105.765 191.957 105.481 191.976ZM26.0041 186.105C25.7129 186.104 25.4323 185.995 25.2168 185.799C24.3356 184.989 23.4661 184.167 22.6318 183.345C22.409 183.127 22.282 182.83 22.2787 182.518C22.2754 182.206 22.3961 181.906 22.6142 181.684C22.8324 181.461 23.1301 181.334 23.4419 181.331C23.7537 181.327 24.054 181.448 24.2768 181.666C25.0993 182.476 25.9453 183.275 26.8031 184.014C26.918 184.119 27.011 184.245 27.0768 184.386C27.1425 184.526 27.1798 184.678 27.1863 184.833C27.1929 184.988 27.1686 185.143 27.115 185.289C27.0613 185.435 26.9792 185.568 26.8736 185.682C26.767 185.81 26.6343 185.914 26.4844 185.987C26.3345 186.06 26.1707 186.1 26.0041 186.105ZM116.373 181.278C116.082 181.278 115.802 181.169 115.586 180.973C115.356 180.764 115.218 180.473 115.203 180.162C115.187 179.852 115.296 179.548 115.504 179.318C116.279 178.46 117.067 177.591 117.854 176.699C117.953 176.576 118.077 176.474 118.217 176.399C118.357 176.325 118.51 176.279 118.669 176.266C118.827 176.252 118.986 176.271 119.136 176.32C119.287 176.37 119.426 176.449 119.545 176.554C119.664 176.659 119.761 176.787 119.829 176.93C119.898 177.073 119.936 177.228 119.943 177.386C119.95 177.545 119.924 177.703 119.868 177.851C119.812 177.999 119.726 178.135 119.616 178.249C118.817 179.153 118.03 180.034 117.266 180.891C117.149 181.005 117.008 181.093 116.855 181.15C116.701 181.206 116.537 181.23 116.373 181.22V181.278ZM15.6758 174.867C15.4974 174.868 15.321 174.829 15.1602 174.751C14.9993 174.674 14.8582 174.561 14.7476 174.421C13.9956 173.47 13.2788 172.519 12.5856 171.568C12.4948 171.442 12.4298 171.3 12.3943 171.149C12.3587 170.999 12.3534 170.842 12.3785 170.69C12.4036 170.537 12.4587 170.39 12.5406 170.259C12.6226 170.128 12.7297 170.014 12.8558 169.924C13.1086 169.744 13.4222 169.672 13.7281 169.723C14.0341 169.773 14.3076 169.943 14.4891 170.194C15.1706 171.122 15.8638 172.049 16.5923 172.965C16.7289 173.138 16.8142 173.345 16.8383 173.564C16.8625 173.783 16.8247 174.004 16.7291 174.202C16.6336 174.401 16.4841 174.568 16.2979 174.686C16.1117 174.803 15.8961 174.866 15.6758 174.867ZM126.337 169.665C126.063 169.666 125.797 169.57 125.585 169.395C125.347 169.198 125.196 168.915 125.165 168.607C125.134 168.299 125.226 167.992 125.421 167.752C126.161 166.847 126.901 165.943 127.642 165.016C127.739 164.895 127.858 164.795 127.994 164.721C128.13 164.646 128.279 164.6 128.433 164.583C128.587 164.567 128.743 164.581 128.891 164.625C129.04 164.669 129.178 164.742 129.298 164.839C129.539 165.035 129.692 165.317 129.725 165.625C129.758 165.933 129.668 166.241 129.475 166.483L127.242 169.231C127.133 169.366 126.995 169.475 126.838 169.55C126.682 169.625 126.511 169.664 126.337 169.665ZM7.30985 162.127C7.09113 162.121 6.87846 162.054 6.69577 161.934C6.51309 161.813 6.36765 161.644 6.27584 161.446C5.71184 160.354 5.18309 159.262 4.71309 158.205C4.6505 158.064 4.61635 157.912 4.6126 157.758C4.60884 157.603 4.63556 157.45 4.69121 157.306C4.74687 157.162 4.83037 157.03 4.93695 156.919C5.04353 156.807 5.17109 156.718 5.31234 156.655C5.45352 156.593 5.60564 156.559 5.76002 156.555C5.91441 156.551 6.06801 156.578 6.21206 156.633C6.35611 156.689 6.48778 156.772 6.59953 156.879C6.71128 156.985 6.80093 157.113 6.86334 157.254C7.32159 158.264 7.82684 159.321 8.36734 160.366C8.43819 160.504 8.48101 160.654 8.49335 160.809C8.50569 160.963 8.4873 161.119 8.43924 161.266C8.39118 161.413 8.3144 161.55 8.21332 161.667C8.11225 161.785 7.98888 161.881 7.85034 161.951C7.6831 162.037 7.49776 162.081 7.30985 162.08V162.127ZM135.855 157.7C135.636 157.7 135.421 157.638 135.235 157.522C135.049 157.406 134.899 157.24 134.803 157.043C134.706 156.847 134.667 156.627 134.689 156.409C134.71 156.191 134.793 155.983 134.927 155.81L137.089 153.027C137.179 152.894 137.295 152.781 137.43 152.695C137.565 152.609 137.717 152.552 137.875 152.526C138.034 152.501 138.196 152.508 138.351 152.548C138.507 152.588 138.652 152.658 138.779 152.756C138.906 152.854 139.012 152.977 139.089 153.118C139.167 153.258 139.215 153.413 139.231 153.572C139.246 153.732 139.229 153.893 139.18 154.045C139.131 154.198 139.051 154.339 138.945 154.459L136.783 157.242C136.669 157.376 136.526 157.482 136.366 157.553C136.205 157.624 136.03 157.658 135.855 157.653V157.7ZM2.45709 147.719C2.17198 147.722 1.89557 147.621 1.67938 147.436C1.4632 147.25 1.322 146.992 1.28209 146.71C1.11759 145.535 1.01184 144.279 0.964844 143.081C0.964844 142.77 1.08864 142.471 1.30899 142.251C1.52935 142.031 1.82821 141.907 2.13984 141.907C2.45147 141.907 2.75034 142.031 2.9707 142.251C3.19105 142.471 3.31484 142.77 3.31484 143.081C3.35388 144.213 3.45193 145.342 3.60859 146.463C3.63008 146.617 3.62094 146.773 3.5817 146.923C3.54245 147.073 3.47388 147.213 3.37994 147.337C3.28599 147.46 3.16854 147.564 3.03435 147.641C2.90016 147.719 2.75189 147.77 2.59809 147.79L2.45709 147.719ZM145.196 145.594C144.976 145.596 144.76 145.536 144.572 145.42C144.384 145.305 144.233 145.139 144.135 144.942C144.037 144.745 143.996 144.525 144.018 144.306C144.039 144.087 144.122 143.878 144.256 143.704L146.406 140.909C146.6 140.677 146.876 140.528 147.177 140.494C147.478 140.46 147.78 140.543 148.021 140.726C148.261 140.909 148.422 141.178 148.47 141.477C148.517 141.776 148.447 142.081 148.275 142.33L146.101 145.089C145.994 145.228 145.857 145.341 145.7 145.421C145.544 145.5 145.372 145.543 145.196 145.547V145.594ZM338.801 139.136C338.691 139.147 338.581 139.147 338.472 139.136C338.324 139.093 338.186 139.021 338.065 138.924C337.945 138.828 337.845 138.708 337.771 138.573C337.696 138.438 337.65 138.29 337.633 138.136C337.616 137.983 337.63 137.828 337.673 137.68C337.967 136.647 338.284 135.519 338.601 134.31C338.639 134.16 338.707 134.019 338.8 133.896C338.893 133.772 339.009 133.668 339.142 133.59C339.275 133.511 339.423 133.46 339.576 133.438C339.729 133.417 339.885 133.426 340.035 133.464C340.185 133.504 340.325 133.573 340.449 133.667C340.572 133.761 340.675 133.879 340.753 134.013C340.83 134.147 340.881 134.295 340.9 134.449C340.92 134.603 340.91 134.759 340.869 134.909C340.552 136.083 340.234 137.257 339.929 138.326C339.851 138.563 339.7 138.77 339.497 138.915C339.295 139.061 339.051 139.138 338.801 139.136ZM154.479 133.476C154.219 133.475 153.967 133.389 153.762 133.23C153.516 133.039 153.356 132.759 153.316 132.451C153.277 132.143 153.361 131.832 153.55 131.586L155.701 128.791C155.892 128.543 156.174 128.382 156.485 128.342C156.796 128.303 157.11 128.388 157.357 128.58C157.605 128.771 157.767 129.053 157.806 129.364C157.846 129.674 157.76 129.988 157.569 130.235L155.407 133.018C155.294 133.146 155.155 133.249 154.999 133.318C154.842 133.387 154.673 133.421 154.502 133.417L154.479 133.476ZM3.6791 132.642C3.56612 132.659 3.45132 132.659 3.33834 132.642C3.04083 132.55 2.79202 132.344 2.64661 132.069C2.5012 131.794 2.47107 131.472 2.56284 131.175C2.90359 130 3.31484 128.885 3.73784 127.758C3.78888 127.606 3.8705 127.466 3.97766 127.347C4.08483 127.227 4.21529 127.131 4.36099 127.065C4.5067 126.998 4.66457 126.961 4.82489 126.958C4.98521 126.954 5.14459 126.983 5.29321 127.043C5.44182 127.103 5.57653 127.193 5.68904 127.308C5.80155 127.422 5.88948 127.558 5.94741 127.707C6.00534 127.857 6.03204 128.016 6.02589 128.177C6.01973 128.337 5.98083 128.494 5.91159 128.638C5.48859 129.707 5.10084 130.787 4.73659 131.856C4.65166 132.063 4.50919 132.242 4.32599 132.371C4.14278 132.5 3.92648 132.574 3.7026 132.584L3.6791 132.642ZM342.326 124.212C342.252 124.224 342.176 124.224 342.103 124.212C341.798 124.154 341.528 123.979 341.352 123.724C341.176 123.469 341.108 123.155 341.163 122.85C341.374 121.675 341.574 120.572 341.774 119.397C341.799 119.243 341.855 119.095 341.937 118.963C342.02 118.83 342.128 118.715 342.255 118.624C342.382 118.533 342.526 118.468 342.678 118.432C342.83 118.397 342.988 118.391 343.142 118.417C343.297 118.442 343.445 118.498 343.577 118.58C343.71 118.663 343.825 118.771 343.917 118.898C344.008 119.025 344.073 119.169 344.108 119.321C344.144 119.473 344.149 119.631 344.124 119.785C343.924 120.959 343.724 122.133 343.513 123.307C343.45 123.572 343.298 123.807 343.081 123.972C342.865 124.137 342.598 124.222 342.326 124.212ZM163.879 121.358C163.657 121.359 163.44 121.298 163.252 121.181C163.064 121.065 162.913 120.897 162.816 120.699C162.719 120.5 162.68 120.278 162.704 120.058C162.728 119.838 162.813 119.63 162.95 119.456L165.148 116.685C165.242 116.559 165.361 116.454 165.497 116.375C165.633 116.296 165.784 116.245 165.94 116.225C166.096 116.205 166.255 116.217 166.406 116.26C166.558 116.303 166.699 116.375 166.822 116.474C166.945 116.572 167.046 116.694 167.121 116.833C167.196 116.971 167.242 117.123 167.257 117.28C167.272 117.436 167.255 117.594 167.207 117.744C167.16 117.894 167.083 118.033 166.981 118.153L164.795 120.912C164.688 121.047 164.553 121.158 164.398 121.235C164.244 121.312 164.075 121.354 163.902 121.358H163.879ZM10.6703 119.08C10.4201 119.078 10.1773 118.995 9.9771 118.845C9.72934 118.661 9.5645 118.386 9.5183 118.08C9.47211 117.774 9.5483 117.463 9.73034 117.213C10.4353 116.262 11.1873 115.311 11.9628 114.383C12.1638 114.145 12.4513 113.996 12.762 113.97C13.0727 113.944 13.3812 114.042 13.6196 114.243C13.858 114.443 14.0068 114.731 14.0332 115.041C14.0597 115.352 13.9616 115.66 13.7606 115.898C13.0086 116.779 12.2918 117.695 11.6221 118.599C11.5127 118.748 11.3695 118.87 11.204 118.954C11.0386 119.037 10.8557 119.081 10.6703 119.08ZM173.467 109.44C173.196 109.438 172.935 109.342 172.726 109.17C172.488 108.973 172.337 108.69 172.306 108.382C172.275 108.074 172.367 107.766 172.562 107.526L174.806 104.802C174.902 104.681 175.02 104.58 175.155 104.504C175.29 104.429 175.438 104.381 175.591 104.363C175.745 104.345 175.9 104.358 176.049 104.4C176.197 104.442 176.336 104.512 176.457 104.608C176.578 104.704 176.679 104.822 176.754 104.957C176.83 105.091 176.878 105.24 176.896 105.393C176.914 105.546 176.901 105.701 176.859 105.85C176.817 105.998 176.747 106.137 176.651 106.258L174.418 108.97C174.308 109.118 174.164 109.237 173.999 109.319C173.833 109.4 173.651 109.442 173.467 109.44ZM344.394 109.088H344.3C343.99 109.064 343.702 108.918 343.5 108.683C343.297 108.447 343.196 108.141 343.219 107.831C343.313 106.657 343.383 105.483 343.454 104.309C343.454 104.149 343.486 103.992 343.549 103.845C343.611 103.699 343.703 103.567 343.818 103.457C343.934 103.347 344.07 103.262 344.22 103.206C344.369 103.151 344.528 103.126 344.688 103.134C344.997 103.153 345.287 103.292 345.494 103.523C345.701 103.754 345.808 104.058 345.792 104.367C345.733 105.542 345.651 106.716 345.557 107.89C345.56 108.045 345.532 108.199 345.476 108.344C345.419 108.488 345.334 108.62 345.225 108.731C345.117 108.843 344.988 108.932 344.845 108.993C344.703 109.054 344.549 109.086 344.394 109.088ZM21.2688 108.09C21.0251 108.091 20.787 108.016 20.5877 107.876C20.3883 107.736 20.2375 107.537 20.1562 107.307C20.0749 107.078 20.067 106.828 20.1337 106.594C20.2005 106.36 20.3385 106.152 20.5286 106C22.2793 104.59 23.4073 103.839 23.4543 103.804C23.7146 103.639 24.0293 103.582 24.3307 103.647C24.6321 103.711 24.896 103.892 25.0656 104.149C25.2351 104.406 25.2968 104.72 25.2371 105.022C25.1775 105.324 25.0014 105.591 24.7468 105.765C24.7468 105.765 23.6541 106.493 22.0091 107.82C21.7946 107.997 21.5239 108.093 21.2453 108.09H21.2688ZM183.337 97.7448C183.113 97.7426 182.895 97.6766 182.707 97.5547C182.52 97.4328 182.371 97.2599 182.279 97.0565C182.186 96.8531 182.153 96.6274 182.185 96.4062C182.216 96.1849 182.31 95.9771 182.455 95.8073C183.219 94.9149 183.995 94.0225 184.805 93.1418C184.905 93.0184 185.028 92.9164 185.168 92.8419C185.308 92.7674 185.462 92.722 185.62 92.7085C185.778 92.6949 185.937 92.7135 186.088 92.7631C186.239 92.8126 186.378 92.8922 186.497 92.9969C186.616 93.1016 186.712 93.2294 186.781 93.3724C186.849 93.5154 186.888 93.6708 186.894 93.8292C186.901 93.9875 186.876 94.1456 186.819 94.2939C186.763 94.4421 186.678 94.5775 186.568 94.6918C185.792 95.5725 185.017 96.4531 184.218 97.3455C184.105 97.4738 183.966 97.576 183.81 97.6449C183.653 97.7139 183.484 97.7479 183.313 97.7448H183.337ZM344.676 93.8229C344.376 93.8234 344.087 93.7094 343.869 93.5042C343.651 93.299 343.519 93.0182 343.501 92.7191C343.43 91.5449 343.348 90.3707 343.242 89.1965C343.214 88.8851 343.311 88.5753 343.512 88.3352C343.712 88.0952 344 87.9446 344.312 87.9166C344.623 87.8886 344.933 87.9854 345.173 88.1858C345.414 88.3862 345.564 88.6737 345.592 88.9851C345.698 90.1593 345.792 91.3335 345.851 92.5078C345.851 92.8074 345.737 93.0958 345.532 93.3141C345.327 93.5324 345.046 93.664 344.746 93.682L344.676 93.8229ZM193.571 86.3666C193.274 86.3656 192.989 86.2523 192.772 86.0496C192.545 85.8374 192.411 85.5442 192.4 85.2339C192.389 84.9236 192.502 84.6216 192.713 84.3939C193.512 83.525 194.323 82.6678 195.134 81.8224C195.353 81.6218 195.639 81.5116 195.936 81.5138C196.233 81.5161 196.519 81.6306 196.735 81.8345C196.95 82.0383 197.081 82.3163 197.1 82.6126C197.119 82.9088 197.025 83.2012 196.837 83.4311L194.487 85.9909C194.366 86.1228 194.216 86.2253 194.049 86.2904C193.882 86.3555 193.702 86.3816 193.524 86.3666H193.571ZM342.549 78.7225C342.281 78.7303 342.018 78.646 341.804 78.4836C341.59 78.3213 341.438 78.0906 341.374 77.8301C341.104 76.6559 340.81 75.5638 340.481 74.4836C340.438 74.3355 340.424 74.1804 340.441 74.0271C340.458 73.8739 340.505 73.7254 340.579 73.5902C340.653 73.455 340.753 73.3357 340.873 73.2392C340.994 73.1426 341.132 73.0707 341.28 73.0275C341.578 72.9399 341.898 72.9734 342.171 73.1208C342.444 73.2682 342.647 73.5175 342.737 73.8143C343.066 74.9885 343.383 76.104 343.665 77.2782C343.702 77.4286 343.709 77.5847 343.685 77.7376C343.661 77.8905 343.607 78.0373 343.526 78.1693C343.445 78.3013 343.339 78.4161 343.214 78.507C343.089 78.5979 342.946 78.6632 342.796 78.699L342.549 78.7225ZM204.228 75.4229C203.996 75.422 203.769 75.3521 203.576 75.2223C203.383 75.0925 203.234 74.9085 203.146 74.6936C203.058 74.4786 203.035 74.2425 203.082 74.0149C203.128 73.7873 203.241 73.5786 203.406 73.415L205.955 70.9492C206.065 70.8391 206.195 70.7518 206.338 70.6921C206.481 70.6325 206.634 70.6018 206.79 70.6018C206.945 70.6018 207.098 70.6325 207.241 70.6921C207.385 70.7518 207.515 70.8391 207.624 70.9492C207.843 71.1692 207.966 71.4668 207.966 71.777C207.966 72.0872 207.843 72.3848 207.624 72.6048C206.778 73.4033 205.944 74.2252 205.098 75.0472C204.981 75.1727 204.839 75.2714 204.681 75.3363C204.523 75.4012 204.352 75.4308 204.181 75.4229H204.228ZM215.473 65.0663C215.234 65.066 215.002 64.9931 214.805 64.8574C214.609 64.7217 214.459 64.5295 214.375 64.3065C214.291 64.0835 214.277 63.8401 214.334 63.6088C214.392 63.3775 214.518 63.1691 214.697 63.0115L217.4 60.663C217.64 60.4622 217.95 60.3648 218.262 60.3923C218.573 60.4198 218.861 60.57 219.062 60.8098C219.263 61.0496 219.361 61.3594 219.333 61.671C219.306 61.9826 219.156 62.2705 218.916 62.4713C218.023 63.2111 217.13 63.9743 216.237 64.7376C216.019 64.9474 215.728 65.0651 215.426 65.0663H215.473ZM337.273 64.444C337.06 64.4423 336.85 64.3824 336.668 64.2706C336.486 64.1589 336.338 63.9996 336.239 63.8099C335.699 62.7884 335.135 61.7785 334.536 60.8039C334.376 60.5375 334.328 60.2186 334.403 59.9171C334.478 59.6156 334.669 59.3561 334.935 59.1953C335.202 59.0355 335.521 58.9878 335.822 59.0626C336.124 59.1374 336.384 59.3287 336.545 59.5945C337.168 60.6043 337.72 61.6611 338.319 62.7179C338.415 62.8975 338.462 63.0988 338.457 63.3022C338.451 63.5055 338.393 63.7039 338.287 63.878C338.182 64.052 338.033 64.1957 337.855 64.2949C337.677 64.3941 337.477 64.4455 337.273 64.444ZM227.411 55.5435C227.225 55.5439 227.043 55.5006 226.877 55.4169C226.712 55.3332 226.568 55.2116 226.459 55.062C226.367 54.938 226.301 54.797 226.263 54.6472C226.226 54.4973 226.218 54.3416 226.241 54.1889C226.264 54.0362 226.317 53.8896 226.397 53.7573C226.476 53.625 226.581 53.5098 226.706 53.4181C227.669 52.7136 228.633 52.0325 229.596 51.3515C229.723 51.2628 229.866 51.1999 230.016 51.1664C230.167 51.1329 230.323 51.1294 230.476 51.1561C230.628 51.1828 230.773 51.2392 230.904 51.3221C231.034 51.405 231.147 51.5127 231.235 51.6392C231.324 51.7656 231.387 51.9083 231.421 52.059C231.454 52.2098 231.458 52.3657 231.431 52.5178C231.404 52.6699 231.348 52.8152 231.265 52.9456C231.182 53.0759 231.074 53.1886 230.948 53.2772L228.104 55.3086C227.891 55.4685 227.63 55.5513 227.364 55.5435H227.411ZM328.343 52.1382C328.188 52.1376 328.034 52.1061 327.891 52.0456C327.748 51.9852 327.618 51.8969 327.509 51.786C326.726 51.0032 325.892 50.2203 325.006 49.4375C324.773 49.2318 324.631 48.942 324.611 48.6316C324.591 48.3212 324.695 48.0156 324.901 47.7819C325.106 47.5486 325.396 47.4064 325.707 47.3866C326.018 47.3668 326.323 47.471 326.557 47.6762C327.45 48.4629 328.332 49.2966 329.178 50.1538C329.396 50.3738 329.519 50.6714 329.519 50.9816C329.519 51.2918 329.396 51.5894 329.178 51.8094C329.061 51.922 328.923 52.0092 328.771 52.0658C328.62 52.1224 328.458 52.147 328.296 52.1382H328.343ZM240.218 47.1596C240.011 47.1604 239.808 47.1065 239.628 47.0034C239.449 46.9003 239.3 46.7516 239.196 46.5724C239.042 46.3042 239 45.9861 239.079 45.6871C239.158 45.3881 239.352 45.1324 239.619 44.9755C240.653 44.3767 241.687 43.8013 242.721 43.2377C242.856 43.1606 243.005 43.1108 243.159 43.0912C243.314 43.0716 243.47 43.0826 243.62 43.1235C243.77 43.1643 243.911 43.2344 244.034 43.3295C244.157 43.4247 244.26 43.5431 244.337 43.678C244.414 43.8129 244.464 43.9617 244.483 44.1159C244.503 44.27 244.492 44.4265 244.451 44.5765C244.41 44.7264 244.34 44.8668 244.245 44.9897C244.15 45.1125 244.031 45.2155 243.896 45.2926C242.874 45.8444 241.863 46.4668 240.853 47.0069C240.626 47.1405 240.362 47.1942 240.101 47.1596H240.218ZM316.217 43.0263C316.019 43.027 315.824 42.9742 315.653 42.8737C314.666 42.3335 313.632 41.8051 312.575 41.312C312.435 41.2457 312.31 41.1525 312.206 41.0378C312.103 40.9232 312.023 40.7892 311.971 40.6437C311.919 40.4981 311.896 40.3438 311.904 40.1895C311.912 40.0352 311.95 39.8839 312.017 39.7444C312.083 39.6048 312.176 39.4797 312.291 39.3762C312.406 39.2726 312.54 39.1926 312.685 39.1408C312.831 39.0891 312.986 39.0664 313.14 39.0743C313.294 39.0821 313.446 39.1203 313.585 39.1866C314.678 39.7033 315.747 40.2552 316.781 40.8188C317.012 40.9432 317.194 41.141 317.299 41.3809C317.405 41.6207 317.427 41.8889 317.362 42.1426C317.297 42.3963 317.149 42.6211 316.942 42.7813C316.734 42.9414 316.479 43.0276 316.217 43.0263ZM253.884 40.4196C253.61 40.4202 253.344 40.3254 253.133 40.1513C252.922 39.9773 252.778 39.7351 252.727 39.4664C252.675 39.1978 252.719 38.9196 252.851 38.6798C252.983 38.4401 253.194 38.2539 253.449 38.1533C254.553 37.7071 255.658 37.2844 256.774 36.8852C257.065 36.7894 257.381 36.8105 257.656 36.9442C257.931 37.0778 258.143 37.3134 258.247 37.6008C258.351 37.8883 258.339 38.2049 258.213 38.4835C258.087 38.7621 257.858 38.9806 257.573 39.0927C256.492 39.4802 255.411 39.8912 254.33 40.3374C254.159 40.4068 253.974 40.435 253.79 40.4196H253.884ZM302.117 37.2492C302.004 37.2606 301.89 37.2606 301.777 37.2492C300.672 36.9204 299.544 36.6151 298.428 36.3568C298.116 36.2836 297.846 36.0897 297.678 35.8177C297.509 35.5458 297.456 35.218 297.529 34.9066C297.602 34.5952 297.796 34.3256 298.068 34.1571C298.341 33.9887 298.668 33.9352 298.98 34.0083C300.155 34.2902 301.33 34.5954 302.505 34.936C302.817 34.9796 303.098 35.1451 303.288 35.3961C303.477 35.6472 303.559 35.9632 303.516 36.2746C303.472 36.586 303.306 36.8673 303.055 37.0567C302.804 37.2461 302.488 37.328 302.176 37.2844L302.117 37.2492ZM268.301 35.9458C268.028 35.9519 267.761 35.8626 267.546 35.6933C267.332 35.5239 267.183 35.2852 267.126 35.0182C267.093 34.8662 267.091 34.7093 267.12 34.5565C267.148 34.4037 267.207 34.2581 267.292 34.1282C267.377 33.9982 267.487 33.8864 267.616 33.7993C267.745 33.7122 267.89 33.6516 268.042 33.6208C269.217 33.386 270.392 33.1629 271.567 32.9868C271.879 32.9385 272.197 33.0159 272.452 33.202C272.706 33.3881 272.876 33.6676 272.924 33.979C272.973 34.2904 272.895 34.6082 272.709 34.8626C272.523 35.1169 272.243 35.2869 271.932 35.3352C270.757 35.5113 269.664 35.7227 268.524 35.9575C268.449 35.9641 268.374 35.9601 268.301 35.9458ZM287.019 34.6307H286.936C285.761 34.5602 284.586 34.5132 283.482 34.5015C283.17 34.5015 282.871 34.3778 282.651 34.1576C282.431 33.9374 282.307 33.6387 282.307 33.3273C282.307 33.0159 282.431 32.7172 282.651 32.497C282.871 32.2768 283.17 32.1531 283.482 32.1531C284.657 32.1531 285.832 32.2118 287.066 32.2822C287.377 32.2916 287.672 32.4243 287.886 32.6511C288.1 32.8779 288.215 33.1803 288.205 33.4917C288.196 33.8031 288.063 34.0981 287.836 34.3117C287.609 34.5253 287.307 34.64 286.995 34.6307H287.019Z" fill="#E6E6E6"/>
<path d="M263.175 219.605H128.18L154.84 2.5863H275.231L287.803 19.178L263.175 219.605Z" fill="#C1C1C1"/>
<path d="M248.574 219.605H113.566L140.227 2.5863H275.235L248.574 219.605Z" fill="#E6E6E6"/>
<path d="M241.921 178.425H129.121L148.356 21.9374H261.156L241.921 178.425Z" fill="white"/>
<path d="M203.875 110.109L236.47 110.497L235.835 115.534L203.875 114.982V110.109Z" fill="#E6E6E6"/>
<path d="M113.566 219.605L129.805 234.588L261.158 236.584L263.179 219.605H113.566Z" fill="#C1C1C1"/>
<path d="M217.775 64.2797C217.775 64.2797 223.403 64.6789 226.282 75.2586C229.16 85.8383 228.173 115.37 228.173 115.37L203.898 114.982C203.898 114.982 191.784 71.0314 217.775 64.2797Z" fill="#24285B"/>
<path d="M101.119 0.855942L12.8203 72.5405L59.1627 129.547L147.461 57.8625L101.119 0.855942Z" fill="#FFD200"/>
<path d="M100.64 16.6286L61.1055 48.7245L68.7588 58.139L108.293 26.0431L100.64 16.6286Z" fill="white"/>
<path opacity="0.46" d="M69.1664 88.9781L55.0307 100.454C53.1066 102.016 52.814 104.841 54.3771 106.764L56.37 109.216C57.9331 111.138 60.76 111.431 62.684 109.869L76.8197 98.3926C78.7438 96.8306 79.0364 94.0057 77.4733 92.0829L75.4804 89.6313C73.9173 87.7085 71.0904 87.4161 69.1664 88.9781Z" fill="white"/>
<path opacity="0.46" d="M120.816 47.0515L81.4096 79.0438C79.4855 80.6058 79.1929 83.4308 80.756 85.3535L82.7489 87.8051C84.312 89.7279 87.1389 90.0203 89.0629 88.4583L128.47 56.466C130.394 54.904 130.686 52.079 129.123 50.1563L127.13 47.7047C125.567 45.7819 122.74 45.4895 120.816 47.0515Z" fill="white"/>
<path opacity="0.3" d="M40.2089 82.3039C44.6476 82.3039 48.2459 78.708 48.2459 74.2722C48.2459 69.8365 44.6476 66.2406 40.2089 66.2406C35.7702 66.2406 32.1719 69.8365 32.1719 74.2722C32.1719 78.708 35.7702 82.3039 40.2089 82.3039Z" fill="white"/>
<path opacity="0.3" d="M48.3651 74.9884C52.8038 74.9884 56.4021 71.3925 56.4021 66.9568C56.4021 62.5211 52.8038 58.9252 48.3651 58.9252C43.9264 58.9252 40.3281 62.5211 40.3281 66.9568C40.3281 71.3925 43.9264 74.9884 48.3651 74.9884Z" fill="white"/>
<path d="M217.776 64.2796C217.776 64.2796 205.004 68.8708 209.457 104.837C212.723 131.186 201.69 166.072 185.381 166.495C169.072 166.918 138.992 165.485 138.992 165.485C138.992 165.485 154.655 124.975 151.412 90.9578C150.913 86.1954 151.483 81.3818 153.08 76.8672C154.984 71.6889 158.521 66.2993 165.101 65.4186C178.237 63.6338 217.776 64.2796 217.776 64.2796Z" fill="#84B739"/>
<path d="M129.953 168.116L187.587 166.941C187.587 166.941 178.798 158.229 178.246 136.048L98.9688 137.222C100.328 142.945 102.417 148.47 105.184 153.661C107.579 158.118 111.159 161.826 115.53 164.377C119.901 166.928 124.893 168.222 129.953 168.116Z" fill="#84B739"/>
<path opacity="0.44" d="M129.953 168.116L187.587 166.941C187.587 166.941 178.798 158.229 178.246 136.048L98.9688 137.222C100.328 142.945 102.417 148.47 105.184 153.661C107.579 158.118 111.159 161.826 115.53 164.377C119.901 166.928 124.893 168.222 129.953 168.116Z" fill="white"/>
<path d="M172.08 33.2334L170.07 46.4198H228.315L230.078 33.2334H172.08Z" fill="#24285B"/>
<path opacity="0.48" d="M188.118 188.981C181.832 183.486 171.891 184.566 167.45 191.647C166.329 193.367 165.722 195.371 165.699 197.424C165.699 206.113 171.703 211.808 183.7 209.413C192.853 207.581 196.343 196.156 188.118 188.981Z" fill="white"/>
<path d="M321.528 219.992C339.425 219.992 353.934 205.493 353.934 187.608C353.934 169.722 339.425 155.223 321.528 155.223C303.63 155.223 289.121 169.722 289.121 187.608C289.121 205.493 303.63 219.992 321.528 219.992Z" fill="#FFD200"/>
<path opacity="0.09" d="M321.528 219.992C339.425 219.992 353.934 205.493 353.934 187.608C353.934 169.722 339.425 155.223 321.528 155.223C303.63 155.223 289.121 169.722 289.121 187.608C289.121 205.493 303.63 219.992 321.528 219.992Z" fill="black"/>
<path d="M322.996 211.221C340.894 211.221 355.403 196.722 355.403 178.836C355.403 160.95 340.894 146.451 322.996 146.451C305.099 146.451 290.59 160.95 290.59 178.836C290.59 196.722 305.099 211.221 322.996 211.221Z" fill="#FFD200"/>
<path d="M327.638 159.356C328.719 159.532 328.99 159.966 328.813 161.047L328.426 163.395C332.656 164.722 334.782 167.305 335.981 171.38C336.357 172.554 335.981 173.176 334.653 173.529L332.174 174.174C330.999 174.515 330.529 174.174 330.106 173C329.819 171.75 329.138 170.626 328.162 169.793C327.187 168.96 325.969 168.462 324.689 168.374C320.694 167.705 318.662 168.573 318.203 171.251C317.921 172.989 319.378 174.339 320.929 174.949C322.006 175.378 323.109 175.738 324.231 176.03C326.347 176.494 328.385 177.261 330.282 178.308C331.236 178.789 332.092 179.442 332.808 180.233C333.5 181.255 333.979 182.405 334.217 183.615C334.456 184.826 334.448 186.071 334.195 187.279C333.337 192.398 329.319 195.31 323.103 195.181L322.692 197.635C322.504 198.716 322.116 199.033 321.035 198.81L318.438 198.375C317.357 198.187 317.052 197.753 317.263 196.672L317.663 194.324C313.057 192.915 310.307 189.991 309.438 185.494C309.238 184.402 309.732 183.756 310.895 183.521L313.339 183.052C314.584 182.828 315.054 183.204 315.372 184.461C315.971 187.267 317.863 188.946 321.07 189.474C325.394 190.202 327.791 189.204 328.261 186.422C328.402 185.786 328.327 185.121 328.049 184.532C327.77 183.943 327.303 183.464 326.722 183.169C325.307 182.395 323.787 181.829 322.21 181.49C320.069 181.012 318.018 180.195 316.135 179.071C315.199 178.555 314.363 177.875 313.668 177.063C312.964 176.089 312.47 174.98 312.217 173.806C311.964 172.632 311.958 171.418 312.199 170.241C313.045 165.168 316.817 162.315 322.974 162.526L323.361 160.178C323.538 159.098 323.984 158.792 325.065 159.004L327.638 159.356Z" fill="white"/>
<path d="M162.279 78.8869C162.125 78.8923 161.971 78.8672 161.827 78.8132C161.682 78.7592 161.549 78.6772 161.436 78.572C161.324 78.4668 161.232 78.3404 161.168 78.2C161.104 78.0596 161.069 77.9079 161.063 77.7537C161.058 77.5995 161.083 77.4458 161.137 77.3013C161.191 77.1567 161.273 77.0243 161.378 76.9114C161.484 76.7986 161.61 76.7075 161.751 76.6435C161.891 76.5796 162.043 76.5438 162.197 76.5384C162.444 76.5384 187.013 74.7301 200.185 75.9044C200.496 75.9324 200.784 76.083 200.985 76.323C201.185 76.563 201.282 76.8728 201.254 77.1843C201.226 77.4957 201.075 77.7832 200.835 77.9836C200.595 78.184 200.285 78.2808 199.973 78.2528C187.048 77.0786 162.608 78.8516 162.373 78.8751L162.279 78.8869Z" fill="white"/>
<path d="M160.33 94.7741C160.176 94.7795 160.022 94.7544 159.877 94.7004C159.733 94.6464 159.6 94.5644 159.487 94.4592C159.259 94.2467 159.125 93.9524 159.114 93.641C159.103 93.3295 159.216 93.0265 159.429 92.7986C159.642 92.5707 159.936 92.4365 160.248 92.4256C160.495 92.4256 185.064 90.6174 198.236 91.7916C198.547 91.8196 198.835 91.9702 199.036 92.2102C199.236 92.4502 199.333 92.76 199.305 93.0715C199.277 93.3829 199.126 93.6704 198.886 93.8708C198.646 94.0712 198.336 94.168 198.024 94.14C185.099 92.9658 160.671 94.7506 160.424 94.7623L160.33 94.7741Z" fill="white"/>
<path d="M160.106 111.283C159.794 111.296 159.49 111.184 159.261 110.973C159.032 110.761 158.896 110.468 158.884 110.156C158.871 109.845 158.983 109.541 159.195 109.312C159.406 109.083 159.7 108.947 160.012 108.935C160.258 108.935 184.84 107.127 198 108.301C198.154 108.315 198.304 108.359 198.441 108.431C198.578 108.503 198.7 108.601 198.799 108.72C198.899 108.838 198.974 108.976 199.02 109.123C199.066 109.271 199.083 109.427 199.069 109.581C199.055 109.735 199.011 109.885 198.939 110.022C198.867 110.159 198.769 110.281 198.65 110.38C198.531 110.479 198.394 110.554 198.246 110.6C198.098 110.647 197.942 110.663 197.788 110.649C184.863 109.475 160.435 111.26 160.188 111.272L160.106 111.283Z" fill="white"/>
<path d="M158.545 127.793C158.391 127.798 158.237 127.773 158.092 127.719C157.948 127.665 157.815 127.583 157.702 127.478C157.589 127.373 157.498 127.246 157.434 127.106C157.37 126.966 157.334 126.814 157.329 126.66C157.323 126.506 157.348 126.352 157.403 126.207C157.457 126.063 157.539 125.93 157.644 125.818C157.749 125.705 157.876 125.614 158.016 125.55C158.157 125.486 158.308 125.45 158.463 125.445C158.709 125.445 183.279 123.636 196.451 124.822C196.605 124.836 196.755 124.88 196.892 124.952C197.029 125.024 197.151 125.122 197.25 125.241C197.35 125.36 197.425 125.497 197.471 125.645C197.517 125.792 197.534 125.948 197.52 126.102C197.506 126.256 197.462 126.406 197.39 126.543C197.318 126.681 197.22 126.802 197.101 126.901C196.982 127.001 196.845 127.076 196.697 127.122C196.549 127.168 196.393 127.185 196.239 127.171C183.314 125.996 158.886 127.781 158.639 127.793H158.545Z" fill="white"/>
</svg>
