<svg width="30" height="34" viewBox="0 0 30 34" fill="none" xmlns="http://www.w3.org/2000/svg">
<path d="M21.8942 16.7273C23.5147 14.4137 24.3713 11.6978 24.3713 8.87322V2.57552C24.3713 2.2645 24.1552 1.99498 23.8517 1.92728L15.277 0.0157585C15.1818 -0.00525284 15.0832 -0.00525284 14.988 0.0157585L6.41353 1.92728C6.10977 1.99498 5.89395 2.2645 5.89395 2.57552V8.87322C5.89395 11.6978 6.75049 14.4137 8.37096 16.7271C9.99143 19.0407 12.2511 20.7737 14.9058 21.7392C14.9789 21.7657 15.056 21.7791 15.1325 21.7791C15.2093 21.7791 15.2863 21.7657 15.3594 21.7392C18.0141 20.774 20.2738 19.0407 21.8942 16.7273ZM15.1325 20.4059C12.8337 19.5195 10.8755 17.988 9.45888 15.9652C7.99561 13.8763 7.22208 11.4239 7.22208 8.87322V3.1078L15.1325 1.3444L23.0431 3.1078V8.87322C23.0431 11.4236 22.2696 13.876 20.8063 15.9652C19.3895 17.988 17.4313 19.5195 15.1325 20.4059Z" fill="#84B739"/>
<path d="M21.914 4.54573C21.914 4.23445 21.6982 3.96519 21.3944 3.89749L15.2778 2.53382C15.1826 2.51281 15.0837 2.51281 14.9885 2.53382L8.87164 3.89749C8.51366 3.97738 8.28825 4.33224 8.36814 4.69022C8.44778 5.04819 8.8029 5.27361 9.16061 5.19371L15.133 3.86247L20.5859 5.07802V8.8733C20.5859 10.9168 19.9662 12.8815 18.7939 14.5554C17.8521 15.9002 16.5909 16.9897 15.133 17.7219C13.6752 16.9899 12.4143 15.9002 11.4724 14.5554C10.4584 13.1077 9.84931 11.4154 9.71131 9.66187C9.69964 9.51557 9.69134 9.36771 9.68641 9.22193C9.6737 8.85514 9.36424 8.5685 8.99978 8.58095C8.63325 8.59366 8.34635 8.90105 8.35906 9.26758C8.36477 9.43282 8.37411 9.60065 8.38708 9.76615C8.54376 11.756 9.23454 13.6756 10.3845 15.3173C11.5204 16.9388 13.0659 18.2337 14.8542 19.0617C14.9426 19.1027 15.0381 19.1232 15.1333 19.1232C15.2285 19.1232 15.3237 19.1027 15.4121 19.0617C17.2007 18.2335 18.7462 16.9388 19.8819 15.3173C21.2113 13.4193 21.9143 11.1908 21.9143 8.8733V4.54573H21.914Z" fill="#84B739"/>
<path d="M13.2411 12.3206C13.3573 12.4581 13.5241 12.5424 13.7039 12.5543C13.7187 12.5553 13.7335 12.5559 13.7483 12.5559C13.9122 12.5559 14.0712 12.4952 14.1937 12.3844L19.0081 8.02854C19.2799 7.78262 19.3009 7.36265 19.055 7.09054C18.8089 6.81869 18.3889 6.79768 18.1171 7.04359L13.8118 10.9385L12.583 9.48507C12.3465 9.20518 11.9273 9.1699 11.6474 9.40673C11.3672 9.64356 11.3322 10.0625 11.5688 10.3426L13.2411 12.3206Z" fill="#84B739"/>
<path d="M9.5411 21.9776C9.19117 21.5174 8.68249 21.2248 8.10895 21.1532C7.53542 21.0819 6.97045 21.2404 6.51806 21.6002C6.30639 21.7685 6.13544 21.9703 6.00652 22.1926L5.81145 21.9384C5.63817 21.713 5.54297 21.4323 5.54297 21.148V15.1572C5.54297 13.9333 4.54714 12.9375 3.32329 12.9375C2.17207 12.9375 1.22215 13.8018 1.11346 14.9476L0.402706 22.4435C0.34019 23.1 0.525402 23.7514 0.926174 24.2805L6.57071 31.6304V33.3362C6.57071 33.703 6.86799 34.0002 7.23478 34.0002C7.60131 34.0002 7.89884 33.703 7.89884 33.3362V31.4047C7.89884 31.2584 7.85033 31.1162 7.76136 31.0003L1.98219 23.4751C1.78531 23.2152 1.694 22.8933 1.72487 22.5688L2.43588 15.0731C2.47946 14.6127 2.86104 14.2656 3.32329 14.2656C3.81511 14.2656 4.21484 14.6656 4.21484 15.1572V21.148C4.21484 21.7234 4.40784 22.2912 4.75829 22.7472L6.14841 24.5576C6.15049 24.5604 6.15256 24.5633 6.15464 24.5661L7.27628 26.0268C7.49988 26.3176 7.91674 26.3723 8.20753 26.149C8.49831 25.9256 8.55305 25.5088 8.3297 25.2177L7.20443 23.7524C6.94373 23.4074 7.00599 22.9093 7.34528 22.6396C7.51571 22.5039 7.72867 22.4442 7.94475 22.471C8.16083 22.4979 8.35253 22.6084 8.48431 22.7817L11.1652 26.3049C11.6928 26.9983 11.9834 27.86 11.9834 28.7313V33.3362C11.9834 33.703 12.2806 34.0002 12.6474 34.0002C13.0142 34.0002 13.3115 33.703 13.3115 33.3362V28.7313C13.3115 27.5713 12.9247 26.424 12.2223 25.5007L9.5411 21.9776Z" fill="#84B739"/>
<path d="M29.6772 22.4435L28.9662 14.9476C28.8575 13.8018 27.9073 12.9375 26.7563 12.9375C25.5325 12.9375 24.5366 13.9333 24.5366 15.1572V21.148C24.5366 21.4323 24.4412 21.713 24.2682 21.9384L24.0728 22.1926C23.9442 21.9706 23.7732 21.7688 23.5616 21.6002C23.1092 21.2404 22.5442 21.0819 21.9707 21.1532C21.3971 21.2248 20.8884 21.5174 20.5385 21.9776L17.8576 25.5007C17.1552 26.424 16.7681 27.5713 16.7681 28.7316V33.3362C16.7681 33.703 17.0657 34.0002 17.4322 34.0002C17.799 34.0002 18.0963 33.703 18.0963 33.3362V28.7313C18.0963 27.86 18.3868 26.9983 18.9144 26.3049L21.5953 22.7817C21.7273 22.6084 21.919 22.4982 22.1351 22.471C22.3512 22.4442 22.5642 22.5039 22.7346 22.6396C23.0736 22.9093 23.1361 23.4074 22.8752 23.7524L21.7502 25.2177C21.5268 25.5088 21.5816 25.9256 21.8723 26.149C22.1631 26.3723 22.58 26.3176 22.8036 26.0268L23.925 24.5661C23.9271 24.5635 23.9289 24.5609 23.9309 24.5583L25.3216 22.7475C25.6718 22.2912 25.8648 21.7234 25.8648 21.148V15.1572C25.8648 14.6656 26.2648 14.2656 26.7563 14.2656C27.2186 14.2656 27.6002 14.6127 27.644 15.0731L28.355 22.5688C28.3856 22.8935 28.2943 23.2152 28.1 23.4717L22.3183 31.0003C22.2293 31.1162 22.181 31.2586 22.181 31.4049V33.3362C22.181 33.703 22.4783 34.0002 22.8451 34.0002C23.2119 34.0002 23.5092 33.703 23.5092 33.3362V31.6304L29.156 24.2772C29.5542 23.7514 29.7394 23.1 29.6772 22.4435Z" fill="#84B739"/>
<path d="M8.64762 7.44426C8.88133 7.60016 9.1978 7.5903 9.42036 7.41884C9.62969 7.25749 9.728 6.97578 9.65745 6.72002C9.58196 6.44583 9.33657 6.24453 9.0515 6.22897C8.76927 6.21367 8.50287 6.38591 8.39937 6.64816C8.28576 6.93636 8.39081 7.2715 8.64762 7.44426Z" fill="#84B739"/>
</svg>
