<svg width="93" height="42" viewBox="0 0 93 42" fill="none" xmlns="http://www.w3.org/2000/svg">
<path d="M44.9995 25.1053H47.3282C48.5059 25.1053 49.3624 25.7129 49.3624 26.7695C49.3624 27.377 49.068 27.8789 48.5594 28.1431V28.1695C49.2821 28.3808 49.6301 29.0412 49.6301 29.7015C49.6301 30.9959 48.5862 31.577 47.3817 31.577H44.9995V25.1053ZM47.3549 27.7468C47.8635 27.7468 48.1579 27.377 48.1579 26.928C48.1579 26.4789 47.8635 26.1355 47.3282 26.1355H46.204V27.7732H47.3549V27.7468ZM47.462 30.5732C48.0776 30.5732 48.4256 30.177 48.4256 29.6223C48.4256 29.094 48.0776 28.6978 47.462 28.6978H46.1772V30.5732H47.462ZM52.8956 26.8223C53.538 26.8223 54.2607 27.0336 54.7157 27.5091L54.1804 28.3015C53.886 28.011 53.4309 27.7997 52.9491 27.7997C52.0926 27.7997 51.5305 28.4336 51.5305 29.2261C51.5305 30.0185 52.0926 30.6789 53.0027 30.6789C53.5112 30.6789 54.0465 30.4147 54.3945 30.0977L54.8495 30.9166C54.3945 31.3921 53.6718 31.6826 52.9224 31.6826C51.3699 31.6826 50.3528 30.5996 50.3528 29.2525C50.3528 27.9317 51.3431 26.8223 52.8956 26.8223ZM57.66 26.8223C58.9983 26.8223 59.7478 27.7997 59.7478 29.0147C59.7478 29.1732 59.721 29.3053 59.721 29.4638H56.4823C56.5626 30.2827 57.1782 30.7053 57.9009 30.7053C58.3827 30.7053 58.8645 30.494 59.2392 30.2034L59.6943 31.0223C59.2125 31.4449 58.463 31.6826 57.7939 31.6826C56.2414 31.6826 55.251 30.5732 55.251 29.2525C55.2778 27.8261 56.2682 26.8223 57.66 26.8223ZM56.3217 25.1053H57.2318V26.1619H56.3217V25.1053ZM58.5701 28.6713C58.5701 28.0638 58.1418 27.694 57.6333 27.694C57.0444 27.694 56.6161 28.0902 56.5091 28.6713H58.5701ZM58.008 25.1053H58.8913V26.1619H58.008V25.1053ZM63.0401 26.928H67.3227V31.577H66.145V27.9053H64.191V31.577H63.0133V26.928H63.0401ZM68.5807 26.928H69.6514V27.2714C69.6514 27.4563 69.6246 27.5883 69.6246 27.5883H69.6514C69.9458 27.0865 70.5347 26.7959 71.1771 26.7959C72.4619 26.7959 73.2649 27.7997 73.2649 29.2261C73.2649 30.7053 72.3548 31.6562 71.1236 31.6562C70.5882 31.6562 70.1064 31.4185 69.7585 30.9959H69.7317C69.7317 30.9959 69.7585 31.1543 69.7585 31.3921V33.3468H68.5807V26.928ZM70.8827 30.7053C71.5251 30.7053 72.0604 30.177 72.0604 29.2789C72.0604 28.4072 71.5786 27.8261 70.9094 27.8261C70.2938 27.8261 69.7317 28.2751 69.7317 29.3053C69.7049 29.9921 70.1332 30.7053 70.8827 30.7053ZM76.5304 26.8223C77.9758 26.8223 79.1267 27.8261 79.1267 29.2525C79.1267 30.6789 77.9758 31.6826 76.5304 31.6826C75.085 31.6826 73.934 30.6789 73.934 29.2525C73.934 27.8261 75.1118 26.8223 76.5304 26.8223ZM76.5304 30.7053C77.3066 30.7053 77.9223 30.1242 77.9223 29.2525C77.9223 28.4072 77.2799 27.7997 76.5304 27.7997C75.7809 27.7997 75.1385 28.3808 75.1385 29.2525C75.1385 30.1242 75.7542 30.7053 76.5304 30.7053ZM80.0636 26.928H81.1878V30.5996H82.6599V26.928H83.7841V30.5996H85.2563V26.928H86.3805V30.5996H87.0496V32.6864H86.0057V31.6034H80.1171V26.928H80.0636ZM89.9136 26.8223C91.252 26.8223 92.0014 27.7997 92.0014 29.0147C92.0014 29.1732 91.9747 29.3053 91.9747 29.4638H88.7359C88.8162 30.2827 89.4318 30.7053 90.1545 30.7053C90.6363 30.7053 91.1181 30.494 91.4929 30.2034L91.9479 31.0223C91.4661 31.4449 90.7166 31.6826 90.0475 31.6826C88.495 31.6826 87.5047 30.5732 87.5047 29.2525C87.5047 27.8261 88.495 26.8223 89.9136 26.8223ZM90.8237 28.6713C90.8237 28.0638 90.3954 27.694 89.8869 27.694C89.298 27.694 88.8697 28.0902 88.7627 28.6713H90.8237Z" fill="#2D3540"/>
<path d="M65.1535 6.56211V19.9017C65.1535 20.113 64.9929 20.2715 64.7788 20.2715H62.0218C61.8077 20.2715 61.6471 20.113 61.6471 19.9017V6.56211C61.6471 6.35079 61.8077 6.1923 62.0218 6.1923H64.7788C64.9929 6.1923 65.1535 6.37721 65.1535 6.56211ZM86.6738 6.1923H83.5956C83.435 6.1923 83.3012 6.29796 83.2477 6.45645L80.8119 14.3545L78.1353 6.45645C78.0817 6.29796 77.9479 6.21871 77.7873 6.21871H75.5925C75.4319 6.21871 75.298 6.32437 75.2445 6.45645L72.5678 14.3545L70.1321 6.45645C70.0786 6.29796 69.9447 6.1923 69.7841 6.1923H66.706C66.5989 6.1923 66.4651 6.24513 66.4116 6.35079C66.3313 6.45645 66.3312 6.56211 66.358 6.66777L70.9083 20.0337C70.9618 20.1922 71.0957 20.2715 71.2563 20.2715H73.7188C73.8794 20.2715 74.0132 20.1658 74.0668 20.0337L76.7166 12.2413L79.3665 20.0337C79.4201 20.1922 79.5539 20.2715 79.7145 20.2715H82.177C82.3376 20.2715 82.4714 20.1658 82.525 20.0337L87.0753 6.66777C87.102 6.56211 87.102 6.43003 87.0217 6.35079C86.9147 6.27154 86.8076 6.1923 86.6738 6.1923ZM91.3311 6.1923H88.5742C88.3601 6.1923 88.1995 6.35079 88.1995 6.56211V19.9017C88.1995 20.113 88.3601 20.2715 88.5742 20.2715H91.3311C91.5453 20.2715 91.7059 20.113 91.7059 19.9017V6.56211C91.7059 6.37721 91.5453 6.1923 91.3311 6.1923ZM60.0679 19.8224C60.2285 20.0073 60.0947 20.2715 59.8538 20.2715H56.4812C56.3474 20.2715 56.2135 20.2186 56.1332 20.113L55.5711 19.4262C54.3934 20.1658 53.0015 20.6149 51.5294 20.6149C47.4073 20.6149 44.0615 17.313 44.0615 13.2451C44.0615 9.17719 47.4073 5.87532 51.5294 5.87532C55.6514 5.87532 58.9972 9.17719 58.9972 13.2451C58.9972 14.6979 58.569 16.0715 57.8195 17.2337L60.0679 19.8224ZM53.3495 16.8375L51.8773 15.0677C51.7167 14.8828 51.8506 14.5922 52.0915 14.5922H55.1964C55.357 14.1696 55.4373 13.6941 55.4373 13.2187C55.4373 11.0262 53.7778 9.12436 51.5026 9.12436C49.2275 9.12436 47.5679 11.0262 47.5679 13.2187C47.5679 15.4111 49.2275 17.2866 51.5026 17.2866C52.1718 17.313 52.7874 17.1545 53.3495 16.8375ZM32.8999 28.0639C33.007 28.8563 32.7661 29.1997 32.4984 29.1997C32.2308 29.1997 31.856 28.8827 31.4545 28.2488C31.053 27.6148 30.8924 26.9016 31.1066 26.5318C31.2404 26.2941 31.5081 26.1884 31.8828 26.3205C32.5519 26.5318 32.8196 27.5884 32.8999 28.0639ZM29.1258 29.7808C29.9556 30.4676 30.1965 31.2865 29.7682 31.8412C29.5273 32.1582 29.1258 32.3167 28.6708 32.3167C28.2158 32.3167 27.734 32.1582 27.4128 31.8676C26.6633 31.2337 26.4492 30.1771 26.931 29.5959C27.1184 29.3582 27.4395 29.2261 27.7875 29.2261C28.2425 29.2525 28.6976 29.4639 29.1258 29.7808ZM27.734 36.3846C31.2672 36.3846 35.0948 37.5732 39.3239 41.2977C39.7521 41.6676 40.3142 41.2185 39.9395 40.743C35.7639 35.5393 31.9096 34.5619 28.0819 33.7167C23.371 32.6865 20.9621 30.0714 19.2758 27.2186C18.9278 26.6375 18.794 26.7431 18.7672 27.4827C18.7404 28.3808 18.794 29.5695 19.0081 30.7318C18.8207 30.7318 18.6334 30.7318 18.446 30.7318C11.7276 30.7318 6.26726 25.3431 6.26726 18.713C6.26726 12.0828 11.7276 6.69419 18.446 6.69419C25.1644 6.69419 30.6248 12.0828 30.6248 18.713C30.6248 19.1884 30.598 19.6639 30.5445 20.113C29.6612 19.9545 27.8946 19.9281 26.6633 20.0337C26.2083 20.0601 26.2618 20.2979 26.6098 20.3507C30.6248 21.0639 33.4085 23.5205 34.0241 28.011C34.0509 28.1167 34.1847 28.1431 34.2382 28.0639C35.8978 25.3431 36.8346 22.1469 36.8346 18.7394C36.8346 8.70171 28.5905 0.565918 18.4192 0.565918C8.24798 0.565918 0.00390625 8.70171 0.00390625 18.7394C0.00390625 28.7771 8.24798 36.9129 18.4192 36.9129C21.1227 36.9129 23.7993 36.3846 27.734 36.3846Z" fill="#FF8C00"/>
</svg>
