<svg width="46" height="50" viewBox="0 0 46 50" fill="none" xmlns="http://www.w3.org/2000/svg">
<path d="M45.0212 30.3557L41.5215 23.4818C41.3548 23.1543 41.0184 22.948 40.6508 22.948H22.9975H5.34396C4.97639 22.948 4.64 23.1543 4.47321 23.4818L0.973521 30.3557C0.819342 30.6587 0.833607 31.0199 1.01123 31.3097C1.18886 31.5995 1.50435 31.776 1.84417 31.776H3.06372V49.0226C3.06372 49.5621 3.50115 49.9997 4.04077 49.9997H41.951C42.4906 49.9997 42.928 49.5621 42.928 49.0226V31.7761H44.1504C44.4903 31.7761 44.8058 31.5995 44.9833 31.3098C45.1612 31.0199 45.1754 30.6587 45.0212 30.3557ZM40.0519 24.9021L42.5567 29.8219H27.0961L24.5912 24.9021H40.0519ZM5.94299 24.9021H21.4036L18.8988 29.8219H3.43813L5.94299 24.9021ZM40.9741 48.0456H23.9745V42.6305C23.9745 42.0909 23.5371 41.6534 22.9975 41.6534C22.4579 41.6534 22.0204 42.0909 22.0204 42.6305V48.0456H5.01802V31.7761H19.4978C19.8654 31.7761 20.2018 31.57 20.3685 31.2424L22.0204 27.9977V33.8567C22.0204 34.3962 22.4579 34.8337 22.9975 34.8337C23.5371 34.8337 23.9745 34.3962 23.9745 33.8567V27.9977L25.6264 31.2424C25.7932 31.57 26.1296 31.7761 26.4972 31.7761H40.9741V48.0456Z" fill="#333333"/>
<path d="M14.6426 42.6951H9.0791C8.53947 42.6951 8.10205 43.1326 8.10205 43.6721C8.10205 44.2116 8.53947 44.6492 9.0791 44.6492H14.6426C15.1822 44.6492 15.6196 44.2116 15.6196 43.6721C15.6196 43.1326 15.1822 42.6951 14.6426 42.6951Z" fill="#333333"/>
<path d="M22.9975 20.0752C28.526 20.0752 33.0239 15.5717 33.0239 10.0363C33.0238 4.50224 28.526 0 22.9975 0C17.4674 0 12.9683 4.50224 12.9683 10.0363C12.9683 15.5717 17.4673 20.0752 22.9975 20.0752ZM22.9975 1.9541C27.4486 1.9541 31.0698 5.57973 31.0698 10.0363C31.0698 14.4943 27.4486 18.1211 22.9975 18.1211C18.5449 18.1211 14.9224 14.4943 14.9224 10.0363C14.9224 5.57973 18.5448 1.9541 22.9975 1.9541Z" fill="#333333"/>
<path d="M18.6148 11.5019L21.2154 13.7063C21.3925 13.8565 21.6167 13.938 21.8472 13.938C21.8749 13.938 21.9028 13.9369 21.9306 13.9345C22.1899 13.9122 22.4296 13.7876 22.5966 13.588L27.4906 7.73876C27.8369 7.32498 27.7821 6.70876 27.3683 6.36239C26.9544 6.01632 26.3383 6.07094 25.992 6.48482L21.7289 11.5798L19.8785 10.0112C19.4669 9.66228 18.8503 9.71289 18.5015 10.1247C18.1524 10.5364 18.2032 11.1529 18.6148 11.5019Z" fill="#333333"/>
<path d="M3.80127 11.0137H8.02857C8.56819 11.0137 9.00562 10.5761 9.00562 10.0366C9.00562 9.49709 8.56819 9.05957 8.02857 9.05957H3.80127C3.26164 9.05957 2.82422 9.49709 2.82422 10.0366C2.82422 10.5761 3.26164 11.0137 3.80127 11.0137Z" fill="#333333"/>
<path d="M3.34564 4.21448L7.57294 6.444C7.71832 6.5207 7.87416 6.55705 8.02795 6.55705C8.37871 6.55705 8.71794 6.3676 8.89303 6.0356C9.14471 5.55831 8.96191 4.96729 8.48462 4.7156L4.25722 2.48608C3.78013 2.23439 3.18892 2.4171 2.93723 2.89448C2.68554 3.37177 2.86835 3.96279 3.34564 4.21448Z" fill="#333333"/>
<path d="M2.93697 17.1778C3.11196 17.51 3.45119 17.6997 3.80224 17.6997C3.95574 17.6997 4.11158 17.6635 4.25677 17.587L8.48407 15.3603C8.96145 15.1088 9.14465 14.5179 8.89316 14.0405C8.64166 13.563 8.05074 13.3799 7.57336 13.6313L3.34606 15.858C2.86867 16.1095 2.68557 16.7004 2.93697 17.1778Z" fill="#333333"/>
<path d="M37.9617 11.0134H42.189C42.7286 11.0134 43.166 10.5759 43.166 10.0364C43.166 9.49685 42.7286 9.05933 42.189 9.05933H37.9617C37.422 9.05933 36.9846 9.49685 36.9846 10.0364C36.9846 10.5759 37.422 11.0134 37.9617 11.0134Z" fill="#333333"/>
<path d="M37.9629 6.55736C38.1165 6.55736 38.2725 6.52101 38.4179 6.44431L42.6452 4.21479C43.1224 3.9631 43.3052 3.37208 43.0536 2.89479C42.8018 2.41751 42.2109 2.23451 41.7336 2.48639L37.5063 4.71591C37.029 4.9676 36.8462 5.55862 37.0979 6.03591C37.273 6.36791 37.612 6.55736 37.9629 6.55736Z" fill="#333333"/>
<path d="M37.5067 15.3596L41.734 17.5863C41.8793 17.6628 42.0351 17.6991 42.1886 17.6991C42.5396 17.6991 42.8788 17.5094 43.0538 17.1771C43.3053 16.6997 43.1221 16.1088 42.6447 15.8573L38.4175 13.6306C37.94 13.3791 37.3491 13.5622 37.0977 14.0398C36.8462 14.5172 37.0294 15.1081 37.5067 15.3596Z" fill="#333333"/>
<path d="M22.9973 37.2666C22.4577 37.2666 22.0203 37.7041 22.0203 38.2437V38.2492C22.0203 38.7887 22.4577 39.2235 22.9973 39.2235C23.5369 39.2235 23.9744 38.7833 23.9744 38.2437C23.9744 37.7042 23.5369 37.2666 22.9973 37.2666Z" fill="#333333"/>
</svg>
