<svg width="20" height="20" viewBox="0 0 20 20" fill="none" xmlns="http://www.w3.org/2000/svg">
<path d="M19.1654 13.9442L17.6156 12.3946C16.5071 11.2859 14.7033 11.2859 13.5946 12.3946L12.5514 13.4377C12.1472 13.8422 11.5112 13.8707 11.0722 13.5043C9.41615 12.1223 7.87577 10.582 6.49378 8.92593C6.12742 8.48694 6.15611 7.85095 6.56046 7.44675L7.60355 6.4035C8.7121 5.29495 8.7121 3.49106 7.60355 2.38251L6.05387 0.832672C5.51691 0.295715 4.8028 0 4.04337 0C3.28394 0 2.56999 0.295715 2.03288 0.832672C0.874734 1.99097 0.160775 3.52768 0.0226828 5.15991C-0.115409 6.79199 0.3303 8.42682 1.27757 9.76318C3.74308 13.2413 6.75669 16.255 10.2349 18.7206C11.412 19.5549 12.8204 20.0002 14.2547 20C14.4488 20 14.6437 19.9918 14.8382 19.9754C16.4704 19.8373 18.0071 19.1234 19.1653 17.9652C19.7024 17.4283 19.9981 16.7142 19.9981 15.9547C19.9981 15.1953 19.7024 14.4812 19.1654 13.9442ZM10.6867 18.0832C7.28068 15.6688 4.32932 12.7174 1.91493 9.31137C0.170998 6.85104 0.452981 3.51761 2.5854 1.38519C2.9748 0.995789 3.49268 0.78125 4.04337 0.78125C4.59422 0.78125 5.11195 0.995789 5.5015 1.38519L7.05119 2.93488C7.44074 3.32443 7.65513 3.84216 7.65513 4.39301C7.65513 4.94385 7.44059 5.46158 7.05119 5.85114L6.98679 5.91553L4.44087 3.3696C4.28828 3.21716 4.04093 3.21716 3.88834 3.3696C3.73591 3.52219 3.73591 3.76953 3.88834 3.92212L6.43427 6.46805L6.00794 6.89423C5.31596 7.58636 5.26682 8.67508 5.89396 9.42657C7.30586 11.1186 8.87965 12.6923 10.5715 14.1042C11.3232 14.7313 12.4118 14.6823 13.1039 13.9902L13.5302 13.564L17.9527 17.9865C15.8349 19.5807 12.9058 19.6561 10.6867 18.0832ZM18.6129 17.4127C18.591 17.4347 18.5687 17.4562 18.5465 17.4777C18.5391 17.4689 18.5314 17.4602 18.523 17.4518L14.0826 13.0113L14.1471 12.9469C14.5365 12.5575 15.0543 12.343 15.6051 12.343C16.156 12.343 16.6737 12.5575 17.0632 12.9469L18.6129 14.4968C19.0025 14.8862 19.2169 15.4041 19.2169 15.9547C19.2169 16.5056 19.0023 17.0233 18.6129 17.4127Z" fill="white"/>
<path d="M3.09766 2.18677C2.99496 2.18677 2.89426 2.22812 2.82162 2.30121C2.74884 2.37384 2.70703 2.4747 2.70703 2.57739C2.70703 2.68008 2.74884 2.78094 2.82162 2.85358C2.89426 2.92621 2.99496 2.96802 3.09766 2.96802C3.20081 2.96802 3.30121 2.92621 3.37384 2.85358C3.44662 2.78094 3.48828 2.68008 3.48828 2.57739C3.48828 2.4747 3.44662 2.37384 3.37384 2.30121C3.30121 2.22812 3.2005 2.18677 3.09766 2.18677Z" fill="white"/>
<path d="M8.52902 14.3714C7.72885 13.6595 6.95218 12.902 6.22082 12.1202C6.07342 11.9625 5.82623 11.9543 5.66876 12.1017C5.51113 12.2491 5.50289 12.4963 5.65029 12.6538C6.39798 13.4532 7.19174 14.2274 8.00976 14.9552C8.08408 15.0215 8.17685 15.054 8.26917 15.054C8.37689 15.054 8.48401 15.0097 8.56122 14.9231C8.70465 14.7618 8.69016 14.5149 8.52902 14.3714Z" fill="white"/>
<path d="M5.20263 10.9871C5.06225 10.8234 4.81551 10.8045 4.65179 10.945C4.48821 11.0856 4.46929 11.3321 4.60983 11.4959L4.61623 11.5033C4.69344 11.5934 4.80285 11.6398 4.91302 11.6398C5.00289 11.6398 5.09338 11.6088 5.16693 11.5456C5.33081 11.4052 5.34973 11.1586 5.20934 10.9948L5.20263 10.9871Z" fill="white"/>
</svg>
