<svg width="18" height="20" viewBox="0 0 18 20" fill="none" xmlns="http://www.w3.org/2000/svg">
<path d="M15.5625 2.5H12.125V1.875C12.125 0.839453 11.2855 0 10.25 0H7.75C6.71445 0 5.875 0.839453 5.875 1.875V2.5H2.4375C1.57457 2.5 0.875 3.19957 0.875 4.0625V5.3125C0.875 5.6577 1.1548 5.9375 1.5 5.9375H16.5C16.8452 5.9375 17.125 5.6577 17.125 5.3125V4.0625C17.125 3.19957 16.4254 2.5 15.5625 2.5ZM7.125 1.875C7.125 1.53047 7.40547 1.25 7.75 1.25H10.25C10.5945 1.25 10.875 1.53047 10.875 1.875V2.5H7.125V1.875Z" fill="#EE554B"/>
<path d="M2.05859 7.1875C1.94706 7.1875 1.8582 7.2807 1.86351 7.39211L2.37913 18.2141C2.42679 19.2156 3.24944 20 4.25179 20H13.7432C14.7455 20 15.5682 19.2156 15.6158 18.2141L16.1315 7.39211C16.1368 7.2807 16.0479 7.1875 15.9364 7.1875H2.05859ZM11.4975 8.75C11.4975 8.40469 11.7772 8.125 12.1225 8.125C12.4678 8.125 12.7475 8.40469 12.7475 8.75V16.875C12.7475 17.2203 12.4678 17.5 12.1225 17.5C11.7772 17.5 11.4975 17.2203 11.4975 16.875V8.75ZM8.37249 8.75C8.37249 8.40469 8.65218 8.125 8.99749 8.125C9.3428 8.125 9.62249 8.40469 9.62249 8.75V16.875C9.62249 17.2203 9.3428 17.5 8.99749 17.5C8.65218 17.5 8.37249 17.2203 8.37249 16.875V8.75ZM5.24749 8.75C5.24749 8.40469 5.52718 8.125 5.87249 8.125C6.2178 8.125 6.49749 8.40469 6.49749 8.75V16.875C6.49749 17.2203 6.2178 17.5 5.87249 17.5C5.52718 17.5 5.24749 17.2203 5.24749 16.875V8.75Z" fill="#EE554B"/>
</svg>
