<svg width="40" height="40" viewBox="0 0 40 40" fill="none" xmlns="http://www.w3.org/2000/svg">
<g clip-path="url(#clip0)">
<path d="M30.6654 13.385C29.872 13.733 29.0267 13.9637 28.1454 14.0757C29.052 13.5343 29.744 12.6837 30.0694 11.6583C29.224 12.1623 28.2907 12.5183 27.296 12.717C26.4934 11.8623 25.3494 11.333 24.1014 11.333C21.68 11.333 19.7307 13.2983 19.7307 15.7077C19.7307 16.0543 19.76 16.3877 19.832 16.705C16.196 16.5277 12.9787 14.785 10.8174 12.1303C10.44 12.785 10.2187 13.5343 10.2187 14.341C10.2187 15.8557 10.9987 17.1983 12.1614 17.9757C11.4587 17.9623 10.7694 17.7583 10.1854 17.437C10.1854 17.4503 10.1854 17.4677 10.1854 17.485C10.1854 19.6103 11.7014 21.3757 13.6894 21.7823C13.3334 21.8797 12.9454 21.9263 12.5427 21.9263C12.2627 21.9263 11.98 21.9103 11.7147 21.8517C12.2814 23.5837 13.8894 24.857 15.8014 24.8983C14.3134 26.0623 12.424 26.7637 10.3787 26.7637C10.02 26.7637 9.67603 26.7477 9.33203 26.7037C11.2694 27.953 13.5654 28.6663 16.0414 28.6663C24.0894 28.6663 28.4894 21.9997 28.4894 16.221C28.4894 16.0277 28.4827 15.841 28.4734 15.6557C29.3414 15.0397 30.0707 14.2703 30.6654 13.385Z" fill="#84B739"/>
</g>
<path d="M39.25 20C39.25 30.6315 30.6315 39.25 20 39.25C9.36852 39.25 0.75 30.6315 0.75 20C0.75 9.36852 9.36852 0.75 20 0.75C30.6315 0.75 39.25 9.36852 39.25 20Z" stroke="#84B739" stroke-width="1.5"/>
<defs>
<clipPath id="clip0">
<rect width="21.3333" height="21.3333" fill="white" transform="translate(9.33203 9.33301)"/>
</clipPath>
</defs>
</svg>
